<svg xmlns="http://www.w3.org/2000/svg" width="66.76mm" height="18.39mm" viewBox="0 0 189.25 52.14"><defs><style>.cls-1{fill:#fff;}</style></defs><title>Asset 1</title><g id="Layer_2" data-name="Layer 2"><g id="Layer_1-2" data-name="Layer 1"><rect class="cls-1" width="189.25" height="52.14" rx="10.12" ry="10.12"/><path d="M52.45,20.5c-.13-1.55-1-2-1.65-2-1,0-1.55.65-1.55,1.78,0,3.08,6.31,4.56,6.31,9.47,0,3-2,4.64-4.91,4.64s-4.53-2.31-4.66-5l3-.43c.13,1.83.85,2.73,1.85,2.73A1.6,1.6,0,0,0,52.6,30c0-3.58-6.31-4.54-6.31-9.72,0-2.88,1.75-4.51,4.81-4.51,2.53,0,4,1.83,4.31,4.39Z"/><path d="M57.92,34.13V16H61V23.4h3.31V16h3.11V34.13H64.34v-8H61v8Z"/><path d="M70.46,20.42c0-2.56,1.5-4.64,4.76-4.64S80,17.87,80,20.42v9.32c0,2.56-1.5,4.64-4.76,4.64s-4.76-2.08-4.76-4.64Zm3.11,9.25c0,1.35.4,2,1.65,2s1.65-.65,1.65-2V20.5c0-1.35-.4-2-1.65-2s-1.65.65-1.65,2Z"/><path d="M83,34.13V16h4.46c3.83,0,5.61,1.48,5.61,5.34s-1.78,5.34-5.61,5.34H86.1v7.42Zm3.11-10h1.2c2,0,2.66-.63,2.66-2.78s-.63-2.78-2.66-2.78H86.1Z"/><path d="M101.1,34.13V16H104l3.78,10.35h0V16h2.81V34.13h-2.71l-4-11.3h0v11.3Z"/><path d="M113.63,20.42c0-2.56,1.5-4.64,4.76-4.64s4.76,2.08,4.76,4.64v9.32c0,2.56-1.5,4.64-4.76,4.64s-4.76-2.08-4.76-4.64Zm3.11,9.25c0,1.35.4,2,1.65,2s1.65-.65,1.65-2V20.5c0-1.35-.4-2-1.65-2s-1.65.65-1.65,2Z"/><path d="M131.55,16h2.56l2.1,11.53h0L138,16h2.91l-3.18,18.09h-2.61l-2.26-12h0l-2.1,12H128.1L124.66,16h2.91l1.9,11.53h0Z"/></g></g></svg>