<svg id="english" xmlns="http://www.w3.org/2000/svg" xmlns:xlink="http://www.w3.org/1999/xlink" viewBox="0 0 320 50"><defs><style>.cls-1{fill:none;}.cls-2{clip-path:url(#clip-path);}.cls-3{fill:#fff;}</style><clipPath id="clip-path"><rect class="cls-1" x="38.84" y="7" width="43.25" height="25.05"/></clipPath></defs><title>320x50img1</title><g class="cls-2"><path class="cls-3" d="M77.31,20.6a.6.6,0,0,0-.83,0c-.22.15-.56.17-.37-.66a16.2,16.2,0,0,1,1-2.27c.13-.32,0-.72-.62-.78a1.07,1.07,0,0,0-.72.25,1.63,1.63,0,0,0-1.32-.56,4.43,4.43,0,0,0-3.35,2.1,7.12,7.12,0,0,1-1.87,1.92.74.74,0,0,1-.61.19c-.35-.12-.24-.59.46-1.41,1.14-1.29,1.46-2.27.81-2.85a1.76,1.76,0,0,0-2-.08,5.34,5.34,0,0,0-1.67,1.21c1-2.17,2.35-4.68,3.23-6.11.4-.65.39-1.22-.17-1.32s-1,.17-1.4,1c-.95,1.94-1.71,3.68-2.61,5.62v0a9.94,9.94,0,0,1-3.1,3.79.81.81,0,0,1-.6.17c-.36-.12-.27-.62.45-1.4,1.13-1.32,1.45-2.3.8-2.86a1.78,1.78,0,0,0-1.94-.09,6.13,6.13,0,0,0-2,1.51c.43-.65.4-1.25,0-1.4s-.83.05-1.37,1.5a4.6,4.6,0,0,1-2,2.55c-.23.11-.65.16-.47-.65a19.69,19.69,0,0,1,1-2.29c.14-.3,0-.71-.59-.76a.92.92,0,0,0-.73.23,1.76,1.76,0,0,0-1.34-.57A4.68,4.68,0,0,0,49.41,20a1.8,1.8,0,0,1-1.3.73c-1.06,0-1.63-.9-1.87-2,2.36-.46,4.61-1.8,5-3.87s-.93-3.67-3.36-3.62a7.58,7.58,0,0,0-6.12,3.51c-.37.71,0,1.27.46,1.24a1.28,1.28,0,0,0,1.17-.92,4.06,4.06,0,0,1,3.75-2.58,2,2,0,0,1,2.38,2.24c-.18,1.61-1.78,2.55-3.42,3v-.11c0-.48,0-.83-.37-.95a.43.43,0,0,0-.28-.39c-.27-.14-.62-.1-1,.37-1.13,1.77-1.69,2.59-2.81,4.06-.5.67-.53,1.36,0,1.53s1-.07,1.45-.76c.56-.91,1-1.78,1.45-2.52l.34,0c.07,1.49.81,3.52,2.85,3.18a3.2,3.2,0,0,0,1.66-.88c.29.82,1.27,1,2.26.56a6.15,6.15,0,0,0,1.95-1.52c-.61,1.52.55,2.65,2.33,1.2l.21-.19c-.88,1.87-2,4-2.65,5.38-.44,1-.25,1.41.33,1.45s.9-.24,1.25-1.06c.48-1.11,1.37-3.52,2.78-6.27s3.1-3.28,3.43-3.05-.14.81-.91,1.8-.81,1.95-.4,2.31,1.44.55,2.58-.36a9.1,9.1,0,0,0,.81-.76c-.38.72-.5,1.26,0,1.45a.77.77,0,0,0,1-.46,11.13,11.13,0,0,1,1.84-2.83c1-1.08,1.93-1.31,2.13-1.14.36.22-.15.8-.92,1.78s-.82,2-.39,2.33,1.43.54,2.58-.39a5,5,0,0,0,.77-.7c.07,1.22,1.21,1.56,2.32,1a5.75,5.75,0,0,0,2-1.5c-.51,1.59.93,2.53,2.4,1.22.36-.32.43-.76.26-.91M52,20.41c-.58.38-1.35.22-1-.84A2.19,2.19,0,0,1,52.72,18a1,1,0,0,1,1,.63A5.33,5.33,0,0,1,52,20.41m21.06,0c-.58.36-1.36.21-1-.84A2.17,2.17,0,0,1,73.73,18a1.22,1.22,0,0,1,1,.67A6.1,6.1,0,0,1,73,20.43"/><path class="cls-3" d="M79.48,20.24a.89.89,0,0,0-.88.89.91.91,0,0,0,.87.86.86.86,0,0,0,.86-.87.88.88,0,0,0-.85-.88"/></g><path class="cls-3" d="M34.27,34.78v-.5c0-.54-.25-.77-.53-.77-.44,0-.59.23-.59.71v3.24c0,.47.15.71.59.71s.53-.24.53-.65v-.77h1.1v.73a1.66,1.66,0,0,1-3.31,0V34.19a1.54,1.54,0,0,1,1.68-1.64,1.59,1.59,0,0,1,1.63,1.76v.47Z"/><path class="cls-3" d="M36.48,34.19a1.68,1.68,0,0,1,3.36,0v3.29a1.68,1.68,0,0,1-3.36,0Zm1.1,3.27c0,.47.14.71.58.71s.59-.24.59-.71V34.22c0-.48-.15-.71-.59-.71s-.58.23-.58.71Z"/><path class="cls-3" d="M42,39H40.9V32.64h1.54c1.23,0,1.86.53,1.86,1.89,0,1-.4,1.44-.77,1.61L44.46,39H43.35l-.78-2.64-.57,0Zm0-3.52h.39c.59,0,.81-.22.81-1s-.22-1-.81-1H42Z"/><path class="cls-3" d="M45.33,39V32.64h2.93v1H46.42v1.64h1.42v1H46.42v1.88h2v1Z"/><path class="cls-3" d="M53.43,34.78v-.5c0-.54-.25-.77-.53-.77-.44,0-.59.23-.59.71v3.24c0,.47.15.71.59.71s.53-.24.53-.65v-.77h1.1v.73a1.66,1.66,0,0,1-3.31,0V34.19a1.54,1.54,0,0,1,1.68-1.64,1.59,1.59,0,0,1,1.63,1.76v.47Z"/><path class="cls-3" d="M55.64,34.19a1.68,1.68,0,0,1,3.36,0v3.29a1.68,1.68,0,0,1-3.36,0Zm1.1,3.27c0,.47.14.71.58.71s.59-.24.59-.71V34.22c0-.48-.15-.71-.59-.71s-.58.23-.58.71Z"/><path class="cls-3" d="M60,39V32.64h1.1v5.44h1.72v1Z"/><path class="cls-3" d="M63.45,39V32.64h1.1v5.44h1.72v1Z"/><path class="cls-3" d="M67,39V32.64h2.93v1H68v1.64h1.42v1H68v1.88h2v1Z"/><path class="cls-3" d="M73.09,34.78v-.5c0-.54-.25-.77-.53-.77-.45,0-.59.23-.59.71v3.24c0,.47.14.71.59.71s.53-.24.53-.65v-.77h1.09v.73a1.52,1.52,0,0,1-1.62,1.64,1.54,1.54,0,0,1-1.69-1.64V34.19a1.54,1.54,0,0,1,1.69-1.64,1.59,1.59,0,0,1,1.62,1.76v.47Z"/><path class="cls-3" d="M75.93,33.6H74.87v-1h3.22v1H77V39h-1.1Z"/><path class="cls-3" d="M78.89,39V32.64H80V39Z"/><path class="cls-3" d="M81.2,34.19a1.68,1.68,0,0,1,3.36,0v3.29a1.68,1.68,0,0,1-3.36,0Zm1.09,3.27c0,.47.15.71.59.71s.58-.24.58-.71V34.22c0-.48-.14-.71-.58-.71s-.59.23-.59.71Z"/><path class="cls-3" d="M85.62,39V32.64h1L88,36.3h0V32.64h1V39H88l-1.4-4h0v4Z"/></svg>