<svg id="english" xmlns="http://www.w3.org/2000/svg" viewBox="0 0 320 50"><defs><style>.cls-1{fill:#fff;}</style></defs><title>320x50img2</title><path class="cls-1" d="M36.53,12.08h-1.2V11H39v1.08h-1.2v6.14H36.53Z"/><path class="cls-1" d="M39.7,18.22V11h1.24v2.94h1.32V11H43.5v7.22H42.26V15H40.94v3.2Z"/><path class="cls-1" d="M44.7,18.22V11H48v1.08H45.94v1.86h1.6V15h-1.6v2.12h2.22v1.08Z"/><path class="cls-1" d="M53.62,12.78c0-.62-.38-.8-.66-.8s-.62.26-.62.71c0,1.23,2.52,1.82,2.52,3.78a1.77,1.77,0,0,1-2,1.85,1.9,1.9,0,0,1-1.86-2l1.18-.17c.05.73.34,1.09.74,1.09a.64.64,0,0,0,.72-.66c0-1.43-2.52-1.81-2.52-3.88a1.69,1.69,0,0,1,1.92-1.8,1.73,1.73,0,0,1,1.72,1.75Z"/><path class="cls-1" d="M56.52,12.08h-1.2V11H59v1.08h-1.2v6.14H56.52Z"/><path class="cls-1" d="M60.23,18.22H59L60.36,11H61.9l1.33,7.22H62l-.22-1.6H60.45Zm.4-2.68h1l-.49-3.1h0Z"/><path class="cls-1" d="M64,18.22V11H65.1l1.51,4.13h0V11h1.12v7.22H66.67l-1.58-4.51h0v4.51Z"/><path class="cls-1" d="M69,11h1.84c1.28,0,2,.7,2,2.18V16c0,1.48-.68,2.18-2,2.18H69Zm1.24,6.2h.43c.66,0,.89-.25.89-1V13c0-.76-.23-1-.89-1h-.43Z"/><path class="cls-1" d="M74.67,18.22h-1.2L74.8,11h1.54l1.33,7.22h-1.2l-.22-1.6H74.89Zm.4-2.68h1l-.49-3.1h0Z"/><path class="cls-1" d="M79.63,18.22H78.39V11h1.74c1.39,0,2.1.59,2.1,2.13,0,1.16-.45,1.63-.87,1.82l1,3.27H81.15l-.88-3a6,6,0,0,1-.64,0Zm0-4h.44c.67,0,.92-.25.92-1.11S80.74,12,80.07,12h-.44Z"/><path class="cls-1" d="M83.39,11h1.84c1.28,0,2,.7,2,2.18V16c0,1.48-.68,2.18-2,2.18H83.39Zm1.24,6.2h.43c.66,0,.89-.25.89-1V13c0-.76-.23-1-.89-1h-.43Z"/><path class="cls-1" d="M29.22,28.22V21h1.24v7.22Z"/><path class="cls-1" d="M31.83,28.22V21H33l1.51,4.13h0V21h1.12v7.22H34.55L33,23.71h0v4.51Z"/><path class="cls-1" d="M39.05,28.22V21h1.78c1.53,0,2.24.59,2.24,2.13s-.71,2.13-2.24,2.13h-.54v3Zm1.24-4h.48c.81,0,1.06-.25,1.06-1.11S41.58,22,40.77,22h-.48Z"/><path class="cls-1" d="M44.05,28.22V21h3.32v1.08H45.29v1.86h1.6V25h-1.6v2.12h2.22v1.08Z"/><path class="cls-1" d="M49.73,28.22H48.49V21h1.74c1.39,0,2.1.59,2.1,2.13,0,1.16-.45,1.63-.87,1.82l1,3.27H51.25l-.88-3a6,6,0,0,1-.64,0Zm0-4h.44c.67,0,.92-.25.92-1.11S50.84,22,50.17,22h-.44Z"/><path class="cls-1" d="M53.49,28.22V21H57v1.08H54.73v1.86h1.66V25H54.73v3.2Z"/><path class="cls-1" d="M57.93,22.75a1.9,1.9,0,0,1,3.8,0v3.72a1.9,1.9,0,0,1-3.8,0Zm1.24,3.69c0,.54.16.8.66.8s.66-.26.66-.8V22.78c0-.54-.16-.8-.66-.8s-.66.26-.66.8Z"/><path class="cls-1" d="M64.17,28.22H62.93V21h1.74c1.39,0,2.1.59,2.1,2.13,0,1.16-.45,1.63-.87,1.82l1,3.27H65.69l-.88-3a6,6,0,0,1-.64,0Zm0-4h.44c.67,0,.92-.25.92-1.11S65.28,22,64.61,22h-.44Z"/><path class="cls-1" d="M72.9,21v7.22H71.82V22.58h0l-1.12,5.64h-.6L69,22.58h0v5.64H67.86V21h1.63l.88,4.22h0L71.27,21Z"/><path class="cls-1" d="M74.76,28.22h-1.2L74.89,21h1.54l1.33,7.22h-1.2l-.22-1.6H75Zm.4-2.68h1l-.49-3.1h0Z"/><path class="cls-1" d="M78.48,28.22V21h1.15l1.51,4.13h0V21h1.12v7.22H81.2l-1.58-4.51h0v4.51Z"/><path class="cls-1" d="M86,23.41v-.56c0-.61-.28-.87-.6-.87-.5,0-.66.26-.66.8v3.66c0,.54.16.8.66.8s.6-.26.6-.73v-.87h1.24v.83a1.87,1.87,0,0,1-3.74,0V22.75a1.73,1.73,0,0,1,1.9-1.85,1.79,1.79,0,0,1,1.84,2v.53Z"/><path class="cls-1" d="M88.48,28.22V21H91.8v1.08H89.72v1.86h1.6V25h-1.6v2.12h2.22v1.08Z"/><path class="cls-1" d="M94,28.22l-.69,1.24H92.8l.49-1.24h-.45V27H94Z"/><path class="cls-1" d="M25.91,33.41v-.56c0-.61-.28-.87-.6-.87-.5,0-.66.26-.66.8v3.66c0,.54.16.8.66.8s.6-.26.6-.73v-.87h1.24v.83a1.72,1.72,0,0,1-1.84,1.85,1.73,1.73,0,0,1-1.9-1.85V32.75a1.73,1.73,0,0,1,1.9-1.85,1.79,1.79,0,0,1,1.84,2v.53Z"/><path class="cls-1" d="M28.41,32.75a1.73,1.73,0,0,1,1.9-1.85,1.73,1.73,0,0,1,1.9,1.85v3.72a1.73,1.73,0,0,1-1.9,1.85,1.73,1.73,0,0,1-1.9-1.85Zm1.24,3.69c0,.54.16.8.66.8s.66-.26.66-.8V32.78c0-.54-.16-.8-.66-.8s-.66.26-.66.8Z"/><path class="cls-1" d="M38.38,31v7.22H37.3V32.58h0l-1.12,5.64h-.6l-1.12-5.64h0v5.64H33.34V31H35l.88,4.22h0L36.75,31Z"/><path class="cls-1" d="M39.52,38.22V31H43v1.08H40.76v1.86h1.66V35H40.76v3.2Z"/><path class="cls-1" d="M44,32.75a1.9,1.9,0,0,1,3.8,0v3.72a1.9,1.9,0,0,1-3.8,0Zm1.24,3.69c0,.54.16.8.66.8s.66-.26.66-.8V32.78c0-.54-.16-.8-.66-.8s-.66.26-.66.8Z"/><path class="cls-1" d="M50.2,38.22H49V31H50.7c1.39,0,2.1.59,2.1,2.13,0,1.16-.45,1.63-.87,1.82l1,3.27H51.72l-.88-3a6,6,0,0,1-.64,0Zm0-4h.44c.67,0,.92-.25.92-1.11S51.31,32,50.64,32H50.2Z"/><path class="cls-1" d="M54.68,32.08h-1.2V31h3.64v1.08h-1.2v6.14H54.68Z"/><path class="cls-1" d="M60.79,38.22h-1.2L60.92,31h1.54l1.33,7.22h-1.2l-.22-1.6H61Zm.4-2.68h1l-.49-3.1h0Z"/><path class="cls-1" d="M64.51,38.22V31h1.15l1.51,4.13h0V31h1.12v7.22H67.23l-1.58-4.51h0v4.51Z"/><path class="cls-1" d="M69.51,31h1.84c1.28,0,2,.7,2,2.18V36c0,1.48-.68,2.18-2,2.18H69.51Zm1.24,6.2h.43c.66,0,.89-.25.89-1V33c0-.76-.23-1-.89-1h-.43Z"/><path class="cls-1" d="M79.26,31h1.22L79,38.22H77.73L76.22,31h1.22l.9,5h0Z"/><path class="cls-1" d="M81.52,38.22h-1.2L81.65,31h1.54l1.33,7.22h-1.2l-.22-1.6H81.74Zm.4-2.68h1l-.49-3.1h0Z"/><path class="cls-1" d="M85.18,38.22V31h1.24v6.14h2v1.08Z"/><path class="cls-1" d="M89.13,31h1.24v5.45c0,.53.21.79.66.79s.66-.26.66-.79V31h1.23v5.4a1.9,1.9,0,1,1-3.79,0Z"/><path class="cls-1" d="M94.13,38.22V31h3.32v1.08H95.37v1.86H97V35h-1.6v2.12h2.21v1.08Z"/><path class="cls-1" d="M98.49,38.22V37h1.18v1.18Z"/></svg>