<?xml version="1.0" encoding="utf-8"?>
<!-- Generator: Adobe Illustrator 21.1.0, SVG Export Plug-In . SVG Version: 6.00 Build 0)  -->
<svg version="1.1" id="Layer_1" xmlns="http://www.w3.org/2000/svg" xmlns:xlink="http://www.w3.org/1999/xlink" x="0px" y="0px"
	 viewBox="0 0 104.5 38.4" style="enable-background:new 0 0 104.5 38.4;" xml:space="preserve">
<style type="text/css">
	.st0{fill:#FFFFFF;}
</style>
<title>txt1</title>
<g>
	<path class="st0" d="M4.2,16.2c-0.1-1-0.6-1.3-1.1-1.3c-0.6,0-1,0.4-1,1.2c0,2,4.1,3,4.1,6.1c0,1.9-1.3,3-3.2,3
		c-1.9,0-2.9-1.5-3-3.3l1.9-0.3c0.1,1.2,0.6,1.8,1.2,1.8c0.7,0,1.2-0.4,1.2-1.1c0-2.3-4.1-2.9-4.1-6.3c0-1.9,1.1-2.9,3.1-2.9
		c1.6,0,2.6,1.2,2.8,2.8L4.2,16.2z"/>
	<path class="st0" d="M8.9,25.1H7l2.2-11.7h2.5l2.2,11.7h-2l-0.4-2.6H9.3L8.9,25.1z M9.6,20.7h1.6l-0.8-5h0L9.6,20.7z"/>
	<path class="st0" d="M18.5,13.3h2L18,25.1h-2l-2.5-11.7h2l1.5,8.1h0L18.5,13.3z"/>
	<path class="st0" d="M21.6,25.1V13.3H27v1.8h-3.4v3h2.6v1.8h-2.6v3.4h3.6v1.8H21.6z"/>
	<path class="st0" d="M32.4,13.3h2v8.9c0,0.9,0.3,1.3,1.1,1.3s1.1-0.4,1.1-1.3v-8.9h2v8.8c0,2-1.2,3.1-3.1,3.1s-3.1-1.1-3.1-3.1
		V13.3z"/>
	<path class="st0" d="M40.5,25.1V13.3h2.9c2.5,0,3.6,1,3.6,3.5s-1.2,3.5-3.6,3.5h-0.9v4.8H40.5z M42.6,18.6h0.8
		c1.3,0,1.7-0.4,1.7-1.8S44.7,15,43.3,15h-0.8V18.6z"/>
	<path class="st0" d="M53.5,15.1h-2v-1.8h5.9v1.8h-2v10h-2V15.1z"/>
	<path class="st0" d="M58.6,16.2c0-1.7,1-3,3.1-3s3.1,1.3,3.1,3v6.1c0,1.7-1,3-3.1,3s-3.1-1.3-3.1-3V16.2z M60.6,22.2
		c0,0.9,0.3,1.3,1.1,1.3s1.1-0.4,1.1-1.3v-6c0-0.9-0.3-1.3-1.1-1.3s-1.1,0.4-1.1,1.3V22.2z"/>
	<path class="st0" d="M71.9,21.7v0.8c0,0.7,0.3,1.2,0.9,1.2c0.6,0,1-0.4,1-1.4v-0.9c0-1.3-0.5-1.7-1.7-1.7v-1.6
		c1.2,0,1.6-0.4,1.6-1.8c0-1.1-0.2-1.6-0.8-1.6C72.4,14.8,72,15,72,16v0.5h-1.8v-0.6c0-1.6,1-2.7,2.7-2.7c1.7,0,2.6,1.4,2.6,3
		c0,1.4-0.2,2.1-1.3,2.7c1.2,0.6,1.4,1.3,1.4,2.9c0,2.3-0.9,3.4-2.9,3.4c-1.7,0-2.7-0.8-2.7-2.9v-0.7H71.9z"/>
	<path class="st0" d="M77.3,16.4c0-2.2,0.8-3.2,2.9-3.2c2,0,2.9,1,2.9,3.2V22c0,2.2-0.8,3.2-2.9,3.2c-2,0-2.9-1-2.9-3.2V16.4z
		 M81.2,15.9c0-0.8-0.3-1.1-0.9-1.1c-0.6,0-0.9,0.4-0.9,1.1v6.6c0,0.8,0.3,1.1,0.9,1.1c0.6,0,0.9-0.4,0.9-1.1V15.9z"/>
	<path class="st0" d="M87.3,13.3c1.5,0,2.7,1.2,2.7,2.7c0,1.5-1.2,2.7-2.7,2.7s-2.7-1.2-2.7-2.7C84.6,14.5,85.8,13.3,87.3,13.3z
		 M87.3,17.4c0.7,0,1.4-0.6,1.4-1.4c0-0.7-0.6-1.4-1.4-1.4s-1.4,0.6-1.4,1.4C85.9,16.7,86.5,17.4,87.3,17.4z M94.1,13.2l-6.7,12.1
		h-1.2l6.7-12.1H94.1z M93,19.7c1.5,0,2.7,1.2,2.7,2.7c0,1.5-1.2,2.7-2.7,2.7c-1.5,0-2.7-1.2-2.7-2.7C90.3,20.9,91.5,19.7,93,19.7z
		 M93,23.8c0.7,0,1.4-0.6,1.4-1.4c0-0.7-0.6-1.4-1.4-1.4c-0.7,0-1.4,0.6-1.4,1.4C91.6,23.1,92.2,23.8,93,23.8z"/>
</g>
</svg>
