<svg id="english" xmlns="http://www.w3.org/2000/svg" xmlns:xlink="http://www.w3.org/1999/xlink" viewBox="0 0 320 50"><defs><style>.cls-1{fill:none;}.cls-2{stroke:#000;stroke-width:1.28px;}.cls-3{fill:#fff;}.cls-4{clip-path:url(#clip-path);}</style><clipPath id="clip-path"><rect class="cls-1" x="8" y="14.16" width="58" height="24.57"/></clipPath></defs><title>320x50img3</title><rect class="cls-2" x="77.01" y="3.97" width="14.94" height="41.05" transform="translate(59.87 108.95) rotate(-89.92)"/><path class="cls-3" d="M73.1,23.5c0-.42-.25-.54-.44-.54s-.42.17-.42.48c0,.82,1.7,1.22,1.7,2.54a1.2,1.2,0,0,1-1.32,1.25,1.28,1.28,0,0,1-1.25-1.35l.79-.11c0,.49.23.73.5.73a.43.43,0,0,0,.48-.45c0-1-1.69-1.21-1.69-2.61a1.14,1.14,0,0,1,1.29-1.21,1.17,1.17,0,0,1,1.16,1.18Z"/><path class="cls-3" d="M74.54,27.16V22.3h.84v2h.88v-2h.84v4.86h-.84V25h-.88v2.16Z"/><path class="cls-3" d="M77.88,23.48a1.28,1.28,0,0,1,2.55,0V26a1.28,1.28,0,0,1-2.55,0ZM78.71,26c0,.36.11.54.44.54s.45-.18.45-.54V23.5c0-.37-.11-.54-.45-.54s-.44.17-.44.54Z"/><path class="cls-3" d="M81.2,27.16V22.3h1.2c1,0,1.51.4,1.51,1.43s-.48,1.44-1.51,1.44H82v2ZM82,24.48h.32c.55,0,.71-.17.71-.75s-.16-.74-.71-.74H82Z"/><path class="cls-3" d="M86,27.16V22.3h.78l1,2.78h0V22.3h.76v4.86h-.73l-1.06-3h0v3Z"/><path class="cls-3" d="M89.34,23.48a1.28,1.28,0,0,1,2.55,0V26a1.28,1.28,0,0,1-2.55,0ZM90.17,26c0,.36.11.54.45.54s.44-.18.44-.54V23.5c0-.37-.11-.54-.44-.54s-.45.17-.45.54Z"/><path class="cls-3" d="M94.12,22.3h.68l.57,3.1h0l.47-3.1h.78l-.86,4.86h-.7L94.47,24h0l-.56,3.21h-.7l-.92-4.86h.78l.51,3.1h0Z"/><g class="cls-4"><path d="M54,27.5c-.23-.24-.53-.17-.81,0s-.55.17-.36-.64a16.22,16.22,0,0,1,.93-2.23c.13-.31,0-.7-.6-.76a1.08,1.08,0,0,0-.71.24,1.59,1.59,0,0,0-1.3-.55,4.36,4.36,0,0,0-3.28,2.06,7.15,7.15,0,0,1-1.83,1.89.76.76,0,0,1-.61.18c-.34-.12-.23-.58.45-1.38,1.13-1.27,1.44-2.23.8-2.8a1.73,1.73,0,0,0-1.91-.08,5.15,5.15,0,0,0-1.64,1.19c1-2.12,2.3-4.6,3.17-6,.39-.64.38-1.2-.17-1.3s-1,.17-1.37,1c-.93,1.91-1.68,3.62-2.56,5.51h0a9.71,9.71,0,0,1-3,3.71.78.78,0,0,1-.59.17c-.36-.12-.26-.6.44-1.38,1.11-1.29,1.43-2.25.78-2.8a1.74,1.74,0,0,0-1.9-.09A6.14,6.14,0,0,0,36,24.93c.43-.64.39-1.22,0-1.37s-.82.05-1.34,1.48a4.46,4.46,0,0,1-2,2.49c-.22.11-.63.16-.46-.63a19.53,19.53,0,0,1,.94-2.25c.14-.3,0-.7-.58-.74a.89.89,0,0,0-.72.22,1.68,1.68,0,0,0-1.31-.56A4.6,4.6,0,0,0,26.68,27a1.75,1.75,0,0,1-1.27.71c-1,0-1.6-.89-1.84-1.94,2.32-.46,4.53-1.76,4.93-3.79s-.91-3.61-3.3-3.56a7.49,7.49,0,0,0-6,3.44c-.36.7,0,1.25.45,1.23a1.29,1.29,0,0,0,1.15-.91,4,4,0,0,1,3.67-2.53,1.94,1.94,0,0,1,2.34,2.2c-.17,1.57-1.74,2.49-3.35,2.9l0-.11c0-.47,0-.81-.36-.93a.38.38,0,0,0-.27-.38c-.27-.14-.61-.1-.95.36-1.11,1.73-1.66,2.54-2.76,4-.49.66-.51,1.33,0,1.5s1-.07,1.42-.75c.55-.88,1-1.74,1.43-2.47l.33,0c.07,1.46.8,3.45,2.79,3.12a3.08,3.08,0,0,0,1.63-.87c.28.8,1.25,1,2.22.55a6,6,0,0,0,1.91-1.49c-.6,1.49.54,2.6,2.29,1.18a1.71,1.71,0,0,1,.21-.19c-.87,1.84-2,3.89-2.61,5.28-.43.95-.24,1.38.33,1.42s.88-.24,1.23-1c.47-1.09,1.34-3.45,2.72-6.15s3-3.22,3.37-3-.14.79-.9,1.76-.79,1.91-.39,2.27,1.41.54,2.53-.36a7.46,7.46,0,0,0,.79-.74c-.37.7-.48,1.23,0,1.42a.75.75,0,0,0,1-.44,11.13,11.13,0,0,1,1.81-2.78c1-1.06,1.9-1.28,2.09-1.12.36.22-.14.78-.9,1.74s-.8,1.93-.38,2.29,1.4.53,2.53-.38a4.71,4.71,0,0,0,.75-.69c.07,1.19,1.18,1.53,2.28,1a5.62,5.62,0,0,0,1.92-1.47c-.5,1.56.91,2.49,2.36,1.19.34-.31.42-.74.24-.89m-24.83-.18c-.58.37-1.33.21-1-.82A2.17,2.17,0,0,1,29.93,25a1,1,0,0,1,1,.62,5.31,5.31,0,0,1-1.69,1.74m20.65,0c-.57.35-1.34.2-1-.83A2.08,2.08,0,0,1,50.53,25a1.14,1.14,0,0,1,1,.65,6.1,6.1,0,0,1-1.69,1.74"/><path d="M56.18,27.15a.86.86,0,0,0-.86.87.88.88,0,0,0,.85.85A.83.83,0,0,0,57,28a.86.86,0,0,0-.83-.87"/></g></svg>