<svg xmlns="http://www.w3.org/2000/svg" width="55.02" height="10.17" viewBox="0 0 55.02 10.17"><defs><style>.cls-1{fill:#fff;stroke:#fff;stroke-miterlimit:10;stroke-width:0.25px;}</style></defs><title>core</title><g id="Layer_2" data-name="Layer 2"><g id="Layer_1-2" data-name="Layer 1"><path class="cls-1" d="M9.25,3.48a.23.23,0,0,1-.15.12C8.11,7.23,6.11,9,2.52,10A3.27,3.27,0,0,0,2,9.29c3.26-.82,5.29-2.5,6-5.28H.12V3.2h8.3l.12-.08ZM8.12.92H1.29V.12H8.12Z"/><path class="cls-1" d="M20.14,1.12a.29.29,0,0,1-.16.13C19,5.8,16.68,8.5,12.76,9.88a6.54,6.54,0,0,0-.55-.7,9.52,9.52,0,0,0,6.71-7.52H11.08V.86h8.16L19.4.75Z"/><path class="cls-1" d="M30,2.57s-.07.07-.12.09A9.62,9.62,0,0,1,27.4,5.85a5.66,5.66,0,0,0-.59-.44,6.78,6.78,0,0,0,2.06-2.49H21.93V2.24h7.3l.1-.06ZM26.11,4.3a.27.27,0,0,1-.22.17,7.3,7.3,0,0,1-3,5.48,5.25,5.25,0,0,0-.62-.46c2-1.26,2.69-3,2.91-5.32Z"/><path class="cls-1" d="M42.58,1.26V9.38H41.7V8.72H34.14v-.8H41.7V2.07H34.26V1.26Z"/><path class="cls-1" d="M54.85.68a.32.32,0,0,1-.16.1,10.08,10.08,0,0,1-2.84,3.84,5.47,5.47,0,0,0-.73-.49,7.33,7.33,0,0,0,2.39-3H44.92V.34h9L54.1.28ZM50.17,2.86c0,.1-.12.18-.27.2-.35,2.83-1.32,5.53-3.79,7a6,6,0,0,0-.71-.55C47.85,8.12,48.72,5.62,49,2.73Z"/></g></g></svg>