<svg width="101" height="25" viewBox="0 0 101 25" xmlns="http://www.w3.org/2000/svg"><path d="M.513 24.508V.414h11.08V4.02H4.651v6.206H9.99v3.604H4.652v7.074h7.408v3.605H.513m17.855-12.615L13.963.414h4.071l2.537 7.642h.067L22.94.414h4.071l-4.171 11.48 4.672 12.614h-4.071l-2.803-8.776h-.067l-2.87 8.776H13.63l4.738-12.614m15.199-.667h1.602c2.703 0 3.537-.835 3.537-3.705s-.834-3.703-3.537-3.703h-1.602v7.408zm-4.138 13.28V.415h5.94c5.106 0 7.475 1.97 7.475 7.108 0 5.14-2.37 7.108-7.475 7.108h-1.802v9.878h-4.138zm15.603.001V.414h4.138v20.49h6.506v3.604H45.032m16.587-5.94c0 1.802.533 2.67 2.202 2.67s2.203-.868 2.203-2.67V6.355c0-1.803-.534-2.67-2.203-2.67-1.669 0-2.202.867-2.202 2.67v12.213zM57.48 6.254c0-3.403 2.002-6.173 6.34-6.173s6.341 2.77 6.341 6.173v12.414c0 3.404-2.003 6.174-6.341 6.174s-6.34-2.77-6.34-6.174V6.254zm19.478 4.973h1.468c2.236 0 3.07-.835 3.07-3.705s-.834-3.703-3.07-3.703h-1.468v7.408zm0 13.28H72.82V.415h5.806c4.639 0 7.008 1.97 7.008 7.108 0 3.872-1.501 5.44-2.903 6.074l3.504 10.912H82.03l-2.936-9.978c-.534.067-1.402.1-2.136.1v9.878zm11.555.001V.414h11.079V4.02H92.65v6.206h5.339v3.604H92.65v7.074h7.408v3.605H88.513" fill="#FFFFFE" fill-rule="evenodd"/></svg>