<svg id="english" xmlns="http://www.w3.org/2000/svg" xmlns:xlink="http://www.w3.org/1999/xlink" viewBox="0 0 728 90"><defs><style>.cls-1{fill:none;}.cls-2{fill:#fff;}.cls-3{clip-path:url(#clip-path);}</style><clipPath id="clip-path"><rect class="cls-1" x="251.77" y="25.8" width="113.19" height="47.95"/></clipPath></defs><title>728x90img1</title><path class="cls-2" d="M365.43,43.88V42.61c0-1.38-.64-2-1.36-2-1.14,0-1.5.59-1.5,1.81v8.32c0,1.22.36,1.81,1.5,1.81s1.36-.59,1.36-1.65V49h2.82v1.89a4.25,4.25,0,0,1-8.5,0V42.38a3.94,3.94,0,0,1,4.32-4.2c2.81,0,4.18,2,4.18,4.5v1.2Z"/><path class="cls-2" d="M371.1,42.38a4.32,4.32,0,0,1,8.64,0v8.46a4.32,4.32,0,0,1-8.64,0Zm2.82,8.39c0,1.22.37,1.81,1.5,1.81s1.5-.59,1.5-1.81V42.45c0-1.22-.36-1.81-1.5-1.81s-1.5.59-1.5,1.81Z"/><path class="cls-2" d="M385.28,54.81h-2.82V38.41h4c3.16,0,4.77,1.34,4.77,4.84,0,2.63-1,3.7-2,4.13l2.38,7.43h-2.86l-2-6.79a12.34,12.34,0,0,1-1.45.07Zm0-9h1c1.52,0,2.09-.57,2.09-2.52s-.57-2.52-2.09-2.52h-1Z"/><path class="cls-2" d="M393.82,54.81V38.41h7.54v2.45h-4.73v4.23h3.64v2.45h-3.64v4.82h5.05v2.45Z"/><path class="cls-2" d="M414.62,43.88V42.61c0-1.38-.64-2-1.36-2-1.14,0-1.5.59-1.5,1.81v8.32c0,1.22.36,1.81,1.5,1.81s1.36-.59,1.36-1.65V49h2.82v1.89a4.25,4.25,0,0,1-8.5,0V42.38a3.94,3.94,0,0,1,4.32-4.2c2.81,0,4.18,2,4.18,4.5v1.2Z"/><path class="cls-2" d="M420.3,42.38a4.32,4.32,0,0,1,8.63,0v8.46a4.32,4.32,0,0,1-8.63,0Zm2.81,8.39c0,1.22.37,1.81,1.5,1.81s1.5-.59,1.5-1.81V42.45c0-1.22-.36-1.81-1.5-1.81s-1.5.59-1.5,1.81Z"/><path class="cls-2" d="M431.51,54.81V38.41h2.82v14h4.43v2.45Z"/><path class="cls-2" d="M440.35,54.81V38.41h2.82v14h4.43v2.45Z"/><path class="cls-2" d="M449.32,54.81V38.41h7.54v2.45h-4.72v4.23h3.63v2.45h-3.63v4.82h5v2.45Z"/><path class="cls-2" d="M465.08,43.88V42.61c0-1.38-.63-2-1.36-2-1.14,0-1.5.59-1.5,1.81v8.32c0,1.22.36,1.81,1.5,1.81s1.36-.59,1.36-1.65V49h2.82v1.89a3.9,3.9,0,0,1-4.18,4.2,4,4,0,0,1-4.32-4.2V42.38a4,4,0,0,1,4.32-4.2c2.82,0,4.18,2,4.18,4.5v1.2Z"/><path class="cls-2" d="M472.39,40.86h-2.72V38.41h8.27v2.45h-2.73v14h-2.82Z"/><path class="cls-2" d="M480,54.81V38.41h2.82v16.4Z"/><path class="cls-2" d="M485.91,42.38a4.32,4.32,0,0,1,8.63,0v8.46a4.32,4.32,0,0,1-8.63,0Zm2.81,8.39c0,1.22.37,1.81,1.5,1.81s1.5-.59,1.5-1.81V42.45c0-1.22-.36-1.81-1.5-1.81s-1.5.59-1.5,1.81Z"/><path class="cls-2" d="M497.26,54.81V38.41h2.61l3.44,9.38h0V38.41h2.55v16.4h-2.46l-3.59-10.24h0V54.81Z"/><g class="cls-3"><path class="cls-2" d="M341.63,51.82c-.45-.46-1.05-.33-1.59.07s-1.07.33-.7-1.26a30.76,30.76,0,0,1,1.82-4.36c.25-.6-.09-1.36-1.18-1.48a2.11,2.11,0,0,0-1.39.47,3.09,3.09,0,0,0-2.53-1.06c-2,0-4.78,1.53-6.41,4a13.92,13.92,0,0,1-3.57,3.69,1.47,1.47,0,0,1-1.18.36c-.66-.25-.46-1.15.88-2.71,2.19-2.47,2.8-4.35,1.56-5.46a3.37,3.37,0,0,0-3.73-.15,10.19,10.19,0,0,0-3.21,2.32c2-4.14,4.5-9,6.19-11.7.76-1.24.74-2.34-.32-2.52s-1.93.32-2.68,1.91c-1.82,3.72-3.28,7-5,10.75l0,0a18.91,18.91,0,0,1-5.93,7.24,1.54,1.54,0,0,1-1.15.34c-.7-.24-.52-1.19.85-2.69,2.17-2.53,2.79-4.4,1.53-5.47a3.38,3.38,0,0,0-3.71-.17,11.89,11.89,0,0,0-3.77,2.88c.84-1.24.77-2.39,0-2.67-1-.34-1.6.08-2.61,2.87-.49,1.39-1.86,4-3.83,4.88-.44.21-1.23.3-.9-1.24a38.81,38.81,0,0,1,1.83-4.39c.27-.58-.06-1.36-1.13-1.45a1.73,1.73,0,0,0-1.4.44,3.31,3.31,0,0,0-2.56-1.09c-2.63,0-6.54,2.62-7.53,6.58a3.45,3.45,0,0,1-2.49,1.4c-2,0-3.11-1.73-3.58-3.79,4.53-.89,8.83-3.45,9.62-7.4.78-3.76-1.78-7-6.44-6.94a14.53,14.53,0,0,0-11.71,6.72c-.71,1.35-.08,2.43.88,2.38a2.48,2.48,0,0,0,2.23-1.77c.63-2.14,3-4.58,7.18-4.94,3.09-.25,4.87,1.68,4.56,4.29-.34,3.08-3.4,4.87-6.54,5.67l0-.22c0-.92-.08-1.59-.7-1.8a.81.81,0,0,0-.53-.75c-.52-.27-1.2-.2-1.86.7-2.17,3.38-3.24,5-5.38,7.77-1,1.28-1,2.6-.05,2.92s2-.12,2.78-1.46c1.07-1.72,2-3.39,2.78-4.82.22,0,.43,0,.66-.05.12,2.85,1.54,6.74,5.44,6.09a6,6,0,0,0,3.18-1.69c.55,1.57,2.43,2,4.32,1.07a11.56,11.56,0,0,0,3.73-2.9c-1.17,2.91,1.07,5.07,4.47,2.3a4.15,4.15,0,0,1,.4-.37c-1.69,3.58-3.78,7.6-5.07,10.3-.85,1.86-.48,2.69.63,2.78s1.73-.47,2.4-2c.92-2.11,2.62-6.73,5.32-12,2.61-5.07,5.92-6.28,6.56-5.84s-.26,1.55-1.74,3.45-1.55,3.73-.77,4.43c1,.89,2.76,1,4.93-.7A13.64,13.64,0,0,0,315,52.07c-.72,1.38-1,2.42-.05,2.78a1.47,1.47,0,0,0,1.92-.87,21.16,21.16,0,0,1,3.53-5.42c1.93-2.07,3.7-2.5,4.07-2.19.7.43-.27,1.53-1.75,3.41-1.63,2.06-1.57,3.76-.75,4.47,1,.88,2.74,1,4.94-.76a8.57,8.57,0,0,0,1.47-1.34c.13,2.34,2.31,3,4.45,2a11.36,11.36,0,0,0,3.75-2.87c-1,3,1.78,4.85,4.59,2.33.68-.61.82-1.45.49-1.75m-48.47-.36c-1.13.73-2.6.42-1.93-1.6s2.32-3,3.34-3a2,2,0,0,1,1.9,1.21,10,10,0,0,1-3.31,3.38m40.29,0c-1.11.7-2.6.41-1.9-1.61s2.19-3,3.22-3a2.26,2.26,0,0,1,2,1.28,11.39,11.39,0,0,1-3.31,3.38"/><path class="cls-2" d="M345.8,51.14a1.69,1.69,0,0,0-1.69,1.71,1.73,1.73,0,0,0,1.66,1.64,1.63,1.63,0,0,0,1.65-1.66,1.68,1.68,0,0,0-1.62-1.69"/></g></svg>