<svg id="english" xmlns="http://www.w3.org/2000/svg" viewBox="0 0 728 90"><defs><style>.cls-1{fill:#fff;}</style></defs><title>728x90img2</title><path class="cls-1" d="M171.7,40h-2.58V37.71h7.82V40h-2.58V53.22H171.7Z"/><path class="cls-1" d="M178.51,53.22V37.71h2.66V44H184V37.71h2.67V53.22H184V46.34h-2.83v6.88Z"/><path class="cls-1" d="M189.24,53.22V37.71h7.13V40H191.9v4h3.44v2.32H191.9V50.9h4.77v2.32Z"/><path class="cls-1" d="M208.39,41.53c-.11-1.33-.82-1.71-1.42-1.71-.86,0-1.33.55-1.33,1.52,0,2.64,5.41,3.91,5.41,8.12,0,2.55-1.72,4-4.21,4s-3.89-2-4-4.3l2.53-.36c.11,1.57.73,2.34,1.59,2.34a1.37,1.37,0,0,0,1.55-1.42c0-3.07-5.42-3.88-5.42-8.33,0-2.47,1.51-3.86,4.13-3.86,2.17,0,3.46,1.56,3.69,3.75Z"/><path class="cls-1" d="M214.61,40H212V37.71h7.82V40h-2.58V53.22h-2.66Z"/><path class="cls-1" d="M222.58,53.22H220l2.86-15.51h3.3L229,53.22h-2.58L226,49.78h-2.92Zm.86-5.76h2.14l-1.05-6.66h0Z"/><path class="cls-1" d="M230.56,53.22V37.71H233l3.25,8.87h0V37.71h2.4V53.22H236.4L233,43.53h0v9.69Z"/><path class="cls-1" d="M241.3,37.71h3.95c2.75,0,4.21,1.5,4.21,4.68v6.14c0,3.18-1.46,4.69-4.21,4.69H241.3ZM244,51h.92c1.42,0,1.91-.53,1.91-2.17V42.07c0-1.63-.49-2.17-1.91-2.17H244Z"/><path class="cls-1" d="M253.58,53.22H251l2.85-15.51h3.31L260,53.22h-2.58L257,49.78h-2.92Zm.85-5.76h2.15l-1-6.66h0Z"/><path class="cls-1" d="M264.22,53.22h-2.66V37.71h3.74c3,0,4.51,1.27,4.51,4.58,0,2.49-1,3.49-1.87,3.9l2.25,7h-2.7l-1.89-6.43a11.22,11.22,0,0,1-1.38.07Zm0-8.55h.95c1.44,0,2-.54,2-2.38s-.53-2.39-2-2.39h-.95Z"/><path class="cls-1" d="M272.29,37.71h3.95c2.75,0,4.21,1.5,4.21,4.68v6.14c0,3.18-1.46,4.69-4.21,4.69h-3.95ZM275,51h.92c1.42,0,1.91-.53,1.91-2.17V42.07c0-1.63-.49-2.17-1.91-2.17H275Z"/><path class="cls-1" d="M288.16,53.22V37.71h2.66V53.22Z"/><path class="cls-1" d="M293.76,53.22V37.71h2.47l3.24,8.87h0V37.71h2.41V53.22H299.6l-3.39-9.69h0v9.69Z"/><path class="cls-1" d="M309.26,53.22V37.71h3.82c3.28,0,4.81,1.27,4.81,4.58s-1.53,4.57-4.81,4.57h-1.16v6.36Zm2.66-8.55h1c1.74,0,2.28-.54,2.28-2.38s-.54-2.39-2.28-2.39h-1Z"/><path class="cls-1" d="M320,53.22V37.71h7.13V40h-4.47v4h3.44v2.32h-3.44V50.9h4.77v2.32Z"/><path class="cls-1" d="M332.18,53.22h-2.66V37.71h3.74c3,0,4.51,1.27,4.51,4.58,0,2.49-1,3.49-1.87,3.9l2.25,7h-2.7l-1.89-6.43a11.22,11.22,0,0,1-1.38.07Zm0-8.55h.95c1.44,0,2-.54,2-2.38s-.53-2.39-2-2.39h-.95Z"/><path class="cls-1" d="M340.25,53.22V37.71h7.43V40h-4.76v4h3.56v2.32h-3.56v6.88Z"/><path class="cls-1" d="M349.78,41.47a4.08,4.08,0,0,1,8.16,0v8a4.08,4.08,0,0,1-8.16,0Zm2.67,7.92c0,1.16.34,1.72,1.41,1.72s1.42-.56,1.42-1.72V41.53c0-1.16-.34-1.71-1.42-1.71s-1.41.55-1.41,1.71Z"/><path class="cls-1" d="M363.18,53.22h-2.66V37.71h3.73c3,0,4.51,1.27,4.51,4.58,0,2.49-1,3.49-1.87,3.9l2.26,7h-2.71l-1.89-6.43a11,11,0,0,1-1.37.07Zm0-8.55h.94c1.44,0,2-.54,2-2.38s-.54-2.39-2-2.39h-.94Z"/><path class="cls-1" d="M381.92,37.71V53.22H379.6V41.1h0l-2.4,12.12h-1.29L373.46,41.1h0V53.22H371.1V37.71h3.5l1.89,9.06h0l1.89-9.06Z"/><path class="cls-1" d="M385.91,53.22h-2.58l2.86-15.51h3.31l2.85,15.51h-2.57l-.48-3.44h-2.92Zm.86-5.76h2.15l-1.05-6.66h-.05Z"/><path class="cls-1" d="M393.9,53.22V37.71h2.47l3.24,8.87h0V37.71h2.41V53.22h-2.32l-3.4-9.69h0v9.69Z"/><path class="cls-1" d="M410,42.89V41.68c0-1.31-.6-1.86-1.29-1.86-1.07,0-1.42.55-1.42,1.71v7.86c0,1.16.35,1.72,1.42,1.72s1.29-.56,1.29-1.57V47.67h2.66v1.79a3.69,3.69,0,0,1-4,4,3.72,3.72,0,0,1-4.08-4v-8a3.72,3.72,0,0,1,4.08-4c2.66,0,4,1.93,4,4.25v1.14Z"/><path class="cls-1" d="M415.36,53.22V37.71h7.13V40H418v4h3.44v2.32H418V50.9h4.77v2.32Z"/><path class="cls-1" d="M427.25,53.22l-1.48,2.66h-1.13l1.05-2.66h-1V50.68h2.53Z"/><path class="cls-1" d="M439.79,42.89V41.68c0-1.31-.6-1.86-1.29-1.86-1.07,0-1.41.55-1.41,1.71v7.86c0,1.16.34,1.72,1.41,1.72s1.29-.56,1.29-1.57V47.67h2.66v1.79a3.68,3.68,0,0,1-3.95,4,3.72,3.72,0,0,1-4.08-4v-8a3.72,3.72,0,0,1,4.08-4c2.67,0,3.95,1.93,3.95,4.25v1.14Z"/><path class="cls-1" d="M445.16,41.47a4.08,4.08,0,0,1,8.16,0v8a4.08,4.08,0,0,1-8.16,0Zm2.66,7.92c0,1.16.34,1.72,1.42,1.72s1.41-.56,1.41-1.72V41.53c0-1.16-.34-1.71-1.41-1.71s-1.42.55-1.42,1.71Z"/><path class="cls-1" d="M466.56,37.71V53.22h-2.32V41.1h0l-2.4,12.12h-1.29L458.1,41.1h0V53.22h-2.32V37.71h3.5l1.89,9.06h0l1.89-9.06Z"/><path class="cls-1" d="M469,53.22V37.71h7.43V40h-4.77v4h3.56v2.32h-3.56v6.88Z"/><path class="cls-1" d="M478.54,41.47a4.08,4.08,0,0,1,8.16,0v8a4.08,4.08,0,0,1-8.16,0Zm2.66,7.92c0,1.16.34,1.72,1.42,1.72s1.41-.56,1.41-1.72V41.53c0-1.16-.34-1.71-1.41-1.71s-1.42.55-1.42,1.71Z"/><path class="cls-1" d="M491.93,53.22h-2.66V37.71H493c3,0,4.51,1.27,4.51,4.58,0,2.49-1,3.49-1.86,3.9l2.25,7h-2.7l-1.89-6.43a11.33,11.33,0,0,1-1.38.07Zm0-8.55h.95c1.44,0,2-.54,2-2.38s-.53-2.39-2-2.39h-.95Z"/><path class="cls-1" d="M501.55,40H499V37.71h7.82V40h-2.58V53.22h-2.66Z"/><path class="cls-1" d="M514.66,53.22h-2.57l2.85-15.51h3.31l2.86,15.51h-2.58l-.47-3.44h-2.92Zm.86-5.76h2.15l-1-6.66h0Z"/><path class="cls-1" d="M522.65,53.22V37.71h2.47l3.24,8.87h0V37.71h2.41V53.22h-2.32l-3.39-9.69h-.05v9.69Z"/><path class="cls-1" d="M533.38,37.71h4c2.75,0,4.21,1.5,4.21,4.68v6.14c0,3.18-1.46,4.69-4.21,4.69h-4ZM536,51H537c1.41,0,1.91-.53,1.91-2.17V42.07c0-1.63-.5-2.17-1.91-2.17H536Z"/><path class="cls-1" d="M554.31,37.71h2.62l-3.24,15.51H551l-3.25-15.51h2.62l1.94,10.76h0Z"/><path class="cls-1" d="M559.17,53.22h-2.58l2.85-15.51h3.31l2.86,15.51H563l-.47-3.44h-2.92Zm.85-5.76h2.15l-1-6.66h0Z"/><path class="cls-1" d="M567,53.22V37.71h2.66V50.9h4.19v2.32Z"/><path class="cls-1" d="M575.5,37.71h2.66v11.7c0,1.14.45,1.7,1.42,1.7s1.42-.56,1.42-1.7V37.71h2.66v11.6a4.08,4.08,0,1,1-8.16,0Z"/><path class="cls-1" d="M586.23,53.22V37.71h7.13V40H588.9v4h3.43v2.32H588.9V50.9h4.76v2.32Z"/><path class="cls-1" d="M595.59,53.22V50.68h2.54v2.54Z"/></svg>