<svg id="english" xmlns="http://www.w3.org/2000/svg" xmlns:xlink="http://www.w3.org/1999/xlink" viewBox="0 0 728 90"><defs><style>.cls-1{fill:none;}.cls-2{clip-path:url(#clip-path);}.cls-3,.cls-4{fill:#fff;}.cls-4{stroke:#fff;stroke-width:1.68px;}</style><clipPath id="clip-path"><rect class="cls-1" x="6.75" y="23" width="118.25" height="50.09"/></clipPath></defs><title>728x90img3</title><g class="cls-2"><path class="cls-3" d="M100.62,50.19c-.46-.48-1.09-.35-1.65.06s-1.12.35-.73-1.31a32.85,32.85,0,0,1,1.89-4.55c.27-.63-.09-1.43-1.23-1.54a2.09,2.09,0,0,0-1.44.48,3.26,3.26,0,0,0-2.65-1.11c-2.11,0-5,1.6-6.7,4.2a14.19,14.19,0,0,1-3.73,3.84,1.49,1.49,0,0,1-1.23.38c-.69-.25-.48-1.19.92-2.83,2.29-2.58,2.93-4.54,1.63-5.7A3.5,3.5,0,0,0,81.8,42a10.31,10.31,0,0,0-3.35,2.42c2.11-4.33,4.7-9.37,6.47-12.22.79-1.31.77-2.45-.34-2.64s-2,.34-2.8,2c-1.9,3.89-3.43,7.38-5.23,11.24v0a19.75,19.75,0,0,1-6.2,7.57,1.59,1.59,0,0,1-1.21.35c-.72-.25-.53-1.24.9-2.81,2.26-2.64,2.91-4.59,1.6-5.71a3.53,3.53,0,0,0-3.88-.18,12.36,12.36,0,0,0-3.94,3c.88-1.3.8-2.49,0-2.79-1.09-.35-1.67.09-2.73,3-.51,1.45-1.94,4.18-4,5.1-.46.22-1.29.31-.94-1.3A40.08,40.08,0,0,1,58,44.38c.28-.61-.06-1.42-1.18-1.52a1.83,1.83,0,0,0-1.46.46,3.47,3.47,0,0,0-2.67-1.14c-2.76,0-6.84,2.74-7.87,6.88a3.65,3.65,0,0,1-2.6,1.46c-2.12,0-3.25-1.81-3.74-4,4.73-.94,9.23-3.61,10-7.74.83-3.93-1.85-7.35-6.72-7.25a15.21,15.21,0,0,0-12.24,7c-.74,1.41-.08,2.54.92,2.49a2.6,2.6,0,0,0,2.34-1.86c.65-2.23,3.17-4.78,7.5-5.16,3.23-.25,5.08,1.77,4.76,4.49-.35,3.21-3.55,5.09-6.83,5.93l0-.24c0-1-.08-1.65-.74-1.88a.82.82,0,0,0-.55-.78c-.55-.28-1.25-.21-1.94.73-2.27,3.53-3.39,5.17-5.63,8.11-1,1.35-1.05,2.72-.05,3.06s2.05-.13,2.91-1.52c1.12-1.81,2.06-3.55,2.9-5,.23,0,.45,0,.69,0,.13,3,1.61,7,5.69,6.36a6.4,6.4,0,0,0,3.32-1.77c.57,1.64,2.54,2,4.51,1.12a12.17,12.17,0,0,0,3.9-3c-1.22,3,1.11,5.3,4.67,2.4a4.36,4.36,0,0,1,.42-.38c-1.77,3.74-4,7.93-5.3,10.75-.89,2-.5,2.82.66,2.91s1.8-.5,2.51-2.13c.95-2.21,2.73-7,5.55-12.54,2.73-5.29,6.19-6.56,6.86-6.1s-.28,1.62-1.82,3.6c-1.71,2.12-1.62,3.9-.8,4.63,1,.94,2.88,1.09,5.15-.73a15,15,0,0,0,1.63-1.52c-.76,1.44-1,2.52-.06,2.9a1.52,1.52,0,0,0,2-.91,22.33,22.33,0,0,1,3.69-5.66c2-2.17,3.86-2.62,4.25-2.29.73.45-.29,1.6-1.83,3.56-1.7,2.15-1.64,3.94-.78,4.67,1,.92,2.86,1.08,5.16-.79a8.93,8.93,0,0,0,1.53-1.4c.14,2.44,2.42,3.12,4.65,2a11.86,11.86,0,0,0,3.92-3c-1,3.17,1.86,5.06,4.8,2.43.71-.63.85-1.51.5-1.82M50,49.81c-1.18.76-2.71.44-2-1.67S50.39,45,51.46,45a2,2,0,0,1,2,1.25A10.54,10.54,0,0,1,50,49.81m42.1,0c-1.16.73-2.72.43-2-1.68S92.39,45,93.46,45a2.38,2.38,0,0,1,2.08,1.34,12,12,0,0,1-3.45,3.53"/><path class="cls-3" d="M105,49.48a1.75,1.75,0,0,0-1.76,1.78A1.8,1.8,0,0,0,105,53a1.71,1.71,0,0,0,1.72-1.74A1.73,1.73,0,0,0,105,49.48"/></g><rect class="cls-4" x="636.84" y="-4.8" width="36.24" height="99.6" transform="translate(609.06 699.9) rotate(-89.92)"/><path d="M627.36,42.59c-.08-1-.62-1.31-1.08-1.31-.65,0-1,.43-1,1.16,0,2,4.11,3,4.11,6.17a2.88,2.88,0,0,1-3.2,3,3.1,3.1,0,0,1-3-3.26l1.92-.28c.09,1.2.56,1.78,1.21,1.78a1,1,0,0,0,1.18-1.07c0-2.34-4.12-3-4.12-6.33,0-1.88,1.15-2.94,3.14-2.94,1.64,0,2.62,1.19,2.8,2.86Z"/><path d="M630.85,51.46V39.68h2v4.8H635v-4.8h2V51.46h-2V46.24h-2.15v5.22Z"/><path d="M638.93,42.54a3.1,3.1,0,0,1,6.2,0v6.07a3.1,3.1,0,0,1-6.2,0Zm2,6c0,.88.26,1.3,1.07,1.3s1.08-.42,1.08-1.3v-6c0-.88-.26-1.31-1.08-1.31s-1.07.43-1.07,1.31Z"/><path d="M647,51.46V39.68h2.9c2.5,0,3.65,1,3.65,3.48s-1.15,3.47-3.65,3.47H649v4.83ZM649,45h.78c1.32,0,1.73-.41,1.73-1.81s-.41-1.81-1.73-1.81H649Z"/><path d="M658.65,51.46V39.68h1.87L663,46.42h0V39.68h1.83V51.46h-1.76l-2.58-7.35h0v7.35Z"/><path d="M666.74,42.54a3.1,3.1,0,0,1,6.2,0v6.07a3.1,3.1,0,0,1-6.2,0Zm2,6c0,.88.26,1.3,1.08,1.3s1.07-.42,1.07-1.3v-6c0-.88-.26-1.31-1.07-1.31s-1.08.43-1.08,1.31Z"/><path d="M678.33,39.68H680l1.37,7.51h0l1.12-7.51h1.9l-2.08,11.78h-1.69l-1.47-7.78h0l-1.37,7.78h-1.7l-2.23-11.78h1.89L677,47.19h0Z"/></svg>