<?xml version="1.0" encoding="utf-8"?>
<!-- Generator: Adobe Illustrator 21.1.0, SVG Export Plug-In . SVG Version: 6.00 Build 0)  -->
<svg version="1.1" id="Layer_1" xmlns="http://www.w3.org/2000/svg" xmlns:xlink="http://www.w3.org/1999/xlink" x="0px" y="0px"
	 viewBox="0 0 186.2 26" style="enable-background:new 0 0 186.2 26;" xml:space="preserve">
<style type="text/css">
	.st0{fill:#FFFFFF;}
</style>
<title>txt1</title>
<g>
	<path class="st0" d="M4.7,10.3C4.7,9.2,4,8.8,3.5,8.8c-0.7,0-1.1,0.5-1.1,1.3c0,2.3,4.6,3.4,4.6,7c0,2.2-1.5,3.4-3.6,3.4
		c-2.1,0-3.3-1.7-3.4-3.7l2.2-0.3c0.1,1.3,0.6,2,1.4,2c0.8,0,1.3-0.4,1.3-1.2c0-2.6-4.6-3.3-4.6-7.1c0-2.1,1.3-3.3,3.5-3.3
		c1.9,0,3,1.3,3.2,3.2L4.7,10.3z"/>
	<path class="st0" d="M10.1,20.3H7.9L10.3,7h2.8l2.4,13.3h-2.2L13,17.4h-2.5L10.1,20.3z M10.8,15.4h1.8l-0.9-5.7h0L10.8,15.4z"/>
	<path class="st0" d="M20.9,7h2.2l-2.8,13.3h-2.3L15.3,7h2.2l1.7,9.2h0L20.9,7z"/>
	<path class="st0" d="M24.4,20.3V7h6.1v2h-3.8v3.4h2.9v2h-2.9v3.9h4.1v2H24.4z"/>
	<path class="st0" d="M36.7,7H39v10c0,1,0.4,1.5,1.2,1.5c0.8,0,1.2-0.5,1.2-1.5V7h2.3V17c0,2.3-1.3,3.5-3.5,3.5s-3.5-1.3-3.5-3.5V7z
		"/>
	<path class="st0" d="M45.9,20.3V7h3.3c2.8,0,4.1,1.1,4.1,3.9s-1.3,3.9-4.1,3.9h-1v5.4H45.9z M48.2,13H49c1.5,0,2-0.5,2-2
		s-0.5-2-2-2h-0.9V13z"/>
	<path class="st0" d="M60.5,9h-2.2V7H65v2h-2.2v11.3h-2.3V9z"/>
	<path class="st0" d="M66.3,10.2c0-1.9,1.1-3.4,3.5-3.4c2.4,0,3.5,1.5,3.5,3.4v6.8c0,1.9-1.1,3.4-3.5,3.4c-2.4,0-3.5-1.5-3.5-3.4
		V10.2z M68.6,17c0,1,0.3,1.5,1.2,1.5S71,18,71,17v-6.7c0-1-0.3-1.5-1.2-1.5s-1.2,0.5-1.2,1.5V17z"/>
	<path class="st0" d="M81.4,16.5v0.9c0,0.8,0.3,1.3,1,1.3c0.7,0,1.1-0.5,1.1-1.6v-1c0-1.4-0.6-1.9-2-1.9v-1.8c1.3,0,1.9-0.4,1.9-2
		c0-1.3-0.2-1.8-0.9-1.8c-0.6,0-1,0.3-1,1.4v0.6h-2.1V9.9c0-1.8,1.1-3.1,3.1-3.1c2,0,3,1.6,3,3.4c0,1.5-0.3,2.4-1.4,3.1
		c1.3,0.7,1.6,1.5,1.6,3.3c0,2.7-1,3.9-3.3,3.9c-1.9,0-3-1-3-3.2v-0.8H81.4z"/>
	<path class="st0" d="M87.5,10.5c0-2.5,1-3.6,3.2-3.6c2.3,0,3.2,1.1,3.2,3.6v6.4c0,2.5-1,3.6-3.2,3.6c-2.3,0-3.2-1.1-3.2-3.6V10.5z
		 M91.8,9.9c0-0.9-0.4-1.3-1.1-1.3c-0.7,0-1.1,0.4-1.1,1.3v7.5c0,0.9,0.4,1.3,1.1,1.3c0.7,0,1.1-0.4,1.1-1.3V9.9z"/>
	<path class="st0" d="M98.8,7c1.7,0,3,1.3,3,3s-1.3,3-3,3s-3-1.3-3-3S97.1,7,98.8,7z M98.8,11.6c0.8,0,1.5-0.7,1.5-1.5
		c0-0.8-0.7-1.5-1.5-1.5s-1.5,0.7-1.5,1.5C97.3,10.9,98,11.6,98.8,11.6z M106.5,6.8L99,20.5h-1.4l7.5-13.7H106.5z M105.2,14.3
		c1.7,0,3,1.3,3,3c0,1.7-1.3,3-3,3c-1.7,0-3-1.3-3-3C102.2,15.6,103.6,14.3,105.2,14.3z M105.2,18.8c0.8,0,1.5-0.7,1.5-1.5
		c0-0.8-0.7-1.5-1.5-1.5c-0.8,0-1.5,0.7-1.5,1.5C103.7,18.1,104.4,18.8,105.2,18.8z"/>
</g>
</svg>
