<?xml version="1.0" encoding="utf-8"?>
<!-- Generator: Adobe Illustrator 22.1.0, SVG Export Plug-In . SVG Version: 6.00 Build 0)  -->
<svg version="1.1" id="Layer_1" xmlns="http://www.w3.org/2000/svg" xmlns:xlink="http://www.w3.org/1999/xlink" x="0px" y="0px"
	 viewBox="0 0 116 29" style="enable-background:new 0 0 116 29;" xml:space="preserve">
<style type="text/css">
	.st0{fill:#FFFFFF;}
</style>
<title>txt2</title>
<g id="Layer_2_1_">
	<g id="Layer_1-2">
		<path class="st0" d="M14.6,14.2H6.7v7.7H5.6V20c-1.9,0.3-3.8,0.5-5,0.7c0,0.1-0.1,0.2-0.2,0.2L0,19.8l1.5-0.2v-5.5H0.1v-0.9h14.5
			V14.2z M12.5,7.7v4.5H2.1V7.7H12.5z M5.6,15.3v-1.1H2.5v1.1H5.6z M5.6,17.3v-1.2H2.5v1.2L5.6,17.3z M2.5,18.2v1.4l3.1-0.4v-1H2.5z
			 M11.4,9.6V8.5H3.2v1.1H11.4z M11.4,11.5v-1.1H3.2v1.1L11.4,11.5z M13.2,15.3l0.7,0.3c0,0.1-0.1,0.1-0.1,0.2
			c-0.5,1.4-1.2,2.7-2.3,3.7c1,0.7,2.1,1.3,3.3,1.6c-0.3,0.2-0.5,0.5-0.7,0.8c-1.2-0.3-2.4-0.9-3.4-1.8c-0.9,0.8-2,1.4-3.1,1.8
			c-0.2-0.3-0.4-0.6-0.6-0.8c1.1-0.4,2.1-0.9,3-1.6c-0.8-0.9-1.5-1.9-1.9-3.1l0.6-0.2H7.1v-0.9H13L13.2,15.3z M8.9,16.2
			c0.4,1,1,1.9,1.7,2.6c0.8-0.7,1.4-1.6,1.8-2.6L8.9,16.2z"/>
		<path class="st0" d="M30.5,12.8h-6.2c1.1,3.8,3.1,6.8,6.5,8c-0.3,0.3-0.6,0.6-0.8,1c-3.3-1.4-5.3-4.2-6.5-8.1
			c-0.7,3.6-3.2,6.7-6.6,8.1c-0.2-0.3-0.5-0.6-0.8-0.9c3.5-1.3,5.9-4.5,6.4-8.1h-6.2v-1.1h6.3c0.2-1.6,0.2-3.1,0.2-4.7l1.5,0.1
			c0,0.1-0.1,0.2-0.4,0.3c0,1.5-0.1,2.9-0.2,4.3h6.8L30.5,12.8z"/>
		<path class="st0" d="M33.9,17.2V18c0,0.7,0.3,1.2,0.9,1.2c0.6,0,0.9-0.4,0.9-1.4v-0.9c0-1.2-0.5-1.6-1.7-1.6v-1.6
			c1.2,0,1.6-0.4,1.6-1.8c0-1.1-0.2-1.5-0.8-1.5s-0.9,0.3-0.9,1.2V12h-1.8v-0.5c-0.1-1.4,0.9-2.6,2.3-2.7c0.1,0,0.3,0,0.4,0
			c1.5,0,2.6,1.2,2.6,2.7c0,0.1,0,0.2,0,0.2c0,1.3-0.2,2.1-1.2,2.7c1.2,0.6,1.4,1.3,1.4,2.9c0,2.3-0.9,3.4-2.9,3.4
			c-1.7,0-2.6-0.8-2.6-2.8v-0.7H33.9z"/>
		<path class="st0" d="M39.2,12c0-2.1,0.8-3.2,2.8-3.2c2,0,2.8,1,2.8,3.2v5.5c0,2.1-0.8,3.2-2.8,3.2c-2,0-2.8-1-2.8-3.2V12z
			 M42.9,11.5c0-0.8-0.3-1.1-0.9-1.1c-0.6,0-0.9,0.4-0.9,1.1V18c0,0.7,0.3,1.1,0.9,1.1c0.6,0,0.9-0.4,0.9-1.1V11.5z"/>
		<path class="st0" d="M49,9c1.4,0,2.6,1.2,2.6,2.6c0,1.4-1.2,2.6-2.6,2.6c-1.4,0-2.6-1.2-2.6-2.6c0,0,0,0,0,0
			C46.3,10.1,47.5,9,49,9z M49,12.9c0.7,0,1.3-0.6,1.3-1.3s-0.6-1.3-1.3-1.3c-0.7,0-1.3,0.6-1.3,1.3c0,0,0,0,0,0
			C47.6,12.3,48.2,12.9,49,12.9z M55.6,8.8l-6.6,11.9h-1.2l6.5-11.9H55.6z M54.6,15.3c1.4,0,2.6,1.2,2.6,2.6c0,1.4-1.2,2.6-2.6,2.6
			c-1.4,0-2.6-1.2-2.6-2.6l0,0C52,16.5,53.1,15.3,54.6,15.3L54.6,15.3z M54.6,19.2c0.7,0,1.3-0.6,1.3-1.3s-0.6-1.3-1.3-1.3
			c-0.7,0-1.3,0.6-1.3,1.3c0,0,0,0,0,0C53.2,18.6,53.8,19.2,54.6,19.2L54.6,19.2z"/>
		<path class="st0" d="M72.2,12h-4.8l0.1,7.8c0,1.6-1.1,1.7-4,1.6c-0.1-0.4-0.2-0.7-0.3-1.1c1.1,0,2.3,0,2.6,0
			c0.3,0,0.6-0.2,0.6-0.6c0,0,0,0,0,0l-0.1-6.9c-1.8,2.6-4.2,4.8-6.9,6.4c-0.2-0.3-0.5-0.6-0.8-0.9c2.8-1.6,5.2-3.8,7-6.4h-6.4V11h7
			V7.5l1.5,0.1c0,0.2-0.2,0.3-0.4,0.3V11h4.8L72.2,12z"/>
		<path class="st0" d="M86.5,9.5c0,0.1-0.1,0.1-0.2,0.2c-1.3,6.1-4.4,9.7-9.6,11.5c-0.2-0.3-0.5-0.6-0.7-0.9c4.6-1.4,8.1-5.3,8.9-10
			H74.4V9.2h10.9L85.5,9L86.5,9.5z"/>
	</g>
</g>
</svg>
