<?xml version="1.0" encoding="utf-8"?>
<!-- Generator: Adobe Illustrator 21.1.0, SVG Export Plug-In . SVG Version: 6.00 Build 0)  -->
<svg version="1.1" id="Layer_1" xmlns="http://www.w3.org/2000/svg" xmlns:xlink="http://www.w3.org/1999/xlink" x="0px" y="0px"
	 viewBox="0 0 104.5 38.4" style="enable-background:new 0 0 104.5 38.4;" xml:space="preserve">
<style type="text/css">
	.st0{fill:#FFFFFF;}
</style>
<title>txt1</title>
<g>
	<path class="st0" d="M0.4,14H3c1.9,0,2.8,1,2.8,2.8c0,0.9-0.4,1.8-1.2,2.2C5.5,19.3,6,20.1,6,21.4c0,1.7-0.8,3-2.8,3H0.4V14z
		 M2.2,18.3h0.7c0.7,0,1.2-0.5,1.2-1.3c0-1-0.4-1.5-1.2-1.5H2.2V18.3z M2.2,22.9h0.8c1,0,1.3-0.5,1.3-1.6c0-1.1-0.4-1.6-1.5-1.6H2.2
		V22.9z"/>
	<path class="st0" d="M7.8,24.4V14h1.8v10.4H7.8z"/>
	<path class="st0" d="M14.9,16.6c-0.1-0.9-0.5-1.2-1-1.2c-0.6,0-0.9,0.4-0.9,1c0,1.8,3.6,2.6,3.6,5.5c0,1.7-1.2,2.7-2.8,2.7
		c-1.7,0-2.6-1.3-2.7-2.9l1.7-0.2c0.1,1.1,0.5,1.6,1.1,1.6c0.6,0,1-0.3,1-1c0-2.1-3.6-2.6-3.6-5.6c0-1.7,1-2.6,2.8-2.6
		c1.5,0,2.3,1.1,2.5,2.5L14.9,16.6z"/>
	<path class="st0" d="M21.4,15.5V14h4.7v1.7l-3.3,7.2h3.3v1.6H21v-1.7l3.3-7.2H21.4z"/>
	<path class="st0" d="M27.6,14h1.8v7.9c0,0.8,0.3,1.1,1,1.1c0.6,0,1-0.4,1-1.1V14h1.8v7.8c0,1.8-1,2.8-2.7,2.8s-2.7-1-2.7-2.8V14z"
		/>
	<path class="st0" d="M39.5,21.4v0.7c0,0.6,0.3,1,0.8,1c0.5,0,0.9-0.4,0.9-1.2v-0.8c0-1.1-0.4-1.5-1.5-1.5v-1.4
		c1.1,0,1.5-0.3,1.5-1.6c0-1-0.2-1.4-0.7-1.4c-0.5,0-0.8,0.2-0.8,1.1v0.4h-1.6v-0.5c0-1.4,0.9-2.4,2.4-2.4c1.5,0,2.3,1.3,2.3,2.7
		c0,1.2-0.2,1.9-1.1,2.4c1.1,0.5,1.3,1.2,1.3,2.6c0,2.1-0.8,3.1-2.6,3.1c-1.5,0-2.4-0.8-2.4-2.5v-0.6H39.5z"/>
	<path class="st0" d="M44.3,16.7c0-2,0.8-2.9,2.5-2.9c1.8,0,2.5,0.9,2.5,2.9v5c0,2-0.8,2.9-2.5,2.9c-1.8,0-2.5-0.9-2.5-2.9V16.7z
		 M47.7,16.3c0-0.7-0.3-1-0.8-1c-0.5,0-0.8,0.3-0.8,1v5.9c0,0.7,0.3,1,0.8,1c0.5,0,0.8-0.3,0.8-1V16.3z"/>
	<path class="st0" d="M53.1,14c1.3,0,2.4,1.1,2.4,2.4c0,1.3-1.1,2.4-2.4,2.4c-1.3,0-2.4-1.1-2.4-2.4C50.8,15,51.8,14,53.1,14z
		 M53.1,17.6c0.7,0,1.2-0.5,1.2-1.2c0-0.7-0.5-1.2-1.2-1.2c-0.7,0-1.2,0.5-1.2,1.2C51.9,17,52.5,17.6,53.1,17.6z M59.2,13.8
		l-5.9,10.7h-1.1l5.9-10.7H59.2z M58.2,19.7c1.3,0,2.4,1.1,2.4,2.4c0,1.3-1.1,2.4-2.4,2.4c-1.3,0-2.4-1.1-2.4-2.4
		C55.8,20.7,56.9,19.7,58.2,19.7z M58.2,23.3c0.7,0,1.2-0.5,1.2-1.2c0-0.7-0.5-1.2-1.2-1.2S57,21.4,57,22
		C57,22.7,57.5,23.3,58.2,23.3z"/>
	<path class="st0" d="M68.6,16.6c-0.1-0.9-0.5-1.2-1-1.2c-0.6,0-0.9,0.4-0.9,1c0,1.8,3.6,2.6,3.6,5.5c0,1.7-1.2,2.7-2.8,2.7
		c-1.7,0-2.6-1.3-2.7-2.9l1.7-0.2c0.1,1.1,0.5,1.6,1.1,1.6c0.6,0,1-0.3,1-1c0-2.1-3.6-2.6-3.6-5.6c0-1.7,1-2.6,2.8-2.6
		c1.5,0,2.3,1.1,2.5,2.5L68.6,16.6z"/>
	<path class="st0" d="M71.7,24.4V14h2.6c2.2,0,3.2,0.9,3.2,3.1c0,2.2-1,3.1-3.2,3.1h-0.8v4.3H71.7z M73.5,18.7h0.7
		c1.2,0,1.5-0.4,1.5-1.6c0-1.2-0.4-1.6-1.5-1.6h-0.7V18.7z"/>
	<path class="st0" d="M80,24.4h-1.7L80.2,14h2.2l1.9,10.4h-1.7l-0.3-2.3h-2L80,24.4z M80.6,20.5H82l-0.7-4.5h0L80.6,20.5z"/>
	<path class="st0" d="M87.2,24.4h-1.8V14h2.5c2,0,3,0.9,3,3.1c0,1.7-0.6,2.4-1.3,2.6l1.5,4.7h-1.8l-1.3-4.3c-0.2,0-0.6,0-0.9,0V24.4
		z M87.2,18.7h0.6c1,0,1.3-0.4,1.3-1.6c0-1.2-0.4-1.6-1.3-1.6h-0.6V18.7z"/>
	<path class="st0" d="M92.6,24.4V14h4.8v1.6h-3v2.7h2.3v1.6h-2.3v3.1h3.2v1.6H92.6z"/>
	<path class="st0" d="M99,24.4V14h1.7l2.2,6h0v-6h1.6v10.4h-1.6l-2.3-6.5h0v6.5H99z"/>
</g>
</svg>
