<?xml version="1.0" encoding="utf-8"?>
<!-- Generator: Adobe Illustrator 21.1.0, SVG Export Plug-In . SVG Version: 6.00 Build 0)  -->
<svg version="1.1" id="Layer_1" xmlns="http://www.w3.org/2000/svg" xmlns:xlink="http://www.w3.org/1999/xlink" x="0px" y="0px"
	 viewBox="0 0 186.2 26" style="enable-background:new 0 0 186.2 26;" xml:space="preserve">
<style type="text/css">
	.st0{fill:#FFFFFF;}
</style>
<title>txt1</title>
<g>
	<path class="st0" d="M0.1,7.4h2.8c2,0,3,1,3,2.9c0,1-0.4,2-1.3,2.3c1,0.4,1.5,1.2,1.5,2.6c0,1.8-0.8,3.2-3,3.2h-3V7.4z M2,12h0.7
		C3.4,12,4,11.5,4,10.6C4,9.6,3.6,9,2.7,9H2V12z M2,17h0.8c1,0,1.4-0.6,1.4-1.7c0-1.1-0.4-1.7-1.6-1.7H2V17z"/>
	<path class="st0" d="M8,18.6V7.4h1.9v11.1H8z"/>
	<path class="st0" d="M15.5,10.2c-0.1-1-0.6-1.2-1-1.2c-0.6,0-1,0.4-1,1.1c0,1.9,3.9,2.8,3.9,5.8c0,1.8-1.2,2.8-3,2.8
		c-1.8,0-2.8-1.4-2.9-3.1l1.8-0.3c0.1,1.1,0.5,1.7,1.1,1.7c0.7,0,1.1-0.4,1.1-1c0-2.2-3.9-2.8-3.9-6c0-1.8,1.1-2.8,3-2.8
		c1.6,0,2.5,1.1,2.6,2.7L15.5,10.2z"/>
	<path class="st0" d="M22.5,9.1V7.4h5v1.8L24,16.9h3.5v1.7h-5.5v-1.8l3.6-7.6H22.5z"/>
	<path class="st0" d="M29.1,7.4H31v8.4c0,0.8,0.3,1.2,1,1.2c0.7,0,1-0.4,1-1.2V7.4H35v8.3c0,1.9-1.1,3-2.9,3s-2.9-1-2.9-3V7.4z"/>
	<path class="st0" d="M41.7,15.3v0.8c0,0.7,0.3,1.1,0.9,1.1c0.6,0,0.9-0.4,0.9-1.3V15c0-1.2-0.5-1.6-1.6-1.6V12
		c1.1,0,1.6-0.4,1.6-1.7c0-1-0.2-1.5-0.8-1.5c-0.5,0-0.9,0.3-0.9,1.1v0.5h-1.7V9.9c0-1.5,0.9-2.6,2.6-2.6c1.6,0,2.5,1.4,2.5,2.8
		c0,1.3-0.2,2-1.2,2.6c1.1,0.6,1.4,1.2,1.4,2.8c0,2.2-0.9,3.3-2.8,3.3C41,18.7,40,17.9,40,16v-0.7H41.7z"/>
	<path class="st0" d="M46.9,10.3c0-2.1,0.8-3,2.7-3c1.9,0,2.7,1,2.7,3v5.3c0,2.1-0.8,3-2.7,3c-1.9,0-2.7-1-2.7-3V10.3z M50.5,9.9
		c0-0.7-0.3-1.1-0.9-1.1c-0.6,0-0.9,0.3-0.9,1.1v6.3c0,0.7,0.3,1.1,0.9,1.1c0.6,0,0.9-0.3,0.9-1.1V9.9z"/>
	<path class="st0" d="M56.3,7.4c1.4,0,2.5,1.1,2.5,2.5s-1.1,2.5-2.5,2.5c-1.4,0-2.5-1.1-2.5-2.5S54.9,7.4,56.3,7.4z M56.3,11.3
		c0.7,0,1.3-0.6,1.3-1.3S57,8.7,56.3,8.7C55.6,8.7,55,9.3,55,10S55.6,11.3,56.3,11.3z M62.7,7.3l-6.3,11.4h-1.2l6.3-11.4H62.7z
		 M61.6,13.5c1.4,0,2.5,1.1,2.5,2.5c0,1.4-1.1,2.5-2.5,2.5c-1.4,0-2.5-1.1-2.5-2.5C59.1,14.6,60.3,13.5,61.6,13.5z M61.6,17.3
		c0.7,0,1.3-0.6,1.3-1.3c0-0.7-0.6-1.3-1.3-1.3c-0.7,0-1.3,0.6-1.3,1.3C60.4,16.7,60.9,17.3,61.6,17.3z"/>
	<path class="st0" d="M72.8,10.2c-0.1-1-0.6-1.2-1-1.2c-0.6,0-1,0.4-1,1.1c0,1.9,3.9,2.8,3.9,5.8c0,1.8-1.2,2.8-3,2.8
		c-1.8,0-2.8-1.4-2.9-3.1l1.8-0.3c0.1,1.1,0.5,1.7,1.1,1.7c0.7,0,1.1-0.4,1.1-1c0-2.2-3.9-2.8-3.9-6c0-1.8,1.1-2.8,3-2.8
		c1.6,0,2.5,1.1,2.6,2.7L72.8,10.2z"/>
	<path class="st0" d="M76.1,18.6V7.4h2.7c2.4,0,3.4,0.9,3.4,3.3S81.2,14,78.8,14H78v4.6H76.1z M78,12.4h0.7c1.2,0,1.6-0.4,1.6-1.7
		S80,9,78.8,9H78V12.4z"/>
	<path class="st0" d="M84.9,18.6h-1.8l2-11.1h2.4l2,11.1h-1.8l-0.3-2.5h-2.1L84.9,18.6z M85.5,14.4h1.5l-0.8-4.8h0L85.5,14.4z"/>
	<path class="st0" d="M92.5,18.6h-1.9V7.4h2.7c2.1,0,3.2,0.9,3.2,3.3c0,1.8-0.7,2.5-1.3,2.8l1.6,5h-1.9L93.5,14c-0.2,0-0.6,0-1,0
		V18.6z M92.5,12.4h0.7c1,0,1.4-0.4,1.4-1.7S94.2,9,93.2,9h-0.7V12.4z"/>
	<path class="st0" d="M98.3,18.6V7.4h5.1v1.7h-3.2V12h2.5v1.7h-2.5v3.3h3.4v1.7H98.3z"/>
	<path class="st0" d="M105.2,18.6V7.4h1.8l2.3,6.4h0V7.4h1.7v11.1h-1.7l-2.4-6.9h0v6.9H105.2z"/>
</g>
</svg>
