<?xml version="1.0" encoding="utf-8"?>
<!-- Generator: Adobe Illustrator 21.1.0, SVG Export Plug-In . SVG Version: 6.00 Build 0)  -->
<svg version="1.1" id="Layer_1" xmlns="http://www.w3.org/2000/svg" xmlns:xlink="http://www.w3.org/1999/xlink" x="0px" y="0px"
	 viewBox="0 0 186.2 26" style="enable-background:new 0 0 186.2 26;" xml:space="preserve">
<style type="text/css">
	.st0{fill:#FFFFFF;}
</style>
<title>txt1</title>
<g>
	<path class="st0" d="M0,0.1h2.6c1.8,0,2.7,1,2.7,3.1v4c0,2.1-1,3.1-2.7,3.1H0V0.1z M1.7,8.8h0.6c0.9,0,1.2-0.3,1.2-1.4V3
		c0-1.1-0.3-1.4-1.2-1.4H1.7V8.8z"/>
	<path class="st0" d="M7,10.3V0.1h4.6v1.5H8.7v2.6H11v1.5H8.7v3h3.1v1.5H7z"/>
	<path class="st0" d="M15,10.3h-1.7V0.1h2.4c1.9,0,2.9,0.8,2.9,3c0,1.6-0.6,2.3-1.2,2.5l1.5,4.6h-1.8l-1.2-4.2c-0.2,0-0.6,0-0.9,0
		V10.3z M15,4.7h0.6c0.9,0,1.3-0.3,1.3-1.6s-0.4-1.6-1.3-1.6H15V4.7z"/>
	<path class="st0" d="M23.3,10.3V0.1h1.6l2.1,5.8h0V0.1h1.6v10.1h-1.5l-2.2-6.3h0v6.3H23.3z"/>
	<path class="st0" d="M30.3,10.3V0.1H35v1.5h-2.9v2.6h2.2v1.5h-2.2v3h3.1v1.5H30.3z"/>
	<path class="st0" d="M36.5,0.1h1.7v7.6c0,0.7,0.3,1.1,0.9,1.1s0.9-0.4,0.9-1.1V0.1h1.7v7.6c0,1.7-1,2.7-2.7,2.7s-2.7-1-2.7-2.7V0.1
		z"/>
	<path class="st0" d="M43.5,10.3V0.1h4.6v1.5h-2.9v2.6h2.2v1.5h-2.2v3h3.1v1.5H43.5z"/>
	<path class="st0" d="M56,2.6c-0.1-0.9-0.5-1.1-0.9-1.1c-0.6,0-0.9,0.4-0.9,1c0,1.7,3.5,2.5,3.5,5.3c0,1.7-1.1,2.6-2.7,2.6
		c-1.6,0-2.5-1.3-2.6-2.8l1.7-0.2c0.1,1,0.5,1.5,1,1.5c0.6,0,1-0.3,1-0.9c0-2-3.5-2.5-3.5-5.4c0-1.6,1-2.5,2.7-2.5
		c1.4,0,2.3,1,2.4,2.5L56,2.6z"/>
	<path class="st0" d="M60.1,1.7h-1.7V0.1h5.1v1.5h-1.7v8.6h-1.7V1.7z"/>
	<path class="st0" d="M65.3,10.3h-1.7l1.9-10.1h2.2l1.9,10.1h-1.7L67.5,8h-1.9L65.3,10.3z M65.9,6.5h1.4l-0.7-4.3h0L65.9,6.5z"/>
	<path class="st0" d="M70.5,10.3V0.1h1.6l2.1,5.8h0V0.1h1.6v10.1h-1.5l-2.2-6.3h0v6.3H70.5z"/>
	<path class="st0" d="M77.5,0.1h2.6c1.8,0,2.7,1,2.7,3.1v4c0,2.1-1,3.1-2.7,3.1h-2.6V0.1z M79.2,8.8h0.6c0.9,0,1.2-0.3,1.2-1.4V3
		c0-1.1-0.3-1.4-1.2-1.4h-0.6V8.8z"/>
	<path class="st0" d="M85.5,10.3h-1.7l1.9-10.1h2.2l1.9,10.1H88L87.7,8h-1.9L85.5,10.3z M86.1,6.5h1.4l-0.7-4.3h0L86.1,6.5z"/>
	<path class="st0" d="M92.5,10.3h-1.7V0.1h2.4c1.9,0,2.9,0.8,2.9,3c0,1.6-0.6,2.3-1.2,2.5l1.5,4.6h-1.8l-1.2-4.2c-0.2,0-0.6,0-0.9,0
		V10.3z M92.5,4.7h0.6c0.9,0,1.3-0.3,1.3-1.6S94,1.6,93.1,1.6h-0.6V4.7z"/>
	<path class="st0" d="M97.7,0.1h2.6c1.8,0,2.7,1,2.7,3.1v4c0,2.1-1,3.1-2.7,3.1h-2.6V0.1z M99.5,8.8h0.6c0.9,0,1.2-0.3,1.2-1.4V3
		c0-1.1-0.3-1.4-1.2-1.4h-0.6V8.8z"/>
	<path class="st0" d="M108.1,10.3V0.1h1.7v10.1H108.1z"/>
	<path class="st0" d="M111.7,10.3V0.1h1.6l2.1,5.8h0V0.1h1.6v10.1h-1.5l-2.2-6.3h0v6.3H111.7z"/>
	<path class="st0" d="M125,2.6c-0.1-0.9-0.5-1.1-0.9-1.1c-0.6,0-0.9,0.4-0.9,1c0,1.7,3.5,2.5,3.5,5.3c0,1.7-1.1,2.6-2.7,2.6
		c-1.6,0-2.5-1.3-2.6-2.8l1.7-0.2c0.1,1,0.5,1.5,1,1.5c0.6,0,1-0.3,1-0.9c0-2-3.5-2.5-3.5-5.4c0-1.6,1-2.5,2.7-2.5
		c1.4,0,2.3,1,2.4,2.5L125,2.6z"/>
	<path class="st0" d="M129.1,10.3h-1.7l1.9-10.1h2.2l1.9,10.1h-1.7L131.3,8h-1.9L129.1,10.3z M129.6,6.5h1.4l-0.7-4.3h0L129.6,6.5z"
		/>
	<path class="st0" d="M137.8,3.5V2.7c0-0.9-0.4-1.2-0.8-1.2c-0.7,0-0.9,0.4-0.9,1.1v5.1c0,0.8,0.2,1.1,0.9,1.1c0.6,0,0.8-0.4,0.8-1
		V6.6h1.7v1.2c0,1.4-0.8,2.6-2.6,2.6c-1.8,0-2.7-1.2-2.7-2.6V2.6c0-1.4,0.8-2.6,2.7-2.6c1.7,0,2.6,1.3,2.6,2.8v0.7H137.8z"/>
	<path class="st0" d="M141.3,10.3V0.1h1.7v4.1h1.8V0.1h1.7v10.1h-1.7V5.8H143v4.5H141.3z"/>
	<path class="st0" d="M148.3,10.3V0.1h4.6v1.5H150v2.6h2.2v1.5H150v3h3.1v1.5H148.3z"/>
	<path class="st0" d="M154.5,10.3V0.1h1.6l2.1,5.8h0V0.1h1.6v10.1h-1.5l-2.2-6.3h0v6.3H154.5z"/>
	<path class="st0" d="M0,24.3V14.1h4.8v1.5H1.7v2.6h2.3v1.5H1.7v4.5H0z"/>
	<path class="st0" d="M6.2,14.1H8v7.6c0,0.7,0.3,1.1,0.9,1.1c0.6,0,0.9-0.4,0.9-1.1v-7.6h1.7v7.6c0,1.7-1,2.7-2.7,2.7
		c-1.7,0-2.7-1-2.7-2.7V14.1z"/>
	<path class="st0" d="M13.2,24.3V14.1h1.6l2.1,5.8h0v-5.8h1.6v10.1H17l-2.2-6.3h0v6.3H13.2z"/>
	<path class="st0" d="M20.1,24.3V14.1h1.7v3.7h0l1.8-3.7h1.7l-1.9,3.8l2.1,6.3h-1.8l-1.4-4.7h0l-0.6,1.1v3.6H20.1z"/>
	<path class="st0" d="M27.4,15.7h-1.7v-1.5h5.1v1.5h-1.7v8.6h-1.7V15.7z"/>
	<path class="st0" d="M32.1,24.3V14.1h1.7v10.1H32.1z"/>
	<path class="st0" d="M35.8,16.6c0-1.4,0.8-2.6,2.7-2.6c1.8,0,2.7,1.2,2.7,2.6v5.2c0,1.4-0.8,2.6-2.7,2.6c-1.8,0-2.7-1.2-2.7-2.6
		V16.6z M37.5,21.8c0,0.8,0.2,1.1,0.9,1.1c0.7,0,0.9-0.4,0.9-1.1v-5.1c0-0.8-0.2-1.1-0.9-1.1c-0.7,0-0.9,0.4-0.9,1.1V21.8z"/>
	<path class="st0" d="M42.8,24.3V14.1h1.6l2.1,5.8h0v-5.8h1.6v10.1h-1.5l-2.2-6.3h0v6.3H42.8z"/>
	<path class="st0" d="M51.3,24.3l-1,1.7h-0.7l0.7-1.7h-0.6v-1.7h1.7V24.3z"/>
	<path class="st0" d="M55.9,24.3V14.1h1.7v3.7h0l1.8-3.7h1.7l-1.9,3.8l2.1,6.3h-1.8l-1.4-4.7h0l-0.6,1.1v3.6H55.9z"/>
	<path class="st0" d="M62.2,16.6c0-1.4,0.8-2.6,2.7-2.6c1.8,0,2.7,1.2,2.7,2.6v5.2c0,1.4-0.8,2.6-2.7,2.6c-1.8,0-2.7-1.2-2.7-2.6
		V16.6z M63.9,21.8c0,0.8,0.2,1.1,0.9,1.1c0.7,0,0.9-0.4,0.9-1.1v-5.1c0-0.8-0.2-1.1-0.9-1.1c-0.7,0-0.9,0.4-0.9,1.1V21.8z"/>
	<path class="st0" d="M76.2,14.1v10.1h-1.5v-7.9h0l-1.6,7.9h-0.8l-1.6-7.9h0v7.9h-1.5V14.1h2.3l1.2,5.9h0l1.2-5.9H76.2z"/>
	<path class="st0" d="M77.8,24.3V14.1h4.8v1.5h-3.1v2.6h2.3v1.5h-2.3v4.5H77.8z"/>
	<path class="st0" d="M84,16.6c0-1.4,0.8-2.6,2.7-2.6c1.8,0,2.7,1.2,2.7,2.6v5.2c0,1.4-0.8,2.6-2.7,2.6c-1.8,0-2.7-1.2-2.7-2.6V16.6
		z M85.7,21.8c0,0.8,0.2,1.1,0.9,1.1c0.7,0,0.9-0.4,0.9-1.1v-5.1c0-0.8-0.2-1.1-0.9-1.1c-0.7,0-0.9,0.4-0.9,1.1V21.8z"/>
	<path class="st0" d="M92.7,24.3H91V14.1h2.4c1.9,0,2.9,0.8,2.9,3c0,1.6-0.6,2.3-1.2,2.5l1.5,4.6h-1.8l-1.2-4.2c-0.2,0-0.6,0-0.9,0
		V24.3z M92.7,18.7h0.6c0.9,0,1.3-0.3,1.3-1.6c0-1.2-0.4-1.6-1.3-1.6h-0.6V18.7z"/>
	<path class="st0" d="M99,15.7h-1.7v-1.5h5.1v1.5h-1.7v8.6H99V15.7z"/>
	<path class="st0" d="M106.5,14.1h1.7v7.6c0,0.7,0.3,1.1,0.9,1.1c0.6,0,0.9-0.4,0.9-1.1v-7.6h1.7v7.6c0,1.7-1,2.7-2.7,2.7
		c-1.7,0-2.7-1-2.7-2.7V14.1z"/>
	<path class="st0" d="M113.5,24.3V14.1h1.6l2.1,5.8h0v-5.8h1.6v10.1h-1.5l-2.2-6.3h0v6.3H113.5z"/>
	<path class="st0" d="M120.5,14.1h2.6c1.8,0,2.7,1,2.7,3.1v4c0,2.1-1,3.1-2.7,3.1h-2.6V14.1z M122.3,22.8h0.6c0.9,0,1.2-0.3,1.2-1.4
		V17c0-1.1-0.3-1.4-1.2-1.4h-0.6V22.8z"/>
	<path class="st0" d="M130.7,24.3V14.1h2.5c2.1,0,3.1,0.8,3.1,3s-1,3-3.1,3h-0.8v4.1H130.7z M132.4,18.7h0.7c1.1,0,1.5-0.3,1.5-1.6
		c0-1.2-0.3-1.6-1.5-1.6h-0.7V18.7z"/>
	<path class="st0" d="M139.4,24.3h-1.7V14.1h2.4c1.9,0,2.9,0.8,2.9,3c0,1.6-0.6,2.3-1.2,2.5l1.5,4.6h-1.8l-1.2-4.2
		c-0.2,0-0.6,0-0.9,0V24.3z M139.4,18.7h0.6c0.9,0,1.3-0.3,1.3-1.6c0-1.2-0.4-1.6-1.3-1.6h-0.6V18.7z"/>
	<path class="st0" d="M144.7,24.3V14.1h4.6v1.5h-2.9v2.6h2.2v1.5h-2.2v3h3.1v1.5H144.7z"/>
	<path class="st0" d="M151.1,24.3V14.1h1.7v10.1H151.1z"/>
	<path class="st0" d="M157.9,16.6c-0.1-0.9-0.5-1.1-0.9-1.1c-0.6,0-0.9,0.4-0.9,1c0,1.7,3.5,2.5,3.5,5.3c0,1.7-1.1,2.6-2.7,2.6
		c-1.6,0-2.5-1.3-2.6-2.8l1.7-0.2c0.1,1,0.5,1.5,1,1.5c0.6,0,1-0.3,1-0.9c0-2-3.5-2.5-3.5-5.4c0-1.6,1-2.5,2.7-2.5
		c1.4,0,2.3,1,2.4,2.5L157.9,16.6z"/>
</g>
</svg>
