<svg id="english" xmlns="http://www.w3.org/2000/svg" xmlns:xlink="http://www.w3.org/1999/xlink" viewBox="0 0 160 600"><defs><style>.cls-1{fill:none;}.cls-2{clip-path:url(#clip-path);}.cls-3{fill:#fff;}</style><clipPath id="clip-path"><rect class="cls-1" x="8.28" y="257.51" width="143.72" height="60.88"/></clipPath></defs><title>160x600img1</title><g class="cls-2"><path class="cls-3" d="M122.37,290.56c-.56-.59-1.33-.43-2,.08-.53.35-1.36.42-.89-1.59a38.24,38.24,0,0,1,2.31-5.54c.32-.76-.11-1.73-1.5-1.88a2.67,2.67,0,0,0-1.76.6,3.91,3.91,0,0,0-3.21-1.35c-2.57-.05-6.07,1.94-8.14,5.1a17.53,17.53,0,0,1-4.54,4.67,1.79,1.79,0,0,1-1.5.46c-.84-.31-.57-1.45,1.12-3.44,2.78-3.14,3.56-5.52,2-6.93a4.25,4.25,0,0,0-4.73-.19,12.9,12.9,0,0,0-4.08,2.94c2.57-5.26,5.72-11.38,7.86-14.85,1-1.58.94-3-.4-3.2s-2.46.41-3.4,2.42c-2.32,4.73-4.18,9-6.36,13.66l0,0c-1.43,2.91-4,6.93-7.53,9.2a2,2,0,0,1-1.47.43c-.88-.31-.65-1.5,1.09-3.42,2.75-3.2,3.54-5.57,2-6.94-1.09-1-2.88-1.06-4.72-.22a15.25,15.25,0,0,0-4.79,3.66c1.07-1.58,1-3,0-3.39-1.32-.42-2,.11-3.33,3.65-.61,1.76-2.35,5.08-4.85,6.19-.56.28-1.57.39-1.14-1.58a51,51,0,0,1,2.31-5.57c.35-.74-.07-1.72-1.43-1.83a2.17,2.17,0,0,0-1.77.55,4.26,4.26,0,0,0-3.25-1.39c-3.35.05-8.31,3.34-9.56,8.36A4.41,4.41,0,0,1,51.42,291c-2.58.07-4-2.2-4.55-4.81,5.75-1.13,11.21-4.38,12.21-9.4,1-4.77-2.26-8.93-8.18-8.81A18.51,18.51,0,0,0,36,276.47c-.9,1.72-.1,3.09,1.12,3A3.13,3.13,0,0,0,40,277.24c.8-2.71,3.85-5.81,9.11-6.27,3.93-.31,6.18,2.14,5.79,5.45-.43,3.91-4.32,6.19-8.3,7.21l0-.29c0-1.16-.1-2-.89-2.29a1,1,0,0,0-.68-.95c-.66-.34-1.52-.25-2.36.9-2.75,4.28-4.11,6.27-6.83,9.85-1.23,1.64-1.28,3.31-.06,3.72s2.49-.16,3.53-1.85c1.36-2.19,2.5-4.31,3.53-6.12.28,0,.55,0,.84-.07.15,3.62,2,8.56,6.91,7.73a7.63,7.63,0,0,0,4-2.14c.7,2,3.09,2.47,5.49,1.35a14.72,14.72,0,0,0,4.74-3.68c-1.49,3.7,1.35,6.45,5.68,2.92a4,4,0,0,1,.5-.46c-2.14,4.54-4.81,9.64-6.44,13.07-1.08,2.36-.6,3.42.8,3.53s2.19-.6,3-2.58c1.16-2.69,3.32-8.56,6.75-15.24,3.32-6.44,7.53-8,8.33-7.42s-.33,2-2.21,4.38c-2.07,2.57-2,4.73-1,5.62,1.27,1.14,3.5,1.33,6.26-.89a16.92,16.92,0,0,0,2-1.85c-.92,1.75-1.21,3.07-.07,3.53a1.85,1.85,0,0,0,2.44-1.1,27,27,0,0,1,4.49-6.88c2.44-2.64,4.69-3.18,5.16-2.79.89.55-.34,1.95-2.23,4.33-2.06,2.61-2,4.78-.94,5.68,1.23,1.12,3.48,1.31,6.27-1a11.88,11.88,0,0,0,1.87-1.71c.16,3,2.93,3.8,5.64,2.5a14.35,14.35,0,0,0,4.76-3.65c-1.25,3.86,2.27,6.15,5.84,2.95.86-.77,1-1.83.61-2.21m-61.54-.46c-1.43.92-3.29.54-2.45-2,.82-2.4,2.94-3.84,4.24-3.79A2.49,2.49,0,0,1,65,285.8a12.78,12.78,0,0,1-4.2,4.3m51.17,0c-1.41.88-3.31.52-2.42-2s2.78-3.86,4.09-3.87a2.88,2.88,0,0,1,2.53,1.63,14.68,14.68,0,0,1-4.2,4.29"/><path class="cls-3" d="M127.67,289.7a2.13,2.13,0,0,0-2.14,2.16,2.2,2.2,0,0,0,2.1,2.09,2.08,2.08,0,0,0,2.1-2.12,2.12,2.12,0,0,0-2.06-2.13"/></g><path class="cls-3" d="M25.18,326.45v-1c0-1.12-.51-1.6-1.1-1.6-.92,0-1.22.48-1.22,1.47V332c0,1,.3,1.48,1.22,1.48s1.1-.48,1.1-1.35v-1.6h2.29v1.53a3.17,3.17,0,0,1-3.39,3.41,3.19,3.19,0,0,1-3.5-3.41v-6.85a3.19,3.19,0,0,1,3.5-3.41c2.28,0,3.39,1.66,3.39,3.65v1Z"/><path class="cls-3" d="M29.79,325.24a3.19,3.19,0,0,1,3.49-3.41,3.19,3.19,0,0,1,3.5,3.41v6.85a3.19,3.19,0,0,1-3.5,3.41,3.19,3.19,0,0,1-3.49-3.41ZM32.07,332c0,1,.29,1.48,1.21,1.48S34.5,333,34.5,332v-6.74c0-1-.29-1.47-1.22-1.47s-1.21.48-1.21,1.47Z"/><path class="cls-3" d="M41.28,335.31H39V322H42.2c2.56,0,3.87,1.09,3.87,3.93,0,2.13-.83,3-1.61,3.35l1.94,6H44.08l-1.63-5.51a10,10,0,0,1-1.17.06Zm0-7.33h.81c1.23,0,1.69-.46,1.69-2s-.46-2.05-1.69-2.05h-.81Z"/><path class="cls-3" d="M48.2,335.31V322h6.11v2H50.48v3.43h3v2h-3v3.9h4.09v2Z"/><path class="cls-3" d="M65.07,326.45v-1c0-1.12-.52-1.6-1.11-1.6-.92,0-1.21.48-1.21,1.47V332c0,1,.29,1.48,1.21,1.48s1.11-.48,1.11-1.35v-1.6h2.28v1.53A3.16,3.16,0,0,1,64,335.5a3.2,3.2,0,0,1-3.5-3.41v-6.85a3.2,3.2,0,0,1,3.5-3.41c2.29,0,3.39,1.66,3.39,3.65v1Z"/><path class="cls-3" d="M69.67,325.24a3.5,3.5,0,0,1,7,0v6.85a3.5,3.5,0,0,1-7,0ZM72,332c0,1,.3,1.48,1.22,1.48s1.21-.48,1.21-1.48v-6.74c0-1-.29-1.47-1.21-1.47S72,324.3,72,325.29Z"/><path class="cls-3" d="M78.77,335.31V322h2.28v11.31h3.59v2Z"/><path class="cls-3" d="M85.93,335.31V322h2.28v11.31H91.8v2Z"/><path class="cls-3" d="M93.2,335.31V322h6.12v2H95.49v3.43h2.94v2H95.49v3.9h4.08v2Z"/><path class="cls-3" d="M106,326.45v-1c0-1.12-.51-1.6-1.1-1.6-.92,0-1.22.48-1.22,1.47V332c0,1,.3,1.48,1.22,1.48s1.1-.48,1.1-1.35v-1.6h2.29v1.53a3.45,3.45,0,0,1-6.89,0v-6.85a3.19,3.19,0,0,1,3.5-3.41c2.28,0,3.39,1.66,3.39,3.65v1Z"/><path class="cls-3" d="M111.91,324H109.7v-2h6.7v2h-2.21v11.31h-2.28Z"/><path class="cls-3" d="M118.06,335.31V322h2.28v13.3Z"/><path class="cls-3" d="M122.87,325.24a3.5,3.5,0,0,1,7,0v6.85a3.5,3.5,0,0,1-7,0Zm2.28,6.79c0,1,.3,1.48,1.22,1.48s1.21-.48,1.21-1.48v-6.74c0-1-.29-1.47-1.21-1.47s-1.22.48-1.22,1.47Z"/><path class="cls-3" d="M132.07,335.31V322h2.12l2.78,7.61h0V322h2.06v13.3h-2l-2.91-8.3h0v8.3Z"/></svg>