<svg id="english" xmlns="http://www.w3.org/2000/svg" xmlns:xlink="http://www.w3.org/1999/xlink" viewBox="0 0 160 600"><defs><style>.cls-1{fill:none;}.cls-2{clip-path:url(#clip-path);}.cls-3{fill:#fff;}</style><clipPath id="clip-path"><rect class="cls-1" x="12.28" y="257.51" width="133.72" height="56.64"/></clipPath></defs><title>160x600img1</title><g class="cls-2"><path class="cls-3" d="M118.43,288.26a1.33,1.33,0,0,0-1.86.07c-.5.33-1.28.4-.83-1.48a36.69,36.69,0,0,1,2.14-5.15c.3-.71-.1-1.61-1.4-1.74a2.37,2.37,0,0,0-1.63.55,3.65,3.65,0,0,0-3-1.26c-2.39,0-5.64,1.81-7.57,4.75a16.5,16.5,0,0,1-4.23,4.35,1.69,1.69,0,0,1-1.39.42c-.78-.29-.53-1.35,1-3.2,2.58-2.92,3.3-5.13,1.84-6.45a4,4,0,0,0-4.41-.17,11.78,11.78,0,0,0-3.79,2.74c2.39-4.9,5.32-10.6,7.31-13.82.9-1.47.87-2.76-.38-3s-2.28.38-3.16,2.25c-2.16,4.4-3.88,8.34-5.92,12.71v0c-1.33,2.7-3.77,6.44-7,8.55a1.82,1.82,0,0,1-1.37.4c-.82-.28-.61-1.4,1-3.18,2.56-3,3.29-5.19,1.81-6.46-1-.91-2.68-1-4.39-.2a14,14,0,0,0-4.45,3.41c1-1.47.9-2.82,0-3.16-1.24-.4-1.89.1-3.1,3.4-.57,1.64-2.19,4.72-4.51,5.76-.53.25-1.46.35-1.07-1.47a46.13,46.13,0,0,1,2.16-5.18c.32-.69-.07-1.61-1.34-1.71a2,2,0,0,0-1.64.51,4,4,0,0,0-3-1.29c-3.11.05-7.73,3.11-8.89,7.78a4.1,4.1,0,0,1-2.94,1.65c-2.4.06-3.68-2-4.23-4.47,5.34-1.06,10.43-4.07,11.35-8.75.93-4.44-2.09-8.31-7.61-8.2a17.2,17.2,0,0,0-13.83,7.94c-.83,1.6-.09,2.88,1,2.82a2.92,2.92,0,0,0,2.64-2.1c.75-2.53,3.59-5.41,8.48-5.83,3.66-.3,5.75,2,5.39,5.07-.4,3.63-4,5.75-7.72,6.7l0-.26c0-1.09-.09-1.88-.83-2.14a.94.94,0,0,0-.63-.88c-.62-.32-1.41-.24-2.2.83-2.56,4-3.82,5.84-6.35,9.17-1.15,1.53-1.19,3.08-.06,3.46s2.32-.15,3.28-1.72c1.27-2,2.33-4,3.29-5.7.26,0,.51,0,.78-.06.14,3.37,1.82,8,6.43,7.2a7.17,7.17,0,0,0,3.75-2c.65,1.85,2.87,2.3,5.11,1.26a13.69,13.69,0,0,0,4.41-3.42c-1.38,3.44,1.25,6,5.28,2.71a4.38,4.38,0,0,1,.47-.43c-2,4.23-4.47,9-6,12.16-1,2.2-.55,3.19.75,3.29s2-.56,2.84-2.41c1.08-2.5,3.09-7.95,6.28-14.18,3.09-6,7-7.42,7.75-6.89s-.31,1.82-2,4.07c-1.93,2.39-1.84,4.4-.91,5.23,1.18,1.06,3.26,1.24,5.83-.83a15.09,15.09,0,0,0,1.83-1.72c-.85,1.63-1.12,2.85,0,3.29a1.73,1.73,0,0,0,2.26-1,25.19,25.19,0,0,1,4.18-6.4c2.27-2.45,4.36-3,4.8-2.59.83.51-.32,1.81-2.07,4-1.92,2.43-1.85,4.45-.88,5.29,1.14,1,3.23,1.22,5.84-.9a10.12,10.12,0,0,0,1.73-1.59c.15,2.76,2.73,3.53,5.25,2.32a13.2,13.2,0,0,0,4.43-3.39c-1.16,3.59,2.11,5.73,5.43,2.75.81-.72,1-1.7.57-2.06m-57.26-.43c-1.32.86-3.06.5-2.27-1.89.76-2.23,2.73-3.57,3.94-3.53a2.32,2.32,0,0,1,2.24,1.42,11.88,11.88,0,0,1-3.91,4m47.61.05c-1.31.82-3.08.48-2.25-1.91s2.59-3.59,3.81-3.6a2.7,2.7,0,0,1,2.35,1.51,13.69,13.69,0,0,1-3.91,4"/><path class="cls-3" d="M123.36,287.46a2,2,0,0,0-2,2,2,2,0,0,0,2,1.94,1.94,1.94,0,0,0,2-2,2,2,0,0,0-1.92-2"/></g><path class="cls-3" d="M28,321.66v-1c0-1.05-.48-1.49-1-1.49-.86,0-1.13.44-1.13,1.37v6.27c0,.92.27,1.37,1.13,1.37s1-.45,1-1.25v-1.49h2.12v1.42A2.94,2.94,0,0,1,27,330.07a3,3,0,0,1-3.26-3.17v-6.38A3,3,0,0,1,27,317.35c2.12,0,3.15,1.55,3.15,3.4v.91Z"/><path class="cls-3" d="M32.29,320.52a3,3,0,0,1,3.25-3.17,3,3,0,0,1,3.26,3.17v6.38a3,3,0,0,1-3.26,3.17,3,3,0,0,1-3.25-3.17Zm2.12,6.33c0,.92.28,1.37,1.13,1.37s1.14-.45,1.14-1.37v-6.27c0-.93-.28-1.37-1.14-1.37s-1.13.44-1.13,1.37Z"/><path class="cls-3" d="M43,329.9H40.86V317.53h3c2.38,0,3.6,1,3.6,3.65,0,2-.78,2.79-1.5,3.11l1.8,5.61H45.58l-1.5-5.13a8.88,8.88,0,0,1-1.1.06Zm0-6.82h.75c1.15,0,1.58-.43,1.58-1.9s-.43-1.91-1.58-1.91H43Z"/><path class="cls-3" d="M49.42,329.9V317.53h5.69v1.85H51.55v3.18h2.74v1.85H51.55v3.64h3.8v1.85Z"/><path class="cls-3" d="M65.12,321.66v-1c0-1.05-.48-1.49-1-1.49-.86,0-1.13.44-1.13,1.37v6.27c0,.92.27,1.37,1.13,1.37s1-.45,1-1.25v-1.49h2.12v1.42a2.94,2.94,0,0,1-3.15,3.17,3,3,0,0,1-3.26-3.17v-6.38a3,3,0,0,1,3.26-3.17c2.12,0,3.15,1.55,3.15,3.4v.91Z"/><path class="cls-3" d="M69.4,320.52a3.26,3.26,0,0,1,6.51,0v6.38a3.26,3.26,0,0,1-6.51,0Zm2.12,6.33c0,.92.28,1.37,1.13,1.37s1.14-.45,1.14-1.37v-6.27c0-.93-.28-1.37-1.14-1.37s-1.13.44-1.13,1.37Z"/><path class="cls-3" d="M77.86,329.9V317.53H80v10.52h3.34v1.85Z"/><path class="cls-3" d="M84.53,329.9V317.53h2.12v10.52H90v1.85Z"/><path class="cls-3" d="M91.29,329.9V317.53H97v1.85H93.42v3.18h2.74v1.85H93.42v3.64h3.8v1.85Z"/><path class="cls-3" d="M103.18,321.66v-1c0-1.05-.48-1.49-1-1.49-.86,0-1.14.44-1.14,1.37v6.27c0,.92.28,1.37,1.14,1.37s1-.45,1-1.25v-1.49h2.13v1.42a2.94,2.94,0,0,1-3.15,3.17,3,3,0,0,1-3.26-3.17v-6.38a3,3,0,0,1,3.26-3.17c2.12,0,3.15,1.55,3.15,3.4v.91Z"/><path class="cls-3" d="M108.7,319.38h-2.06v-1.85h6.24v1.85h-2V329.9H108.7Z"/><path class="cls-3" d="M114.42,329.9V317.53h2.13V329.9Z"/><path class="cls-3" d="M118.89,320.52a3.26,3.26,0,0,1,6.52,0v6.38a3.26,3.26,0,0,1-6.52,0Zm2.13,6.33c0,.92.27,1.37,1.13,1.37s1.13-.45,1.13-1.37v-6.27c0-.93-.27-1.37-1.13-1.37s-1.13.44-1.13,1.37Z"/><path class="cls-3" d="M127.46,329.9V317.53h2L132,324.6h0v-7.07H134V329.9h-1.85l-2.71-7.73h0v7.73Z"/></svg>