<svg id="english" xmlns="http://www.w3.org/2000/svg" viewBox="0 0 160 600"><defs><style>.cls-1{fill:#fff;}</style></defs><title>160x600img2</title><path class="cls-1" d="M32.05,276.72H30.13V275H36v1.72H34v9.83h-2Z"/><path class="cls-1" d="M37.12,286.55V275h2v4.7h2.12V275h2v11.55h-2v-5.12H39.1v5.12Z"/><path class="cls-1" d="M45.12,286.55V275h5.31v1.72H47.1v3h2.57v1.73H47.1v3.39h3.56v1.73Z"/><path class="cls-1" d="M59.39,277.84c-.08-1-.61-1.28-1-1.28-.64,0-1,.42-1,1.14,0,2,4,2.91,4,6.05a2.83,2.83,0,0,1-3.14,3,3,3,0,0,1-3-3.2l1.89-.27c.08,1.17.55,1.74,1.19,1.74a1,1,0,0,0,1.15-1.05c0-2.29-4-2.9-4-6.21,0-1.84,1.12-2.89,3.07-2.89a2.77,2.77,0,0,1,2.75,2.81Z"/><path class="cls-1" d="M64,276.72H62.11V275h5.83v1.72H66v9.83H64Z"/><path class="cls-1" d="M70,286.55H68.05L70.18,275h2.46l2.13,11.55H72.85L72.5,284H70.32Zm.64-4.29h1.6l-.78-5h0Z"/><path class="cls-1" d="M75.92,286.55V275h1.84l2.42,6.61h0V275H82v11.55H80.27l-2.52-7.22h0v7.22Z"/><path class="cls-1" d="M83.92,275h3c2,0,3.13,1.12,3.13,3.48v4.58c0,2.37-1.09,3.49-3.13,3.49h-3Zm2,9.92h.68c1.06,0,1.43-.4,1.43-1.62v-5.06c0-1.21-.37-1.61-1.43-1.61h-.68Z"/><path class="cls-1" d="M93.07,286.55H91.15L93.28,275h2.47l2.13,11.55H96L95.6,284H93.42Zm.64-4.29h1.6l-.78-5h0Z"/><path class="cls-1" d="M101,286.55H99V275h2.79c2.22,0,3.36.94,3.36,3.4,0,1.86-.72,2.61-1.39,2.92l1.68,5.23h-2L102,281.77a10.2,10.2,0,0,1-1,0Zm0-6.37h.7c1.08,0,1.48-.4,1.48-1.78s-.4-1.77-1.48-1.77H101Z"/><path class="cls-1" d="M107,275h3c2,0,3.14,1.12,3.14,3.48v4.58c0,2.37-1.09,3.49-3.14,3.49h-3Zm2,9.92h.69c1,0,1.42-.4,1.42-1.62v-5.06c0-1.21-.37-1.61-1.42-1.61H109Z"/><path class="cls-1" d="M118.85,286.55V275h2v11.55Z"/><path class="cls-1" d="M123,286.55V275h1.84l2.42,6.61h0V275h1.8v11.55h-1.73l-2.53-7.22h0v7.22Z"/><path class="cls-1" d="M36.09,304.55V293h2.85c2.45,0,3.58.94,3.58,3.4s-1.13,3.41-3.58,3.41h-.87v4.74Zm2-6.37h.77c1.3,0,1.7-.4,1.7-1.78s-.4-1.77-1.7-1.77h-.77Z"/><path class="cls-1" d="M44.09,304.55V293H49.4v1.72H46.07v3h2.56v1.73H46.07v3.39h3.56v1.73Z"/><path class="cls-1" d="M53.18,304.55h-2V293H54c2.22,0,3.36.94,3.36,3.4,0,1.86-.72,2.61-1.39,2.92l1.68,5.23h-2l-1.41-4.78a10.2,10.2,0,0,1-1,0Zm0-6.37h.7c1.07,0,1.47-.4,1.47-1.78s-.4-1.77-1.47-1.77h-.7Z"/><path class="cls-1" d="M59.19,304.55V293h5.54v1.72H61.18v3h2.65v1.73H61.18v5.12Z"/><path class="cls-1" d="M66.3,295.8a3,3,0,0,1,6.08,0v5.95a3,3,0,0,1-6.08,0Zm2,5.9c0,.87.26,1.28,1.06,1.28s1-.41,1-1.28v-5.86c0-.86-.25-1.28-1-1.28s-1.06.42-1.06,1.28Z"/><path class="cls-1" d="M76.28,304.55h-2V293h2.78c2.23,0,3.36.94,3.36,3.4,0,1.86-.72,2.61-1.39,2.92l1.68,5.23h-2l-1.4-4.78c-.26,0-.68,0-1,0Zm0-6.37H77c1.07,0,1.47-.4,1.47-1.78s-.4-1.77-1.47-1.77h-.71Z"/><path class="cls-1" d="M90.25,293v11.55H88.52v-9h0l-1.79,9h-1l-1.79-9h0v9H82.18V293h2.61l1.41,6.75h0L87.64,293Z"/><path class="cls-1" d="M93.22,304.55H91.3L93.43,293H95.9L98,304.55H96.11L95.75,302H93.58Zm.64-4.29h1.6l-.78-5h0Z"/><path class="cls-1" d="M99.17,304.55V293H101l2.41,6.61h0V293h1.8v11.55h-1.73L101,297.33h0v7.22Z"/><path class="cls-1" d="M111.18,296.85V296c0-1-.45-1.4-1-1.4-.8,0-1.06.42-1.06,1.28v5.86c0,.87.26,1.28,1.06,1.28s1-.41,1-1.17v-1.39h2v1.33a2.75,2.75,0,0,1-2.94,3,2.78,2.78,0,0,1-3-3V295.8a2.79,2.79,0,0,1,3-3,2.87,2.87,0,0,1,2.94,3.17v.85Z"/><path class="cls-1" d="M115.17,304.55V293h5.32v1.72h-3.33v3h2.56v1.73h-2.56v3.39h3.55v1.73Z"/><path class="cls-1" d="M124,304.55l-1.11,2h-.84l.78-2h-.72v-1.89H124Z"/><path class="cls-1" d="M23.06,314.85V314c0-1-.45-1.4-1-1.4-.8,0-1.06.42-1.06,1.28v5.86c0,.87.26,1.28,1.06,1.28s1-.41,1-1.17v-1.39h2v1.33a2.75,2.75,0,0,1-2.94,3,2.78,2.78,0,0,1-3-3V313.8a2.78,2.78,0,0,1,3-3A2.87,2.87,0,0,1,25,314v.85Z"/><path class="cls-1" d="M27.06,313.8a2.78,2.78,0,0,1,3-3,2.78,2.78,0,0,1,3,3v5.95a2.78,2.78,0,0,1-3,3,2.78,2.78,0,0,1-3-3Zm2,5.9c0,.87.26,1.28,1.06,1.28s1-.41,1-1.28v-5.86c0-.86-.25-1.28-1-1.28S29,313,29,313.84Z"/><path class="cls-1" d="M43,311v11.55H41.28v-9h0l-1.79,9h-1l-1.79-9h0v9H34.94V311h2.61L39,317.75h0L40.4,311Z"/><path class="cls-1" d="M44.83,322.55V311h5.54v1.72H46.82v3h2.65v1.73H46.82v5.12Z"/><path class="cls-1" d="M51.93,313.8a3,3,0,0,1,6.09,0v5.95a3,3,0,0,1-6.09,0Zm2,5.9c0,.87.26,1.28,1.06,1.28S56,320.57,56,319.7v-5.86c0-.86-.25-1.28-1.05-1.28s-1.06.42-1.06,1.28Z"/><path class="cls-1" d="M61.92,322.55h-2V311h2.79c2.23,0,3.36.94,3.36,3.4,0,1.86-.72,2.61-1.39,2.92l1.68,5.23h-2l-1.41-4.78a10.2,10.2,0,0,1-1,0Zm0-6.37h.7c1.08,0,1.48-.4,1.48-1.78s-.4-1.77-1.48-1.77h-.7Z"/><path class="cls-1" d="M69.09,312.72H67.17V311H73v1.72H71.07v9.83h-2Z"/><path class="cls-1" d="M78.86,322.55H76.94L79.07,311h2.47l2.13,11.55H81.74L81.39,320H79.21Zm.64-4.29h1.6l-.78-5h0Z"/><path class="cls-1" d="M84.81,322.55V311h1.84l2.42,6.61h0V311h1.8v11.55H89.17l-2.53-7.22h0v7.22Z"/><path class="cls-1" d="M92.81,311h3c2,0,3.14,1.12,3.14,3.48v4.58c0,2.37-1.09,3.49-3.14,3.49h-3Zm2,9.92h.69c1.05,0,1.42-.4,1.42-1.62v-5.06c0-1.21-.37-1.61-1.42-1.61H94.8Z"/><path class="cls-1" d="M108.42,311h2L108,322.55h-2L103.55,311h2l1.44,8h0Z"/><path class="cls-1" d="M112,322.55h-1.92L112.24,311h2.47l2.12,11.55h-1.92l-.35-2.56h-2.18Zm.64-4.29h1.6l-.78-5h0Z"/><path class="cls-1" d="M117.89,322.55V311h2v9.82H123v1.73Z"/><path class="cls-1" d="M124.21,311h2v8.72c0,.85.34,1.26,1.06,1.26s1.05-.41,1.05-1.26V311h2v8.64a3,3,0,1,1-6.08,0Z"/><path class="cls-1" d="M132.21,322.55V311h5.31v1.72h-3.33v3h2.56v1.73h-2.56v3.39h3.56v1.73Z"/><path class="cls-1" d="M139.18,322.55v-1.89h1.89v1.89Z"/></svg>