<svg id="english" xmlns="http://www.w3.org/2000/svg" viewBox="0 0 160 600"><defs><style>.cls-1{fill:#fff;}</style></defs><title>160x600img2</title><path class="cls-1" d="M24.49,278.08H22.21V276h6.92v2.05H26.85v11.67H24.49Z"/><path class="cls-1" d="M30.51,289.75V276h2.36v5.59h2.51V276h2.36v13.72H35.38v-6.08H32.87v6.08Z"/><path class="cls-1" d="M40,289.75V276h6.31v2.05H42.38v3.54h3v2.05h-3v4H46.6v2.05Z"/><path class="cls-1" d="M57,279.41c-.09-1.18-.72-1.52-1.25-1.52-.76,0-1.18.49-1.18,1.35,0,2.34,4.79,3.46,4.79,7.19,0,2.26-1.52,3.51-3.73,3.51s-3.44-1.75-3.53-3.8l2.24-.32c.1,1.39.65,2.07,1.41,2.07a1.21,1.21,0,0,0,1.37-1.25c0-2.72-4.79-3.45-4.79-7.38,0-2.19,1.33-3.43,3.65-3.43,1.92,0,3.06,1.39,3.27,3.33Z"/><path class="cls-1" d="M62.48,278.08H60.2V276h6.92v2.05H64.84v11.67H62.48Z"/><path class="cls-1" d="M69.54,289.75H67.26L69.78,276h2.93l2.53,13.72H73l-.42-3H70Zm.76-5.09h1.9l-.93-5.9h0Z"/><path class="cls-1" d="M76.61,289.75V276h2.18l2.87,7.85h0V276h2.13v13.72h-2l-3-8.57h0v8.57Z"/><path class="cls-1" d="M86.11,276h3.5c2.43,0,3.73,1.33,3.73,4.14v5.44c0,2.81-1.3,4.14-3.73,4.14h-3.5Zm2.36,11.78h.82c1.25,0,1.69-.47,1.69-1.92v-6c0-1.45-.44-1.93-1.69-1.93h-.82Z"/><path class="cls-1" d="M97,289.75H94.7L97.23,276h2.93l2.53,13.72h-2.28l-.42-3H97.4Zm.76-5.09h1.9l-.93-5.9h0Z"/><path class="cls-1" d="M106.41,289.75h-2.36V276h3.31c2.64,0,4,1.12,4,4.05,0,2.2-.85,3.09-1.65,3.46l2,6.21h-2.4l-1.67-5.68a10.93,10.93,0,0,1-1.22.06Zm0-7.56h.84c1.27,0,1.75-.48,1.75-2.11s-.48-2.12-1.75-2.12h-.84Z"/><path class="cls-1" d="M113.55,276h3.5c2.44,0,3.73,1.33,3.73,4.14v5.44c0,2.81-1.29,4.14-3.73,4.14h-3.5Zm2.36,11.78h.82c1.26,0,1.69-.47,1.69-1.92v-6c0-1.45-.43-1.93-1.69-1.93h-.82Z"/><path class="cls-1" d="M127.6,289.75V276H130v13.72Z"/><path class="cls-1" d="M132.56,289.75V276h2.19l2.87,7.85h0V276h2.13v13.72h-2.06l-3-8.57h0v8.57Z"/><path class="cls-1" d="M29.29,311.14V297.41h3.38c2.91,0,4.26,1.12,4.26,4s-1.35,4.05-4.26,4.05h-1v5.63Zm2.36-7.57h.91c1.54,0,2-.48,2-2.11s-.48-2.11-2-2.11h-.91Z"/><path class="cls-1" d="M38.79,311.14V297.41h6.32v2h-4V303h3v2.05h-3v4h4.22v2.06Z"/><path class="cls-1" d="M49.59,311.14H47.23V297.41h3.31c2.64,0,4,1.12,4,4,0,2.2-.85,3.1-1.65,3.46l2,6.22h-2.4l-1.67-5.69a10.93,10.93,0,0,1-1.22.06Zm0-7.57h.84c1.27,0,1.75-.48,1.75-2.11s-.48-2.11-1.75-2.11h-.84Z"/><path class="cls-1" d="M56.74,311.14V297.41h6.58v2H59.09V303h3.16v2.05H59.09v6.09Z"/><path class="cls-1" d="M65.17,300.74a3.62,3.62,0,0,1,7.23,0v7.07a3.62,3.62,0,0,1-7.23,0Zm2.36,7c0,1,.31,1.52,1.26,1.52s1.25-.49,1.25-1.52v-7c0-1-.3-1.52-1.25-1.52s-1.26.5-1.26,1.52Z"/><path class="cls-1" d="M77,311.14H74.68V297.41H78c2.64,0,4,1.12,4,4,0,2.2-.86,3.1-1.66,3.46l2,6.22H79.93l-1.68-5.69a10.74,10.74,0,0,1-1.21.06Zm0-7.57h.83c1.28,0,1.75-.48,1.75-2.11s-.47-2.11-1.75-2.11H77Z"/><path class="cls-1" d="M93.63,297.41v13.73h-2V300.41h0l-2.13,10.73H88.27l-2.13-10.73h0v10.73h-2V297.41h3.1l1.67,8h0l1.67-8Z"/><path class="cls-1" d="M97.16,311.14H94.88l2.53-13.73h2.93l2.53,13.73h-2.28l-.42-3.05H97.58Zm.76-5.1h1.9l-.93-5.89h0Z"/><path class="cls-1" d="M104.23,311.14V297.41h2.19l2.87,7.85h0v-7.85h2.13v13.73H109.4l-3-8.58h0v8.58Z"/><path class="cls-1" d="M118.49,302v-1.06c0-1.16-.53-1.66-1.14-1.66-.95,0-1.26.5-1.26,1.52v7c0,1,.31,1.52,1.26,1.52s1.14-.49,1.14-1.39v-1.65h2.36v1.58a3.27,3.27,0,0,1-3.5,3.52,3.31,3.31,0,0,1-3.62-3.52v-7.07a3.31,3.31,0,0,1,3.62-3.52c2.36,0,3.5,1.71,3.5,3.76v1Z"/><path class="cls-1" d="M123.24,311.14V297.41h6.31v2h-4V303h3v2.05h-3v4h4.22v2.06Z"/><path class="cls-1" d="M133.77,311.14l-1.31,2.35h-1l.93-2.35h-.86v-2.25h2.25Z"/><path class="cls-1" d="M13.81,323.37v-1.06c0-1.16-.53-1.66-1.14-1.66-.95,0-1.26.5-1.26,1.53v6.95c0,1,.31,1.53,1.26,1.53s1.14-.5,1.14-1.39v-1.66h2.36v1.58a3.27,3.27,0,0,1-3.5,3.52,3.3,3.3,0,0,1-3.61-3.52v-7.07a3.3,3.3,0,0,1,3.61-3.52c2.36,0,3.5,1.71,3.5,3.77v1Z"/><path class="cls-1" d="M18.56,322.12a3.3,3.3,0,0,1,3.61-3.52,3.31,3.31,0,0,1,3.62,3.52v7.07a3.31,3.31,0,0,1-3.62,3.52,3.3,3.3,0,0,1-3.61-3.52Zm2.36,7c0,1,.3,1.53,1.25,1.53s1.26-.5,1.26-1.53v-6.95c0-1-.31-1.53-1.26-1.53s-1.25.5-1.25,1.53Z"/><path class="cls-1" d="M37.51,318.79v13.73h-2V321.79h0l-2.13,10.73H32.15L30,321.79h0v10.73H27.93V318.79H31l1.67,8h0l1.67-8Z"/><path class="cls-1" d="M39.67,332.52V318.79h6.58v2H42v3.54h3.16v2.05H42v6.09Z"/><path class="cls-1" d="M48.11,322.12a3.3,3.3,0,0,1,3.62-3.52,3.3,3.3,0,0,1,3.61,3.52v7.07a3.3,3.3,0,0,1-3.61,3.52,3.3,3.3,0,0,1-3.62-3.52Zm2.36,7c0,1,.31,1.53,1.26,1.53s1.25-.5,1.25-1.53v-6.95c0-1-.3-1.53-1.25-1.53s-1.26.5-1.26,1.53Z"/><path class="cls-1" d="M60,332.52H57.62V318.79h3.31c2.64,0,4,1.12,4,4,0,2.21-.86,3.1-1.66,3.46l2,6.22h-2.4l-1.67-5.69a10.74,10.74,0,0,1-1.21.06ZM60,325h.83c1.28,0,1.75-.47,1.75-2.11s-.47-2.11-1.75-2.11H60Z"/><path class="cls-1" d="M68.49,320.84H66.21v-2h6.92v2H70.85v11.68H68.49Z"/><path class="cls-1" d="M80.1,332.52H77.82l2.53-13.73h2.93l2.53,13.73H83.52l-.41-3H80.52Zm.76-5.1h1.9l-.93-5.89h0Z"/><path class="cls-1" d="M87.17,332.52V318.79h2.19l2.87,7.85h0v-7.85H94.4v13.73H92.34l-3-8.58h0v8.58Z"/><path class="cls-1" d="M96.67,318.79h3.5c2.44,0,3.73,1.33,3.73,4.15v5.43c0,2.82-1.29,4.15-3.73,4.15h-3.5ZM99,330.58h.82c1.25,0,1.69-.48,1.69-1.92v-6c0-1.44-.44-1.92-1.69-1.92H99Z"/><path class="cls-1" d="M115.21,318.79h2.32l-2.87,13.73H112.3l-2.87-13.73h2.32l1.71,9.53h0Z"/><path class="cls-1" d="M119.5,332.52h-2.28l2.53-13.73h2.93l2.53,13.73h-2.28l-.42-3h-2.59Zm.76-5.1h1.91l-.94-5.89h0Z"/><path class="cls-1" d="M126.46,332.52V318.79h2.36v11.68h3.71v2Z"/><path class="cls-1" d="M134,318.79h2.35v10.36c0,1,.4,1.51,1.26,1.51s1.25-.5,1.25-1.51V318.79h2.36v10.27a3.61,3.61,0,1,1-7.22,0Z"/><path class="cls-1" d="M143.47,332.52V318.79h6.31v2h-3.95v3.54h3v2.05h-3v4h4.22v2Z"/><path class="cls-1" d="M151.76,332.52v-2.24H154v2.24Z"/></svg>