<svg id="english" xmlns="http://www.w3.org/2000/svg" xmlns:xlink="http://www.w3.org/1999/xlink" viewBox="0 0 160 600"><defs><style>.cls-1{fill:none;}.cls-2,.cls-4{fill:#fff;}.cls-2{stroke:#fff;stroke-width:2.3px;}.cls-3{clip-path:url(#clip-path);}</style><clipPath id="clip-path"><rect class="cls-1" x="24" y="258.97" width="112" height="47.44"/></clipPath></defs><title>160x600img3</title><rect class="cls-2" x="66.42" y="284.6" width="30.08" height="82.66" transform="translate(-244.59 406.94) rotate(-89.92)"/><path d="M58.54,323.93c-.07-.84-.51-1.08-.89-1.08-.54,0-.84.35-.84,1,0,1.66,3.41,2.46,3.41,5.11a2.39,2.39,0,0,1-2.65,2.51,2.58,2.58,0,0,1-2.52-2.71l1.6-.23c.07,1,.46,1.48,1,1.48a.86.86,0,0,0,1-.9c0-1.93-3.41-2.45-3.41-5.25a2.29,2.29,0,0,1,2.6-2.43,2.34,2.34,0,0,1,2.33,2.36Z"/><path d="M61.44,331.29v-9.77h1.68v4H64.9v-4h1.68v9.77H64.9V327H63.12v4.33Z"/><path d="M68.15,323.89a2.57,2.57,0,0,1,5.14,0v5a2.57,2.57,0,0,1-5.14,0Zm1.68,5c0,.73.22,1.09.89,1.09s.9-.36.9-1.09v-4.95c0-.73-.22-1.08-.9-1.08s-.89.35-.89,1.08Z"/><path d="M74.85,331.29v-9.77h2.41c2.07,0,3,.8,3,2.88s-1,2.89-3,2.89h-.73v4Zm1.68-5.38h.65c1.1,0,1.43-.34,1.43-1.51s-.33-1.5-1.43-1.5h-.65Z"/><path d="M84.51,331.29v-9.77h1.56l2,5.59h0v-5.59h1.52v9.77H88.2l-2.14-6.1h0v6.1Z"/><path d="M91.23,323.89a2.57,2.57,0,0,1,5.14,0v5a2.57,2.57,0,0,1-5.14,0Zm1.68,5c0,.73.21,1.09.89,1.09s.89-.36.89-1.09v-4.95c0-.73-.21-1.08-.89-1.08s-.89.35-.89,1.08Z"/><path d="M100.85,321.52h1.38l1.14,6.23h0l.93-6.23h1.57l-1.72,9.77h-1.41l-1.22-6.45h0l-1.14,6.45H99l-1.85-9.77H98.7l1,6.23h0Z"/><g class="cls-3"><path class="cls-4" d="M112.91,284.72c-.44-.45-1-.33-1.56.07s-1.07.33-.7-1.25a31.07,31.07,0,0,1,1.8-4.31c.25-.59-.09-1.35-1.17-1.46a2.07,2.07,0,0,0-1.37.46,3.05,3.05,0,0,0-2.5-1.05c-2,0-4.73,1.51-6.35,4a13.65,13.65,0,0,1-3.54,3.65,1.38,1.38,0,0,1-1.16.35c-.65-.24-.45-1.13.87-2.68,2.17-2.44,2.77-4.3,1.55-5.4a3.32,3.32,0,0,0-3.7-.14,9.9,9.9,0,0,0-3.17,2.29c2-4.1,4.45-8.87,6.13-11.57.75-1.24.73-2.32-.32-2.5s-1.92.31-2.65,1.89c-1.81,3.68-3.25,7-5,10.64v0a18.73,18.73,0,0,1-5.87,7.17,1.55,1.55,0,0,1-1.14.33c-.69-.24-.51-1.17.84-2.66,2.15-2.5,2.76-4.35,1.52-5.41a3.35,3.35,0,0,0-3.67-.17,11.64,11.64,0,0,0-3.73,2.85c.82-1.23.76-2.36,0-2.64-1-.33-1.58.08-2.59,2.84-.48,1.38-1.84,4-3.78,4.83-.44.21-1.23.3-.9-1.23a38.68,38.68,0,0,1,1.81-4.34c.27-.58-.06-1.34-1.12-1.43a1.72,1.72,0,0,0-1.38.43,3.29,3.29,0,0,0-2.53-1.08c-2.61,0-6.48,2.6-7.45,6.51A3.48,3.48,0,0,1,57.62,285c-2,0-3.09-1.72-3.55-3.75,4.48-.89,8.74-3.41,9.52-7.33.78-3.71-1.76-7-6.38-6.86a14.41,14.41,0,0,0-11.58,6.64c-.7,1.34-.08,2.42.87,2.36a2.45,2.45,0,0,0,2.21-1.75c.62-2.12,3-4.54,7.1-4.89,3.06-.24,4.82,1.67,4.51,4.25-.33,3-3.36,4.82-6.46,5.61l0-.22c0-.91-.07-1.57-.69-1.79a.79.79,0,0,0-.53-.74c-.51-.26-1.18-.19-1.84.7-2.14,3.34-3.2,4.89-5.32,7.68-1,1.28-1,2.58,0,2.9s1.94-.13,2.75-1.44c1.06-1.71,2-3.36,2.75-4.78l.65,0c.13,2.82,1.53,6.66,5.39,6a6,6,0,0,0,3.15-1.67c.54,1.55,2.4,1.93,4.27,1.05A11.31,11.31,0,0,0,68,284.13c-1.15,2.88,1.06,5,4.43,2.27a4,4,0,0,1,.4-.36c-1.68,3.54-3.75,7.52-5,10.19-.84,1.84-.47,2.66.63,2.75s1.7-.47,2.37-2c.91-2.09,2.59-6.66,5.27-11.87,2.58-5,5.86-6.22,6.49-5.78s-.26,1.53-1.72,3.41c-1.62,2-1.54,3.69-.76,4.38,1,.89,2.72,1,4.88-.69A14.18,14.18,0,0,0,86.54,285c-.72,1.36-.94,2.39-.05,2.75a1.45,1.45,0,0,0,1.9-.86,21,21,0,0,1,3.49-5.36c1.9-2.06,3.66-2.48,4-2.17.69.42-.27,1.52-1.74,3.37-1.61,2-1.55,3.73-.74,4.42,1,.88,2.71,1,4.89-.74a9.33,9.33,0,0,0,1.46-1.33c.12,2.31,2.28,2.95,4.39,1.94a11.3,11.3,0,0,0,3.72-2.84c-1,3,1.76,4.79,4.54,2.3.68-.6.81-1.43.48-1.73m-48-.35c-1.11.71-2.57.41-1.9-1.59s2.29-3,3.3-2.95A1.94,1.94,0,0,1,68.23,281,10.24,10.24,0,0,1,65,284.37m39.88,0c-1.1.68-2.58.4-1.89-1.6a4.07,4.07,0,0,1,3.19-3,2.25,2.25,0,0,1,2,1.27,11.52,11.52,0,0,1-3.27,3.35"/><path class="cls-4" d="M117,284.05a1.67,1.67,0,0,0-1.67,1.69,1.7,1.7,0,0,0,1.64,1.62,1.61,1.61,0,0,0,1.63-1.64,1.64,1.64,0,0,0-1.6-1.67"/></g></svg>