<svg id="english" xmlns="http://www.w3.org/2000/svg" xmlns:xlink="http://www.w3.org/1999/xlink" viewBox="0 0 160 600"><defs><style>.cls-1{fill:none;}.cls-2,.cls-4{fill:#fff;}.cls-2{stroke:#fff;stroke-width:2.3px;}.cls-3{clip-path:url(#clip-path);}</style><clipPath id="clip-path"><rect class="cls-1" x="18" y="255.97" width="126" height="53.37"/></clipPath></defs><title>160x600img3</title><rect class="cls-2" x="65.72" y="284.81" width="33.84" height="93" transform="translate(-248.78 413.48) rotate(-89.92)"/><path d="M56.86,329.05c-.08-.94-.58-1.22-1-1.22-.61,0-1,.4-1,1.08,0,1.88,3.84,2.77,3.84,5.76a2.7,2.7,0,0,1-3,2.82,2.9,2.9,0,0,1-2.83-3.05l1.8-.26c.07,1.11.52,1.66,1.13,1.66a1,1,0,0,0,1.09-1c0-2.18-3.84-2.76-3.84-5.91,0-1.75,1.07-2.74,2.93-2.74a2.64,2.64,0,0,1,2.62,2.66Z"/><path d="M60.12,337.33v-11H62v4.48h2v-4.48H65.9v11H64v-4.87H62v4.87Z"/><path d="M67.67,329a2.9,2.9,0,0,1,5.79,0v5.67a2.9,2.9,0,0,1-5.79,0Zm1.89,5.62c0,.83.24,1.22,1,1.22s1-.39,1-1.22v-5.57c0-.82-.25-1.22-1-1.22s-1,.4-1,1.22Z"/><path d="M75.21,337.33v-11h2.71c2.33,0,3.41.9,3.41,3.24s-1.08,3.25-3.41,3.25H77.1v4.5Zm1.89-6.06h.73c1.23,0,1.61-.38,1.61-1.69s-.38-1.69-1.61-1.69H77.1Z"/><path d="M86.08,337.33v-11h1.75l2.3,6.29h0v-6.29h1.7v11H90.22l-2.41-6.86h0v6.86Z"/><path d="M93.63,329a2.9,2.9,0,0,1,5.79,0v5.67a2.9,2.9,0,0,1-5.79,0Zm1.89,5.62c0,.83.24,1.22,1,1.22s1-.39,1-1.22v-5.57c0-.82-.24-1.22-1-1.22s-1,.4-1,1.22Z"/><path d="M104.46,326.34H106l1.28,7h0l1.05-7h1.77l-1.94,11h-1.58l-1.37-7.26h0l-1.28,7.26h-1.59l-2.08-11H102l1.16,7h0Z"/><g class="cls-3"><path class="cls-4" d="M118,284.94c-.49-.51-1.16-.37-1.76.07s-1.19.37-.78-1.39a34.9,34.9,0,0,1,2-4.86c.29-.66-.09-1.52-1.31-1.64a2.25,2.25,0,0,0-1.54.52,3.45,3.45,0,0,0-2.82-1.19c-2.25,0-5.32,1.71-7.13,4.48a15.36,15.36,0,0,1-4,4.09,1.58,1.58,0,0,1-1.31.41c-.73-.28-.5-1.28,1-3,2.43-2.75,3.12-4.84,1.73-6.08a3.76,3.76,0,0,0-4.15-.16,11.27,11.27,0,0,0-3.57,2.58c2.25-4.61,5-10,6.89-13,.85-1.39.82-2.6-.36-2.81s-2.15.36-3,2.12c-2,4.15-3.66,7.86-5.57,12l0,0c-1.25,2.54-3.55,6.07-6.6,8.06a1.79,1.79,0,0,1-1.29.38c-.77-.27-.57-1.32,1-3,2.41-2.81,3.1-4.89,1.7-6.09-.95-.86-2.52-.93-4.13-.19a13.31,13.31,0,0,0-4.2,3.21c.93-1.38.86-2.65,0-3-1.16-.38-1.78.09-2.91,3.2-.54,1.54-2.07,4.45-4.26,5.42-.49.25-1.37.34-1-1.38a42.74,42.74,0,0,1,2-4.88c.3-.65-.06-1.51-1.26-1.61a1.9,1.9,0,0,0-1.55.48A3.7,3.7,0,0,0,67,276.41c-2.93,0-7.28,2.92-8.38,7.33a4,4,0,0,1-2.77,1.56c-2.26.05-3.47-1.93-4-4.22,5-1,9.83-3.84,10.7-8.25.88-4.18-2-7.83-7.17-7.72a16.21,16.21,0,0,0-13,7.48c-.79,1.51-.09,2.71,1,2.65a2.75,2.75,0,0,0,2.49-2c.7-2.38,3.38-5.1,8-5.5,3.44-.27,5.42,1.88,5.07,4.78-.37,3.42-3.78,5.42-7.27,6.31l0-.24c0-1-.08-1.77-.78-2a.88.88,0,0,0-.59-.83c-.58-.3-1.33-.23-2.07.78-2.42,3.76-3.61,5.5-6,8.64-1.08,1.44-1.12,2.9,0,3.26s2.18-.14,3.09-1.62c1.19-1.93,2.19-3.78,3.1-5.37.24,0,.48,0,.73-.06.14,3.18,1.72,7.5,6.06,6.78a6.71,6.71,0,0,0,3.53-1.88c.62,1.74,2.71,2.17,4.81,1.19a13,13,0,0,0,4.16-3.23c-1.3,3.25,1.18,5.65,5,2.56a4,4,0,0,1,.44-.41c-1.88,4-4.21,8.46-5.65,11.46-.94,2.08-.52,3,.7,3.1s1.93-.53,2.68-2.27c1-2.35,2.91-7.49,5.92-13.36,2.91-5.64,6.59-7,7.3-6.5s-.29,1.72-1.94,3.84c-1.81,2.26-1.72,4.15-.85,4.93,1.11,1,3.07,1.16,5.49-.78a15.92,15.92,0,0,0,1.73-1.62c-.8,1.53-1,2.69,0,3.09a1.62,1.62,0,0,0,2.13-1,23.74,23.74,0,0,1,3.94-6c2.14-2.31,4.11-2.79,4.52-2.44.78.48-.3,1.71-2,3.79-1.81,2.3-1.74,4.2-.83,5,1.08,1,3,1.15,5.5-.84a10.24,10.24,0,0,0,1.64-1.49c.14,2.6,2.57,3.32,5,2.18a12.38,12.38,0,0,0,4.17-3.2c-1.1,3.38,2,5.4,5.12,2.59.75-.67.91-1.6.53-1.94m-53.95-.4c-1.25.81-2.89.47-2.14-1.78.71-2.1,2.57-3.37,3.71-3.33a2.18,2.18,0,0,1,2.11,1.34,11.07,11.07,0,0,1-3.68,3.77m44.86,0c-1.24.77-2.9.45-2.12-1.8s2.44-3.38,3.59-3.4a2.52,2.52,0,0,1,2.21,1.43,12.86,12.86,0,0,1-3.68,3.77"/><path class="cls-4" d="M122.67,284.19a1.88,1.88,0,0,0-1.88,1.89,1.93,1.93,0,0,0,1.85,1.83,1.82,1.82,0,0,0,1.83-1.85,1.84,1.84,0,0,0-1.8-1.87"/></g></svg>