<svg xmlns="http://www.w3.org/2000/svg" width="189.21" height="52.13" viewBox="0 0 189.21 52.13"><defs><style>.cls-1{fill:#fff;}.cls-2{stroke:#020000;stroke-miterlimit:10;stroke-width:0.75px;}</style></defs><title>cta</title><g id="Layer_2" data-name="Layer 2"><g id="Layer_1-2" data-name="Layer 1"><rect class="cls-1" width="189.21" height="52.13" rx="10.12" ry="10.12"/><path class="cls-2" d="M31.53,20.69A3.47,3.47,0,0,1,33,20.47c.92,0,1.19.12,1.19.3s-.51.56-.68.83a35.74,35.74,0,0,1-3.3,4.52c2.93,3,2.69,1.41,4.57,3.59a2.57,2.57,0,0,1,.68,1.39.39.39,0,0,1-.41.44,1.24,1.24,0,0,1-.81-.44c-.78-.81-1.83-1.93-4.54-4.57-2.59,2.76-7.77,5.86-8.6,5.86-.07,0-.1,0-.1-.07s.17-.24.56-.46A29.25,29.25,0,0,0,32,21.23c-1.42.05-4.91.24-5.47.32s-.73.36-1.1.36-2.54-.85-2.54-1.27c0-.07.1-.12.29-.12a1.68,1.68,0,0,1,.46.05,19.73,19.73,0,0,0,3.45.22C27.21,20.79,31,20.74,31.53,20.69Zm6.6-2.2c-.05-.46-.78-1-2.17-1.66-.35-.12-.54-.27-.54-.39s.24-.27.81-.32a15.67,15.67,0,0,1,3,.79c.36.14.44.31.44.53s-.08.39-.08.66l0,14.39c0,4.5-.15,5.11-.59,6-.17.29-.34.44-.49.44s-.34-.3-.34-1Z"/><path class="cls-2" d="M62.61,25.26c1.71-.07,1.37-.66,2.86-.66.22,0,2.1,0,2.1.86,0,.29-.34.53-1,.53l-1.76,0c-4.37,0-13.43.22-14.48.39-.69.12-.86.34-1.25.34-.56,0-3.27-1-3.27-1.44,0-.1.12-.12.32-.12a2.12,2.12,0,0,1,.34,0,46.25,46.25,0,0,0,6.35.35c2.15,0,4.59-.08,7.35-.18a30.2,30.2,0,0,0,1.61-6.79c-3,0-7.37.3-9.18.37-1,.12-1,.46-1.42.46s-2.54-.88-2.54-1.27c0-.07.08-.12.27-.12a1.35,1.35,0,0,1,.32,0,27.06,27.06,0,0,0,3.69.22c2.29,0,5-.15,7.84-.27a13.56,13.56,0,0,1,1.59-.17c.71,0,1.58,0,1.58.36s-.34.54-.56.88a50.61,50.61,0,0,1-2.42,6.25ZM51.76,32c0-.49-.49-.71-1.46-1.05-.3-.08-.56-.22-.56-.34s.24-.27,1-.27a11.59,11.59,0,0,1,2.76.32l6.74-.13c.61-.05.54-.24,1.18-.24.24,0,1.34,0,1.34.39,0,.17-.24.42-.34.68-.49,2-.95,3.86-1.15,4.69.88.2,1.27.47,1.27.66s-.27.27-.76.27l-8.4.12c-.12,1-.44,1.47-.71,1.47s-.49-.42-.59-1.34Zm1.88-.73c-.07.09-.34.14-.34.39l.1,4.86,5.52-.12a5.61,5.61,0,0,0,1.56-.3l.35-5Z"/><path class="cls-2" d="M82.79,31.25c-.12-.52-.73-.74-1.52-1-.39-.09-.61-.22-.61-.36s.32-.32,1.08-.37c2.37.1,2.69.37,2.69.88,0,.17-.05.37-.05.61l0,3.86c1.15,0,3.79-.1,5.11-.19,0-.57.07-3.72.07-4.65,0-.58-.39-.92-1.27-1.34-.32-.12-.54-.27-.54-.41s.25-.22.86-.25a13,13,0,0,1,2.22.49c.37.15.47.29.47.46s-.13.49-.15.83c-.12,1.25-.32,4.06-.39,4.87.51,0,1-.05,1.61-.13,1.42-.12,1.15-.53,2.35-.53.19,0,2.83,0,2.83,1,0,.32-.39.59-1.12.59h-.2c-1.78-.15-4-.2-6.3-.2-3.35,0-6.92.13-9.85.35-.75.26-1,.53-1.41.53-.66,0-3.18-1.32-3.18-1.71,0-.1.07-.12.24-.12a1.84,1.84,0,0,1,.49.05,64.28,64.28,0,0,0,6.75.34ZM84.5,18.79c-.2-.12-.39-.27-.39-.39s.22-.22.88-.22a10.32,10.32,0,0,1,3.12,1.34.6.6,0,0,1,.22.46,17,17,0,0,1-1.88,3,28.14,28.14,0,0,0,3.67,1.79c1.71.68,1.12-.56,4.93,2,.54.39.76.75.76,1.05s-.2.44-.54.44a1.86,1.86,0,0,1-.88-.27C92.58,27,88.53,25.09,86,23.48a21,21,0,0,1-9.33,5.88c-.1,0-.17,0-.17-.07s.17-.24.61-.46c3.54-1.54,7.67-5.47,9.09-8.41C86.16,19.94,85.45,19.4,84.5,18.79Z"/><path class="cls-2" d="M117.09,18.44c0-.31-1-.85-2.22-1.36-.42-.15-.62-.27-.62-.39s.27-.22.86-.25a13.4,13.4,0,0,1,2.74.51c.66.25.78.44.78.66s-.08.35-.08.62l0,7.64a13.84,13.84,0,0,1-.39,3.45c-.22.56-.49.85-.69.85s-.36-.37-.36-1.15V25.75a95.09,95.09,0,0,1-12.68,2.93c-.59.17-.71.44-1.1.44-.54,0-3.44-1.34-3.44-1.76,0-.07.09-.12.26-.12a3.25,3.25,0,0,1,.44.05,18.36,18.36,0,0,0,2.91.22,39.85,39.85,0,0,0,6.72-.71,37,37,0,0,0,.81-4.13c0-.44-.62-.93-1.15-1.22-.27-.15-.42-.27-.42-.37s.2-.19.59-.19a8.35,8.35,0,0,1,2.44.78c.27.12.37.29.37.44s-1.49,3.83-1.74,4.57a52,52,0,0,0,6-1.4Zm-3.72.13c.86.07,1.3.39,1.3.71s-.44.61-1.34.61c-2.94.05-6.09.24-8.26.36-.66.1-.81.32-1.12.32-.47,0-2.3-.9-2.3-1.22,0-.07.07-.12.27-.12a2.43,2.43,0,0,1,.39.05,31.7,31.7,0,0,0,3.54.22,28.07,28.07,0,0,0,4.62-.35c1-.09.49-.58,2.49-.58Zm-7,8c-.24,0-.47-.29-.59-.8a24.3,24.3,0,0,0-1.41-4,1.83,1.83,0,0,1-.17-.56c0-.07,0-.12.09-.12s.25.12.52.39C106,22.89,107,23.72,107,25.11,107,25.68,106.8,26.6,106.34,26.6Zm6.74,3.69a1,1,0,0,0-.32-.63.45.45,0,0,1-.22-.32c0-.1.1-.17.3-.17.49,0,1.61.49,1.61.83s-.27.42-.37.71c2.72.49,4,2.22,4,3.91,0,2-1.71,4-4.82,4s-4.66-2-4.66-3.93c0-1.76,1.32-3.56,4.13-4A.37.37,0,0,0,113.08,30.29Zm-3.17,4.2c0,1.47,1.14,3,3.42,3s3.42-1.49,3.42-3-1.13-3-3.42-3S109.91,33,109.91,34.49Z"/><path class="cls-2" d="M133.75,22.84c2-.12.9-.66,3.54-.76,1.13,0,1.59.4,1.59.71,0,.05,0,.54-1,.54-1.51.1-6.08.22-9,.34-.78.17-1,.47-1.44.47s-2.59-.91-2.59-1.27c0-.08.1-.13.34-.13a1.71,1.71,0,0,1,.37,0,30.71,30.71,0,0,0,3.74.19C129.91,23,133,22.84,133.75,22.84Zm-2.69,3c.34-.07.78-.15.78-.56a.46.46,0,0,0-.19-.37.67.67,0,0,1-.17-.34c0-.1.1-.15.27-.15.58,0,1.32.47,1.32.79s-.25.41-.35.63c2.86.42,4.21,2.13,4.21,3.86,0,2-1.74,3.89-4.91,3.89s-4.91-2.06-4.91-3.94C127.11,28,128.38,26.29,131.06,25.87ZM131,20.42a4.9,4.9,0,0,1-2.52-1.58c0-.08.08-.13.25-.13a2.41,2.41,0,0,1,.49.08,25,25,0,0,0,5,.34c.59,0,1,.29,1,.58s-.47.67-1.57.69Zm-2.39,9.16c0,1.47,1.14,2.94,3.44,2.94s3.44-1.47,3.44-2.94-1.14-3-3.44-3S128.6,28.09,128.6,29.58ZM140.44,18.2c0-.41-1.34-1-2.37-1.46-.26-.1-.44-.23-.44-.32s.3-.27,1-.3a23,23,0,0,1,2.81.66c.51.2.64.37.64.61s-.08.42-.08.79v8.89h1.22c1.15-.17.76-.64,2.32-.64.47,0,1.49,0,1.49.76,0,.34-.29.64-.83.64H142l0,7.08a9.22,9.22,0,0,1-.61,3.62c-.19.29-.39.44-.56.44s-.37-.32-.37-1.13Z"/><path class="cls-2" d="M154.34,21c-.87.14-1.07.41-1.49.41-.61,0-2.54-1-2.54-1.32,0-.1.13-.14.32-.14a2.58,2.58,0,0,1,.56.07,30.42,30.42,0,0,0,4.4.24l3.1,0c.69-.08.59-.25,1.3-.25.12,0,.27,0,.46,0,.81,0,1.05.19,1.05.39s-.34.49-.51.71c-2.18,5.62-5.28,9.23-10.77,12.94a2.11,2.11,0,0,1-.88.37c-.05,0-.1,0-.1-.07s.19-.32.61-.61c4.2-3.23,8.26-8.26,9.53-12.93ZM166,18.49c-.05-.46-.78-1-2.17-1.66-.34-.12-.54-.27-.54-.39s.25-.27.81-.32a15.45,15.45,0,0,1,3,.79c.36.14.44.31.44.53s-.08.39-.08.66l0,14.39c0,4.5-.15,5.11-.59,6-.17.29-.34.44-.48.44s-.35-.3-.35-1Z"/></g></g></svg>