
<svg width="53px" height="25px" viewBox="0 0 53 25" version="1.1" xmlns="http://www.w3.org/2000/svg" xmlns:xlink="http://www.w3.org/1999/xlink">
    <!-- Generator: Sketch 49.1 (51147) - http://www.bohemiancoding.com/sketch -->
    <desc>Created with Sketch.</desc>
    <defs>
        <polygon id="path-1" points="0.0338791643 24.4298737 0.0338791643 0.376377081 52.4918125 0.376377081 52.4918125 24.4298737"></polygon>
    </defs>
    <g id="Page-1" stroke="none" stroke-width="1" fill="none" fill-rule="evenodd">
        <g id="300x250_EN_005" transform="translate(-70.000000, -113.000000)">
            <g id="Group-47" transform="translate(70.000000, 113.000000)">
                <mask id="mask-2" fill="white">
                    <use xlink:href="#path-1"></use>
                </mask>
                <g id="Clip-45"></g>
                <path d="M51.3331451,13.8322981 C50.6939582,13.8322981 50.1744777,14.3540373 50.1744777,14.9966121 C50.1744777,15.6374929 50.6939582,16.1552795 51.3331451,16.1552795 C51.972332,16.1552795 52.4918125,15.6374929 52.4918125,14.9966121 C52.4918125,14.3540373 51.972332,13.8322981 51.3331451,13.8322981" id="Fill-44" fill="#FFFFFE" mask="url(#mask-2)"></path>
                <path d="M42.6725014,14.0542067 C41.8825522,14.5499718 40.8481084,14.3562959 41.3218521,12.9220779 C41.7679277,11.5793337 42.8836815,10.8068888 43.6002259,10.8068888 C44.3585545,10.8068888 44.7735743,11.2766798 45.0011293,11.676454 C44.5076228,12.4573687 43.7961604,13.352908 42.6725014,14.0542067 M14.3777527,14.0542067 C13.5866742,14.5499718 12.5516657,14.3562959 13.0265387,12.9220779 C13.4686618,11.5793337 14.6420102,10.8068888 15.3591191,10.8068888 C16.1185771,10.8068888 16.4867307,11.2766798 16.7018634,11.6719368 C16.2123094,12.4573687 15.5025409,13.352908 14.3777527,14.0542067 M48.4144551,14.2964427 C48.094297,13.9706381 47.6996047,14.0654997 47.2964427,14.3427442 C47.0152456,14.5426313 46.5448899,14.5629588 46.809712,13.4579334 C47.0519481,12.4099379 47.957651,10.7046866 48.0852626,10.4020327 C48.2648221,9.97063806 48.0327499,9.44494636 47.2648221,9.38170525 C46.9311124,9.35234331 46.6086957,9.42744212 46.2891022,9.69508752 C45.931677,9.29418408 45.3833992,8.91925466 44.5104461,8.91925466 C43.0897798,8.91925466 41.1321287,10.0056465 39.9875776,11.7543761 C39.3523433,12.6939582 38.4872953,13.7250141 37.5172219,14.3653303 C37.2151327,14.5629588 36.8718238,14.6708075 36.6561265,14.5940147 C36.2106155,14.4319593 36.338227,13.7848673 37.2907962,12.700734 C38.8170525,10.9536985 39.2535291,9.64539808 38.3670243,8.86843591 C37.7639752,8.3393563 36.7673631,8.28514963 35.7571993,8.75832863 C34.6883117,9.26086957 34.083004,9.80971203 33.5228684,10.3800113 C34.9265951,7.47939018 36.67476,4.09034444 37.8351214,2.18068888 C38.3800113,1.29587804 38.3800113,0.534161491 37.6154715,0.398644833 C36.9457933,0.282326369 36.2704687,0.605872388 35.7250141,1.74477696 C34.4776962,4.36137775 33.4477696,6.68492377 32.2258611,9.29418408 L32.2258611,9.2891022 C31.434218,10.8769057 29.9779785,13.1016375 28.0660644,14.3653303 C27.7645398,14.5629588 27.4223602,14.6708075 27.2083569,14.5940147 C26.7600226,14.4319593 26.8881988,13.7848673 27.8396386,12.700734 C29.364201,10.9536985 29.8023715,9.64539808 28.9164314,8.86843591 C28.3116883,8.3393563 27.3167702,8.28514963 26.3054771,8.75832863 C24.9796725,9.38170525 24.3647657,10.0728402 23.6730661,10.7882552 C24.2557877,9.89779785 24.1897233,9.07961604 23.6346697,8.90400903 C22.9045737,8.66967815 22.5200452,8.95595709 21.8249577,10.9294184 C21.4709204,11.8932806 20.5098814,13.7261434 19.1400339,14.3427442 C18.8283456,14.48786 18.2518351,14.5629588 18.5132693,13.4579334 C18.7605872,12.4099379 19.6606437,10.7046866 19.7922078,10.4020327 C19.9666855,9.97063806 19.7368718,9.44494636 18.9717674,9.38170525 C18.6380576,9.35234331 18.3145116,9.42744212 17.9932242,9.69508752 C17.6346697,9.29418408 17.0886505,8.91925466 16.2123094,8.91925466 C14.3619424,8.91925466 11.5894975,10.769057 10.905703,13.5256917 C10.5793337,13.9909656 9.96442688,14.4906832 9.17221909,14.5132693 C7.75832863,14.5556183 6.98306042,13.3015246 6.65273857,11.8447205 C9.83399209,11.2196499 12.824393,9.44494636 13.4054207,6.65273857 C13.9616036,4.01016375 12.1417278,1.72275551 8.88706945,1.78881988 C4.40033879,1.88085827 1.37605872,5.11518916 0.649915302,6.48842462 C0.144551101,7.44551101 0.606437041,8.21682665 1.25239977,8.18859401 C1.71259176,8.16657256 2.57594579,7.86222473 2.84754376,6.92320723 C3.28232637,5.42631282 4.98080181,3.70920384 7.86956522,3.46640316 C10.0525127,3.28232637 11.2919255,4.66798419 11.0914737,6.46301525 C10.8424619,8.64935065 8.69452287,9.90570299 6.47826087,10.4680971 L6.47826087,10.3308865 C6.47374365,9.65386787 6.41501976,9.19762846 5.9582157,9.0513834 C5.96047431,8.81197064 5.86053077,8.62563523 5.62281197,8.51778656 C5.24562394,8.34613213 4.73969509,8.36702428 4.31733484,9.0107284 C2.7730096,11.3890457 2.01976285,12.4918125 0.526821005,14.4590627 C-0.162055336,15.3630717 -0.181253529,16.3032185 0.504799548,16.4997177 C1.21795596,16.7029927 1.87803501,16.4105025 2.44607566,15.499153 C3.20158103,14.2879729 3.83738001,13.1078487 4.39017504,12.092603 C4.54319593,12.0897798 4.69734613,12.0841333 4.85093168,12.0750988 C4.94635799,14.0621118 5.94918125,16.7939018 8.67814794,16.352908 C9.68040655,16.1880294 10.3670243,15.6589497 10.905703,15.1592321 C11.2970073,16.2693394 12.6143422,16.5296443 13.9339356,15.9102202 C15.2603049,15.2840203 15.8723885,14.5940147 16.5607002,13.8836815 C15.7605872,15.916996 17.2981366,17.4217956 19.7001694,15.4788255 C19.8012422,15.393563 19.8994918,15.312253 19.9960474,15.2360248 C18.7916431,17.7492942 17.336533,20.5482778 16.4353473,22.4647092 C15.8193111,23.7758329 16.1050254,24.3636364 16.8729531,24.4240542 C17.6380576,24.4839074 18.0869565,24.0875212 18.5454545,22.9819311 C19.1733484,21.4980237 20.3800113,18.2653868 22.2857143,14.5556183 C24.1061547,11.0124224 26.4398645,10.1445511 26.9011858,10.4460757 C27.3896104,10.7679277 26.7029927,11.5511011 25.6645963,12.8684359 C24.5302089,14.3066064 24.582157,15.4957651 25.1309994,15.9920949 C25.8221344,16.6132129 27.0654997,16.7272727 28.6070017,15.4788255 C29.0739695,15.0976849 29.4184077,14.7752682 29.6950875,14.4833427 C29.2106155,15.4460757 29.0197628,16.1614907 29.6753247,16.4246189 C30.1151892,16.5979673 30.6967815,16.4737436 30.9937888,15.8181818 C31.4161491,14.8571429 32.3969509,13.1840768 33.4737436,12.0191982 C34.839074,10.5369848 36.0728402,10.2653868 36.3534726,10.4460757 C36.8413326,10.7679277 36.1518916,11.5511011 35.1112366,12.8684359 C33.9785432,14.3066064 34.0333145,15.4957651 34.5782044,15.9920949 C35.2738566,16.6132129 36.51214,16.7272727 38.055336,15.4788255 C38.4895539,15.1270469 38.8187465,14.8193111 39.0863919,14.5426313 C39.1677019,16.1614907 40.6916996,16.6284585 42.2269904,15.9102202 C43.5522304,15.2840203 44.1660079,14.5940147 44.8610954,13.8836815 C44.1507623,16.0242801 46.1225296,17.3003953 48.0734049,15.5302089 C48.5663467,15.0824393 48.6386222,14.528515 48.4144551,14.2964427" id="Fill-46" fill="#FFFFFE" mask="url(#mask-2)"></path>
            </g>
        </g>
    </g>
</svg>