<?xml version="1.0" encoding="utf-8"?>
<!-- Generator: Adobe Illustrator 22.1.0, SVG Export Plug-In . SVG Version: 6.00 Build 0)  -->
<svg version="1.1" id="Layer_1" xmlns="http://www.w3.org/2000/svg" xmlns:xlink="http://www.w3.org/1999/xlink" x="0px" y="0px"
	 viewBox="0 0 125 29.4" style="enable-background:new 0 0 125 29.4;" xml:space="preserve">
<style type="text/css">
	.st0{fill:#FFFFFF;stroke:#FFFFFF;stroke-width:0.25;stroke-miterlimit:10;}
	.st1{fill:#FFFFFF;}
</style>
<title>txt2</title>
<g id="Layer_2_1_">
	<g id="Layer_1-2">
		<path class="st0" d="M4.7,15.2c0-0.3-0.8-0.7-1-0.7c-1.1,0.6-2.2,1-3.4,1.2c-0.1,0-0.2,0-0.2-0.1c0-0.1,0.1-0.1,0.4-0.2
			c2.1-0.8,5.2-2.7,6.1-4.2l-3.3,0.2c-0.4,0.1-0.5,0.2-0.7,0.2s-1.5-0.5-1.5-0.8c0,0,0-0.1,0.1-0.1c0.1,0,0.2,0,0.4,0.1
			C2.4,11,3.1,11,3.8,11c1,0,1.9-0.1,2.9-0.1c0.3-0.1,0.5-0.2,0.8-0.2c0.4,0,0.9,0,0.9,0.2S8.1,11.2,8,11.3
			c-0.7,0.8-1.5,1.5-2.4,2.1c0.4,0.2,0.7,0.3,1.1,0.4c0.1,0,0.2,0,0.3,0c0.3,0,0.4,0,0.6,0c0.6,0,1.8,0.6,1.8,1
			c0,0.2-0.1,0.3-0.3,0.3c-1.3-0.4-2.6-0.9-3.9-1.4c-0.3,0.2-0.7,0.4-1.1,0.6c1.3,0.1,1.6,0.2,1.6,0.4s0,0.2,0,0.3
			c0,0.8,0,1.5,0,2.1c1.1-0.1,3.6-0.6,4.5-0.8V9c0-0.3-0.6-0.6-1.3-1C8.6,8,8.4,7.9,8.4,7.8S8.6,7.6,9,7.6c0.6,0.1,1.2,0.2,1.8,0.5
			c0.2,0.1,0.3,0.2,0.3,0.3c0,0.1,0,0.2,0,0.4L11,19.5c0.1,1.3-0.4,2.3-0.7,2.3c-0.1,0-0.2-0.2-0.2-0.7v-4.6
			c-2.4,0.6-4.9,1.2-7.3,1.6c-0.3,0.1-0.4,0.3-0.6,0.3c-0.7-0.2-1.3-0.4-1.9-0.8C0.1,17.4,0,17.3,0,17.2c0-0.1,0.1-0.1,0.2-0.1
			c0,0,0.1,0,0.2,0c0.5,0.2,1.1,0.2,1.7,0.2c0.9,0,1.8-0.1,2.7-0.2L4.7,15.2z M4.4,9.6c-0.5-0.1-1-0.5-1.3-0.9c0-0.1,0-0.1,0.2-0.1
			c0.1,0,0.3,0,0.4,0.1c0.9,0.2,1.9,0.2,2.8,0.2C6.8,8.9,7,9,7,9.2S6.9,9.5,6.6,9.6c-0.6,0-1.1,0-1.6,0H4.4z"/>
		<path class="st0" d="M22.9,9.8c0-0.3-0.5-0.5-1.1-0.8c-0.2-0.1-0.3-0.2-0.3-0.2c0-0.1,0.1-0.1,0.5-0.2c1.6,0.3,1.9,0.5,1.9,0.7
			c0,0.2,0,0.2,0,0.3v5.1l1.9-0.1V9.1c0-0.3-0.5-0.7-1.2-1c-0.1-0.1-0.3-0.2-0.3-0.2c0-0.1,0.1-0.1,0.5-0.1c1.7,0.4,1.9,0.6,1.9,0.9
			s0,0.2,0,0.4l-0.1,11.3c-0.1,0.9-0.4,1.4-0.6,1.4s-0.3-0.2-0.3-0.8v-5.9h-1.9l-0.1,4.4c-0.1,0.7-0.3,1.2-0.5,1.2s-0.2-0.2-0.2-0.8
			V16c-1.7,0.9-3.5,1.6-5.4,1.9c-0.5,0-0.8-0.7-0.8-1.1L16.6,12c0-0.3-0.4-0.4-1-0.7c-0.2,0-0.3-0.1-0.3-0.2s0.1-0.2,0.4-0.2
			c0.6,0,1.2,0.1,1.7,0.2h0.4c0.3,0,0.6,0,0.9,0c0.7-0.1,0.3-0.4,1.5-0.4c0.5,0,0.8,0.2,0.8,0.4c0,0.2-0.2,0.3-0.4,0.3
			c-0.9,0-2.2,0.1-2.9,0.1c-0.1,0.1-0.2,0-0.2,0.3v4.8c0,0.3,0,0.4,0.4,0.4c1.7-0.2,3.4-0.6,4.9-1.3V9.8z"/>
		<path class="st1" d="M34.5,17.2V18c0,0.7,0.3,1.1,0.8,1.1s0.9-0.4,0.9-1.3v-0.8c0-1.2-0.5-1.5-1.6-1.5v-1.5c1.1,0,1.5-0.4,1.5-1.7
			c0-1-0.2-1.4-0.8-1.4s-0.8,0.2-0.8,1.1v0.5h-1.7v-0.5c-0.1-1.3,0.9-2.4,2.2-2.5c0.1,0,0.2,0,0.4,0c1.4,0,2.5,1.2,2.4,2.5
			c0,0.1,0,0.2,0,0.2c0,1.3-0.2,2-1.2,2.5c1.1,0.6,1.3,1.2,1.3,2.7c0,2.1-0.8,3.2-2.7,3.2c-1.5,0-2.5-0.8-2.5-2.6v-0.6H34.5z"/>
		<path class="st1" d="M39.5,12.4c0-2,0.8-3,2.6-3s2.6,0.9,2.6,3v5.2c0,2-0.8,3-2.6,3s-2.6-0.9-2.6-3V12.4z M43,11.9
			c0-0.7-0.3-1-0.9-1s-0.9,0.3-0.9,1V18c0,0.7,0.3,1,0.9,1s0.9-0.3,0.9-1V11.9z"/>
		<path class="st1" d="M48.7,9.5c1.4,0,2.5,1.1,2.5,2.5c0,1.4-1.1,2.5-2.5,2.5c-1.4,0-2.5-1.1-2.5-2.5l0,0
			C46.2,10.7,47.3,9.6,48.7,9.5C48.7,9.5,48.7,9.5,48.7,9.5z M48.7,13.3c0.7,0,1.3-0.6,1.3-1.3c0-0.7-0.6-1.3-1.3-1.3
			c-0.7,0-1.3,0.6-1.3,1.3c0,0,0,0,0,0C47.5,12.7,48,13.3,48.7,13.3z M55,9.4l-6.1,11.1h-1.2l6.2-11.1H55z M54,15.5
			c1.4,0,2.5,1.1,2.5,2.5c0,1.4-1.1,2.5-2.5,2.5c-1.4,0-2.5-1.1-2.5-2.5v0C51.5,16.6,52.6,15.5,54,15.5z M54,19.2
			c0.7,0,1.3-0.6,1.3-1.3c0-0.7-0.6-1.3-1.3-1.3c-0.7,0-1.3,0.6-1.3,1.3C52.7,18.6,53.3,19.2,54,19.2L54,19.2z"/>
		<path class="st0" d="M67.4,10.5c0.8-0.2,0.5-0.3,1.5-0.3c0.8,0,0.9,0.3,0.9,0.4s-0.2,0.3-0.6,0.3c-1.3,0-2.4,0.1-3.2,0.1
			c0.2,0.2,0.3,0.4,0.3,0.5c0,0.1-0.2,0.2-0.2,0.3c1.6,0.2,2.4,1.1,2.4,2c0,0.9-0.9,2-2.6,2s-2.7-1-2.7-2.1c0-0.9,0.7-1.7,2.2-1.9
			c0.1-0.1,0.2-0.2,0.2-0.3c0-0.2-0.1-0.3-0.2-0.4c-0.5,0-1.1,0.1-1.8,0.1c-0.3,0.1-0.4,0.2-0.5,0.2s-1.3-0.5-1.3-0.7s0-0.1,0.1-0.1
			h0.3c0.7,0.1,1.4,0.1,2.1,0.1C65,10.6,66,10.5,67.4,10.5z M65,9.5c-0.2,0-1.2-0.6-1.2-0.8c0-0.2,0.1-0.2,0.2-0.2h0.2
			c0.9,0.2,1.8,0.2,2.7,0.1c0.4,0,0.6,0.2,0.6,0.3c0,0.1-0.2,0.3-0.8,0.4L65,9.5z M64.1,13.7c0,0.8,0.6,1.5,1.8,1.5s1.8-0.7,1.8-1.5
			c-0.1-1-1.1-1.7-2.1-1.6C64.8,12.3,64.2,12.9,64.1,13.7z M65.5,19.3c0-0.1-0.3-0.3-0.8-0.4c-0.2,0-0.3-0.1-0.3-0.1
			c0-0.1,0.2-0.2,0.7-0.2c0.5,0,1,0,1.5,0.2c1.4,0,2,0,3.4,0c0.3,0,0.5-0.1,0.8-0.1c0-0.2,0.1-0.9,0.1-1.7c-0.9,0-2.8,0.1-4.2,0.2
			c-0.4,0.1-0.5,0.2-0.7,0.2s-1.5-0.5-1.5-0.7s0.1-0.1,0.2-0.1c0.1,0,0.2,0,0.2,0c0.7,0.1,1.3,0.1,2,0.1c1.2,0,2.5-0.1,3.7-0.1
			c0.3,0,0.2-0.1,0.6-0.1s0.9,0,0.9,0.2S72,16.9,72,17.1c-0.2,0.5-0.4,1-0.5,1.4c0.4,0.1,0.6,0.2,0.6,0.3s-0.2,0.2-0.5,0.2
			c-1.2,0-3.2,0.1-4.8,0.1c-0.2,0.1-0.2,0-0.2,0.2v1.1c0,0.3,0.1,0.4,0.4,0.4h1.3h2.6c0.9-0.1,0.6-0.4,1.5-0.4c0.4,0,1.2,0,1.2,0.4
			c0,0.2-0.2,0.4-0.5,0.4h-6c-1.1,0-1.3-0.4-1.3-0.8L65.5,19.3z M71.1,8.9c0-0.2-0.4-0.5-1.3-0.8c-0.2-0.1-0.3-0.2-0.3-0.2
			c0-0.1,0.2-0.2,0.5-0.2C70.5,7.7,71,7.8,71.5,8c0.4,0.2,0.5,0.3,0.5,0.4c0,0.2-0.1,0.2-0.1,0.4v4.1c0.2,0,0.4,0,0.6,0
			c0.7-0.1,0.4-0.4,1.5-0.4c0.3,0,0.9,0,0.9,0.4c0,0.2-0.2,0.4-0.4,0.4H72c0,1.7-0.5,2.1-0.7,2.1s-0.2-0.2-0.2-0.6L71.1,8.9z"/>
		<path class="st0" d="M80,10c0.3,0,0.4-0.2,0.4-0.3c0-0.1,0-0.1-0.1-0.2c-0.1-0.1-0.2-0.1-0.2-0.2c0-0.1,0-0.1,0.2-0.1
			c0.4,0,0.9,0.3,0.9,0.5S81,9.9,81,10.1c2.7,0.4,2.7,2.2,2.7,2.8c-0.1,1.5-1.1,2.6-3.2,2.6s-3.3-1.3-3.3-2.7
			c0.1-1.5,1.2-2.6,2.7-2.7L80,10z M78.1,12.7c-0.1,1.3,0.8,2.5,2.1,2.6c1.3,0.1,2.5-0.8,2.6-2.1s-0.8-2.5-2.1-2.6
			c-0.1,0-0.2,0-0.2,0c-1.2-0.1-2.2,0.7-2.4,1.9C78.1,12.6,78.1,12.7,78.1,12.7z M81.1,18.1c0-0.3-0.4-0.4-1.1-0.7
			c-0.2,0-0.3-0.1-0.3-0.2s0.1-0.1,0.5-0.2c0.5,0,1.1,0,1.6,0.1c0.2,0.1,0.3,0.1,0.3,0.3c0,0.1,0,0.2,0,0.4c0,0.7,0,1.5,0,2
			c0,0.3,0.2,0.5,0.7,0.5H86c1.1-0.1,0.6-0.4,1.9-0.4c0.5,0,1.1,0,1.1,0.5c0,0.2-0.1,0.3-0.4,0.3h-5.9c-1,0-1.6-0.2-1.6-1V18.1z
			 M86.7,9.2c0-0.2-0.6-0.6-1.3-0.9c-0.2-0.1-0.4-0.2-0.4-0.2c0-0.1,0.2-0.1,0.5-0.1c0.5,0,1,0.2,1.5,0.4c0.4,0.1,0.5,0.2,0.5,0.4
			s-0.1,0.2-0.1,0.4v6.3c0,0.7-0.1,1.4-0.3,2.1c-0.1,0.4-0.3,0.5-0.4,0.5s-0.2-0.2-0.2-0.7L86.7,9.2z"/>
	</g>
</g>
</svg>
