<svg xmlns="http://www.w3.org/2000/svg" width="124.52" height="29.46" viewBox="0 0 124.52 29.46"><defs><style>.cls-1{fill:#fff;stroke:#fff;stroke-miterlimit:10;stroke-width:0.25px;}</style></defs><title>txt1</title><g id="Layer_2" data-name="Layer 2"><g id="Layer_1-2" data-name="Layer 1"><path class="cls-1" d="M.33,6.61A11.26,11.26,0,0,0,4,2.32s.09-.26.09-.27-.21-.36-.68-.69c-.19-.12-.26-.19-.26-.26S3.27,1,3.43,1A1.07,1.07,0,0,1,3.74,1c.23.07,1.42.59,1.42.92a7,7,0,0,1-.89,1.61,4.78,4.78,0,0,0,1,1.12C5.59,5,5.74,4.64,6.4,6a.64.64,0,0,1,.11.34.29.29,0,0,1-.29.3.45.45,0,0,1-.37-.24C5.23,5.59,4.51,4.6,4,3.88a11.25,11.25,0,0,1-3.82,3s-.06,0-.06,0S.19,6.72.33,6.61ZM7.05,7.69a.56.56,0,0,0-.16-.34.21.21,0,0,1-.12-.17s.05-.09.15-.09c.26,0,.86.26.86.45s-.14.22-.19.37A2.26,2.26,0,0,1,9.71,10,2.29,2.29,0,0,1,7.15,12.1,2.23,2.23,0,0,1,4.66,10,2.24,2.24,0,0,1,6.86,7.9.19.19,0,0,0,7.05,7.69ZM5.36,9.93A1.64,1.64,0,0,0,7.18,11.5a1.6,1.6,0,1,0,0-3.17A1.65,1.65,0,0,0,5.36,9.93Zm3.79-6c-.67,0-1.08.09-1.42.11s-.42.15-.64.15S6,3.8,6,3.66s.09-.08.23-.08l.64,0c.66,0,1.64,0,2.25-.11V1.32C9.12,1,8.48.71,8,.52,7.82.45,7.69.37,7.69.29s.12-.13.44-.15c.15,0,1.88.3,1.88.65,0,.08,0,.17,0,.32l0,4.81a3.92,3.92,0,0,1-.33,1.8c-.08.13-.16.21-.24.21S9.15,7.69,9.15,7Z"/><path class="cls-1" d="M22.23,5.7c.66-.08.54-.27,1.22-.27.41,0,1.28,0,1.28.44a.37.37,0,0,1-.42.34h0c-.72-.07-1.56-.08-2.38-.08a63.06,63.06,0,0,0-6.43.25c-.41,0-.43.23-.69.23S13.11,6,13.11,5.83c0,0,.05-.08.16-.08l.26,0A9,9,0,0,0,15.58,6c1.63,0,3.85-.14,6.13-.22ZM15.62,1.45c-.06-.14-.52-.3-.91-.43-.13,0-.27-.09-.27-.15s.12-.13.47-.19c1.4.08,1.58.17,1.58.36s0,.14,0,.23V3c0,.46.11.46.91.46,1,0,2.43-.05,3.39-.11C21.29,3.21,21.15,3,22,3c.47,0,1,0,1,.35,0,.14-.18.3-.53.3-1.62.09-4.07.13-5.48.14-1,0-1.27-.36-1.3-.75Zm2.87,6.18c.16,0,.26-.13.26-.25a.24.24,0,0,0-.09-.18A.24.24,0,0,1,18.57,7s0-.09.15-.09.68.23.68.39a1.27,1.27,0,0,1-.1.3c1.57.27,2.31,1.25,2.31,2.2S20.69,11.93,19,11.9s-2.67-1.09-2.67-2.15a2.23,2.23,0,0,1,2.07-2.08ZM17.06,9.71A1.71,1.71,0,0,0,19,11.37a1.72,1.72,0,0,0,1.9-1.66A1.72,1.72,0,0,0,19,8.06,1.71,1.71,0,0,0,17.06,9.71Z"/><path class="cls-1" d="M27.66,11.19l-.9,1.61h-.69l.64-1.61h-.59V9.65h1.54Z"/><path class="cls-1" d="M34.55,3.14c-.4.07-.46.21-.65.21s-1.42-.48-1.42-.73c0,0,0-.06.13-.06a2,2,0,0,1,.33,0,9.3,9.3,0,0,0,1.5.1c.71,0,1.47,0,2.45-.1.43,0,.34-.14.71-.14.21,0,.8,0,.8.23s-.17.26-.28.42a14.23,14.23,0,0,1-5.68,6.66A1,1,0,0,1,32,10S32,10,32,10s.1-.18.32-.36C34.16,8.13,36.55,5.27,37.16,3,36.79,3,35,3.09,34.55,3.14Zm5.84-1.88c0-.22-.72-.54-1.27-.78C39,.42,38.89.36,38.89.31s.16-.15.55-.16A10.63,10.63,0,0,1,40.93.5c.28.11.34.2.34.33s0,.22,0,.41V6h.65c.61-.1.4-.34,1.24-.34.24,0,.79,0,.79.4,0,.18-.16.34-.44.34H41.22v3.77a5.1,5.1,0,0,1-.33,1.92c-.1.16-.21.24-.3.24s-.19-.17-.19-.6Z"/><path class="cls-1" d="M53.93,3.3a15.79,15.79,0,0,0-1.66.13,4.34,4.34,0,0,1-.5.11,2.48,2.48,0,0,1-.87-.31A13.08,13.08,0,0,1,45.68,8a1.68,1.68,0,0,1-.52.18s0,0,0,0,.15-.19.47-.39a12.85,12.85,0,0,0,4.86-5.38l-2.3.09c-.46.08-.58.21-.81.21s-1.4-.48-1.4-.69c0,0,.05-.07.13-.07l.26,0A7.91,7.91,0,0,0,48,2.05c.81,0,1.68,0,2.29-.09.26,0,.2-.08.46-.08s.83.05.83.22-.16.22-.25.42L51.06,3a9,9,0,0,0,1.09,0c.56,0,1.17,0,1.76-.07V1.4c0-.23-.6-.55-1.2-.81-.21,0-.33-.11-.33-.18s.15-.13.49-.18C54.56.5,54.8.7,54.8.92s0,.19,0,.31l0,4.72c-.05.79-.33,1.35-.53,1.35S54,7.09,54,6.59V5.48c-.32,0-1.35.12-1.81.16s-.44.21-.62.21-1-.37-1-.49.19-.07.4-.07A30,30,0,0,0,54,5.13Zm-.06,4.79c-.81.06-2.95.12-4.51.19-.45.09-.51.23-.73.23S47.2,8,47.2,7.85s0-.07.13-.07l.21,0a19.38,19.38,0,0,0,2.05.09c1.27,0,2.7-.07,3.76-.09.36,0,.27-.16.87-.16s.63.09.63.21-.12.26-.15.42a16,16,0,0,1-.21,3.43c-.1.35-.27.57-.41.57s-.2-.14-.21-.48Z"/><path class="cls-1" d="M61.19,5.39c0-.21-.42-.35-.69-.45s-.3-.12-.3-.19.11-.11.43-.14c1.19,0,1.37.18,1.37.36s0,.15,0,.24c0,.75,0,2.17,0,2.66A38.59,38.59,0,0,0,66.41,7V1.24c0-.2-.54-.5-1.1-.7C65.15.49,65,.41,65,.35s.13-.13.45-.15c.07,0,1.79.17,1.79.64,0,.09,0,.2,0,.35V6.37l.53,0C68.45,6.27,68.15,6,69,6c.48,0,.72.2.72.4a.33.33,0,0,1-.35.3l-2.15,0,0,3.38c0,1.47-.34,2.25-.6,2.25-.1,0-.17-.16-.18-.51V7.22A46.16,46.16,0,0,1,60.82,8.6c-.38.09-.45.22-.67.22S58.3,8.16,58.3,8c0,0,.05-.06.16-.06h.13a7.52,7.52,0,0,0,1.57.17,6.36,6.36,0,0,0,1-.09Zm2.47-3c.28,0,.13-.11.58-.11s.82.06.82.2-.19.26-.23.39c-.29,1.48-.47,3-1.16,3.78-.09.11-.17.17-.22.17s0,0,0-.08a.63.63,0,0,1,.05-.23,15.94,15.94,0,0,0,.46-3.8c-1.16.07-2.45.13-3.23.2-.39.06-.45.18-.62.18s-1.26-.47-1.26-.64,0-.05.1-.05a1.25,1.25,0,0,1,.33.05,13.58,13.58,0,0,0,1.56.08C61.88,2.49,63.25,2.39,63.66,2.35Z"/><path class="cls-1" d="M78.37,3.08c-.15-.07-.25-.13-.25-.19s.12-.11.42-.13c.07,0,1.42.28,1.42.58a1.74,1.74,0,0,1-.11.32c-.23.76-.78,2.38-1,3,.36-.08.75-.16,1.18-.29a1.71,1.71,0,0,1,.37-.06c.06,0,.09,0,.09,0,0,.37-3.29,1.11-4.18,1.27-.33.09-.39.27-.62.27A4,4,0,0,1,74,7s0-.07.13-.07l.28,0a5.83,5.83,0,0,0,1.22.11,15.14,15.14,0,0,0,2.86-.33,26.15,26.15,0,0,0,.51-3C79,3.44,78.71,3.27,78.37,3.08ZM80,1.54c.49,0,.71.16.71.31s-.26.37-.78.37a32.22,32.22,0,0,0-3.69.18c-.4,0-.48.17-.68.17s-1.18-.42-1.18-.6,0-.06.13-.06l.22,0C75.36,2,76,2,76.51,2a15.74,15.74,0,0,0,2-.14c.74-.13.46-.33,1.24-.33Zm-3.42,5c-.12,0-.22-.16-.25-.41a12.15,12.15,0,0,0-.65-2.62.87.87,0,0,1,0-.28c0-.06,0-.09,0-.09A4.55,4.55,0,0,1,77,5.47C77,6.07,76.73,6.5,76.54,6.5ZM78,9.24c0-.26-.33-.38-1-.59-.15,0-.24-.07-.24-.14s.11-.13.41-.18a10.42,10.42,0,0,1,1.4.09c.22.05.27.12.27.23s0,.2,0,.35c0,.58,0,1.28,0,1.76,0,.29.17.4.62.43l2.72,0c1-.06.51-.36,1.68-.36.41,0,1,0,1,.44a.31.31,0,0,1-.35.29H79.36c-.86,0-1.35-.22-1.39-.89ZM82.8,1.52c0-.3-.5-.63-1.11-.89-.13-.05-.38-.13-.38-.21s.34-.15.42-.15,2,.22,2,.66c0,.12-.08.24-.08.4V6.56c0,1.77-.12,2.12-.37,2.54-.1.14-.18.2-.24.2s-.21-.33-.23-.79l0-2.43c-.34,0-.8.06-1.2.09-.24,0-.27.17-.44.17S80.07,6,80.07,5.82s.1-.07.25-.07l.61,0a18.31,18.31,0,0,0,1.87-.09l0-2.17c-.5,0-1,.05-1.25.07s-.26.17-.43.17-1.08-.37-1.08-.53.07-.07.18-.07l.28,0h.84c.51,0,.9,0,1.44-.06Z"/><path class="cls-1" d="M89.85,2.3c.21,0,.38-.11.38-.26a.46.46,0,0,0-.12-.26c-.12-.09-.17-.16-.17-.21s0-.07.17-.07c.39,0,.86.22.86.42s-.16.27-.18.43C92.29,2.7,93,3.64,93,4.58A2.51,2.51,0,0,1,90.23,6.9c-1.8,0-2.85-1.09-2.85-2.32C87.38,3.57,88.16,2.56,89.85,2.3ZM88.2,4.58a1.8,1.8,0,0,0,2,1.76,1.77,1.77,0,1,0,0-3.52A1.81,1.81,0,0,0,88.2,4.58Zm2.68,4.49c0-.25-.31-.36-1-.56-.14,0-.24-.09-.24-.16s.11-.13.41-.18a9.82,9.82,0,0,1,1.38.09c.23.06.29.13.29.25s0,.2,0,.34c0,.57,0,1.34,0,1.79,0,.3.18.42.64.44l2.35,0c1-.08.51-.38,1.66-.38.43,0,1,.05,1,.44,0,.16-.13.29-.35.29h-4.7c-.87,0-1.35-.22-1.4-.87Zm4.39-7.7c0-.14-.34-.37-1.12-.71-.19-.07-.3-.14-.3-.2s.16-.13.47-.14c.06,0,1.84.22,1.84.65,0,.09-.06.2-.06.32V5.38c.18,0,.39,0,.59,0C97.27,5.23,97,5,98,5c.26,0,.74,0,.74.35a.34.34,0,0,1-.37.32l-2.29.06A12.16,12.16,0,0,1,95.86,9c-.12.24-.26.44-.38.44s-.2-.16-.21-.59Z"/><path class="cls-1" d="M105.24,2.5c.76-.14.41-.37,1.46-.39.47,0,.68.2.68.37s-.19.31-.54.31c-1.1,0-2.14.06-2.77.1a.64.64,0,0,1,.2.39c0,.15-.12.23-.16.33,1.44.21,2.12,1.05,2.12,1.91s-.86,1.9-2.42,1.9-2.48-1-2.48-1.94.68-1.7,2.16-1.9a.33.33,0,0,0,.21-.28.57.57,0,0,0-.2-.37c-.43,0-1,0-1.62.13-.28,0-.34.15-.5.15a2.6,2.6,0,0,1-1.22-.67s0-.06.17-.06l.26,0a11,11,0,0,0,1.91.13C103.24,2.63,103.6,2.61,105.24,2.5Zm-2-.87a2.08,2.08,0,0,1-1.08-.72s0-.07.11-.07.17,0,.31.05a14.05,14.05,0,0,0,2.35.09c.35,0,.55.16.55.3s-.22.3-.72.33Zm-1.08,3.81a1.49,1.49,0,0,0,1.67,1.41,1.51,1.51,0,0,0,1.69-1.41A1.52,1.52,0,0,0,103.79,4,1.5,1.5,0,0,0,102.12,5.44Zm1.6,6.4c0-.43-.1-2.15-.19-2.85,0-.21,0-.27-.76-.52-.14,0-.28-.09-.28-.15s.11-.12.43-.17a9.5,9.5,0,0,1,1.45.18c.61,0,2.84-.07,3.49-.13.29,0,.14-.14.58-.14s.85,0,.85.19-.19.25-.24.46c-.26,1-.4,1.79-.52,2.26.39.06.56.19.56.31s-.14.18-.38.18c-.87,0-3.49.09-4.34.09-.08.51-.26.8-.41.8S103.76,12.19,103.72,11.84Zm3.58-.68a4.71,4.71,0,0,0,.8-.17c0-.59.11-1.82.11-2.45-.72.05-2.75.09-3.73.13-.07.07-.16.06-.16.19l.06,2.34Zm1-9.94c0-.13-.32-.39-1.12-.7-.19-.07-.3-.15-.3-.21s.16-.15.47-.16a6.72,6.72,0,0,1,1.37.31c.37.15.47.24.47.37a3.48,3.48,0,0,0-.06.35V4.69a4.63,4.63,0,0,0,.51,0c.67-.08.35-.36,1.3-.36.26,0,.77,0,.77.35a.36.36,0,0,1-.37.32l-2.22,0c0,2-.5,2.19-.61,2.19s-.2-.15-.2-.52Z"/><path class="cls-1" d="M123.94,6.34c-.68,0-1.55-.08-2.42-.08s-2,0-2.68,0c-.82,0-3.22.19-3.78.21-.41,0-.42.21-.65.21A3.74,3.74,0,0,1,112.77,6s0-.08.17-.08l.25,0a12.76,12.76,0,0,0,2.31.13c1.81,0,4.29-.1,6.38-.22.67,0,.55-.26,1.25-.26s1.26,0,1.26.44a.38.38,0,0,1-.41.33Zm-8,3.77c0-.16-.27-.23-.7-.35-.12,0-.24-.07-.24-.12s.26-.18.5-.18a5.11,5.11,0,0,1,1.36.17c1.21,0,1.86,0,3.1-.08a6.59,6.59,0,0,0,.71-.12c0-.27,0-.78.08-1.43-.86,0-2.55.07-3.8.13-.37.08-.44.21-.66.21S115,7.93,115,7.77s0-.07.18-.07a.79.79,0,0,1,.2,0c.45,0,1.09.06,1.8.06,1,0,2.23,0,3.24-.11a1,1,0,0,1,.44-.11c.83,0,.83.14.83.2s-.11.24-.16.37c-.15.41-.36,1-.42,1.24.35.06.53.19.53.3s-.15.17-.45.17l-4.24.11c-.13.07-.23.06-.23.2v1.13c0,.25.13.3.32.3h1.09l2.19,0c.78-.1.52-.34,1.32-.34.37,0,1,0,1,.37,0,.16-.17.3-.46.3h-5.13c-1,0-1.16-.33-1.16-.71Zm3-9.2c1.61.22,2.34,1.13,2.34,2.05s-1,2-2.63,2-2.69-1-2.69-2.11c0-.87.68-1.71,2.09-1.93a.28.28,0,0,0,.29-.26.38.38,0,0,0-.1-.25.37.37,0,0,1-.12-.2c0-.05.05-.08.14-.08.25,0,.78.19.78.38s-.1.21-.1.35Zm-2.2,2c0,.76.64,1.52,1.9,1.52s1.88-.76,1.88-1.52-.65-1.54-1.91-1.54A1.65,1.65,0,0,0,116.72,2.91Z"/><path class="cls-1" d="M9.16,18.35c0-.26-.7-.58-1.22-.81-.17-.05-.3-.13-.3-.19s.12-.12.4-.15c1.73.33,2,.51,2,.73s0,.16,0,.25l-.06,8.66c0,1.1-.16,2.44-.48,2.44-.15,0-.2-.17-.27-1V23.65c-.78.25-2.46.7-4,1A11.53,11.53,0,0,1,4.88,28c-.13.35-.27.54-.37.54s-.19-.2-.2-.6V24.8L2.92,25c-.36.11-.4.26-.61.26s-1.9-.65-1.9-.88c0-.05.07-.08.2-.08h.2A5.64,5.64,0,0,0,2,24.44a30.14,30.14,0,0,0,7.16-1.05Zm-4.91.35c.15,0,.31-.07.31-.2a.44.44,0,0,0-.13-.27c-.08-.08-.11-.13-.11-.18s.06-.08.15-.08.75.2.75.44-.09.2-.12.3a2.12,2.12,0,0,1,2,2c0,1-.82,1.95-2.42,1.95s-2.48-.94-2.48-1.94S2.86,19,4.25,18.7ZM2.92,20.65a1.57,1.57,0,0,0,1.76,1.51,1.52,1.52,0,1,0,0-3A1.58,1.58,0,0,0,2.92,20.65Z"/><path class="cls-1" d="M18.69,20.14c.73-.14.39-.36,1.46-.38.45,0,.67.2.67.37s-.19.31-.54.31c-1.11,0-2.14,0-2.84.1.22.25.27.37.27.45s-.05.13-.06.24c1.43.2,2.09,1,2.09,1.88,0,1-.89,1.89-2.42,1.89s-2.47-1-2.47-1.89.68-1.68,2.15-1.88a.34.34,0,0,0,.14-.26.59.59,0,0,0-.21-.39,12.34,12.34,0,0,0-1.62.13c-.26.06-.33.16-.48.16a2.78,2.78,0,0,1-1.24-.69s.06-.06.17-.06l.26,0a11.37,11.37,0,0,0,1.84.13C16.69,20.27,17.42,20.23,18.69,20.14Zm-2.15-1.08a2.06,2.06,0,0,1-1.07-.74s0-.05.11-.05a1.37,1.37,0,0,1,.3,0,14.18,14.18,0,0,0,2.35.08c.36,0,.55.17.55.31s-.22.31-.71.32Zm-.91,4a1.5,1.5,0,0,0,1.68,1.43,1.45,1.45,0,1,0,0-2.86A1.5,1.5,0,0,0,15.63,23.05Zm1.3,3.58c0-.25-.32-.38-.91-.57-.19,0-.32-.12-.32-.19s.12-.13.42-.15a9.87,9.87,0,0,1,1.39.09c.23.06.28.13.28.25s0,.19,0,.33v1.47c0,.32.17.45.61.45l2.8,0c.88,0,.48-.38,1.61-.38.33,0,1,0,1,.41,0,.16-.2.33-.54.33H18.34c-.87,0-1.41-.26-1.41-.87Zm4.68-8.26c0-.14-.33-.37-1.11-.71-.2-.07-.3-.14-.3-.2s.15-.13.47-.14c0,0,1.83.22,1.83.65,0,.09-.05.2-.05.32l0,4.09c.19,0,.39,0,.59,0,.6-.12.32-.36,1.32-.36.26,0,.75,0,.75.35a.35.35,0,0,1-.38.32l-2.29.06A11.68,11.68,0,0,1,22.2,26c-.12.24-.26.44-.38.44s-.19-.16-.21-.59Z"/><path class="cls-1" d="M29.22,25a10.62,10.62,0,0,0,3.13-4.73c0-.15-.39-.47-.77-.67s-.44-.35.2-.35a5.3,5.3,0,0,1,1.46.61.27.27,0,0,1,.11.23A9.45,9.45,0,0,1,32.44,22c.45.56.67.87,1.08,1.34.24.28.54,0,1.06,1.21a1.28,1.28,0,0,1,.13.52c0,.22-.11.33-.25.33s-.37-.14-.55-.45c-.3-.46-1-1.81-1.67-2.61A9.47,9.47,0,0,1,29,25.38s-.05,0-.05,0S29.05,25.17,29.22,25Zm6.92-6c0-.26-.39-.45-1-.73-.17-.08-.29-.15-.29-.21s.12-.11.4-.14c1.42.25,1.63.42,1.63.63s0,.16,0,.27v4.43l1.65,0V18.41c0-.26-.47-.57-1-.87-.13-.06-.27-.15-.27-.22s.11-.12.45-.12c1.46.37,1.68.54,1.68.74s0,.2,0,.33l0,9.81c-.08.82-.33,1.25-.5,1.25s-.23-.22-.23-.66V23.6l-1.65,0,0,3.82c-.07.64-.28,1-.46,1s-.24-.22-.24-.74Z"/><path class="cls-1" d="M53,27.51c-1-.06-2.46-.13-4.07-.13a42.19,42.19,0,0,0-4.5.21c-.39,0-.53.18-.83.18a3.14,3.14,0,0,1-1.43-.56c-.19-.09-.28-.17-.28-.23s0-.07.16-.07l.29,0a15,15,0,0,0,2.66.17c.74,0,1.56,0,2.44-.05,0-.25,0-.71,0-3-.69,0-1.27,0-1.72,0s-1-.23-1-.81l0-1.35c0-.25-.48-.37-1-.48-.11,0-.21-.07-.21-.13s.14-.19.68-.19a5.47,5.47,0,0,1,1.37.17c.71,0,2.56-.11,3.57-.19A3.64,3.64,0,0,0,50,21a19.32,19.32,0,0,0,.17-2c-1.12.07-2.93.18-4.47.29-.43.06-.47.22-.67.22s-1.39-.49-1.39-.66,0-.07.15-.07H44a15.87,15.87,0,0,0,1.89.1c1.17,0,2.47-.08,3.74-.2a4.13,4.13,0,0,1,.86-.13c.6,0,.9.05.9.21s-.26.35-.35.52c-.12.47-.39,1.25-.51,1.66.35,0,.55.16.55.28s-.11.16-.33.16c-1.78,0-3.52.17-4.9.24-.17.06-.27,0-.27.15v0c0,.25,0,.95,0,1.65,0,.23.09.28.38.29.91,0,2.16-.05,3.46-.14.71-.08.42-.39,1.35-.39.33,0,.85,0,.85.31s-.19.3-.43.31c-1.16.09-2,.13-2.86.16,0,1.84,0,2.36,0,3,.6,0,1.64,0,2.78-.1.51,0,.43-.25,1-.25.32,0,1.52.07,1.52.53,0,.16-.18.3-.49.3Z"/><path class="cls-1" d="M60.43,23.44c-.92,0-2.14.07-2.9.12-.52,0-.63.22-1,.22a3.71,3.71,0,0,1-1.69-.71S55,23,55.05,23a.75.75,0,0,1,.23,0,13.65,13.65,0,0,0,2,.08c1.82,0,4.59-.08,7.2-.19.58,0,.39-.2,1.16-.2.35,0,1,0,1,.39,0,.16-.17.32-.44.32h0c-.78,0-2.19-.08-3.36-.08-.67,0-1.25,0-1.58,0a10,10,0,0,1-.2,3c-.12.35-.28.55-.41.55s-.23-.18-.23-.6Zm-2.6,2.92c0-.25-.31-.38-1-.58-.15,0-.25-.09-.25-.14s.12-.13.4-.19a10.35,10.35,0,0,1,1.41.09c.23.05.28.13.28.24a2.86,2.86,0,0,1,0,.33c0,.54,0,1.25,0,1.7s.17.42.6.44l2.79,0c1-.07.52-.38,1.61-.38.31,0,1,0,1,.46,0,.14-.13.27-.35.27H59.24c-.87,0-1.34-.22-1.39-.86Zm2.42-8.44s.25-.07.25-.25a.46.46,0,0,0-.08-.22.42.42,0,0,1-.12-.21s0-.08.12-.08.82.15.82.39c0,.06-.12.3-.12.37,1.55.28,2.26,1.25,2.26,2.18a2.31,2.31,0,0,1-2.57,2.15c-1.73,0-2.71-1.08-2.71-2.2C58.1,19.13,58.77,18.2,60.25,17.92Zm-1.4,2.18a1.74,1.74,0,0,0,2,1.65,1.66,1.66,0,1,0,0-3.3A1.74,1.74,0,0,0,58.85,20.1Z"/><path class="cls-1" d="M73.78,19.74c-.47.08-.57.22-.79.22s-1.35-.53-1.35-.7.06-.08.17-.08a1.3,1.3,0,0,1,.3,0,16.2,16.2,0,0,0,2.34.13l1.65,0c.36,0,.31-.12.69-.12H77c.43,0,.56.1.56.21s-.18.26-.27.37a13.71,13.71,0,0,1-5.73,6.89,1.07,1.07,0,0,1-.47.2s-.05,0-.05,0,.1-.17.32-.33a14.44,14.44,0,0,0,5.07-6.87ZM80,18.41c0-.24-.41-.56-1.16-.88-.18-.07-.28-.14-.28-.21s.13-.14.43-.17a7.58,7.58,0,0,1,1.58.42c.2.08.24.17.24.28s0,.21,0,.35v7.66c0,2.39-.08,2.72-.32,3.21-.09.16-.18.24-.26.24s-.18-.16-.18-.56Z"/><path class="cls-1" d="M89.32,23.44c-.92,0-2.15.07-2.9.12-.52,0-.64.22-1,.22a3.66,3.66,0,0,1-1.69-.71s0-.07.16-.07a.75.75,0,0,1,.23,0,13.48,13.48,0,0,0,2,.08c1.82,0,4.59-.08,7.2-.19.59,0,.4-.2,1.16-.2.35,0,1.05,0,1.05.39,0,.16-.16.32-.44.32h0c-.78,0-2.2-.08-3.37-.08-.66,0-1.24,0-1.57,0a9.53,9.53,0,0,1-.21,3c-.11.35-.27.55-.4.55s-.24-.18-.24-.6Zm2-5.43c.59,0,.45-.12.88-.12s.87,0,.87.17-.3.29-.39.38a12.3,12.3,0,0,1-2.46,1.88,8.54,8.54,0,0,0,2.1.35c.36,0,.45-.06.67-.06s1.74.21,1.74.71c0,.13-.14.24-.39.24s-3.61-.76-4.58-1a18.43,18.43,0,0,1-5,1.48c-.1,0-.15,0-.15-.05s.11-.1.36-.16c2-.52,4.88-1.49,6.7-3.53-1,0-3.24.1-4,.17-.37.05-.43.17-.6.17s-1.42-.5-1.42-.69,0-.05.14-.05h.2a11.07,11.07,0,0,0,2.29.15C89,18.07,90.44,18,91.29,18Zm-4.57,8.35c0-.25-.31-.38-1-.58-.14,0-.24-.09-.24-.14s.11-.13.4-.19a10.17,10.17,0,0,1,1.4.09c.24.05.29.13.29.24s0,.19,0,.33c0,.54,0,1.25,0,1.7s.17.42.6.44l2.8,0c1-.07.52-.38,1.61-.38.31,0,1,0,1,.46,0,.14-.14.27-.36.27H88.12c-.87,0-1.34-.22-1.39-.86Z"/></g></g></svg>