<svg xmlns="http://www.w3.org/2000/svg" width="104.53" height="38.39" viewBox="0 0 104.53 38.39"><defs><style>.cls-1{fill:#fff;}</style></defs><title>txt1</title><g id="Layer_2" data-name="Layer 2"><g id="Layer_1-2" data-name="Layer 1"><path class="cls-1" d="M1.68,1.65H0V.14H5.1V1.65H3.42v8.6H1.68Z"/><path class="cls-1" d="M6.12,10.25V.14H7.85V4.26H9.7V.14h1.74V10.25H9.7V5.77H7.85v4.48Z"/><path class="cls-1" d="M13.12,10.25V.14h4.65V1.65H14.85V4.26H17.1V5.77H14.85v3H18v1.51Z"/><path class="cls-1" d="M22.44,10.25V.14h1.61l2.12,5.79h0V.14h1.57V10.25H26.25L24,3.94h0v6.32Z"/><path class="cls-1" d="M29.44,10.25V.14h4.65V1.65H31.18V4.26h2.24V5.77H31.18v3h3.11v1.51Z"/><path class="cls-1" d="M38.67.14H40.1l1.18,6.44h0l1-6.44h1.62L42.12,10.25H40.66L39.4,3.57h0l-1.18,6.68H36.74L34.82.14h1.63l1.06,6.44h0Z"/><path class="cls-1" d="M51.27,2.63c-.07-.87-.53-1.12-.92-1.12-.56,0-.87.36-.87,1C49.48,4.23,53,5.06,53,7.8a2.48,2.48,0,0,1-2.75,2.59,2.66,2.66,0,0,1-2.61-2.8l1.65-.24c.07,1,.48,1.53,1,1.53a.89.89,0,0,0,1-.92c0-2-3.53-2.54-3.53-5.44A2.37,2.37,0,0,1,50.51,0a2.43,2.43,0,0,1,2.41,2.45Z"/><path class="cls-1" d="M55.33,1.65H53.65V.14h5.1V1.65H57.06v8.6H55.33Z"/><path class="cls-1" d="M60.52,10.25H58.84L60.7.14h2.16l1.86,10.11H63L62.73,8h-1.9Zm.56-3.75h1.4L61.8,2.16h0Z"/><path class="cls-1" d="M65.73,10.25V.14h1.61l2.12,5.79h0V.14h1.57V10.25H69.54L67.33,3.94h0v6.32Z"/><path class="cls-1" d="M72.73.14h2.58c1.79,0,2.75,1,2.75,3.05v4c0,2.07-1,3.05-2.75,3.05H72.73Zm1.74,8.68h.6c.92,0,1.25-.35,1.25-1.42V3c0-1.06-.32-1.41-1.25-1.41h-.6Z"/><path class="cls-1" d="M80.74,10.25H79.06L80.92.14h2.16l1.86,10.11H83.26L83,8H81ZM81.3,6.5h1.4L82,2.16h0Z"/><path class="cls-1" d="M87.68,10.25H85.94V.14h2.44c1.95,0,2.94.83,2.94,3,0,1.63-.63,2.28-1.22,2.55l1.47,4.58H89.81L88.58,6.06a8.3,8.3,0,0,1-.9,0Zm0-5.58h.62c.94,0,1.29-.35,1.29-1.55s-.35-1.55-1.29-1.55h-.62Z"/><path class="cls-1" d="M92.95.14h2.58c1.79,0,2.75,1,2.75,3.05v4c0,2.07-1,3.05-2.75,3.05H92.95Zm1.74,8.68h.6c.92,0,1.25-.35,1.25-1.42V3c0-1.06-.32-1.41-1.25-1.41h-.6Z"/><path class="cls-1" d="M.91,24.25V14.14H2.65V24.25Z"/><path class="cls-1" d="M4.56,24.25V14.14H6.18l2.12,5.78h0V14.14H9.89V24.25H8.37L6.16,17.94h0v6.32Z"/><path class="cls-1" d="M14.67,24.25V14.14h2.49c2.14,0,3.14.83,3.14,3s-1,3-3.14,3h-.76v4.15Zm1.74-5.57h.67c1.13,0,1.48-.35,1.48-1.55s-.35-1.55-1.48-1.55h-.67Z"/><path class="cls-1" d="M21.67,24.25V14.14h4.65v1.51H23.41v2.61h2.24v1.51H23.41v3h3.11v1.51Z"/><path class="cls-1" d="M29.63,24.25H27.89V14.14h2.44c1.95,0,2.94.83,2.94,3,0,1.63-.63,2.28-1.22,2.55l1.47,4.58H31.75l-1.23-4.19a8.31,8.31,0,0,1-.9,0Zm0-5.57h.62c.94,0,1.29-.35,1.29-1.55s-.35-1.55-1.29-1.55h-.62Z"/><path class="cls-1" d="M34.89,24.25V14.14h4.85v1.51H36.63v2.61H39v1.51H36.63v4.48Z"/><path class="cls-1" d="M41.1,16.59A2.43,2.43,0,0,1,43.77,14a2.43,2.43,0,0,1,2.66,2.59V21.8a2.43,2.43,0,0,1-2.66,2.59A2.43,2.43,0,0,1,41.1,21.8Zm1.74,5.17c0,.76.22,1.12.92,1.12s.92-.36.92-1.12V16.63c0-.76-.22-1.12-.92-1.12s-.92.36-.92,1.12Z"/><path class="cls-1" d="M49.84,24.25H48.1V14.14h2.44c1.95,0,2.94.83,2.94,3,0,1.63-.63,2.28-1.22,2.55l1.47,4.58H52l-1.23-4.19a8.3,8.3,0,0,1-.9,0Zm0-5.57h.62c.94,0,1.29-.35,1.29-1.55s-.35-1.55-1.29-1.55h-.62Z"/><path class="cls-1" d="M62.07,14.14V24.25H60.55v-7.9h0L59,24.25h-.84l-1.57-7.9h0v7.9H55V14.14h2.28l1.23,5.91h0l1.23-5.91Z"/><path class="cls-1" d="M64.67,24.25H63l1.86-10.11H67l1.86,10.11H67.19L66.88,22H65Zm.56-3.75h1.4l-.69-4.34h0Z"/><path class="cls-1" d="M69.87,24.25V14.14h1.61l2.12,5.78h0V14.14H75.2V24.25H73.68l-2.21-6.32h0v6.32Z"/><path class="cls-1" d="M80.38,17.52v-.78c0-.85-.39-1.22-.84-1.22-.7,0-.92.36-.92,1.12v5.13c0,.76.22,1.12.92,1.12s.84-.36.84-1V20.64h1.74V21.8a2.41,2.41,0,0,1-2.58,2.59,2.43,2.43,0,0,1-2.66-2.59V16.59A2.43,2.43,0,0,1,79.54,14a2.51,2.51,0,0,1,2.58,2.77v.74Z"/><path class="cls-1" d="M83.87,24.25V14.14h4.65v1.51H85.61v2.61h2.24v1.51H85.61v3h3.11v1.51Z"/><path class="cls-1" d="M91.63,24.25l-1,1.74h-.74l.69-1.74H90V22.6h1.65Z"/><path class="cls-1" d="M4.17,31.52v-.78c0-.85-.39-1.22-.84-1.22-.7,0-.92.36-.92,1.12v5.13c0,.76.22,1.12.92,1.12s.84-.36.84-1V34.64H5.91V35.8a2.41,2.41,0,0,1-2.58,2.59A2.43,2.43,0,0,1,.67,35.8V30.59A2.43,2.43,0,0,1,3.33,28a2.51,2.51,0,0,1,2.58,2.77v.74Z"/><path class="cls-1" d="M7.67,30.59A2.43,2.43,0,0,1,10.33,28,2.43,2.43,0,0,1,13,30.59V35.8a2.43,2.43,0,0,1-2.66,2.59A2.43,2.43,0,0,1,7.67,35.8Zm1.74,5.17c0,.76.22,1.12.92,1.12s.92-.36.92-1.12V30.63c0-.76-.22-1.12-.92-1.12s-.92.36-.92,1.12Z"/><path class="cls-1" d="M21.63,28.14V38.25H20.12v-7.9h0l-1.57,7.9h-.84l-1.57-7.9h0v7.9H14.57V28.14h2.28l1.23,5.91h0l1.23-5.91Z"/><path class="cls-1" d="M23.23,38.25V28.14h4.85v1.51H25v2.61h2.33v1.51H25v4.48Z"/><path class="cls-1" d="M29.44,30.59A2.43,2.43,0,0,1,32.1,28a2.43,2.43,0,0,1,2.66,2.59V35.8a2.43,2.43,0,0,1-2.66,2.59,2.43,2.43,0,0,1-2.66-2.59Zm1.74,5.17c0,.76.22,1.12.92,1.12s.92-.36.92-1.12V30.63c0-.76-.22-1.12-.92-1.12s-.92.36-.92,1.12Z"/><path class="cls-1" d="M38.18,38.25H36.44V28.14h2.44c1.95,0,2.94.83,2.94,3,0,1.62-.63,2.28-1.22,2.55l1.47,4.58H40.31l-1.23-4.19a8.31,8.31,0,0,1-.9,0Zm0-5.58h.62c.94,0,1.29-.35,1.29-1.55s-.35-1.55-1.29-1.55h-.62Z"/><path class="cls-1" d="M44.45,29.65H42.77V28.14h5.1v1.51H46.19v8.6H44.45Z"/><path class="cls-1" d="M53,38.25H51.32l1.86-10.11h2.16l1.86,10.11H55.53L55.22,36h-1.9Zm.56-3.75H55l-.69-4.34h0Z"/><path class="cls-1" d="M58.21,38.25V28.14h1.61l2.12,5.79h0V28.14h1.57V38.25H62l-2.21-6.32h0v6.32Z"/><path class="cls-1" d="M65.21,28.14h2.58c1.79,0,2.75,1,2.75,3.05v4c0,2.07-1,3.05-2.75,3.05H65.21Zm1.74,8.68h.6c.92,0,1.25-.35,1.25-1.42V31c0-1.06-.32-1.42-1.25-1.42h-.6Z"/><path class="cls-1" d="M78.86,28.14h1.71L78.46,38.25H76.72L74.6,28.14h1.71l1.26,7h0Z"/><path class="cls-1" d="M82,38.25H80.34l1.86-10.11h2.16l1.86,10.11H84.55L84.24,36H82.33Zm.56-3.75H84l-.69-4.34h0Z"/><path class="cls-1" d="M87.15,38.25V28.14h1.74v8.6h2.73v1.51Z"/><path class="cls-1" d="M92.68,28.14h1.74v7.63c0,.74.29,1.11.92,1.11s.92-.36.92-1.11V28.14H98V35.7a2.66,2.66,0,1,1-5.32,0Z"/><path class="cls-1" d="M99.68,38.25V28.14h4.65v1.51h-2.91v2.61h2.24v1.51h-2.24v3h3.11v1.51Z"/></g></g></svg>