<svg id="english" xmlns="http://www.w3.org/2000/svg" xmlns:xlink="http://www.w3.org/1999/xlink" viewBox="0 0 300 50"><defs><style>.cls-1{fill:none;}.cls-2{clip-path:url(#clip-path);}.cls-3{fill:#fff;}</style><clipPath id="clip-path"><rect class="cls-1" x="218.78" y="6" width="45.79" height="26.52"/></clipPath></defs><title>Artboard 41 copy 3</title><g class="cls-2"><path class="cls-3" d="M259.51,20.4c-.24-.26-.57-.19-.87,0s-.6.19-.39-.69a16.17,16.17,0,0,1,1-2.41c.14-.33-.05-.76-.66-.82a1.13,1.13,0,0,0-.76.26,1.72,1.72,0,0,0-1.4-.59,4.72,4.72,0,0,0-3.55,2.22,7.68,7.68,0,0,1-2,2,.83.83,0,0,1-.65.2c-.36-.14-.25-.64.49-1.5,1.21-1.37,1.55-2.41.86-3a1.85,1.85,0,0,0-2.06-.08,5.64,5.64,0,0,0-1.78,1.28c1.12-2.29,2.49-5,3.43-6.47.42-.69.41-1.29-.18-1.4s-1.07.18-1.48,1.06c-1,2.06-1.82,3.9-2.77,6v0a10.37,10.37,0,0,1-3.28,4,.87.87,0,0,1-.64.19c-.38-.14-.28-.66.48-1.49,1.19-1.4,1.54-2.43.84-3a1.88,1.88,0,0,0-2-.09A6.64,6.64,0,0,0,240,17.62c.47-.69.43-1.32,0-1.47s-.89,0-1.45,1.59a4.94,4.94,0,0,1-2.11,2.69c-.25.12-.69.17-.5-.68a19.2,19.2,0,0,1,1-2.43c.15-.32,0-.75-.63-.8a.94.94,0,0,0-.77.24,1.86,1.86,0,0,0-1.42-.6A4.94,4.94,0,0,0,230,19.8a1.94,1.94,0,0,1-1.38.77c-1.12,0-1.72-1-2-2.09,2.51-.5,4.89-1.91,5.32-4.1s-1-3.89-3.56-3.84a8,8,0,0,0-6.48,3.72c-.39.75,0,1.35.49,1.32a1.38,1.38,0,0,0,1.23-1,4.32,4.32,0,0,1,4-2.74,2.11,2.11,0,0,1,2.53,2.38c-.19,1.7-1.89,2.69-3.62,3.14l0-.13c0-.5,0-.87-.39-1a.43.43,0,0,0-.29-.41c-.29-.15-.66-.11-1,.39-1.2,1.87-1.79,2.74-3,4.3-.53.71-.55,1.44,0,1.61s1.08-.07,1.53-.8c.6-1,1.1-1.88,1.54-2.67l.37,0c.07,1.58.85,3.73,3,3.37a3.38,3.38,0,0,0,1.76-.93c.3.86,1.34,1.07,2.39.59a6.37,6.37,0,0,0,2.06-1.61c-.64,1.62.59,2.81,2.48,1.27a1.9,1.9,0,0,1,.22-.2c-.94,2-2.1,4.2-2.81,5.7-.47,1-.26,1.49.35,1.54s1-.27,1.33-1.13c.5-1.17,1.44-3.73,2.94-6.64s3.28-3.48,3.63-3.23-.15.86-1,1.91-.85,2.06-.42,2.45,1.52.58,2.73-.39a8.89,8.89,0,0,0,.86-.81c-.4.77-.52,1.34,0,1.54a.81.81,0,0,0,1.06-.48,11.89,11.89,0,0,1,2-3c1.06-1.15,2-1.38,2.25-1.21.39.24-.15.85-1,1.88s-.87,2.09-.41,2.48,1.51.57,2.73-.42a5,5,0,0,0,.81-.74c.07,1.29,1.28,1.65,2.46,1.08a6.1,6.1,0,0,0,2.07-1.59c-.54,1.68,1,2.69,2.55,1.29.37-.33.45-.8.26-1m-26.81-.2c-.62.4-1.43.23-1.06-.89a2.31,2.31,0,0,1,1.84-1.65,1.08,1.08,0,0,1,1.05.66,5.57,5.57,0,0,1-1.83,1.88m22.29,0c-.61.38-1.44.22-1.05-.89a2.28,2.28,0,0,1,1.78-1.69,1.29,1.29,0,0,1,1.11.71A6.45,6.45,0,0,1,255,20.22"/><path class="cls-3" d="M261.82,20a.93.93,0,0,0-.93.94,1,1,0,0,0,.92.91.9.9,0,0,0,.91-.92.93.93,0,0,0-.9-.93"/></g><path class="cls-3" d="M214,35.41v-.53c0-.57-.27-.81-.57-.81-.46,0-.61.24-.61.75v3.43c0,.5.15.75.61.75s.57-.25.57-.69V37.5h1.16v.78a1.75,1.75,0,0,1-3.5,0V34.79a1.62,1.62,0,0,1,1.77-1.73,1.67,1.67,0,0,1,1.73,1.85v.5Z"/><path class="cls-3" d="M216.29,34.79a1.78,1.78,0,0,1,3.56,0v3.49a1.78,1.78,0,0,1-3.56,0Zm1.16,3.46c0,.5.15.75.62.75s.62-.25.62-.75V34.82c0-.51-.15-.75-.62-.75s-.62.24-.62.75Z"/><path class="cls-3" d="M222.13,39.92H221V33.15h1.63c1.3,0,2,.55,2,2,0,1.08-.42,1.52-.82,1.7l1,3.07h-1.18l-.83-2.81a5.21,5.21,0,0,1-.6,0Zm0-3.73h.41c.63,0,.87-.24.87-1s-.24-1-.87-1h-.41Z"/><path class="cls-3" d="M225.65,39.92V33.15h3.11v1h-1.95v1.75h1.5v1h-1.5v2h2.08v1Z"/><path class="cls-3" d="M234.23,35.41v-.53c0-.57-.26-.81-.56-.81-.47,0-.62.24-.62.75v3.43c0,.5.15.75.62.75s.56-.25.56-.69V37.5h1.16v.78A1.61,1.61,0,0,1,233.67,40a1.62,1.62,0,0,1-1.78-1.73V34.79a1.62,1.62,0,0,1,1.78-1.73,1.67,1.67,0,0,1,1.72,1.85v.5Z"/><path class="cls-3" d="M236.57,34.79a1.78,1.78,0,0,1,3.56,0v3.49a1.78,1.78,0,0,1-3.56,0Zm1.16,3.46c0,.5.15.75.62.75s.62-.25.62-.75V34.82c0-.51-.15-.75-.62-.75s-.62.24-.62.75Z"/><path class="cls-3" d="M241.2,39.92V33.15h1.16V38.9h1.83v1Z"/><path class="cls-3" d="M244.84,39.92V33.15H246V38.9h1.83v1Z"/><path class="cls-3" d="M248.54,39.92V33.15h3.11v1h-2v1.75h1.5v1h-1.5v2h2.08v1Z"/><path class="cls-3" d="M255,35.41v-.53c0-.57-.26-.81-.56-.81-.47,0-.62.24-.62.75v3.43c0,.5.15.75.62.75s.56-.25.56-.69V37.5h1.17v.78a1.76,1.76,0,0,1-3.51,0V34.79a1.62,1.62,0,0,1,1.78-1.73,1.68,1.68,0,0,1,1.73,1.85v.5Z"/><path class="cls-3" d="M258.06,34.16h-1.13v-1h3.41v1h-1.12v5.76h-1.16Z"/><path class="cls-3" d="M261.19,39.92V33.15h1.16v6.77Z"/><path class="cls-3" d="M263.63,34.79a1.78,1.78,0,0,1,3.56,0v3.49a1.78,1.78,0,0,1-3.56,0Zm1.16,3.46c0,.5.15.75.62.75s.62-.25.62-.75V34.82c0-.51-.15-.75-.62-.75s-.62.24-.62.75Z"/><path class="cls-3" d="M268.31,39.92V33.15h1.08L270.81,37h0V33.15h1.05v6.77h-1l-1.48-4.23h0v4.23Z"/></svg>