<svg id="english" xmlns="http://www.w3.org/2000/svg" viewBox="0 0 300 50"><defs><style>.cls-1{fill:#fff;}</style></defs><title>Artboard 41 copy 4</title><path class="cls-1" d="M210.53,14.08h-1.2V13H213v1.08h-1.2v6.14h-1.24Z"/><path class="cls-1" d="M213.7,20.22V13h1.24v2.94h1.32V13h1.24v7.22h-1.24V17h-1.32v3.2Z"/><path class="cls-1" d="M218.7,20.22V13H222v1.08h-2.08v1.86h1.6V17h-1.6v2.12h2.22v1.08Z"/><path class="cls-1" d="M227.62,14.78c-.05-.62-.38-.8-.66-.8s-.62.26-.62.71c0,1.23,2.52,1.82,2.52,3.78a1.77,1.77,0,0,1-2,1.85,1.9,1.9,0,0,1-1.86-2l1.18-.17c.05.73.34,1.09.74,1.09a.64.64,0,0,0,.72-.66c0-1.43-2.52-1.81-2.52-3.88a1.69,1.69,0,0,1,1.92-1.8,1.73,1.73,0,0,1,1.72,1.75Z"/><path class="cls-1" d="M230.52,14.08h-1.2V13H233v1.08h-1.2v6.14h-1.24Z"/><path class="cls-1" d="M234.23,20.22H233L234.36,13h1.54l1.33,7.22H236l-.22-1.6h-1.36Zm.4-2.68h1l-.49-3.1h0Z"/><path class="cls-1" d="M238,20.22V13h1.15l1.51,4.13h0V13h1.12v7.22h-1.08l-1.58-4.51h0v4.51Z"/><path class="cls-1" d="M243,13h1.84c1.28,0,2,.7,2,2.18V18c0,1.48-.68,2.18-2,2.18H243Zm1.24,6.2h.43c.66,0,.89-.25.89-1V15c0-.76-.23-1-.89-1h-.43Z"/><path class="cls-1" d="M248.67,20.22h-1.2L248.8,13h1.54l1.33,7.22h-1.2l-.22-1.6h-1.36Zm.4-2.68h1l-.49-3.1h0Z"/><path class="cls-1" d="M253.63,20.22h-1.24V13h1.74c1.39,0,2.1.59,2.1,2.13,0,1.16-.45,1.63-.87,1.82l1.05,3.27h-1.26l-.88-3a6,6,0,0,1-.64,0Zm0-4h.44c.67,0,.92-.25.92-1.11s-.25-1.11-.92-1.11h-.44Z"/><path class="cls-1" d="M257.39,13h1.84c1.28,0,2,.7,2,2.18V18c0,1.48-.68,2.18-2,2.18h-1.84Zm1.24,6.2h.43c.66,0,.89-.25.89-1V15c0-.76-.23-1-.89-1h-.43Z"/><path class="cls-1" d="M264.78,20.22V13H266v7.22Z"/><path class="cls-1" d="M267.39,20.22V13h1.15l1.51,4.13h0V13h1.12v7.22h-1.08l-1.58-4.51h0v4.51Z"/><path class="cls-1" d="M194.73,30.22V23h1.77c1.53,0,2.24.59,2.24,2.13s-.71,2.13-2.24,2.13H196v3Zm1.23-4h.48c.81,0,1.06-.25,1.06-1.11S197.25,24,196.44,24H196Z"/><path class="cls-1" d="M199.73,30.22V23H203v1.08H201v1.86h1.6V27H201v2.12h2.22v1.08Z"/><path class="cls-1" d="M205.4,30.22h-1.23V23h1.73c1.39,0,2.1.59,2.1,2.13,0,1.16-.45,1.63-.87,1.82l1.05,3.27h-1.26l-.88-3a6,6,0,0,1-.64,0Zm0-4h.44c.67,0,.92-.25.92-1.11s-.25-1.11-.92-1.11h-.44Z"/><path class="cls-1" d="M209.17,30.22V23h3.45v1.08H210.4v1.86h1.66V27H210.4v3.2Z"/><path class="cls-1" d="M213.6,24.75a1.9,1.9,0,0,1,3.8,0v3.72a1.9,1.9,0,0,1-3.8,0Zm1.24,3.69c0,.54.16.8.66.8s.66-.26.66-.8V24.78c0-.54-.16-.8-.66-.8s-.66.26-.66.8Z"/><path class="cls-1" d="M219.84,30.22H218.6V23h1.74c1.39,0,2.1.59,2.1,2.13,0,1.16-.45,1.63-.87,1.82l1.05,3.27h-1.26l-.88-3a6,6,0,0,1-.64,0Zm0-4h.44c.67,0,.92-.25.92-1.11S221,24,220.28,24h-.44Z"/><path class="cls-1" d="M228.57,23v7.22h-1.08V24.58h0l-1.12,5.64h-.6l-1.12-5.64h0v5.64h-1.08V23h1.63l.88,4.22h0l.88-4.22Z"/><path class="cls-1" d="M230.43,30.22h-1.19L230.56,23h1.54l1.33,7.22h-1.2l-.22-1.6h-1.36Zm.4-2.68h1l-.49-3.1h0Z"/><path class="cls-1" d="M234.15,30.22V23h1.15l1.51,4.13h0V23H238v7.22h-1.08l-1.58-4.51h0v4.51Z"/><path class="cls-1" d="M241.65,25.41v-.56c0-.61-.28-.87-.6-.87-.5,0-.66.26-.66.8v3.66c0,.54.16.8.66.8s.6-.26.6-.73v-.87h1.24v.83a1.87,1.87,0,0,1-3.74,0V24.75a1.73,1.73,0,0,1,1.9-1.85,1.79,1.79,0,0,1,1.84,2v.53Z"/><path class="cls-1" d="M244.15,30.22V23h3.32v1.08h-2.08v1.86H247V27h-1.6v2.12h2.22v1.08Z"/><path class="cls-1" d="M249.69,30.22,249,31.46h-.53l.49-1.24h-.45V29h1.18Z"/><path class="cls-1" d="M255.53,25.41v-.56c0-.61-.28-.87-.6-.87-.5,0-.66.26-.66.8v3.66c0,.54.16.8.66.8s.6-.26.6-.73v-.87h1.24v.83a1.87,1.87,0,0,1-3.74,0V24.75a1.73,1.73,0,0,1,1.9-1.85,1.79,1.79,0,0,1,1.84,2v.53Z"/><path class="cls-1" d="M258,24.75a1.9,1.9,0,0,1,3.8,0v3.72a1.9,1.9,0,0,1-3.8,0Zm1.24,3.69c0,.54.16.8.66.8s.66-.26.66-.8V24.78c0-.54-.16-.8-.66-.8s-.66.26-.66.8Z"/><path class="cls-1" d="M268,23v7.22h-1.08V24.58h0l-1.12,5.64h-.6l-1.12-5.64h0v5.64H263V23h1.63l.88,4.22h0l.88-4.22Z"/><path class="cls-1" d="M269.14,30.22V23h3.46v1.08h-2.22v1.86H272V27h-1.66v3.2Z"/><path class="cls-1" d="M273.58,24.75a1.9,1.9,0,0,1,3.8,0v3.72a1.9,1.9,0,0,1-3.8,0Zm1.24,3.69c0,.54.16.8.66.8s.66-.26.66-.8V24.78c0-.54-.16-.8-.66-.8s-.66.26-.66.8Z"/><path class="cls-1" d="M279.82,30.22h-1.24V23h1.74c1.39,0,2.1.59,2.1,2.13,0,1.16-.45,1.63-.87,1.82l1.05,3.27h-1.26l-.88-3a6,6,0,0,1-.64,0Zm0-4h.44c.67,0,.92-.25.92-1.11s-.25-1.11-.92-1.11h-.44Z"/><path class="cls-1" d="M284.3,24.08h-1.2V23h3.64v1.08h-1.2v6.14H284.3Z"/><path class="cls-1" d="M221.46,40.22h-1.2L221.59,33h1.54l1.33,7.22h-1.2l-.22-1.6h-1.36Zm.4-2.68h1l-.49-3.1h0Z"/><path class="cls-1" d="M225.18,40.22V33h1.15l1.51,4.13h0V33H229v7.22H227.9l-1.58-4.51h0v4.51Z"/><path class="cls-1" d="M230.18,33H232c1.28,0,2,.7,2,2.18V38c0,1.48-.68,2.18-2,2.18h-1.84Zm1.24,6.2h.43c.66,0,.89-.25.89-1V35c0-.76-.23-1-.89-1h-.43Z"/><path class="cls-1" d="M239.93,33h1.22l-1.51,7.22H238.4L236.89,33h1.22l.9,5h0Z"/><path class="cls-1" d="M242.19,40.22H241L242.32,33h1.54l1.33,7.22H244l-.22-1.6h-1.36Zm.4-2.68h1l-.49-3.1h0Z"/><path class="cls-1" d="M245.85,40.22V33h1.24v6.14H249v1.08Z"/><path class="cls-1" d="M249.8,33H251v5.45c0,.53.21.79.66.79s.66-.26.66-.79V33h1.24v5.4a1.9,1.9,0,1,1-3.8,0Z"/><path class="cls-1" d="M254.8,40.22V33h3.32v1.08H256v1.86h1.6V37H256v2.12h2.22v1.08Z"/><path class="cls-1" d="M259.16,40.22V39h1.18v1.18Z"/></svg>