<svg xmlns="http://www.w3.org/2000/svg" width="48.08" height="11.86" viewBox="0 0 48.08 11.86"><defs>
<style>.cls-1{fill:#fff;stroke:#fff;stroke-miterlimit:10;stroke-width:0.5px;}</style></defs><title>core</title>
<g id="Layer_2" data-name="Layer 2"><g id="Layer_1-2" data-name="Layer 1">
<path class="cls-1" d="M7.73,1.32c0-.21-.66-.49-1.16-.72-.13,0-.22-.11-.22-.16S6.5.31,6.86.3A10.1,10.1,0,0,1,8.24.62c.25.1.31.18.31.3s0,.21,0,.39V5.67h.6c.57-.08.38-.31,1.14-.31.23,0,.73,0,.73.37,0,.17-.14.31-.4.31H8.5V9.52a4.68,4.68,0,0,1-.3,1.78c-.1.14-.19.21-.28.21s-.18-.15-.18-.55v-4a23.27,23.27,0,0,1-5.87,1.8c-.34,0-.58-.42-.59-.89l0-2.21c0-.29-.41-.42-.81-.54C.32,5.07.25,5,.25,5s.13-.15.42-.19A6.77,6.77,0,0,1,2.16,5c.52,0,1,0,1.62-.07a1.66,1.66,0,0,0,.61-.16c.08-.49.17-1.53.23-2.3-.88.06-1.44.08-2.27.19-.31.07-.37.18-.54.18S.63,2.42.63,2.23s0-.06.12-.06a.83.83,0,0,1,.2,0,9.44,9.44,0,0,0,1.32.09c.57,0,1.18,0,1.88-.07a2.49,2.49,0,0,1,1-.16c.38,0,.5.11.5.19s-.21.24-.29.37c-.11.52-.42,1.65-.53,2.1.4.07.58.21.58.31s-.11.16-.3.17c-1,.07-2.4.12-2.89.15-.22.08-.23,0-.26.22,0,.93,0,1.38,0,2.16,0,.17.08.27.29.27a19,19,0,0,0,5.45-1.3Z"/>
<path class="cls-1" d="M19.73,1.32c0-.21-.66-.49-1.16-.72-.13,0-.22-.11-.22-.16s.15-.13.51-.14a10.1,10.1,0,0,1,1.38.32c.25.1.31.18.31.3s0,.21,0,.39V5.67h.6c.57-.08.37-.31,1.14-.31.23,0,.73,0,.73.37,0,.17-.14.31-.4.31H20.5V9.52a4.68,4.68,0,0,1-.3,1.78c-.1.14-.19.21-.28.21s-.18-.15-.18-.55V7.06A32.11,32.11,0,0,1,14.4,8.35c-.22.07-.22.19-.41.19a5.42,5.42,0,0,1-1.63-.62c-.12-.08-.18-.14-.18-.19s.06-.08.17-.08h.14A10.47,10.47,0,0,0,14,7.77a16.28,16.28,0,0,0,2.92-.32,22,22,0,0,0,.48-2.92,1.07,1.07,0,0,0-.59-.69c-.13-.06-.2-.12-.2-.17s.09-.1.26-.1A3.68,3.68,0,0,1,18,4c.15.07.19.14.19.24s-.68,2.28-1,3.2a15.88,15.88,0,0,0,2.5-.59ZM16.94,2.58c.77-.06.24-.33,1.38-.33.2,0,.74,0,.74.33,0,.17-.21.32-.65.32-1.43,0-2.8.07-3.93.16-.32.06-.4.17-.56.17s-1.17-.45-1.17-.64,0-.06.1-.06a.79.79,0,0,1,.23,0,11,11,0,0,0,1.75.12c.67,0,1.31,0,1.73-.06ZM15,7.14c-.12,0-.24-.17-.28-.47A5.43,5.43,0,0,0,14,4.23a.59.59,0,0,1-.13-.31s0-.06.05-.06.15.06.3.2c.7.78,1.17,1.34,1.17,1.94S15.18,7.14,15,7.14Z"/>
<path class="cls-1" d="M31.6,7.29c0-.2-.19-.31-.58-.5-.11,0-.18-.09-.18-.13s.09-.11.34-.14c1,.12,1.2.2,1.2.35s0,.16,0,.27l0,2.38c.68,0,1.25,0,2.65-.08.78-.12.73-.28,1.18-.28s1.41.1,1.41.52c0,.14-.17.26-.48.26H37c-1.05-.09-2.36-.14-3.72-.14s-2.84,0-4.1.14c-.46.12-.59.25-.8.25s-1.62-.56-1.62-.76c0,0,.05-.08.16-.08a.53.53,0,0,1,.16,0,19.23,19.23,0,0,0,2.88.19c.52,0,1.07,0,1.69,0ZM35,2.39a2.6,2.6,0,0,1,.72-.11c.16,0,.77,0,.77.2s-.23.25-.26.33c-.21.84-.69,3.88-1.48,5.09-.13.19-.25.29-.31.29s-.06,0-.06-.11a1.11,1.11,0,0,1,.07-.31,21.34,21.34,0,0,0,.62-2.83,46.79,46.79,0,0,1-4.94,1c-.29.07-.32.22-.54.22s-1.68-.58-1.68-.83c0,0,.06-.07.16-.07l.23,0a9.19,9.19,0,0,0,1.38.1,29.3,29.3,0,0,0,5.43-.62c.06-.28.21-1.34.28-2-.89,0-2.87.09-4.87.18-.38.07-.46.21-.66.21a2.89,2.89,0,0,1-1.38-.7s0-.06.13-.06a1.09,1.09,0,0,1,.26,0A16.56,16.56,0,0,0,31,2.48c1.3,0,2.84-.06,4-.09Z"/>
<path class="cls-1" d="M47,5.34l-1.46.09c-.26,0-.3.16-.47.16a1.56,1.56,0,0,1-.61-.22A2.29,2.29,0,0,1,42,7.4c-1.78,0-2.77-1.1-2.77-2.3a2.36,2.36,0,0,1,2.28-2.25c.21,0,.43-.1.43-.32a.44.44,0,0,0-.09-.23.35.35,0,0,1-.12-.19s0-.07.12-.07c.34,0,.76.33.76.45s-.14.18-.24.34C43.78,3.15,44.43,4,44.5,5h0a4.06,4.06,0,0,0,.67,0c.6,0,1.38,0,1.87-.1V1.44c0-.25-.6-.61-1-.83-.18-.06-.31-.14-.31-.21s.12-.14.43-.15a11.16,11.16,0,0,1,1.44.4c.23.1.28.16.28.25a2.2,2.2,0,0,0,0,.29v7c0,2.21-.08,2.82-.33,3.25-.07.13-.15.22-.21.22s-.22-.24-.22-.84Zm-7.1-.21a1.83,1.83,0,0,0,2,1.8,1.77,1.77,0,0,0,1.88-1.8,1.77,1.77,0,0,0-1.88-1.8A1.83,1.83,0,0,0,39.93,5.13Z"/>

</g></g></svg>