<?xml version="1.0" encoding="utf-8"?>
<!-- Generator: Adobe Illustrator 22.1.0, SVG Export Plug-In . SVG Version: 6.00 Build 0)  -->
<svg version="1.1" id="Layer_1" xmlns="http://www.w3.org/2000/svg" xmlns:xlink="http://www.w3.org/1999/xlink" x="0px" y="0px"
	 viewBox="0 0 95 46.2" style="enable-background:new 0 0 95 46.2;" xml:space="preserve">
<style type="text/css">
	.st0{fill:#FFFFFF;stroke:#FFFFFF;stroke-width:0.25;stroke-miterlimit:10;}
</style>
<title>txt1</title>
<g>
	<path class="st0" d="M0.2,6.5c1.3-1,2.8-2.4,3.7-4.3c0,0,0.1-0.3,0.1-0.3c0-0.1-0.2-0.4-0.7-0.7C3.1,1.1,3.1,1,3.1,1
		c0-0.1,0.1-0.1,0.3-0.1c0.1,0,0.2,0,0.3,0.1C3.9,1,5.1,1.5,5.1,1.8c0,0.2-0.5,1.1-0.9,1.6c0.1,0.2,0.6,0.9,1,1.1
		c0.4,0.3,0.5-0.1,1.2,1.3C6.4,6,6.4,6.1,6.4,6.2c0,0.2-0.1,0.3-0.3,0.3C6,6.5,5.9,6.4,5.8,6.3C5.1,5.4,4.4,4.5,3.9,3.7
		c-1.3,1.7-3.6,3-3.8,3c0,0-0.1,0-0.1,0C0,6.7,0.1,6.6,0.2,6.5z M7,7.6c0-0.1-0.1-0.2-0.2-0.3C6.7,7.2,6.7,7.1,6.7,7
		C6.7,7,6.7,7,6.8,7c0.3,0,0.9,0.3,0.9,0.4c0,0.1-0.1,0.2-0.2,0.4C8.9,8,9.6,9,9.6,9.9c0,1.1-0.9,2.1-2.6,2.1
		c-1.6,0-2.5-1.1-2.5-2.1c0-0.9,0.7-1.9,2.2-2.1C6.9,7.7,7,7.7,7,7.6z M5.3,9.8c0,0.8,0.6,1.6,1.8,1.6c1.2,0,1.8-0.8,1.8-1.6
		c0-0.8-0.6-1.6-1.8-1.6C5.9,8.2,5.3,9,5.3,9.8z M9.1,3.7C8.4,3.8,8,3.8,7.6,3.8C7.3,3.9,7.2,4,7,4C6.7,4,5.9,3.7,5.9,3.5
		c0-0.1,0.1-0.1,0.2-0.1c0.1,0,0.5,0,0.6,0c0.7,0,1.6,0,2.2-0.1V1.2c0-0.3-0.7-0.6-1.1-0.8C7.7,0.3,7.6,0.2,7.6,0.2
		C7.6,0.1,7.7,0,8,0c0.1,0,1.9,0.3,1.9,0.6c0,0.1,0,0.2,0,0.3l0,4.8c0,0.6-0.1,1.4-0.3,1.8C9.5,7.7,9.4,7.8,9.3,7.8
		c-0.1,0-0.2-0.2-0.2-0.9V3.7z"/>
	<path class="st0" d="M22.1,5.6c0.7-0.1,0.5-0.3,1.2-0.3c0.4,0,1.3,0,1.3,0.4c0,0.2-0.2,0.3-0.4,0.3h0C23.5,6,22.6,6,21.8,6
		c-1.6,0-4.3,0-6.4,0.2c-0.4,0-0.4,0.2-0.7,0.2c-0.3,0-1.7-0.6-1.7-0.8c0-0.1,0.1-0.1,0.2-0.1c0.1,0,0.2,0,0.3,0
		c0.4,0.1,1.2,0.2,2.1,0.2c1.6,0,3.8-0.1,6.1-0.2L22.1,5.6z M15.5,1.3C15.5,1.2,15,1,14.6,0.9c-0.1,0-0.3-0.1-0.3-0.2
		s0.1-0.1,0.5-0.2c1.4,0.1,1.6,0.2,1.6,0.4c0,0.1,0,0.1,0,0.2v1.7c0,0.5,0.1,0.5,0.9,0.5c1,0,2.4-0.1,3.4-0.1
		c0.5-0.1,0.4-0.4,1.2-0.4c0.5,0,1,0,1,0.4c0,0.1-0.2,0.3-0.5,0.3c-1.6,0.1-4.1,0.1-5.5,0.1c-1,0-1.3-0.4-1.3-0.8L15.5,1.3z
		 M18.4,7.5c0.2,0,0.3-0.1,0.3-0.2c0-0.1,0-0.1-0.1-0.2c-0.1-0.1-0.1-0.1-0.1-0.2c0-0.1,0-0.1,0.1-0.1c0.2,0,0.7,0.2,0.7,0.4
		c0,0.1-0.1,0.2-0.1,0.3c1.6,0.3,2.3,1.2,2.3,2.2c0,1.1-0.9,2.1-2.6,2.1c-1.7,0-2.7-1.1-2.7-2.2c0-0.9,0.7-1.8,2.1-2.1L18.4,7.5z
		 M17,9.6c0,0.8,0.6,1.7,1.9,1.7c1.3,0,1.9-0.8,1.9-1.7c0-0.8-0.6-1.7-1.9-1.7C17.6,7.9,17,8.7,17,9.6z"/>
	<path class="st0" d="M27.6,11.1l-0.9,1.6H26l0.6-1.6H26V9.5h1.5V11.1z"/>
	<path class="st0" d="M34.5,3c-0.4,0.1-0.5,0.2-0.6,0.2c-0.2,0-1.4-0.5-1.4-0.7c0,0,0-0.1,0.1-0.1c0.1,0,0.2,0,0.3,0.1
		c0.5,0.1,1,0.1,1.5,0.1c0.7,0,1.5-0.1,2.4-0.1c0.4,0,0.3-0.1,0.7-0.1c0.2,0,0.8,0,0.8,0.2c0,0.1-0.2,0.3-0.3,0.4
		c-1.2,2.9-2.8,4.7-5.7,6.7C32.1,9.8,32,9.9,32,9.9c0,0-0.1,0-0.1,0c0-0.1,0.1-0.2,0.3-0.4c1.8-1.5,4.2-4.3,4.8-6.6
		C36.7,2.8,34.9,3,34.5,3z M40.3,1.1c0-0.2-0.7-0.5-1.3-0.8c-0.1-0.1-0.2-0.1-0.2-0.2C38.8,0.1,39,0,39.4,0c0.6,0.1,1.1,0.2,1.5,0.4
		c0.3,0.1,0.3,0.2,0.3,0.3c0,0.1,0,0.2,0,0.4v4.7h0.6c0.6-0.1,0.4-0.3,1.2-0.3c0.2,0,0.8,0,0.8,0.4c0,0.2-0.2,0.3-0.4,0.3h-2.2
		l0,3.8c0,0.8-0.1,1.4-0.3,1.9c-0.1,0.2-0.2,0.2-0.3,0.2c-0.1,0-0.2-0.2-0.2-0.6V1.1z"/>
	<path class="st0" d="M53.8,3.2c-0.6,0-1.1,0.1-1.7,0.1c-0.2,0-0.3,0.1-0.5,0.1c-0.1,0-0.4-0.1-0.9-0.3c-1.2,1.8-2.6,3.3-5.2,4.7
		C45.3,7.9,45.1,8,45.1,8c0,0,0,0,0,0c0-0.1,0.2-0.2,0.5-0.4C47.9,6,49.6,4,50.4,2.2l-2.3,0.1c-0.5,0.1-0.6,0.2-0.8,0.2
		c-0.4,0-1.4-0.5-1.4-0.7c0,0,0.1-0.1,0.1-0.1c0.1,0,0.2,0,0.3,0c0.3,0.1,1,0.1,1.7,0.1c0.8,0,1.7,0,2.3-0.1c0.3,0,0.2-0.1,0.5-0.1
		c0.3,0,0.8,0.1,0.8,0.2c0,0.1-0.2,0.2-0.2,0.4c-0.1,0.2-0.2,0.3-0.3,0.5c0.3,0,0.7,0.1,1.1,0.1c0.6,0,1.2,0,1.8-0.1V1.3
		c0-0.2-0.6-0.5-1.2-0.8c-0.2-0.1-0.3-0.1-0.3-0.2s0.1-0.1,0.5-0.2c1.7,0.3,1.9,0.5,1.9,0.7c0,0.1,0,0.2,0,0.3l0,4.7
		c-0.1,0.8-0.3,1.4-0.5,1.4c-0.1,0-0.2-0.2-0.2-0.7V5.3c-0.3,0-1.4,0.1-1.8,0.2c-0.4,0.1-0.4,0.2-0.6,0.2c-0.2,0-1-0.4-1-0.5
		c0-0.1,0.2-0.1,0.4-0.1c1.4,0,2.3-0.1,3.1-0.2L53.8,3.2z M53.8,8c-0.8,0.1-3,0.1-4.5,0.2c-0.4,0.1-0.5,0.2-0.7,0.2
		c-0.2,0-1.4-0.5-1.4-0.7c0,0,0-0.1,0.1-0.1c0.1,0,0.1,0,0.2,0c0.5,0.1,1.3,0.1,2.1,0.1c1.3,0,2.7-0.1,3.8-0.1
		c0.4-0.1,0.3-0.2,0.9-0.2c0.5,0,0.6,0.1,0.6,0.2c0,0.1-0.1,0.3-0.2,0.4c0,2,0,2.4-0.2,3.4c-0.1,0.4-0.3,0.6-0.4,0.6
		c-0.1,0-0.2-0.1-0.2-0.5V8z"/>
	<path class="st0" d="M61.1,5.3c0-0.2-0.4-0.4-0.7-0.5c-0.2-0.1-0.3-0.1-0.3-0.2c0-0.1,0.1-0.1,0.4-0.1c1.2,0.1,1.4,0.2,1.4,0.4
		c0,0.1,0,0.1,0,0.2c0,0.8,0,2.2,0,2.7c1-0.1,3.7-0.6,4.5-0.9V1.1c0-0.2-0.5-0.5-1.1-0.7c-0.2-0.1-0.3-0.1-0.3-0.2s0.1-0.1,0.4-0.1
		c0.1,0,1.8,0.2,1.8,0.6c0,0.1,0,0.2,0,0.4v5.2l0.5,0c0.7-0.1,0.4-0.3,1.2-0.3c0.5,0,0.7,0.2,0.7,0.4c0,0.1-0.1,0.3-0.4,0.3l-2.1,0
		l0,3.4c0,1.5-0.3,2.2-0.6,2.2c-0.1,0-0.2-0.2-0.2-0.5V7.1c-1.8,0.6-3.5,1-5.6,1.4c-0.4,0.1-0.5,0.2-0.7,0.2c-0.3,0-1.8-0.7-1.8-0.9
		c0,0,0.1-0.1,0.2-0.1c0,0,0.1,0,0.1,0c0.6,0.1,1.1,0.2,1.6,0.2c0.5,0,0.9-0.1,1-0.1V5.3z M63.6,2.2c0.3,0,0.1-0.1,0.6-0.1
		c0.5,0,0.8,0.1,0.8,0.2c0,0.1-0.2,0.3-0.2,0.4c-0.3,1.5-0.5,3-1.2,3.8c-0.1,0.1-0.2,0.2-0.2,0.2c0,0,0,0,0-0.1c0-0.1,0-0.1,0.1-0.2
		c0.2-0.6,0.5-2.4,0.5-3.8c-1.2,0.1-2.4,0.1-3.2,0.2c-0.4,0.1-0.5,0.2-0.6,0.2c-0.2,0-1.3-0.5-1.3-0.6c0,0,0-0.1,0.1-0.1
		c0.1,0,0.2,0,0.3,0.1c0.5,0.1,1,0.1,1.6,0.1C61.8,2.4,63.2,2.2,63.6,2.2z"/>
	<path class="st0" d="M4.6,19.9c-0.2-0.1-0.2-0.1-0.2-0.2c0-0.1,0.1-0.1,0.4-0.1c0.1,0,1.4,0.3,1.4,0.6c0,0.1-0.1,0.2-0.1,0.3
		c-0.2,0.8-0.8,2.4-1,3c0.4-0.1,0.8-0.2,1.2-0.3c0.2,0,0.3-0.1,0.4-0.1c0.1,0,0.1,0,0.1,0c0,0.4-3.3,1.1-4.2,1.3
		c-0.3,0.1-0.4,0.3-0.6,0.3c-0.4,0-1.8-0.7-1.8-0.9c0,0,0-0.1,0.1-0.1c0.1,0,0.2,0,0.3,0c0.4,0.1,0.8,0.1,1.2,0.1
		c0.9,0,1.8-0.1,2.9-0.3c0.1-0.6,0.3-1.5,0.5-3C5.2,20.3,5,20.1,4.6,19.9z M6.2,18.4c0.5,0,0.7,0.2,0.7,0.3c0,0.2-0.3,0.4-0.8,0.4
		c-1.5,0-2.6,0.1-3.7,0.2c-0.4,0-0.5,0.2-0.7,0.2c-0.2,0-1.2-0.4-1.2-0.6c0,0,0-0.1,0.1-0.1c0.1,0,0.1,0,0.2,0
		c0.7,0.1,1.3,0.1,1.8,0.1c0.8,0,1.1,0,2-0.1c0.7-0.1,0.5-0.3,1.2-0.3H6.2z M2.8,23.4c-0.1,0-0.2-0.2-0.2-0.4
		c-0.1-0.4-0.1-1.1-0.6-2.6c0-0.1-0.1-0.2-0.1-0.3s0-0.1,0.1-0.1c0.2,0,1.3,1.6,1.3,2.4C3.2,22.9,3,23.4,2.8,23.4z M4.2,26.1
		c0-0.3-0.3-0.4-1-0.6c-0.1,0-0.2-0.1-0.2-0.1s0.1-0.1,0.4-0.2c0.6,0,1.1,0.1,1.4,0.1c0.2,0.1,0.3,0.1,0.3,0.2c0,0.1,0,0.2,0,0.4
		c0,0.6,0,1.3,0,1.8c0,0.3,0.2,0.4,0.6,0.4l2.7,0c1-0.1,0.5-0.4,1.7-0.4c0.4,0,1,0,1,0.4c0,0.1-0.1,0.3-0.4,0.3H5.6
		c-0.9,0-1.4-0.2-1.4-0.9L4.2,26.1z M9.1,18.4c0-0.3-0.5-0.6-1.1-0.9c-0.1-0.1-0.4-0.1-0.4-0.2c0-0.1,0.3-0.2,0.4-0.2
		c0.2,0,2,0.2,2,0.7c0,0.1-0.1,0.2-0.1,0.4l0,5.2c0,1.8-0.1,2.1-0.4,2.5c-0.1,0.1-0.2,0.2-0.2,0.2c-0.2,0-0.2-0.3-0.2-0.8l0-2.4
		C8.7,23,8.3,23,7.9,23c-0.2,0.1-0.3,0.2-0.4,0.2c-0.2,0-1.1-0.4-1.1-0.5c0,0,0.1-0.1,0.2-0.1c0.1,0,0.5,0,0.6,0
		c0.7,0,1.3,0,1.9-0.1l0-2.2c-0.5,0-1,0.1-1.2,0.1c-0.3,0-0.3,0.2-0.4,0.2c-0.2,0-1.1-0.4-1.1-0.5c0,0,0.1-0.1,0.2-0.1
		c0.1,0,0.2,0,0.3,0c0.3,0,0.6,0,0.8,0c0.5,0,0.9,0,1.4-0.1V18.4z"/>
	<path class="st0" d="M16.1,19.2c0.2,0,0.4-0.1,0.4-0.3c0-0.1,0-0.2-0.1-0.3c-0.1-0.1-0.2-0.2-0.2-0.2c0,0,0.1-0.1,0.2-0.1
		c0.4,0,0.9,0.2,0.9,0.4c0,0.1-0.2,0.3-0.2,0.4c1.5,0.4,2.2,1.3,2.2,2.2c0,1.2-1,2.3-2.7,2.3c-1.8,0-2.8-1.1-2.8-2.3
		C13.6,20.4,14.4,19.4,16.1,19.2z M14.5,21.4c0,0.9,0.7,1.8,2,1.8c1.3,0,2-0.9,2-1.8c0-0.9-0.6-1.8-2-1.8
		C15.1,19.7,14.5,20.6,14.5,21.4z M17.1,25.9c0-0.2-0.3-0.4-1-0.6c-0.1,0-0.2-0.1-0.2-0.2s0.1-0.1,0.4-0.2c0.6,0,1.1,0.1,1.4,0.1
		c0.2,0.1,0.3,0.1,0.3,0.2c0,0.1,0,0.2,0,0.3c0,0.6,0,1.3,0,1.8c0,0.3,0.2,0.4,0.6,0.4l2.4,0c1-0.1,0.5-0.4,1.7-0.4
		c0.4,0,1,0.1,1,0.4c0,0.2-0.1,0.3-0.4,0.3h-4.7c-0.9,0-1.4-0.2-1.4-0.9L17.1,25.9z M21.5,18.2c0-0.1-0.3-0.4-1.1-0.7
		c-0.2-0.1-0.3-0.1-0.3-0.2c0-0.1,0.2-0.1,0.5-0.1c0.1,0,1.8,0.2,1.8,0.7c0,0.1-0.1,0.2-0.1,0.3l0,4.1c0.2,0,0.4,0,0.6,0
		c0.6-0.1,0.3-0.4,1.3-0.4c0.3,0,0.7,0,0.7,0.4c0,0.2-0.1,0.3-0.4,0.3l-2.3,0.1c0,2.4-0.1,2.9-0.2,3.3c-0.1,0.2-0.3,0.4-0.4,0.4
		c-0.1,0-0.2-0.2-0.2-0.6V18.2z"/>
	<path class="st0" d="M31.5,19.4c0.8-0.1,0.4-0.4,1.5-0.4c0.5,0,0.7,0.2,0.7,0.4c0,0.2-0.2,0.3-0.5,0.3c-1.1,0-2.1,0.1-2.8,0.1
		c0.1,0.2,0.2,0.3,0.2,0.4c0,0.1-0.1,0.2-0.2,0.3c1.4,0.2,2.1,1.1,2.1,1.9c0,0.9-0.9,1.9-2.4,1.9c-1.6,0-2.5-1-2.5-1.9
		c0-0.9,0.7-1.7,2.2-1.9c0.1-0.1,0.2-0.2,0.2-0.3c0-0.1-0.1-0.2-0.2-0.4c-0.4,0-1,0-1.6,0.1c-0.3,0-0.3,0.1-0.5,0.1
		c-0.2,0-1.2-0.5-1.2-0.7c0,0,0.1-0.1,0.2-0.1c0.1,0,0.1,0,0.3,0c0.6,0.1,1.2,0.1,1.9,0.1C29.5,19.5,29.9,19.5,31.5,19.4z
		 M29.5,18.5c-0.3,0-1.1-0.6-1.1-0.7c0,0,0-0.1,0.1-0.1s0.2,0,0.3,0.1c0.6,0.1,0.9,0.1,2.4,0.1c0.4,0,0.5,0.2,0.5,0.3
		c0,0.2-0.2,0.3-0.7,0.3L29.5,18.5z M28.4,22.3c0,0.7,0.6,1.4,1.7,1.4c1.1,0,1.7-0.7,1.7-1.4c0-0.7-0.6-1.4-1.7-1.4
		C28.9,20.9,28.4,21.6,28.4,22.3z M30,28.7c0-0.4-0.1-2.1-0.2-2.8c0-0.2,0-0.3-0.8-0.5c-0.1,0-0.3-0.1-0.3-0.2
		c0-0.1,0.1-0.1,0.4-0.2c0.5,0,1.1,0.1,1.5,0.2c0.6,0,2.8-0.1,3.5-0.1c0.3,0,0.1-0.1,0.6-0.1c0.3,0,0.8,0.1,0.8,0.2
		c0,0.1-0.2,0.2-0.2,0.5c-0.3,1.1-0.4,1.8-0.5,2.3c0.4,0.1,0.6,0.2,0.6,0.3c0,0.1-0.1,0.2-0.4,0.2c-0.9,0-3.5,0.1-4.3,0.1
		c-0.1,0.5-0.3,0.8-0.4,0.8C30.1,29.2,30,29.1,30,28.7z M33.6,28c0.4-0.1,0.5-0.1,0.8-0.2c0-0.6,0.1-1.8,0.1-2.5
		c-0.7,0.1-2.7,0.1-3.7,0.1c-0.1,0.1-0.2,0.1-0.2,0.2l0.1,2.3L33.6,28z M34.5,18.1c0-0.1-0.3-0.4-1.1-0.7c-0.2-0.1-0.3-0.1-0.3-0.2
		c0-0.1,0.2-0.1,0.5-0.2c0.6,0.1,1,0.2,1.4,0.3c0.4,0.1,0.5,0.2,0.5,0.4c0,0.1-0.1,0.2-0.1,0.4l0,3.5c0.2,0,0.3,0,0.5,0
		c0.7-0.1,0.4-0.4,1.3-0.4c0.3,0,0.8,0,0.8,0.4c0,0.2-0.1,0.3-0.4,0.3l-2.2,0c0,2-0.5,2.2-0.6,2.2c-0.1,0-0.2-0.1-0.2-0.5V18.1z"/>
	<path class="st0" d="M50.2,23.2c-0.7-0.1-1.5-0.1-2.4-0.1c-1,0-2,0-2.7,0.1c-0.8,0-3.2,0.2-3.8,0.2c-0.4,0-0.4,0.2-0.6,0.2
		c-0.3,0-1.6-0.6-1.6-0.8c0,0,0.1-0.1,0.2-0.1c0.1,0,0.1,0,0.2,0c0.4,0.1,1.2,0.1,2.3,0.1c1.8,0,4.3-0.1,6.4-0.2
		c0.7,0,0.5-0.3,1.2-0.3c0.6,0,1.3,0.1,1.3,0.4C50.6,23,50.5,23.2,50.2,23.2L50.2,23.2z M42.1,27c0-0.2-0.3-0.2-0.7-0.4
		c-0.1,0-0.2-0.1-0.2-0.1c0-0.1,0.3-0.2,0.5-0.2c0.6,0,1.2,0.1,1.4,0.2c1.2,0,1.9,0,3.1-0.1c0.3,0,0.4-0.1,0.7-0.1
		c0-0.3,0.1-0.8,0.1-1.4c-0.9,0-2.5,0.1-3.8,0.1c-0.4,0.1-0.4,0.2-0.7,0.2c-0.3,0-1.3-0.4-1.3-0.6c0,0,0.1-0.1,0.2-0.1
		c0.1,0,0.1,0,0.2,0c0.5,0.1,1.1,0.1,1.8,0.1c1,0,2.2,0,3.2-0.1c0.2-0.1,0.2-0.1,0.4-0.1c0.8,0,0.8,0.1,0.8,0.2
		c0,0.1-0.1,0.2-0.2,0.4c-0.1,0.4-0.4,1-0.4,1.2c0.4,0.1,0.5,0.2,0.5,0.3c0,0.1-0.2,0.2-0.5,0.2c-1,0-2.9,0.1-4.2,0.1
		C43.1,26.9,43,26.9,43,27v1.1c0,0.2,0.1,0.3,0.3,0.3c0.3,0,0.6,0,1.1,0c0.6,0,1.4,0,2.2,0c0.8-0.1,0.5-0.3,1.3-0.3c0.4,0,1,0,1,0.4
		c0,0.2-0.2,0.3-0.5,0.3h-5.1c-0.9,0-1.2-0.3-1.2-0.7V27z M45.2,17.8c1.6,0.2,2.3,1.1,2.3,2.1c0,1-0.9,2-2.6,2c-1.7,0-2.7-1-2.7-2.1
		c0-0.9,0.7-1.7,2.1-1.9c0.2,0,0.3-0.2,0.3-0.3c0-0.1,0-0.2-0.1-0.2s-0.1-0.2-0.1-0.2c0-0.1,0.1-0.1,0.1-0.1c0.2,0,0.8,0.2,0.8,0.4
		C45.3,17.5,45.2,17.6,45.2,17.8L45.2,17.8z M43,19.8c0,0.8,0.6,1.5,1.9,1.5s1.9-0.8,1.9-1.5c0-0.8-0.7-1.5-1.9-1.5
		C43.6,18.2,43,19,43,19.8z"/>
	<path class="st0" d="M64,18.2c0-0.3-0.7-0.6-1.2-0.8c-0.2-0.1-0.3-0.1-0.3-0.2s0.1-0.1,0.4-0.1c1.7,0.3,2,0.5,2,0.7
		c0,0.1,0,0.2,0,0.2l-0.1,8.7c0,1.1-0.2,2.4-0.5,2.4c-0.2,0-0.2-0.2-0.3-0.9l0-4.7c-0.8,0.2-2.5,0.7-4,1c0,1.7,0,2.6-0.2,3.3
		c-0.1,0.4-0.3,0.5-0.4,0.5s-0.2-0.2-0.2-0.6l0-3.1c-0.4,0.1-0.9,0.2-1.4,0.2c-0.4,0.1-0.4,0.3-0.6,0.3c-0.2,0-1.9-0.6-1.9-0.9
		c0-0.1,0.1-0.1,0.2-0.1c0.1,0,0.1,0,0.2,0c0.3,0.1,0.7,0.1,1.2,0.1c2.2,0,5.8-0.6,7.2-1.1V18.2z M59,18.6c0.2,0,0.3-0.1,0.3-0.2
		c0-0.1,0-0.2-0.1-0.3c-0.1-0.1-0.1-0.1-0.1-0.2c0-0.1,0.1-0.1,0.1-0.1c0.2,0,0.8,0.2,0.8,0.4c0,0.1-0.1,0.2-0.1,0.3
		c1.3,0.2,2,1.1,2,2c0,1-0.8,2-2.4,2S57,21.6,57,20.6C57,19.7,57.7,18.8,59,18.6z M57.7,20.5c0,0.8,0.6,1.5,1.8,1.5
		c1.1,0,1.7-0.7,1.7-1.5c0-0.8-0.6-1.5-1.7-1.5C58.3,19,57.7,19.8,57.7,20.5z"/>
	<path class="st0" d="M73.5,20c0.7-0.1,0.4-0.4,1.5-0.4c0.5,0,0.7,0.2,0.7,0.4c0,0.2-0.2,0.3-0.5,0.3c-1.1,0-2.1,0.1-2.8,0.1
		c0.2,0.2,0.3,0.4,0.3,0.4c0,0.1-0.1,0.1-0.1,0.2c1.4,0.2,2.1,1,2.1,1.9c0,1-0.9,1.9-2.4,1.9c-1.6,0-2.5-1-2.5-1.9
		c0-0.8,0.7-1.7,2.1-1.9c0.1-0.1,0.1-0.2,0.1-0.3c0-0.1-0.1-0.3-0.2-0.4c-0.4,0-0.9,0-1.6,0.1c-0.3,0.1-0.3,0.2-0.5,0.2
		c-0.2,0-1.2-0.5-1.2-0.7c0,0,0.1-0.1,0.2-0.1c0.1,0,0.2,0,0.3,0c0.6,0.1,1.1,0.1,1.8,0.1C71.5,20.1,72.2,20.1,73.5,20z M71.3,18.9
		c-0.3,0-1.1-0.6-1.1-0.7c0,0,0-0.1,0.1-0.1c0.1,0,0.2,0,0.3,0c0.6,0.1,0.7,0.1,2.4,0.1c0.4,0,0.5,0.2,0.5,0.3
		c0,0.2-0.2,0.3-0.7,0.3L71.3,18.9z M70.4,22.9c0,0.7,0.6,1.4,1.7,1.4s1.7-0.7,1.7-1.4s-0.6-1.4-1.7-1.4S70.4,22.2,70.4,22.9z
		 M71.7,26.5c0-0.2-0.3-0.4-0.9-0.6c-0.2,0-0.3-0.1-0.3-0.2s0.1-0.1,0.4-0.2c0.6,0,1.1,0.1,1.4,0.1c0.2,0.1,0.3,0.1,0.3,0.2
		c0,0.1,0,0.2,0,0.3v1.5c0,0.3,0.2,0.4,0.6,0.4l2.8,0c0.9,0,0.5-0.4,1.6-0.4c0.3,0,1,0,1,0.4c0,0.2-0.2,0.3-0.5,0.3h-4.9
		c-0.9,0-1.4-0.3-1.4-0.9V26.5z M76.4,18.2c0-0.1-0.3-0.4-1.1-0.7c-0.2-0.1-0.3-0.1-0.3-0.2c0-0.1,0.2-0.1,0.5-0.1
		c0.1,0,1.8,0.2,1.8,0.7c0,0.1-0.1,0.2-0.1,0.3l0,4.1c0.2,0,0.4,0,0.6,0c0.6-0.1,0.3-0.4,1.3-0.4c0.3,0,0.7,0,0.7,0.4
		c0,0.2-0.1,0.3-0.4,0.3l-2.3,0.1c0,2.4-0.1,2.9-0.2,3.3c-0.1,0.2-0.3,0.4-0.4,0.4c-0.1,0-0.2-0.2-0.2-0.6V18.2z"/>
	<path class="st0" d="M0.2,41.9c2-1.6,3.1-4.3,3.1-4.7c0-0.1-0.4-0.5-0.8-0.7c-0.3-0.2-0.4-0.4,0.2-0.4c0.6,0.1,1.1,0.4,1.5,0.6
		c0.1,0.1,0.1,0.1,0.1,0.2c0,0.3-0.7,1.6-0.9,1.9c0.4,0.6,0.7,0.9,1.1,1.3c0.2,0.3,0.5,0,1.1,1.2c0.1,0.2,0.1,0.4,0.1,0.5
		c0,0.2-0.1,0.3-0.2,0.3c-0.2,0-0.4-0.1-0.5-0.5c-0.3-0.5-1-1.8-1.7-2.6c-1.5,2.1-3,3.1-3.2,3.1c0,0-0.1,0-0.1,0
		C0,42.1,0.1,42,0.2,41.9z M7.2,35.9c0-0.3-0.4-0.5-0.9-0.7C6,35.1,5.9,35,5.9,34.9c0-0.1,0.1-0.1,0.4-0.1C7.7,35,8,35.2,8,35.4
		c0,0.1,0,0.2,0,0.3v4.4l1.7,0v-4.8c0-0.3-0.5-0.6-1-0.9c-0.1-0.1-0.3-0.2-0.3-0.2c0-0.1,0.1-0.1,0.5-0.1c1.5,0.4,1.7,0.5,1.7,0.7
		c0,0.1,0,0.2,0,0.3l-0.1,9.8c-0.1,0.8-0.3,1.2-0.5,1.2c-0.1,0-0.2-0.2-0.2-0.7v-5.1l-1.7,0l-0.1,3.8c-0.1,0.6-0.3,1-0.5,1
		c-0.1,0-0.2-0.2-0.2-0.7V35.9z"/>
	<path class="st0" d="M24.1,44.4c-1-0.1-2.5-0.1-4.1-0.1c-2.3,0-3.4,0.1-4.5,0.2c-0.4,0-0.5,0.2-0.8,0.2c-0.3,0-0.7-0.1-1.4-0.6
		C13.1,44,13,43.9,13,43.8c0,0,0-0.1,0.2-0.1c0.1,0,0.2,0,0.3,0c0.7,0.1,1.6,0.2,2.7,0.2c0.7,0,1.6,0,2.4-0.1c0-0.2,0-0.7,0-3
		c-0.7,0-1.3,0-1.7,0c-0.5,0-1-0.2-1-0.8l0-1.4c-0.1-0.2-0.5-0.4-1-0.5c-0.1,0-0.2-0.1-0.2-0.1c0-0.1,0.1-0.2,0.7-0.2
		c0.5,0,0.9,0.1,1.4,0.2c0.7,0,2.6-0.1,3.6-0.2c0.4,0,0.5-0.1,0.9-0.2c0.1-0.3,0.1-1.2,0.2-2c-1.1,0.1-2.9,0.2-4.5,0.3
		c-0.4,0.1-0.5,0.2-0.7,0.2c-0.2,0-1.4-0.5-1.4-0.7c0,0,0-0.1,0.1-0.1c0,0,0.1,0,0.2,0c0.6,0.1,1.2,0.1,1.9,0.1
		c1.2,0,2.5-0.1,3.7-0.2c0.4,0,0.4-0.1,0.9-0.1c0.6,0,0.9,0.1,0.9,0.2S22.1,36,22,36.2c-0.1,0.5-0.4,1.2-0.5,1.7
		c0.4,0,0.5,0.2,0.5,0.3c0,0.1-0.1,0.2-0.3,0.2c-1.8,0-3.5,0.2-4.9,0.2c-0.2,0.1-0.3,0-0.3,0.2v0c0,0.2,0,0.9,0,1.7
		c0,0.2,0.1,0.3,0.4,0.3c0.9,0,2.2-0.1,3.5-0.1c0.7-0.1,0.4-0.4,1.4-0.4c0.3,0,0.8,0,0.8,0.3c0,0.2-0.2,0.3-0.4,0.3
		c-1.2,0.1-2,0.1-2.9,0.2c0,1.8,0,2.4,0,3c0.6,0,1.6,0,2.8-0.1c0.5,0,0.4-0.2,1-0.2c0.3,0,1.5,0.1,1.5,0.5
		C24.6,44.2,24.4,44.4,24.1,44.4L24.1,44.4z"/>
	<path class="st0" d="M31.5,40.3c-0.9,0-2.1,0.1-2.9,0.1c-0.5,0-0.6,0.2-0.9,0.2c-0.4,0-1.7-0.6-1.7-0.7c0,0,0.1-0.1,0.2-0.1
		c0.1,0,0.1,0,0.2,0c0.3,0.1,1,0.1,2,0.1c1.8,0,4.6-0.1,7.2-0.2c0.6,0,0.4-0.2,1.2-0.2c0.4,0,1.1,0,1.1,0.4c0,0.2-0.2,0.3-0.4,0.3h0
		c-0.8,0-2.2-0.1-3.4-0.1c-0.7,0-1.2,0-1.6,0.1c0,1.8,0,2.5-0.2,3c-0.1,0.4-0.3,0.5-0.4,0.5s-0.2-0.2-0.2-0.6L31.5,40.3z M28.9,43.2
		c0-0.2-0.3-0.4-1-0.6c-0.1,0-0.2-0.1-0.2-0.1c0-0.1,0.1-0.1,0.4-0.2c0.6,0,1.1,0.1,1.4,0.1c0.2,0.1,0.3,0.1,0.3,0.2
		c0,0.1,0,0.2,0,0.3c0,0.5,0,1.2,0,1.7c0,0.3,0.2,0.4,0.6,0.4l2.8,0c0.9-0.1,0.5-0.4,1.6-0.4c0.3,0,1,0,1,0.5c0,0.1-0.1,0.3-0.4,0.3
		h-5.1c-0.9,0-1.3-0.2-1.4-0.9L28.9,43.2z M31.3,34.8c0.1,0,0.2-0.1,0.2-0.2c0-0.1,0-0.1-0.1-0.2c-0.1-0.1-0.1-0.2-0.1-0.2
		c0-0.1,0-0.1,0.1-0.1c0.1,0,0.8,0.1,0.8,0.4c0,0.1-0.1,0.3-0.1,0.4c1.5,0.3,2.3,1.2,2.3,2.2c0,1.1-1,2.1-2.6,2.1
		c-1.7,0-2.7-1.1-2.7-2.2C29.1,36,29.8,35.1,31.3,34.8z M29.9,37c0,0.8,0.6,1.7,2,1.7c1.2,0,1.8-0.8,1.8-1.7c0-0.8-0.6-1.7-1.8-1.7
		C30.5,35.3,29.9,36.1,29.9,37z"/>
	<path class="st0" d="M44.8,36.6c-0.5,0.1-0.6,0.2-0.8,0.2c-0.3,0-1.4-0.5-1.4-0.7c0-0.1,0.1-0.1,0.2-0.1c0.1,0,0.2,0,0.3,0
		c0.7,0.1,1.5,0.1,2.3,0.1c0.5,0,1.1,0,1.7,0c0.4,0,0.3-0.1,0.7-0.1c0.1,0,0.1,0,0.2,0c0.4,0,0.6,0.1,0.6,0.2c0,0.1-0.2,0.3-0.3,0.4
		c-1.2,3-2.8,4.9-5.7,6.9c-0.2,0.1-0.4,0.2-0.5,0.2c0,0-0.1,0-0.1,0c0-0.1,0.1-0.2,0.3-0.3c2.2-1.7,4.4-4.4,5.1-6.9L44.8,36.6z
		 M51,35.3c0-0.2-0.4-0.6-1.2-0.9c-0.2-0.1-0.3-0.1-0.3-0.2c0-0.1,0.1-0.1,0.4-0.2c0.8,0.1,1.3,0.3,1.6,0.4c0.2,0.1,0.2,0.2,0.2,0.3
		c0,0.1,0,0.2,0,0.4l0,7.7c0,2.4-0.1,2.7-0.3,3.2c-0.1,0.2-0.2,0.2-0.3,0.2c-0.1,0-0.2-0.2-0.2-0.6V35.3z"/>
	<path class="st0" d="M60.3,40.3c-0.9,0-2.1,0.1-2.9,0.1c-0.5,0-0.6,0.2-0.9,0.2c-0.4,0-1.7-0.6-1.7-0.7c0,0,0.1-0.1,0.2-0.1
		c0.1,0,0.1,0,0.2,0c0.3,0.1,1,0.1,2,0.1c1.8,0,4.6-0.1,7.2-0.2c0.6,0,0.4-0.2,1.2-0.2c0.4,0,1.1,0,1.1,0.4c0,0.2-0.2,0.3-0.4,0.3h0
		c-0.8,0-2.2-0.1-3.4-0.1c-0.7,0-1.2,0-1.6,0.1c0,1.8,0,2.5-0.2,3c-0.1,0.4-0.3,0.5-0.4,0.5s-0.2-0.2-0.2-0.6L60.3,40.3z M62.3,34.9
		c0.6,0,0.4-0.1,0.9-0.1c0.4,0,0.9,0,0.9,0.2c0,0.1-0.3,0.3-0.4,0.4c-0.8,0.8-1.8,1.5-2.5,1.9c0.6,0.2,1.7,0.4,2.1,0.4
		c0.4,0,0.4-0.1,0.7-0.1c0.2,0,1.7,0.2,1.7,0.7c0,0.1-0.1,0.2-0.4,0.2c-0.2,0-3.6-0.8-4.6-1c-2.1,1-4.8,1.5-5,1.5
		c-0.1,0-0.2,0-0.2-0.1c0,0,0.1-0.1,0.4-0.2c2.1-0.5,4.9-1.5,6.7-3.5c-1,0-3.2,0.1-4,0.2c-0.4,0.1-0.4,0.2-0.6,0.2
		c-0.2,0-1.4-0.5-1.4-0.7c0,0,0.1-0.1,0.1-0.1c0.1,0,0.1,0,0.2,0c0.5,0.1,1.3,0.2,2.3,0.2C60.1,34.9,61.5,34.9,62.3,34.9z
		 M57.7,43.2c0-0.2-0.3-0.4-1-0.6c-0.1,0-0.2-0.1-0.2-0.1c0-0.1,0.1-0.1,0.4-0.2c0.6,0,1.1,0.1,1.4,0.1c0.2,0.1,0.3,0.1,0.3,0.2
		c0,0.1,0,0.2,0,0.3c0,0.5,0,1.2,0,1.7c0,0.3,0.2,0.4,0.6,0.4l2.8,0c0.9-0.1,0.5-0.4,1.6-0.4c0.3,0,1,0,1,0.5c0,0.1-0.1,0.3-0.4,0.3
		h-5.1c-0.9,0-1.3-0.2-1.4-0.9L57.7,43.2z"/>
</g>
</svg>
