<?xml version="1.0" encoding="utf-8"?>
<!-- Generator: Adobe Illustrator 22.1.0, SVG Export Plug-In . SVG Version: 6.00 Build 0)  -->
<svg version="1.1" id="Layer_1" xmlns="http://www.w3.org/2000/svg" xmlns:xlink="http://www.w3.org/1999/xlink" x="0px" y="0px"
	 viewBox="0 0 95.3 46" style="enable-background:new 0 0 95.3 46;" xml:space="preserve">
<style type="text/css">
	.st0{fill:#FFFFFF;stroke:#FFFFFF;stroke-width:0.25;stroke-miterlimit:10;}
	.st1{fill:#FFFFFF;}
</style>
<title>txt2</title>
<g id="Layer_2_1_">
	<g id="Layer_1-2">
		<path class="st0" d="M4.7,23.5c0-0.3-0.8-0.7-1-0.7c-1.1,0.6-2.2,1-3.4,1.2c-0.1,0-0.2,0-0.2-0.1s0.1-0.1,0.4-0.2
			c2.1-0.8,5.2-2.7,6.1-4.2l-3.3,0.2c-0.4,0.1-0.5,0.2-0.7,0.2s-1.5-0.5-1.5-0.8c0,0,0-0.1,0.1-0.1s0.2,0,0.4,0.1
			c0.8,0.2,1.5,0.2,2.2,0.2c1,0,1.9-0.1,2.9-0.1C7,19.1,7.2,19,7.5,19c0.4,0,0.9,0,0.9,0.2c0,0.2-0.3,0.3-0.4,0.4
			c-0.7,0.8-1.5,1.5-2.4,2.1C6,21.9,6.3,22,6.7,22.1c0.1,0,0.2,0,0.3,0c0.3,0,0.4,0,0.6,0c0.6,0,1.8,0.6,1.8,1
			c0,0.2-0.1,0.3-0.3,0.3C7.8,23,6.5,22.5,5.2,22c-0.3,0.2-0.7,0.4-1.1,0.6c1.3,0.1,1.6,0.2,1.6,0.4c0,0.2,0,0.2,0,0.3
			c0,0.8,0,1.5,0,2.1c1.1-0.1,3.6-0.6,4.5-0.8v-7.3c0-0.3-0.6-0.6-1.3-1c-0.3,0-0.5-0.1-0.5-0.2c0-0.1,0.2-0.2,0.6-0.2
			c0.6,0.1,1.2,0.2,1.8,0.5c0.2,0.1,0.3,0.2,0.3,0.3s0,0.2,0,0.4L11,27.8c0.1,1.3-0.4,2.3-0.7,2.3c-0.1,0-0.2-0.2-0.2-0.7v-4.6
			c-2.4,0.6-4.9,1.2-7.3,1.6c-0.3,0.1-0.4,0.3-0.6,0.3c-0.7-0.2-1.3-0.4-1.9-0.8C0.1,25.7,0,25.6,0,25.5c0-0.1,0.1-0.1,0.2-0.1
			c0,0,0.1,0,0.2,0c0.5,0.2,1.1,0.2,1.7,0.2c0.9,0,1.8-0.1,2.7-0.2L4.7,23.5z M4.4,17.9c-0.5-0.1-1-0.5-1.3-0.9c0-0.1,0-0.1,0.2-0.1
			c0.1,0,0.3,0,0.4,0.1c0.9,0.2,1.9,0.2,2.8,0.2c0.3,0,0.5,0.1,0.5,0.3c0,0.2-0.1,0.3-0.4,0.4c-0.6,0-1.1,0-1.6,0H4.4z"/>
		<path class="st0" d="M22.9,18.1c0-0.3-0.5-0.5-1.1-0.8c-0.2-0.1-0.3-0.2-0.3-0.2c0-0.1,0.1-0.1,0.5-0.2c1.6,0.3,1.9,0.5,1.9,0.7
			c0,0.2,0,0.2,0,0.3V23l1.9-0.1v-5.5c0-0.3-0.5-0.7-1.2-1c-0.1-0.1-0.3-0.2-0.3-0.2c0-0.1,0.1-0.1,0.5-0.1c1.7,0.4,1.9,0.6,1.9,0.9
			c0,0.3,0,0.2,0,0.4l-0.1,11.3c-0.1,0.9-0.4,1.4-0.6,1.4s-0.3-0.2-0.3-0.8v-5.9h-1.9l-0.1,4.4c-0.1,0.7-0.3,1.2-0.5,1.2
			S23,28.8,23,28.2v-3.9c-1.7,0.9-3.5,1.6-5.4,1.9c-0.5,0-0.8-0.7-0.8-1.1l-0.2-4.8c0-0.3-0.4-0.4-1-0.7c-0.2,0-0.3-0.1-0.3-0.2
			c0-0.1,0.1-0.2,0.4-0.2c0.6,0,1.2,0.1,1.7,0.2h0.4c0.3,0,0.6,0,0.9,0c0.7-0.1,0.3-0.4,1.5-0.4c0.5,0,0.8,0.2,0.8,0.4
			c0,0.2-0.2,0.3-0.4,0.3c-0.9,0-2.2,0.1-2.9,0.1c-0.1,0.1-0.2,0-0.2,0.3v4.8c0,0.3,0,0.4,0.4,0.4c1.7-0.2,3.4-0.6,4.9-1.3v-5.9
			H22.9z"/>
		<path class="st1" d="M34.5,25.5v0.8c0,0.7,0.3,1.1,0.8,1.1s0.9-0.4,0.9-1.3v-0.8c0-1.2-0.5-1.5-1.6-1.5v-1.5
			c1.1,0,1.5-0.4,1.5-1.7c0-1-0.2-1.4-0.8-1.4s-0.8,0.2-0.8,1.1v0.5h-1.7v-0.5c-0.1-1.3,0.9-2.4,2.2-2.5c0.1,0,0.2,0,0.4,0
			c1.4,0,2.5,1.2,2.4,2.5c0,0.1,0,0.2,0,0.2c0,1.3-0.2,2-1.2,2.5c1.1,0.6,1.3,1.2,1.3,2.7c0,2.1-0.8,3.2-2.7,3.2
			c-1.5,0-2.5-0.8-2.5-2.6v-0.6h1.8V25.5z"/>
		<path class="st1" d="M39.5,20.7c0-2,0.8-3,2.6-3s2.6,0.9,2.6,3v5.2c0,2-0.8,3-2.6,3s-2.6-0.9-2.6-3V20.7z M43,20.2
			c0-0.7-0.3-1-0.9-1s-0.9,0.3-0.9,1v6.1c0,0.7,0.3,1,0.9,1s0.9-0.3,0.9-1V20.2z"/>
		<path class="st1" d="M48.7,17.8c1.4,0,2.5,1.1,2.5,2.5s-1.1,2.5-2.5,2.5s-2.5-1.1-2.5-2.5l0,0C46.2,19,47.3,17.9,48.7,17.8
			L48.7,17.8z M48.7,21.6c0.7,0,1.3-0.6,1.3-1.3c0-0.7-0.6-1.3-1.3-1.3s-1.3,0.6-1.3,1.3l0,0C47.5,21,48,21.6,48.7,21.6z M55,17.7
			l-6.1,11.1h-1.2l6.2-11.1H55z M54,23.8c1.4,0,2.5,1.1,2.5,2.5s-1.1,2.5-2.5,2.5s-2.5-1.1-2.5-2.5l0,0C51.5,24.9,52.6,23.8,54,23.8
			z M54,27.5c0.7,0,1.3-0.6,1.3-1.3c0-0.7-0.6-1.3-1.3-1.3s-1.3,0.6-1.3,1.3S53.3,27.5,54,27.5L54,27.5z"/>
		<path class="st0" d="M67.4,18.8c0.8-0.2,0.5-0.3,1.5-0.3c0.8,0,0.9,0.3,0.9,0.4c0,0.1-0.2,0.3-0.6,0.3c-1.3,0-2.4,0.1-3.2,0.1
			c0.2,0.2,0.3,0.4,0.3,0.5s-0.2,0.2-0.2,0.3c1.6,0.2,2.4,1.1,2.4,2s-0.9,2-2.6,2s-2.7-1-2.7-2.1c0-0.9,0.7-1.7,2.2-1.9
			c0.1-0.1,0.2-0.2,0.2-0.3c0-0.2-0.1-0.3-0.2-0.4c-0.5,0-1.1,0.1-1.8,0.1c-0.3,0.1-0.4,0.2-0.5,0.2s-1.3-0.5-1.3-0.7
			c0-0.2,0-0.1,0.1-0.1h0.3c0.7,0.1,1.4,0.1,2.1,0.1C65,18.9,66,18.8,67.4,18.8z M65,17.8c-0.2,0-1.2-0.6-1.2-0.8
			c0-0.2,0.1-0.2,0.2-0.2h0.2c0.9,0.2,1.8,0.2,2.7,0.1c0.4,0,0.6,0.2,0.6,0.3s-0.2,0.3-0.8,0.4L65,17.8z M64.1,22
			c0,0.8,0.6,1.5,1.8,1.5s1.8-0.7,1.8-1.5c-0.1-1-1.1-1.7-2.1-1.6C64.8,20.6,64.2,21.2,64.1,22z M65.5,27.6c0-0.1-0.3-0.3-0.8-0.4
			c-0.2,0-0.3-0.1-0.3-0.1c0-0.1,0.2-0.2,0.7-0.2s1,0,1.5,0.2c1.4,0,2,0,3.4,0c0.3,0,0.5-0.1,0.8-0.1c0-0.2,0.1-0.9,0.1-1.7
			c-0.9,0-2.8,0.1-4.2,0.2c-0.4,0.1-0.5,0.2-0.7,0.2s-1.5-0.5-1.5-0.7s0.1-0.1,0.2-0.1s0.2,0,0.2,0c0.7,0.1,1.3,0.1,2,0.1
			c1.2,0,2.5-0.1,3.7-0.1c0.3,0,0.2-0.1,0.6-0.1s0.9,0,0.9,0.2S72,25.2,72,25.4c-0.2,0.5-0.4,1-0.5,1.4c0.4,0.1,0.6,0.2,0.6,0.3
			s-0.2,0.2-0.5,0.2c-1.2,0-3.2,0.1-4.8,0.1c-0.2,0.1-0.2,0-0.2,0.2v1.1c0,0.3,0.1,0.4,0.4,0.4h1.3h2.6c0.9-0.1,0.6-0.4,1.5-0.4
			c0.4,0,1.2,0,1.2,0.4c0,0.2-0.2,0.4-0.5,0.4h-6c-1.1,0-1.3-0.4-1.3-0.8L65.5,27.6z M71.1,17.2c0-0.2-0.4-0.5-1.3-0.8
			c-0.2-0.1-0.3-0.2-0.3-0.2c0-0.1,0.2-0.2,0.5-0.2c0.5,0,1,0.1,1.5,0.3c0.4,0.2,0.5,0.3,0.5,0.4c0,0.2-0.1,0.2-0.1,0.4v4.1
			c0.2,0,0.4,0,0.6,0c0.7-0.1,0.4-0.4,1.5-0.4c0.3,0,0.9,0,0.9,0.4c0,0.2-0.2,0.4-0.4,0.4H72c0,1.7-0.5,2.1-0.7,2.1
			s-0.2-0.2-0.2-0.6L71.1,17.2z"/>
		<path class="st0" d="M80,18.3c0.3,0,0.4-0.2,0.4-0.3s0-0.1-0.1-0.2c-0.1-0.1-0.2-0.1-0.2-0.2s0-0.1,0.2-0.1c0.4,0,0.9,0.3,0.9,0.5
			c0,0.2-0.2,0.2-0.2,0.4c2.7,0.4,2.7,2.2,2.7,2.8c-0.1,1.5-1.1,2.6-3.2,2.6s-3.3-1.3-3.3-2.7c0.1-1.5,1.2-2.6,2.7-2.7L80,18.3z
			 M78.1,21c-0.1,1.3,0.8,2.5,2.1,2.6c1.3,0.1,2.5-0.8,2.6-2.1c0.1-1.3-0.8-2.5-2.1-2.6c-0.1,0-0.2,0-0.2,0
			c-1.2-0.1-2.2,0.7-2.4,1.9C78.1,20.9,78.1,21,78.1,21z M81.1,26.4c0-0.3-0.4-0.4-1.1-0.7c-0.2,0-0.3-0.1-0.3-0.2s0.1-0.1,0.5-0.2
			c0.5,0,1.1,0,1.6,0.1c0.2,0.1,0.3,0.1,0.3,0.3c0,0.1,0,0.2,0,0.4c0,0.7,0,1.5,0,2c0,0.3,0.2,0.5,0.7,0.5H86
			c1.1-0.1,0.6-0.4,1.9-0.4c0.5,0,1.1,0,1.1,0.5c0,0.2-0.1,0.3-0.4,0.3h-5.9c-1,0-1.6-0.2-1.6-1V26.4z M86.7,17.5
			c0-0.2-0.6-0.6-1.3-0.9c-0.2-0.1-0.4-0.2-0.4-0.2c0-0.1,0.2-0.1,0.5-0.1c0.5,0,1,0.2,1.5,0.4c0.4,0.1,0.5,0.2,0.5,0.4
			c0,0.2-0.1,0.2-0.1,0.4v6.3c0,0.7-0.1,1.4-0.3,2.1c-0.1,0.4-0.3,0.5-0.4,0.5s-0.2-0.2-0.2-0.7L86.7,17.5z"/>
	</g>
</g>
</svg>
