<svg xmlns="http://www.w3.org/2000/svg" width="189.21" height="52.13" viewBox="0 0 189.21 52.13"><defs><style>.cls-1{fill:#fff;}.cls-2{stroke:#020000;stroke-miterlimit:10;stroke-width:0.25px;}</style></defs><title>cta</title><g id="Layer_2" data-name="Layer 2"><g id="Layer_1-2" data-name="Layer 1"><rect class="cls-1" width="189.21" height="52.13" rx="10.12" ry="10.12"/><path class="cls-2" d="M46.74,32c-.05.16-.19.26-.46.24a15,15,0,0,1-2.67,5.11,10.23,10.23,0,0,0-1.17-.89,12.18,12.18,0,0,0,2.47-5Zm3.84-17.42V30.85H43.69V14.58Zm-1.49,5V16h-4v3.5Zm0,4.92V20.93h-4v3.53Zm0,4.94V25.84h-4V29.4Zm.22,2a22.13,22.13,0,0,1,2.08,4c-.29.15-.59.28-1.34.69a24,24,0,0,0-2-4.07Zm16.1.08v1.36H63.6v2.68c0,1.77-.71,1.84-4.43,1.84A6.27,6.27,0,0,0,58.71,36c.78,0,1.54.05,2.1.05,1.15,0,1.27,0,1.27-.48V32.88H54.3V37.4H52.81V32.88H51V31.52h1.86V25.28h4.58V23.41H51.22V22.08h3.5V20.34H52.61V19h2.11V17.34h-3V16h3V13.63l2,.13c0,.15-.15.28-.47.33V16h3.92V13.63l1.95.13c0,.18-.14.28-.46.33V16h3.15v1.33H61.62V19h2.49v1.31H61.62v1.74h3.67v1.33H58.88v1.87H63.6v6.24Zm-8-4.91H54.3V28.4h3.09ZM54.3,29.68v1.84h3.09V29.68Zm1.91-12.34V19h3.92V17.34Zm0,3v1.74h3.92V20.34Zm5.87,6.27h-3.2V28.4h3.2Zm-3.2,4.91h3.2V29.68h-3.2Z"/><path class="cls-2" d="M77.86,15.19h1.67c0,4.58.56,14.51,10.44,20.65a10.35,10.35,0,0,0-1.32,1.46A22.73,22.73,0,0,1,78.57,22.41c-1.76,6.83-4.94,12-10.08,14.92A10.7,10.7,0,0,0,67.12,36c5.41-2.94,8.57-8.39,10.11-15.84l1,.26A27.91,27.91,0,0,1,77.91,17H71.67V15.22h6.19Z"/><path class="cls-2" d="M103.65,17.83c0-.56-.1-3.35-.15-4l2.52.1c0,.2-.19.46-.63.54,0,.3,0,.61,0,3.3,3-.1,6.17-.18,8-.21v1.77c-2.07-.05-5,0-8,.1,0,2,.1,3.84.18,5.25a9.22,9.22,0,0,1,.29,2.68,11.07,11.07,0,0,1-.25,2.49c-.63,3-2.74,5.63-7,7.42a13.37,13.37,0,0,0-1.25-1.46c3.74-1.41,5.75-3.53,6.36-6h0a3.06,3.06,0,0,1-2.52,1.35,4.28,4.28,0,0,1-4.11-4.48,4.61,4.61,0,0,1,4.4-4.78,3.54,3.54,0,0,1,2.28.79c0-.43,0-2.15-.1-3.25-2.55.05-10.28.34-11.28.39l0-1.69L98,18Zm.46,9c0-1,0-3.33-2.49-3.33a3,3,0,0,0-2.91,3.25,2.8,2.8,0,0,0,2.71,3A2.7,2.7,0,0,0,104.11,26.81Z"/><path class="cls-2" d="M122.15,24.84a14.25,14.25,0,0,1,6.06-1.48c3.89,0,6.34,2.38,6.34,6.14,0,4.63-3.89,7.19-8.81,7.19-3.18,0-5.36-1.33-5.36-3.58a3.75,3.75,0,0,1,4-3.43,5.26,5.26,0,0,1,5,4.63,5,5,0,0,0,3.37-4.79c0-2.76-1.95-4.53-5-4.53a13.58,13.58,0,0,0-8.88,3.36c-.73.71-1.68,1.79-2.35,2.58l-1.24-1.3c2.2-2.41,9.2-9.4,12.52-12.65-1.42.21-6.31.41-9.1.52a.8.8,0,0,1-.51.38l-.2-2.17c3.3,0,9.62-.29,11.4-.57l.37-.18,1.3,1.67a1.28,1.28,0,0,1-.59.23c-1.74,1.48-6.39,6-8.29,8Zm3.37,10.24a10.49,10.49,0,0,0,2.23-.26c-.27-2-1.67-3.63-3.48-3.63-1.27,0-2.39.71-2.39,1.89C121.88,34.64,123.91,35.08,125.52,35.08Z"/><path class="cls-2" d="M146.41,27.91l-3.64-5.24h1.71l3.67,5.24-3.64,5.25h-1.74Zm4.29,0L147,22.67h1.76l3.64,5.24-3.62,5.25h-1.76Z"/></g></g></svg>