<svg width="53" height="25" viewBox="0 0 53 25" xmlns="http://www.w3.org/2000/svg" xmlns:xlink="http://www.w3.org/1999/xlink"><defs><path id="a" d="M.034 24.43V.376h52.458V24.43z"/></defs><g fill="none" fill-rule="evenodd"><mask id="b" fill="#fff"><use xlink:href="#a"/></mask><path d="M51.333 13.832a1.162 1.162 0 0 0 0 2.323 1.162 1.162 0 0 0 0-2.323m-8.66.222c-.79.496-1.825.302-1.351-1.132.446-1.343 1.562-2.115 2.278-2.115.759 0 1.174.47 1.401.87-.493.78-1.205 1.676-2.328 2.377m-28.295 0c-.791.496-1.826.302-1.351-1.132.442-1.343 1.615-2.115 2.332-2.115.76 0 1.128.47 1.343.865-.49.785-1.2 1.68-2.324 2.382m34.036.242c-.32-.325-.714-.23-1.118.047-.28.2-.751.22-.486-.885.242-1.048 1.148-2.753 1.275-3.056.18-.431-.052-.957-.82-1.02a1.27 1.27 0 0 0-.976.313c-.357-.4-.906-.776-1.779-.776-1.42 0-3.378 1.087-4.522 2.835-.636.94-1.5 1.971-2.47 2.611-.303.198-.646.306-.862.229-.445-.162-.318-.81.635-1.893 1.526-1.747 1.963-3.056 1.076-3.833-.603-.529-1.6-.583-2.61-.11-1.069.503-1.674 1.052-2.234 1.622 1.404-2.9 3.152-6.29 4.312-8.2.545-.884.545-1.646-.22-1.781-.67-.117-1.345.207-1.89 1.346-1.247 2.616-2.277 4.94-3.5 7.55v-.006c-.79 1.588-2.247 3.813-4.159 5.076-.301.198-.644.306-.858.229-.448-.162-.32-.81.632-1.893 1.524-1.747 1.962-3.056 1.076-3.833-.604-.529-1.6-.583-2.61-.11-1.326.624-1.941 1.315-2.633 2.03.583-.89.517-1.708-.038-1.884-.73-.234-1.115.052-1.81 2.025-.354.964-1.315 2.797-2.685 3.414-.312.145-.888.22-.627-.885.248-1.048 1.148-2.753 1.28-3.056.174-.431-.056-.957-.821-1.02a1.278 1.278 0 0 0-.979.313c-.358-.4-.904-.776-1.78-.776-1.851 0-4.624 1.85-5.307 4.607-.327.465-.942.965-1.734.987-1.414.043-2.189-1.211-2.52-2.668 3.182-.625 6.172-2.4 6.753-5.192.557-2.643-1.263-4.93-4.518-4.864C4.4 1.88 1.377 5.115.65 6.489c-.505.957-.044 1.728.602 1.7.46-.022 1.324-.327 1.596-1.266C3.282 5.426 4.98 3.71 7.87 3.466c2.183-.184 3.422 1.202 3.221 2.997-.249 2.186-2.396 3.443-4.613 4.005v-.137c-.004-.677-.063-1.133-.52-1.28a.536.536 0 0 0-.335-.533c-.377-.172-.883-.151-1.306.493-1.544 2.378-2.297 3.48-3.79 5.448-.69.904-.708 1.844-.022 2.04.713.204 1.373-.088 1.941-1 .756-1.211 1.391-2.391 1.944-3.406.153-.003.307-.009.46-.018.096 1.987 1.1 4.719 3.828 4.278 1.002-.165 1.689-.694 2.228-1.194.391 1.11 1.708 1.37 3.028.751 1.326-.626 1.938-1.316 2.627-2.026-.8 2.033.737 3.538 3.14 1.595.1-.085.198-.167.295-.243-1.204 2.513-2.66 5.312-3.56 7.229-.617 1.31-.331 1.899.437 1.96.765.059 1.214-.337 1.672-1.443.628-1.484 1.835-4.717 3.74-8.426 1.821-3.544 4.155-4.411 4.616-4.11.489.322-.198 1.105-1.236 2.422-1.135 1.439-1.083 2.628-.534 3.124.691.621 1.934.735 3.476-.513.467-.381.811-.704 1.088-.996-.484.963-.675 1.678-.02 1.942.44.173 1.022.049 1.319-.607.422-.96 1.403-2.634 2.48-3.799 1.365-1.482 2.599-1.754 2.88-1.573.487.322-.202 1.105-1.243 2.422-1.132 1.439-1.078 2.628-.533 3.124.696.621 1.934.735 3.477-.513.435-.352.764-.66 1.031-.936.082 1.618 1.606 2.085 3.141 1.367 1.325-.626 1.939-1.316 2.634-2.026-.71 2.14 1.262 3.416 3.212 1.646.493-.448.566-1.001.341-1.234" fill="#FFFFFE" mask="url(#b)"/></g></svg>