<svg xmlns="http://www.w3.org/2000/svg" width="115.71" height="29.13" viewBox="0 0 115.71 29.13"><defs><style>.cls-1{fill:#fff;}</style></defs><title>txt1</title><g id="Layer_2" data-name="Layer 2"><g id="Layer_1-2" data-name="Layer 1"><path class="cls-1" d="M1.44,2.67a7.56,7.56,0,0,1-.7,3.41L.05,5.73A7.49,7.49,0,0,0,.73,2.56ZM2,0,3.12.09c0,.09-.09.16-.26.17V12.08H2ZM3.67,2.07a11.39,11.39,0,0,1,1.08,2l-.64.43A13.54,13.54,0,0,0,3.06,2.41Zm5,8.71h3.5v.84H4.06v-.84H7.79V7.62H5V6.81H7.79V3.94h-2A10,10,0,0,1,4.86,6a4,4,0,0,0-.7-.4,15.63,15.63,0,0,0,1.52-5L6.76.87c0,.09-.12.14-.27.14C6.36,1.7,6.2,2.42,6,3.11H7.79V0L8.92.09c0,.09-.08.16-.26.18V3.11h3.11v.83H8.66V6.81h2.7v.81H8.66Z"/><path class="cls-1" d="M16.42.31c0,.09-.13.13-.29.15a27,27,0,0,1-1.21,2.6l3-.11a14.49,14.49,0,0,0-1-1.44l.71-.3a12.81,12.81,0,0,1,1.8,2.91l-.76.35a6.45,6.45,0,0,0-.36-.79c-1.82.13-3.69.22-4.89.27a.21.21,0,0,1-.19.18l-.29-1,1.07,0A20.82,20.82,0,0,0,15.35,0ZM18.52,5v6.1c0,1-.52,1-2.17,1a3.6,3.6,0,0,0-.31-.82l1,0c.56,0,.63,0,.63-.23V9.65h-3v2.49h-.82V5Zm-.85.76h-3V7h3Zm-3,3.19h3V7.66h-3Zm8.91-4c.53,0,.62-.22.67-1.56a2.27,2.27,0,0,0,.81.35c-.12,1.59-.38,2-1.4,2H21.33c-1.21,0-1.53-.28-1.53-1.29V0L20.92.1c0,.1-.08.16-.25.19v2A23.9,23.9,0,0,0,23.84,1l.67.72a.25.25,0,0,1-.13,0h-.12A31.88,31.88,0,0,1,20.67,3V4.49c0,.41.1.49.73.49Zm-2.95,5.69c0,.45.13.52.78.52h2.29c.58,0,.67-.26.72-1.76a2.94,2.94,0,0,0,.8.33c-.11,1.76-.37,2.21-1.46,2.21H21.36c-1.22,0-1.56-.26-1.56-1.28V6.18l1.12.06c0,.09-.08.16-.26.18v1.9A15.6,15.6,0,0,0,24,6.92l.65.72a.18.18,0,0,1-.14,0h-.1a19.66,19.66,0,0,1-3.77,1.39Z"/><path class="cls-1" d="M26.49,8.52a24.33,24.33,0,0,1,2.94,2.87l-.78.71a29.1,29.1,0,0,0-2.84-3Z"/><path class="cls-1" d="M34.09,4.73a15.29,15.29,0,0,1-1.37,2.08A6.65,6.65,0,0,0,32.29,6,17.66,17.66,0,0,0,35.15.1l1,.33c0,.09-.13.14-.3.14a27,27,0,0,1-1,2.58l.3.09c0,.09-.09.14-.25.17v8.71h-.84ZM44.66,2H41.94V4.54H44.4v7.34h-.85v-.71h-6.5V12h-.82V4.54h2.38V2H36V1.13h8.66ZM37.05,5.33v5h1.63v-5Zm4-.79V2H39.44V4.54Zm0,.79H39.44v5h1.65Zm2.46,5v-5H41.87v5Z"/><path class="cls-1" d="M55.81,1.44a1.14,1.14,0,0,0,.39,0l.57.29a.19.19,0,0,1-.13.12,9.75,9.75,0,0,1-2.13,3.44,9.09,9.09,0,0,0,3.33,1.89,4.11,4.11,0,0,0-.56.74l-.6-.25v4.43h-.86v-.55H52v.61h-.81V7.71c-.36.17-.71.32-1.07.45a3.58,3.58,0,0,0-.49-.71l.09,0C49.46,7,49,6.25,48.58,5.67v6.41h-.84V5.6a14.8,14.8,0,0,1-1.85,4,4.72,4.72,0,0,0-.48-.77,14.58,14.58,0,0,0,2.22-5.12H45.72V2.87h2V0l1.09.08c0,.09-.08.14-.25.17V2.87h1.76v.82H48.58v.94C49,5.07,50,6.45,50.28,6.8c-.23.31-.36.47-.44.56a10.78,10.78,0,0,0,3.5-2.11,10.23,10.23,0,0,1-1.48-2.08,9.52,9.52,0,0,1-1.39,1.54,6.8,6.8,0,0,0-.63-.56A10.12,10.12,0,0,0,52.64,0l1,.34a.26.26,0,0,1-.28.12,9.66,9.66,0,0,1-.46,1ZM56,7.28a10.21,10.21,0,0,1-2-1.46,11,11,0,0,1-2,1.46Zm-4,3.45h3.85V8.05H52Zm.52-8.51-.14.22a8.87,8.87,0,0,0,1.57,2.24,8.81,8.81,0,0,0,1.66-2.46Z"/><path class="cls-1" d="M59,8.52a24.33,24.33,0,0,1,2.94,2.87l-.78.71a29.1,29.1,0,0,0-2.84-3Z"/><path class="cls-1" d="M66.44,2.67a7.56,7.56,0,0,1-.7,3.41l-.69-.35a7.49,7.49,0,0,0,.68-3.17ZM67,0l1.12.08c0,.09-.09.16-.26.17V12.08H67Zm1.68,2.06a11.87,11.87,0,0,1,1.09,2.05l-.64.43a12.53,12.53,0,0,0-1.07-2.14ZM77.18,7H73.44a6.82,6.82,0,0,0,3.88,4.38,3.29,3.29,0,0,0-.62.8,7.64,7.64,0,0,1-4-4.7,7.57,7.57,0,0,1-3.52,4.69,3.76,3.76,0,0,0-.62-.65A6.72,6.72,0,0,0,72,7h-3V6.11h3.09A17.43,17.43,0,0,0,72.25,4V3H69.88V2.17h2.37V0l1.12.08c0,.09-.09.16-.26.18v1.9H76V6.11h1.17ZM73.11,3V4A17.34,17.34,0,0,1,73,6.11h2.13V3Z"/><path class="cls-1" d="M80.7,5.23V9.5c1,1.55,2.92,1.55,5.36,1.55,1.43,0,3.09,0,4.11-.09a2.55,2.55,0,0,0-.27.86c-.9,0-2.33,0-3.62,0-2.86,0-4.65,0-5.94-1.61-.6.58-1.21,1.15-1.72,1.6a.16.16,0,0,1-.1.2L78,11.14a23.41,23.41,0,0,0,1.85-1.55V6.06H78.14V5.23ZM79,.35a9.76,9.76,0,0,1,2.15,2.17l-.72.55A9.41,9.41,0,0,0,78.29.83Zm8,3.28a1.09,1.09,0,0,0-.25-.09,14.44,14.44,0,0,0,.72-1.6h-6V1.22h3.8V0l1.1.07c0,.09-.09.15-.26.18v1H90v.72H87.78l.62.21c0,.07-.12.11-.26.1a11.7,11.7,0,0,1-.74,1.38h2V9.26c0,.83-.39.87-1.78.87a2.51,2.51,0,0,0-.26-.69h.67c.5,0,.55,0,.55-.18V4.34H82.81v5.81H82V3.63h1.85a5.94,5.94,0,0,0-.66-1.51l.71-.18a5.65,5.65,0,0,1,.72,1.56l-.42.13Zm-1.59,3.2V5.92h-2v-.6h2V4.43l.93.07c0,.08-.08.14-.24.15v.67h2.15v.6H86v.91h1.46V9.18H84.6v.53H84V6.83Zm1.5,1.78V7.4H84.6V8.61Z"/><path class="cls-1" d="M92.44,2.67a7.56,7.56,0,0,1-.7,3.41l-.69-.35a7.49,7.49,0,0,0,.68-3.17ZM93,0l1.12.08c0,.09-.09.16-.26.17V12.08H93Zm1.67,2.06a11.39,11.39,0,0,1,1.08,2l-.64.43a13.54,13.54,0,0,0-1-2.08Zm5,8.71h3.5v.84h-8.1v-.84h3.73V7.62H96V6.81h2.77V3.94h-2A10,10,0,0,1,95.86,6a4,4,0,0,0-.7-.4,15.63,15.63,0,0,0,1.52-5l1.08.25c0,.09-.12.14-.27.14-.13.69-.29,1.41-.48,2.1h1.78V0l1.13.08c0,.09-.08.16-.26.18V3.11h3.11v.83H99.66V6.81h2.7v.81h-2.7Z"/><path class="cls-1" d="M110.86,2.39a.32.32,0,0,1-.32.21c-.47,4-1.82,7.57-4,7.57-1.09,0-2.08-1.1-2.08-3.15a5.7,5.7,0,0,1,5.85-5.73c3.76,0,5.38,2.38,5.38,4.91,0,3.1-1.79,4.59-4.94,5.32a4.28,4.28,0,0,0-.54-.79c3-.58,4.52-2,4.52-4.49,0-2.14-1.38-4.09-4.42-4.09l-.39,0Zm-1.24-.17A4.8,4.8,0,0,0,105.36,7c0,1.4.6,2.27,1.23,2.27C108.16,9.26,109.29,5.79,109.62,2.22Z"/><path class="cls-1" d="M3.6,24.79c.48.34,1.85,1.44,2.17,1.73l-.52.66c-.3-.34-1.06-1.05-1.65-1.57V29.1H2.74V25.52A10.2,10.2,0,0,1,.58,28.08,3.26,3.26,0,0,0,0,27.44a8.82,8.82,0,0,0,2.57-3H.25v-.77H2.74V22.27H.08V21.5h1.6a8.17,8.17,0,0,0-.56-2l.7-.2a7.54,7.54,0,0,1,.61,2.06L2,21.5H4.13l-.36-.13a14.58,14.58,0,0,0,.73-2.11l1,.31c0,.08-.12.12-.26.13-.19.51-.5,1.27-.76,1.8h1.9v.77H3.73l-.13,0v1.35H6.18v.77H3.6Zm2.5-6.31v.76H.34v-.76h2.4V17l1.11.06c0,.09-.08.16-.25.18v1.21Zm6.06,3v.82H10.62V29.1H9.76V22.32h-2v.48c0,1.95-.25,4.52-2.12,6.33A1.87,1.87,0,0,0,5,28.52c1.7-1.64,1.9-3.89,1.9-5.73V18.26l.63.21a17.42,17.42,0,0,0,3.63-1.41l.87.67a.33.33,0,0,1-.27,0,22.37,22.37,0,0,1-4,1.38V21.5Z"/><path class="cls-1" d="M16,17.58c0,.16-.14.25-.4.29-.11,1.51-.24,4.95-.24,6.88s1,2.87,2.6,2.87a6.31,6.31,0,0,0,4.68-2.47,4.73,4.73,0,0,0,.59.77A7.05,7.05,0,0,1,18,28.56c-2.37,0-3.58-1.37-3.58-3.82,0-1.64.12-5.67.21-7.27Z"/><path class="cls-1" d="M26.34,18.78c0,.12-.17.2-.35.21a20.78,20.78,0,0,0-.25,3.24c0,.48,0,.95.05,1.36.16,2.21,1.06,3.55,2.06,3.54.52,0,1.19-1.33,1.66-2.78a4.52,4.52,0,0,0,.75.55c-.59,1.76-1.35,3.19-2.43,3.22-1.65,0-2.79-2-3-4.48,0-.49-.06-1-.06-1.62a31,31,0,0,1,.2-3.5Zm8.62,6a6.48,6.48,0,0,0-3.28-4.89l.57-.7a7.13,7.13,0,0,1,3.67,5.29Z"/><path class="cls-1" d="M46.15,18.73a.27.27,0,0,1-.17.14,19.87,19.87,0,0,1-2.6,4.47,48.55,48.55,0,0,1,4.76,4.41l-.79.69a42.73,42.73,0,0,0-4.57-4.37,20.51,20.51,0,0,1-5,4.37,4.94,4.94,0,0,0-.68-.7,18.68,18.68,0,0,0,7.62-8.49H38.34v-.88h6.89l.17-.07Z"/><path class="cls-1" d="M58.9,19.59a.21.21,0,0,1-.15.14A17,17,0,0,1,56.84,24c.56.33,1.19.73,1.67,1.08L58,26c-.47-.36-1.13-.79-1.68-1.13a12.33,12.33,0,0,1-4.69,3.95,2.71,2.71,0,0,0-.72-.67,12.33,12.33,0,0,0,4.6-3.75A21.82,21.82,0,0,0,52.61,23l.5-.73A23,23,0,0,1,56,23.6a13,13,0,0,0,1.57-3.44H53.2a13.93,13.93,0,0,1-3,3.57,7.61,7.61,0,0,0-.74-.58,13.46,13.46,0,0,0,4.1-5.86l1.23.28c-.05.15-.18.18-.35.17-.18.43-.48,1.07-.73,1.55H58l.18-.05Z"/><path class="cls-1" d="M61.82,18.44a16.29,16.29,0,0,1,3.87,1.77L65.2,21a17,17,0,0,0-3.8-1.81Zm-.06,9c4.62-1.43,7.69-4,9.25-7.62a5,5,0,0,0,.84.54,14.9,14.9,0,0,1-9.2,7.8.49.49,0,0,1-.18.3Z"/><path class="cls-1" d="M82.37,19.65c0,.08-.08.11-.16.15a17.42,17.42,0,0,1-1.88,4.29c.56.32,1.25.72,1.73,1.06l-.55.85a16.58,16.58,0,0,0-1.73-1.12,11.76,11.76,0,0,1-4.67,3.9,2.71,2.71,0,0,0-.7-.69A11.77,11.77,0,0,0,79,24.41a22.37,22.37,0,0,0-2.92-1.36l.51-.72a25.21,25.21,0,0,1,3,1.33,13.78,13.78,0,0,0,1.56-3.45H76.79a13.6,13.6,0,0,1-2.92,3.55,6.2,6.2,0,0,0-.73-.58,13.17,13.17,0,0,0,4-5.8l1.21.35a.33.33,0,0,1-.36.17,15.34,15.34,0,0,1-.66,1.44H81.5l.11,0Zm-1.2-2.59a10.2,10.2,0,0,1,1.73,1.83l-.49.4a10.37,10.37,0,0,0-1.71-1.82Zm1.67-.48a10.27,10.27,0,0,1,1.76,1.8l-.5.39A9.6,9.6,0,0,0,82.38,17Z"/><path class="cls-1" d="M85.37,22.37H96.23v.92H85.87a.63.63,0,0,1-.42.25Z"/><path class="cls-1" d="M105.85,24.32a46.26,46.26,0,0,0-4.57-2.12v6.49h-1V17.39l1.31.08c0,.14-.12.23-.34.27v3.82l.2-.28a44.37,44.37,0,0,1,4.89,2.17Zm-1.37-6.12a11.16,11.16,0,0,1,1.8,1.91l-.5.4a10.86,10.86,0,0,0-1.77-1.9Zm1.74-1.12A10.6,10.6,0,0,1,108,19l-.47.4a12.67,12.67,0,0,0-1.78-1.9Z"/><path class="cls-1" d="M112.26,27.28a1.82,1.82,0,1,1-1.82-1.82A1.83,1.83,0,0,1,112.26,27.28Zm-.47,0a1.35,1.35,0,1,0-1.35,1.34A1.34,1.34,0,0,0,111.79,27.28Z"/></g></g></svg>