<?xml version="1.0" encoding="utf-8"?>
<!-- Generator: Adobe Illustrator 21.1.0, SVG Export Plug-In . SVG Version: 6.00 Build 0)  -->
<svg version="1.1" id="Layer_1" xmlns="http://www.w3.org/2000/svg" xmlns:xlink="http://www.w3.org/1999/xlink" x="0px" y="0px"
	 viewBox="0 0 104.5 38.4" style="enable-background:new 0 0 104.5 38.4;" xml:space="preserve">
<style type="text/css">
	.st0{fill:#FFFFFF;}
</style>
<title>txt1</title>
<g>
	<path class="st0" d="M0.3,0.8h2.5c1.7,0,2.6,0.9,2.6,2.9v3.9c0,2-0.9,2.9-2.6,2.9H0.3V0.8z M1.9,9.2h0.6c0.9,0,1.2-0.3,1.2-1.4V3.6
		c0-1-0.3-1.4-1.2-1.4H1.9V9.2z"/>
	<path class="st0" d="M7,10.6V0.8h4.5v1.5H8.7v2.5h2.2v1.5H8.7v2.9h3v1.5H7z"/>
	<path class="st0" d="M14.7,10.6H13V0.8h2.4c1.9,0,2.8,0.8,2.8,2.9c0,1.6-0.6,2.2-1.2,2.5l1.4,4.4h-1.7l-1.2-4c-0.2,0-0.6,0-0.9,0
		V10.6z M14.7,5.2h0.6c0.9,0,1.2-0.3,1.2-1.5s-0.3-1.5-1.2-1.5h-0.6V5.2z"/>
	<path class="st0" d="M22.8,10.6V0.8h1.6l2,5.6h0V0.8h1.5v9.8h-1.5l-2.1-6.1h0v6.1H22.8z"/>
	<path class="st0" d="M29.5,10.6V0.8H34v1.5h-2.8v2.5h2.2v1.5h-2.2v2.9h3v1.5H29.5z"/>
	<path class="st0" d="M35.5,0.8h1.7v7.4c0,0.7,0.3,1.1,0.9,1.1S39,8.9,39,8.2V0.8h1.7v7.3c0,1.7-1,2.6-2.6,2.6s-2.6-0.9-2.6-2.6V0.8
		z"/>
	<path class="st0" d="M42.3,10.6V0.8h4.5v1.5h-2.8v2.5h2.2v1.5h-2.2v2.9h3v1.5H42.3z"/>
	<path class="st0" d="M54.3,3.2c-0.1-0.8-0.5-1.1-0.9-1.1c-0.5,0-0.8,0.4-0.8,1c0,1.7,3.4,2.5,3.4,5.1c0,1.6-1.1,2.5-2.6,2.5
		c-1.6,0-2.4-1.2-2.5-2.7l1.6-0.2c0.1,1,0.5,1.5,1,1.5c0.6,0,1-0.3,1-0.9c0-1.9-3.4-2.4-3.4-5.2c0-1.6,0.9-2.4,2.6-2.4
		c1.4,0,2.2,1,2.3,2.4L54.3,3.2z"/>
	<path class="st0" d="M58.2,2.3h-1.6V0.8h4.9v1.5h-1.6v8.3h-1.7V2.3z"/>
	<path class="st0" d="M63.2,10.6h-1.6l1.8-9.8h2.1l1.8,9.8h-1.6l-0.3-2.2h-1.8L63.2,10.6z M63.8,6.9h1.4l-0.7-4.2h0L63.8,6.9z"/>
	<path class="st0" d="M68.3,10.6V0.8h1.6l2,5.6h0V0.8h1.5v9.8h-1.5l-2.1-6.1h0v6.1H68.3z"/>
	<path class="st0" d="M75,0.8h2.5c1.7,0,2.6,0.9,2.6,2.9v3.9c0,2-0.9,2.9-2.6,2.9H75V0.8z M76.7,9.2h0.6c0.9,0,1.2-0.3,1.2-1.4V3.6
		c0-1-0.3-1.4-1.2-1.4h-0.6V9.2z"/>
	<path class="st0" d="M82.8,10.6h-1.6l1.8-9.8H85l1.8,9.8h-1.6l-0.3-2.2h-1.8L82.8,10.6z M83.3,6.9h1.4L84,2.8h0L83.3,6.9z"/>
	<path class="st0" d="M89.5,10.6h-1.7V0.8h2.4C92,0.8,93,1.6,93,3.7c0,1.6-0.6,2.2-1.2,2.5l1.4,4.4h-1.7l-1.2-4c-0.2,0-0.6,0-0.9,0
		V10.6z M89.5,5.2H90c0.9,0,1.2-0.3,1.2-1.5S91,2.2,90,2.2h-0.6V5.2z"/>
	<path class="st0" d="M94.5,0.8H97c1.7,0,2.6,0.9,2.6,2.9v3.9c0,2-0.9,2.9-2.6,2.9h-2.5V0.8z M96.2,9.2h0.6c0.9,0,1.2-0.3,1.2-1.4
		V3.6c0-1-0.3-1.4-1.2-1.4h-0.6V9.2z"/>
	<path class="st0" d="M0.5,24.1v-9.8h1.7v9.8H0.5z"/>
	<path class="st0" d="M4,24.1v-9.8h1.6l2,5.6h0v-5.6h1.5v9.8H7.7L5.6,18h0v6.1H4z"/>
	<path class="st0" d="M16.8,16.7c-0.1-0.8-0.5-1.1-0.9-1.1c-0.5,0-0.8,0.4-0.8,1c0,1.7,3.4,2.5,3.4,5.1c0,1.6-1.1,2.5-2.6,2.5
		c-1.6,0-2.4-1.2-2.5-2.7l1.6-0.2c0.1,1,0.5,1.5,1,1.5c0.6,0,1-0.3,1-0.9c0-1.9-3.4-2.4-3.4-5.2c0-1.6,0.9-2.4,2.6-2.4
		c1.4,0,2.2,1,2.3,2.4L16.8,16.7z"/>
	<path class="st0" d="M20.7,24.1h-1.6l1.8-9.8H23l1.8,9.8h-1.6l-0.3-2.2H21L20.7,24.1z M21.3,20.5h1.4L22,16.3h0L21.3,20.5z"/>
	<path class="st0" d="M29.1,17.6v-0.8c0-0.8-0.4-1.2-0.8-1.2c-0.7,0-0.9,0.4-0.9,1.1v4.9c0,0.7,0.2,1.1,0.9,1.1c0.6,0,0.8-0.4,0.8-1
		v-1.2h1.7v1.1c0,1.4-0.8,2.5-2.5,2.5c-1.8,0-2.6-1.1-2.6-2.5v-5c0-1.4,0.8-2.5,2.6-2.5c1.7,0,2.5,1.2,2.5,2.7v0.7H29.1z"/>
	<path class="st0" d="M32.5,24.1v-9.8h1.7v4H36v-4h1.7v9.8H36v-4.3h-1.8v4.3H32.5z"/>
	<path class="st0" d="M39.3,24.1v-9.8h4.5v1.5h-2.8v2.5h2.2v1.5h-2.2v2.9h3v1.5H39.3z"/>
	<path class="st0" d="M45.3,24.1v-9.8h1.6l2,5.6h0v-5.6h1.5v9.8h-1.5L46.8,18h0v6.1H45.3z"/>
	<path class="st0" d="M55,24.1v-9.8h4.7v1.5h-3v2.5h2.2v1.5h-2.2v4.3H55z"/>
	<path class="st0" d="M61,14.3h1.7v7.4c0,0.7,0.3,1.1,0.9,1.1c0.6,0,0.9-0.4,0.9-1.1v-7.4h1.7v7.3c0,1.7-1,2.6-2.6,2.6
		c-1.6,0-2.6-0.9-2.6-2.6V14.3z"/>
	<path class="st0" d="M67.8,24.1v-9.8h1.6l2,5.6h0v-5.6h1.5v9.8h-1.5L69.3,18h0v6.1H67.8z"/>
	<path class="st0" d="M74.4,24.1v-9.8h1.7v3.6h0l1.8-3.6h1.7L77.8,18l2,6.1h-1.7l-1.4-4.5h0l-0.6,1.1v3.5H74.4z"/>
	<path class="st0" d="M81.5,15.8h-1.6v-1.5h4.9v1.5h-1.6v8.3h-1.7V15.8z"/>
	<path class="st0" d="M86,24.1v-9.8h1.7v9.8H86z"/>
	<path class="st0" d="M89.5,16.7c0-1.4,0.8-2.5,2.6-2.5c1.8,0,2.6,1.1,2.6,2.5v5c0,1.4-0.8,2.5-2.6,2.5c-1.8,0-2.6-1.1-2.6-2.5V16.7
		z M91.2,21.7c0,0.7,0.2,1.1,0.9,1.1c0.7,0,0.9-0.4,0.9-1.1v-4.9c0-0.7-0.2-1.1-0.9-1.1c-0.7,0-0.9,0.4-0.9,1.1V21.7z"/>
	<path class="st0" d="M96.3,24.1v-9.8h1.6l2,5.6h0v-5.6h1.5v9.8H100L97.8,18h0v6.1H96.3z"/>
	<path class="st0" d="M104.5,24.1l-0.9,1.7h-0.7l0.7-1.7h-0.6v-1.6h1.6V24.1z"/>
	<path class="st0" d="M0.2,37.6v-9.8h1.7v3.6h0l1.8-3.6h1.7l-1.8,3.6l2,6.1H3.8L2.5,33h0l-0.6,1.1v3.5H0.2z"/>
	<path class="st0" d="M6.3,30.2c0-1.4,0.8-2.5,2.6-2.5s2.6,1.1,2.6,2.5v5c0,1.4-0.8,2.5-2.6,2.5s-2.6-1.1-2.6-2.5V30.2z M7.9,35.2
		c0,0.7,0.2,1.1,0.9,1.1s0.9-0.4,0.9-1.1v-4.9c0-0.7-0.2-1.1-0.9-1.1s-0.9,0.4-0.9,1.1V35.2z"/>
	<path class="st0" d="M19.7,27.8v9.8h-1.5V30h0l-1.5,7.6h-0.8L14.4,30h0v7.6h-1.5v-9.8h2.2l1.2,5.7h0l1.2-5.7H19.7z"/>
	<path class="st0" d="M21.3,37.6v-9.8h4.7v1.5h-3v2.5h2.2v1.5h-2.2v4.3H21.3z"/>
	<path class="st0" d="M27.3,30.2c0-1.4,0.8-2.5,2.6-2.5c1.8,0,2.6,1.1,2.6,2.5v5c0,1.4-0.8,2.5-2.6,2.5c-1.8,0-2.6-1.1-2.6-2.5V30.2
		z M28.9,35.2c0,0.7,0.2,1.1,0.9,1.1c0.7,0,0.9-0.4,0.9-1.1v-4.9c0-0.7-0.2-1.1-0.9-1.1c-0.7,0-0.9,0.4-0.9,1.1V35.2z"/>
	<path class="st0" d="M35.7,37.6H34v-9.8h2.4c1.9,0,2.8,0.8,2.8,2.9c0,1.6-0.6,2.2-1.2,2.5l1.4,4.4h-1.7l-1.2-4c-0.2,0-0.6,0-0.9,0
		V37.6z M35.7,32.2h0.6c0.9,0,1.2-0.3,1.2-1.5s-0.3-1.5-1.2-1.5h-0.6V32.2z"/>
	<path class="st0" d="M41.7,29.3h-1.6v-1.5H45v1.5h-1.6v8.3h-1.7V29.3z"/>
	<path class="st0" d="M49,27.8h1.7v7.4c0,0.7,0.3,1.1,0.9,1.1c0.6,0,0.9-0.4,0.9-1.1v-7.4h1.7v7.3c0,1.7-1,2.6-2.6,2.6
		S49,36.8,49,35.1V27.8z"/>
	<path class="st0" d="M55.8,37.6v-9.8h1.6l2,5.6h0v-5.6h1.5v9.8h-1.5l-2.1-6.1h0v6.1H55.8z"/>
	<path class="st0" d="M62.5,27.8H65c1.7,0,2.6,0.9,2.6,2.9v3.9c0,2-0.9,2.9-2.6,2.9h-2.5V27.8z M64.2,36.2h0.6
		c0.9,0,1.2-0.3,1.2-1.4v-4.3c0-1-0.3-1.4-1.2-1.4h-0.6V36.2z"/>
	<path class="st0" d="M72.3,37.6v-9.8h2.4c2.1,0,3,0.8,3,2.9s-1,2.9-3,2.9H74v4H72.3z M74,32.2h0.6c1.1,0,1.4-0.3,1.4-1.5
		s-0.3-1.5-1.4-1.5H74V32.2z"/>
	<path class="st0" d="M80.7,37.6H79v-9.8h2.4c1.9,0,2.8,0.8,2.8,2.9c0,1.6-0.6,2.2-1.2,2.5l1.4,4.4h-1.7l-1.2-4c-0.2,0-0.6,0-0.9,0
		V37.6z M80.7,32.2h0.6c0.9,0,1.2-0.3,1.2-1.5s-0.3-1.5-1.2-1.5h-0.6V32.2z"/>
	<path class="st0" d="M85.8,37.6v-9.8h4.5v1.5h-2.8v2.5h2.2v1.5h-2.2v2.9h3v1.5H85.8z"/>
	<path class="st0" d="M92,37.6v-9.8h1.7v9.8H92z"/>
	<path class="st0" d="M98.6,30.2c-0.1-0.8-0.5-1.1-0.9-1.1c-0.5,0-0.8,0.4-0.8,1c0,1.7,3.4,2.5,3.4,5.1c0,1.6-1.1,2.5-2.6,2.5
		c-1.6,0-2.4-1.2-2.5-2.7l1.6-0.2c0.1,1,0.5,1.5,1,1.5c0.6,0,1-0.3,1-0.9c0-1.9-3.4-2.4-3.4-5.2c0-1.6,0.9-2.4,2.6-2.4
		c1.4,0,2.2,1,2.3,2.4L98.6,30.2z"/>
</g>
</svg>
