<svg id="english" xmlns="http://www.w3.org/2000/svg" xmlns:xlink="http://www.w3.org/1999/xlink" viewBox="0 0 970 250"><defs><style>.cls-1{fill:none;}.cls-2{clip-path:url(#clip-path);}.cls-3{fill:#fff;}</style><clipPath id="clip-path"><polygon class="cls-1" points="302.71 168.06 464.62 168.06 464.62 85.94 298.98 85.94 302.71 168.06"/></clipPath></defs><title>970x250img1</title><g class="cls-2"><path class="cls-3" d="M424.65,130.52c-.76-.79-1.79-.58-2.7.1-.72.48-1.85.58-1.21-2.14.6-2.56,2.8-6.66,3.11-7.47.44-1-.15-2.34-2-2.53a3.49,3.49,0,0,0-2.37.8,5.3,5.3,0,0,0-4.33-1.82c-3.47-.07-8.19,2.62-11,6.88a23.54,23.54,0,0,1-6.13,6.3,2.43,2.43,0,0,1-2,.62c-1.13-.42-.78-2,1.51-4.64,3.75-4.23,4.8-7.45,2.67-9.35-1.53-1.27-3.95-1.5-6.39-.25a17.35,17.35,0,0,0-5.5,4c3.46-7.1,7.71-15.36,10.61-20,1.3-2.14,1.26-4-.55-4.33s-3.31.55-4.59,3.27c-3.12,6.37-5.62,12.09-8.57,18.42l0,0c-1.92,3.91-5.46,9.33-10.15,12.4a2.67,2.67,0,0,1-2,.58c-1.2-.41-.88-2,1.46-4.61,3.71-4.32,4.78-7.52,2.63-9.37-1.46-1.31-3.88-1.43-6.37-.29a20.49,20.49,0,0,0-6.45,4.94c1.43-2.13,1.31-4.09-.05-4.58-1.78-.57-2.74.15-4.48,4.93-.83,2.37-3.18,6.85-6.55,8.35-.75.37-2.11.52-1.54-2.13s2.84-6.71,3.13-7.51c.46-1-.1-2.33-1.94-2.48a2.94,2.94,0,0,0-2.39.75,5.67,5.67,0,0,0-4.38-1.87c-4.52.06-11.21,4.49-12.9,11.27a6,6,0,0,1-4.26,2.4c-3.47.09-5.33-3-6.13-6.48,7.75-1.54,15.12-5.91,16.46-12.69,1.35-6.43-3-12-11-11.88-10.93.24-18.33,8.17-20.05,11.5-1.21,2.32-.13,4.18,1.51,4.08a4.22,4.22,0,0,0,3.82-3c1.08-3.67,5.2-7.85,12.3-8.46,5.29-.42,8.33,2.89,7.81,7.35-.59,5.27-5.83,8.34-11.2,9.72l-.05-.39c0-1.57-.13-2.71-1.21-3.09a1.35,1.35,0,0,0-.91-1.28c-.89-.46-2-.34-3.18,1.21-3.72,5.78-5.55,8.47-9.22,13.29-1.65,2.21-1.72,4.47-.08,5,1.81.45,3.36-.22,4.76-2.5,1.84-3,3.38-5.81,4.77-8.26.37,0,.73,0,1.12-.08.21,4.88,2.65,11.53,9.32,10.42a10.36,10.36,0,0,0,5.45-2.89c.94,2.68,4.16,3.34,7.4,1.83a19.94,19.94,0,0,0,6.39-5c-2,5,1.82,8.68,7.66,3.93a6.26,6.26,0,0,1,.68-.63c-2.9,6.13-6.49,13-8.69,17.64-1.45,3.18-.81,4.61,1.08,4.76s3-.81,4.11-3.49c1.57-3.62,4.49-11.53,9.11-20.55,4.47-8.69,10.15-10.77,11.24-10s-.45,2.64-3,5.9c-2.8,3.47-2.66,6.39-1.31,7.58,1.71,1.54,4.71,1.8,8.44-1.2a23.23,23.23,0,0,0,2.66-2.49c-1.23,2.36-1.62,4.13-.08,4.76a2.51,2.51,0,0,0,3.29-1.49,36.53,36.53,0,0,1,6-9.28c3.3-3.55,6.33-4.29,7-3.75,1.2.74-.46,2.62-3,5.83-2.79,3.53-2.68,6.45-1.28,7.66,1.66,1.51,4.69,1.77,8.47-1.29a15.62,15.62,0,0,0,2.51-2.31c.22,4,3.95,5.12,7.61,3.37a19.55,19.55,0,0,0,6.43-4.92c-1.69,5.2,3.05,8.3,7.87,4,1.16-1,1.4-2.47.82-3m-83-.62c-1.93,1.24-4.45.72-3.3-2.74,1.1-3.24,4-5.18,5.71-5.12a3.37,3.37,0,0,1,3.25,2.06,17.26,17.26,0,0,1-5.66,5.8m69,.07c-1.9,1.19-4.46.69-3.26-2.77s3.75-5.2,5.52-5.22a3.9,3.9,0,0,1,3.41,2.19,19.74,19.74,0,0,1-5.67,5.8"/><path class="cls-3" d="M431.8,129.35a2.89,2.89,0,0,0-2.89,2.92,3,3,0,0,0,2.84,2.82,2.82,2.82,0,0,0,2.83-2.85,2.86,2.86,0,0,0-2.78-2.89"/></g><path class="cls-3" d="M457,118.2v-1.91c0-2.07-1-3-2-3-1.7,0-2.25.89-2.25,2.72V128.5c0,1.83.55,2.72,2.25,2.72,1.53,0,2-.89,2-2.49v-2.95h4.21v2.82c0,3.47-2,6.29-6.25,6.29-4.42,0-6.46-2.82-6.46-6.29V116c0-3.47,2-6.29,6.46-6.29,4.21,0,6.25,3.06,6.25,6.73v1.81Z"/><path class="cls-3" d="M465.49,116c0-3.47,2-6.29,6.46-6.29s6.46,2.82,6.46,6.29V128.6c0,3.47-2,6.29-6.46,6.29s-6.46-2.82-6.46-6.29Zm4.21,12.55c0,1.83.55,2.72,2.25,2.72s2.24-.89,2.24-2.72V116.05c0-1.83-.54-2.72-2.24-2.72s-2.25.89-2.25,2.72Z"/><path class="cls-3" d="M486.7,134.55h-4.21V110h5.91c4.73,0,7.14,2,7.14,7.24,0,4-1.53,5.55-3,6.19l3.57,11.12h-4.28l-3-10.17a20,20,0,0,1-2.18.1Zm0-13.53h1.5c2.28,0,3.13-.85,3.13-3.78s-.85-3.77-3.13-3.77h-1.5Z"/><path class="cls-3" d="M499.49,134.55V110h11.28v3.67H503.7V120h5.44v3.67H503.7v7.21h7.55v3.67Z"/><path class="cls-3" d="M530.63,118.2v-1.91c0-2.07-1-3-2-3-1.7,0-2.24.89-2.24,2.72V128.5c0,1.83.54,2.72,2.24,2.72,1.53,0,2-.89,2-2.49v-2.95h4.21v2.82c0,3.47-2,6.29-6.25,6.29-4.42,0-6.46-2.82-6.46-6.29V116c0-3.47,2-6.29,6.46-6.29,4.22,0,6.25,3.06,6.25,6.73v1.81Z"/><path class="cls-3" d="M539.13,116c0-3.47,2-6.29,6.46-6.29s6.46,2.82,6.46,6.29V128.6c0,3.47-2,6.29-6.46,6.29s-6.46-2.82-6.46-6.29Zm4.22,12.55c0,1.83.54,2.72,2.24,2.72s2.24-.89,2.24-2.72V116.05c0-1.83-.54-2.72-2.24-2.72s-2.24.89-2.24,2.72Z"/><path class="cls-3" d="M555.93,134.55V110h4.21v20.88h6.63v3.67Z"/><path class="cls-3" d="M569.15,134.55V110h4.22v20.88H580v3.67Z"/><path class="cls-3" d="M582.58,134.55V110h11.29v3.67H586.8V120h5.44v3.67H586.8v7.21h7.54v3.67Z"/><path class="cls-3" d="M606.18,118.2v-1.91c0-2.07-1-3-2-3-1.7,0-2.25.89-2.25,2.72V128.5c0,1.83.55,2.72,2.25,2.72,1.53,0,2-.89,2-2.49v-2.95h4.21v2.82c0,3.47-2,6.29-6.25,6.29-4.42,0-6.46-2.82-6.46-6.29V116c0-3.47,2-6.29,6.46-6.29,4.21,0,6.25,3.06,6.25,6.73v1.81Z"/><path class="cls-3" d="M617.12,113.67H613V110h12.38v3.67h-4.08v20.88h-4.22Z"/><path class="cls-3" d="M628.48,134.55V110h4.22v24.55Z"/><path class="cls-3" d="M637.35,116c0-3.47,2-6.29,6.46-6.29s6.46,2.82,6.46,6.29V128.6c0,3.47-2,6.29-6.46,6.29s-6.46-2.82-6.46-6.29Zm4.22,12.55c0,1.83.54,2.72,2.24,2.72s2.25-.89,2.25-2.72V116.05c0-1.83-.55-2.72-2.25-2.72s-2.24.89-2.24,2.72Z"/><path class="cls-3" d="M654.35,134.55V110h3.91l5.14,14h.07V110h3.8v24.55H663.6l-5.37-15.34h-.07v15.34Z"/></svg>