<svg id="english" xmlns="http://www.w3.org/2000/svg" viewBox="0 0 970 250"><defs><style>.cls-1{fill:#fff;}</style></defs><title>970x250img2</title><path class="cls-1" d="M273.43,97h-4.3V93.13h13V97h-4.3v22h-4.43Z"/><path class="cls-1" d="M284.77,119V93.13h4.44v10.52h4.72V93.13h4.44V119h-4.44V107.51h-4.72V119Z"/><path class="cls-1" d="M302.66,119V93.13h11.88V97H307.1v6.66h5.72v3.86H307.1v7.59H315V119Z"/><path class="cls-1" d="M334.58,99.5c-.18-2.22-1.36-2.87-2.36-2.87-1.43,0-2.22.93-2.22,2.54,0,4.4,9,6.52,9,13.53,0,4.26-2.87,6.62-7,6.62s-6.47-3.29-6.65-7.16l4.22-.61c.18,2.62,1.22,3.9,2.65,3.9a2.27,2.27,0,0,0,2.57-2.36c0-5.11-9-6.47-9-13.88,0-4.12,2.5-6.44,6.87-6.44,3.61,0,5.76,2.61,6.15,6.26Z"/><path class="cls-1" d="M345,97h-4.3V93.13h13V97h-4.3v22H345Z"/><path class="cls-1" d="M358.24,119H354l4.76-25.83h5.51L369,119h-4.29l-.79-5.72H359Zm1.43-9.59h3.58L361.5,98.28h-.08Z"/><path class="cls-1" d="M371.55,119V93.13h4.12l5.4,14.77h.07V93.13h4V119h-3.87l-5.65-16.14h-.07V119Z"/><path class="cls-1" d="M389.44,93.13H396c4.58,0,7,2.5,7,7.8v10.23c0,5.3-2.43,7.8-7,7.8h-6.59Zm4.44,22.18h1.54c2.36,0,3.18-.89,3.18-3.61V100.39c0-2.72-.82-3.61-3.18-3.61h-1.54Z"/><path class="cls-1" d="M409.91,119h-4.29l4.76-25.83h5.51L420.65,119h-4.3l-.79-5.72H410.7Zm1.43-9.59h3.58l-1.75-11.09h-.07Z"/><path class="cls-1" d="M427.66,119h-4.44V93.13h6.23c5,0,7.51,2.11,7.51,7.62,0,4.15-1.61,5.83-3.11,6.51l3.76,11.7H433.1L430,108.26a21.68,21.68,0,0,1-2.29.11Zm0-14.24h1.57c2.4,0,3.3-.9,3.3-4s-.9-4-3.3-4h-1.57Z"/><path class="cls-1" d="M441.11,93.13h6.59c4.58,0,7,2.5,7,7.8v10.23c0,5.3-2.43,7.8-7,7.8h-6.59Zm4.44,22.18h1.54c2.36,0,3.18-.89,3.18-3.61V100.39c0-2.72-.82-3.61-3.18-3.61h-1.54Z"/><path class="cls-1" d="M467.56,119V93.13H472V119Z"/><path class="cls-1" d="M476.9,119V93.13H481l5.41,14.77h.07V93.13h4V119h-3.86L481,102.82h-.08V119Z"/><path class="cls-1" d="M502.73,119V93.13h6.37c5.48,0,8,2.11,8,7.62s-2.54,7.62-8,7.62h-1.93V119Zm4.44-14.24h1.72c2.9,0,3.79-.9,3.79-4s-.89-4-3.79-4h-1.72Z"/><path class="cls-1" d="M520.62,119V93.13H532.5V97h-7.44v6.66h5.73v3.86h-5.73v7.59H533V119Z"/><path class="cls-1" d="M541,119h-4.44V93.13h6.23c5,0,7.51,2.11,7.51,7.62,0,4.15-1.61,5.83-3.11,6.51L550.9,119h-4.51l-3.15-10.7a21.68,21.68,0,0,1-2.29.11Zm0-14.24h1.57c2.4,0,3.29-.9,3.29-4s-.89-4-3.29-4H541Z"/><path class="cls-1" d="M554.4,119V93.13h12.38V97h-7.94v6.66h5.94v3.86h-5.94V119Z"/><path class="cls-1" d="M570.29,99.39c0-3.65,2.15-6.62,6.8-6.62s6.8,3,6.8,6.62V112.7c0,3.65-2.15,6.62-6.8,6.62s-6.8-3-6.8-6.62Zm4.44,13.2c0,1.93.57,2.86,2.36,2.86s2.36-.93,2.36-2.86V99.5c0-1.94-.57-2.87-2.36-2.87s-2.36.93-2.36,2.87Z"/><path class="cls-1" d="M592.62,119h-4.44V93.13h6.23c5,0,7.51,2.11,7.51,7.62,0,4.15-1.61,5.83-3.11,6.51l3.76,11.7h-4.51l-3.15-10.7a21.68,21.68,0,0,1-2.29.11Zm0-14.24h1.57c2.4,0,3.3-.9,3.3-4s-.9-4-3.3-4h-1.57Z"/><path class="cls-1" d="M623.86,93.13V119H620V98.78h-.07l-4,20.18h-2.14l-4-20.18h-.07V119h-3.87V93.13h5.84l3.14,15.1h.08L618,93.13Z"/><path class="cls-1" d="M630.51,119h-4.29L631,93.13h5.51L641.25,119H637l-.79-5.72H631.3Zm1.44-9.59h3.57l-1.75-11.09h-.07Z"/><path class="cls-1" d="M643.83,119V93.13h4.11l5.4,14.77h.08V93.13h4V119h-3.86l-5.66-16.14h-.07V119Z"/><path class="cls-1" d="M670.66,101.75v-2c0-2.19-1-3.12-2.14-3.12-1.79,0-2.37.93-2.37,2.87v13.09c0,1.93.58,2.86,2.37,2.86,1.61,0,2.14-.93,2.14-2.61v-3.11h4.44v3c0,3.65-2.15,6.62-6.58,6.62-4.66,0-6.8-3-6.8-6.62V99.39c0-3.65,2.14-6.62,6.8-6.62,4.43,0,6.58,3.22,6.58,7.08v1.9Z"/><path class="cls-1" d="M679.61,119V93.13h11.88V97h-7.44v6.66h5.72v3.86h-5.72v7.59H692V119Z"/><path class="cls-1" d="M699.43,119,697,123.4h-1.89l1.75-4.44h-1.61v-4.22h4.22Z"/><path class="cls-1" d="M357.64,135.55v-2c0-2.18-1-3.11-2.14-3.11-1.79,0-2.36.93-2.36,2.86v13.1c0,1.93.57,2.86,2.36,2.86,1.61,0,2.14-.93,2.14-2.61v-3.11h4.44v3c0,3.64-2.15,6.62-6.58,6.62-4.65,0-6.8-3-6.8-6.62V133.18c0-3.65,2.15-6.62,6.8-6.62,4.43,0,6.58,3.23,6.58,7.09v1.9Z"/><path class="cls-1" d="M366.59,133.18c0-3.65,2.15-6.62,6.8-6.62s6.8,3,6.8,6.62V146.5c0,3.64-2.15,6.62-6.8,6.62s-6.8-3-6.8-6.62ZM371,146.39c0,1.93.57,2.86,2.36,2.86s2.36-.93,2.36-2.86v-13.1c0-1.93-.57-2.86-2.36-2.86s-2.36.93-2.36,2.86Z"/><path class="cls-1" d="M402.27,126.92v25.84H398.4V132.58h-.07l-4,20.18h-2.15l-4-20.18h-.07v20.18h-3.87V126.92h5.83l3.15,15.1h.07l3.15-15.1Z"/><path class="cls-1" d="M406.35,152.76V126.92h12.38v3.87h-8v6.65h5.94v3.87h-5.94v11.45Z"/><path class="cls-1" d="M422.23,133.18c0-3.65,2.15-6.62,6.8-6.62s6.8,3,6.8,6.62V146.5c0,3.64-2.15,6.62-6.8,6.62s-6.8-3-6.8-6.62Zm4.44,13.21c0,1.93.57,2.86,2.36,2.86s2.36-.93,2.36-2.86v-13.1c0-1.93-.57-2.86-2.36-2.86s-2.36.93-2.36,2.86Z"/><path class="cls-1" d="M444.56,152.76h-4.44V126.92h6.23c5,0,7.52,2.11,7.52,7.62,0,4.15-1.61,5.84-3.12,6.52l3.76,11.7H450l-3.15-10.7a21.68,21.68,0,0,1-2.29.11Zm0-14.24h1.58c2.39,0,3.29-.9,3.29-4s-.9-4-3.29-4h-1.58Z"/><path class="cls-1" d="M460.59,130.79H456.3v-3.87h13v3.87H465v22h-4.44Z"/><path class="cls-1" d="M482.46,152.76h-4.3l4.76-25.84h5.51l4.76,25.84H488.9l-.79-5.73h-4.87Zm1.43-9.59h3.58l-1.76-11.1h-.07Z"/><path class="cls-1" d="M495.77,152.76V126.92h4.11l5.41,14.78h.07V126.92h4v25.84H505.5l-5.65-16.14h-.07v16.14Z"/><path class="cls-1" d="M513.66,126.92h6.58c4.58,0,7,2.51,7,7.8V145c0,5.29-2.44,7.8-7,7.8h-6.58Zm4.44,22.19h1.53c2.37,0,3.19-.9,3.19-3.62v-11.3c0-2.72-.82-3.62-3.19-3.62H518.1Z"/><path class="cls-1" d="M548.55,126.92h4.36l-5.4,25.84h-4.44l-5.4-25.84H542l3.22,17.93h.07Z"/><path class="cls-1" d="M556.64,152.76h-4.29l4.75-25.84h5.52l4.75,25.84h-4.29l-.79-5.73h-4.86Zm1.43-9.59h3.58l-1.75-11.1h-.08Z"/><path class="cls-1" d="M569.74,152.76V126.92h4.43v22h7v3.87Z"/><path class="cls-1" d="M583.87,126.92h4.44v19.5c0,1.9.75,2.83,2.36,2.83s2.36-.93,2.36-2.83v-19.5h4.44v19.32c0,4.44-2.58,6.88-6.8,6.88s-6.8-2.44-6.8-6.88Z"/><path class="cls-1" d="M601.76,152.76V126.92h11.88v3.87H606.2v6.65h5.72v3.87H606.2v7.58h7.94v3.87Z"/><path class="cls-1" d="M617.36,152.76v-4.22h4.23v4.22Z"/></svg>