<svg id="english" xmlns="http://www.w3.org/2000/svg" xmlns:xlink="http://www.w3.org/1999/xlink" viewBox="0 0 970 250"><defs><style>.cls-1{fill:none;}.cls-2{clip-path:url(#clip-path);}.cls-3,.cls-4{fill:#fff;}.cls-4{stroke:#fff;stroke-width:2.72px;}</style><clipPath id="clip-path"><rect class="cls-1" x="11.49" y="92.32" width="173.19" height="73.36"/></clipPath></defs><title>970x250img3</title><g class="cls-2"><path class="cls-3" d="M149,132.14c-.68-.7-1.6-.51-2.42.1-.63.43-1.64.51-1.07-1.92.53-2.28,2.5-5.95,2.78-6.67.39-.92-.14-2.09-1.81-2.26a3.12,3.12,0,0,0-2.11.71,4.76,4.76,0,0,0-3.88-1.63c-3.09,0-7.31,2.35-9.81,6.15a20.92,20.92,0,0,1-5.47,5.63,2.14,2.14,0,0,1-1.8.55c-1-.37-.69-1.74,1.35-4.14,3.35-3.78,4.29-6.65,2.39-8.35a5.15,5.15,0,0,0-5.71-.23,15.33,15.33,0,0,0-4.91,3.55c3.09-6.34,6.88-13.72,9.47-17.9,1.17-1.91,1.13-3.58-.49-3.86s-3,.49-4.1,2.92c-2.79,5.69-5,10.8-7.66,16.45l0,0c-1.72,3.49-4.88,8.34-9.07,11.08a2.4,2.4,0,0,1-1.77.52c-1.07-.37-.79-1.82,1.31-4.12,3.31-3.86,4.27-6.72,2.34-8.37-1.3-1.18-3.46-1.28-5.68-.26a18.35,18.35,0,0,0-5.77,4.41c1.28-1.9,1.18-3.65,0-4.09-1.59-.51-2.45.13-4,4.4-.73,2.12-2.83,6.12-5.84,7.46-.68.33-1.9.47-1.38-1.9a58.32,58.32,0,0,1,2.79-6.71c.41-.89-.09-2.08-1.73-2.22a2.64,2.64,0,0,0-2.13.67,5.14,5.14,0,0,0-3.92-1.67c-4,.06-10,4-11.52,10.07a5.35,5.35,0,0,1-3.81,2.15c-3.1.07-4.77-2.66-5.48-5.8,6.93-1.37,13.51-5.27,14.71-11.33,1.21-5.75-2.72-10.77-9.85-10.62-9.77.22-16.38,7.3-17.92,10.28-1.08,2.07-.12,3.73,1.35,3.65a3.79,3.79,0,0,0,3.42-2.72c1-3.27,4.64-7,11-7.55,4.73-.38,7.45,2.58,7,6.57-.52,4.7-5.21,7.45-10,8.68l0-.34c0-1.41-.12-2.43-1.08-2.77a1.22,1.22,0,0,0-.81-1.14c-.8-.41-1.83-.31-2.85,1.08-3.32,5.16-4.95,7.56-8.23,11.88-1.48,2-1.54,4-.07,4.48s3-.2,4.25-2.24c1.64-2.64,3-5.19,4.26-7.37.33,0,.66,0,1-.08.19,4.36,2.36,10.31,8.33,9.31A9.21,9.21,0,0,0,67.27,134c.85,2.39,3.72,3,6.61,1.63a17.66,17.66,0,0,0,5.71-4.43c-1.78,4.46,1.63,7.76,6.85,3.51a4.79,4.79,0,0,1,.61-.55c-2.59,5.47-5.8,11.62-7.77,15.75-1.29,2.85-.72,4.12,1,4.25s2.64-.72,3.67-3.11c1.4-3.24,4-10.3,8.14-18.36,4-7.76,9.07-9.62,10-8.94s-.4,2.36-2.66,5.27c-2.5,3.11-2.38,5.71-1.17,6.78,1.52,1.37,4.21,1.6,7.54-1.07a21.61,21.61,0,0,0,2.38-2.23c-1.1,2.11-1.45,3.69-.08,4.25a2.24,2.24,0,0,0,2.94-1.33,33.08,33.08,0,0,1,5.4-8.29c3-3.17,5.66-3.83,6.23-3.35,1.07.66-.42,2.34-2.69,5.21-2.48,3.15-2.39,5.76-1.13,6.84,1.47,1.35,4.19,1.59,7.56-1.15a13.52,13.52,0,0,0,2.24-2.06c.2,3.57,3.54,4.57,6.8,3a17.1,17.1,0,0,0,5.74-4.39c-1.5,4.65,2.73,7.41,7,3.56,1-.93,1.25-2.21.73-2.67m-74.16-.55c-1.72,1.11-4,.65-2.94-2.45,1-2.89,3.54-4.62,5.1-4.57a3,3,0,0,1,2.91,1.84,15.55,15.55,0,0,1-5.07,5.18m61.66.06c-1.7,1.06-4,.62-2.91-2.47s3.35-4.65,4.93-4.67a3.5,3.5,0,0,1,3,2,17.58,17.58,0,0,1-5.07,5.18"/><path class="cls-3" d="M155.35,131.1a2.57,2.57,0,0,0-2.57,2.61,2.63,2.63,0,0,0,2.54,2.51,2.51,2.51,0,0,0,2.52-2.54,2.56,2.56,0,0,0-2.49-2.58"/></g><rect class="cls-4" x="839.98" y="57.55" width="49.08" height="134.9" transform="translate(738.33 989.35) rotate(-89.92)"/><path d="M828,121.74c-.11-1.37-.84-1.77-1.46-1.77-.88,0-1.37.57-1.37,1.57,0,2.71,5.57,4,5.57,8.34,0,2.63-1.77,4.09-4.33,4.09s-4-2-4.11-4.42l2.61-.37c.11,1.61.75,2.4,1.63,2.4a1.41,1.41,0,0,0,1.59-1.46c0-3.15-5.56-4-5.56-8.56,0-2.54,1.54-4,4.23-4,2.24,0,3.56,1.62,3.8,3.87Z"/><path d="M832.77,133.75v-16h2.73v6.5h2.92v-6.5h2.74v16h-2.74v-7.07H835.5v7.07Z"/><path d="M843.72,121.67a4.2,4.2,0,0,1,8.39,0v8.21a4.2,4.2,0,0,1-8.39,0Zm2.74,8.15c0,1.19.35,1.76,1.46,1.76s1.45-.57,1.45-1.76v-8.08c0-1.2-.35-1.77-1.45-1.77s-1.46.57-1.46,1.77Z"/><path d="M854.65,133.75v-16h3.93c3.38,0,4.95,1.31,4.95,4.71s-1.57,4.7-4.95,4.7h-1.19v6.54Zm2.74-8.79h1.06c1.79,0,2.34-.55,2.34-2.45s-.55-2.45-2.34-2.45h-1.06Z"/><path d="M870.42,133.75v-16H873l3.34,9.12h0V117.8h2.47v16h-2.38l-3.49-10h0v10Z"/><path d="M881.38,121.67a4.2,4.2,0,0,1,8.39,0v8.21a4.2,4.2,0,0,1-8.39,0Zm2.74,8.15c0,1.19.35,1.76,1.45,1.76S887,131,887,129.82v-8.08c0-1.2-.35-1.77-1.46-1.77s-1.45.57-1.45,1.77Z"/><path d="M897.08,117.8h2.25L901.19,128h0l1.52-10.16h2.57l-2.81,16h-2.3l-2-10.54h-.05l-1.85,10.54H894l-3-16h2.56L895.25,128h0Z"/></svg>