<svg id="english" xmlns="http://www.w3.org/2000/svg" xmlns:xlink="http://www.w3.org/1999/xlink" viewBox="0 0 300 250"><defs><style>.cls-1{fill:none;}.cls-2{clip-path:url(#clip-path);}.cls-3{fill:#fff;}</style><clipPath id="clip-path"><rect class="cls-1" x="105.53" y="84.1" width="96.14" height="55.69"/></clipPath></defs><title>300x250img1</title><g class="cls-2"><path class="cls-3" d="M191.05,114.33a1.32,1.32,0,0,0-1.83.07c-.49.33-1.26.39-.82-1.45a34.59,34.59,0,0,1,2.11-5.06c.29-.7-.1-1.59-1.37-1.72a2.35,2.35,0,0,0-1.61.54,3.6,3.6,0,0,0-2.94-1.23c-2.35,0-5.55,1.77-7.45,4.66a16.09,16.09,0,0,1-4.15,4.28,1.68,1.68,0,0,1-1.37.42c-.76-.29-.52-1.33,1-3.15,2.54-2.87,3.25-5,1.81-6.34a3.91,3.91,0,0,0-4.33-.17,11.77,11.77,0,0,0-3.73,2.69c2.35-4.81,5.23-10.41,7.19-13.58.89-1.45.86-2.72-.37-2.94s-2.25.38-3.11,2.22c-2.12,4.32-3.82,8.2-5.82,12.49l0,0c-1.3,2.66-3.7,6.33-6.88,8.42a1.83,1.83,0,0,1-1.34.39c-.81-.28-.6-1.38,1-3.13,2.51-2.93,3.24-5.1,1.78-6.35-1-.9-2.63-1-4.32-.2a13.79,13.79,0,0,0-4.37,3.35c1-1.45.89-2.77,0-3.1-1.21-.39-1.86.09-3,3.34-.56,1.61-2.16,4.64-4.44,5.66-.52.25-1.44.35-1.05-1.44a43.87,43.87,0,0,1,2.12-5.1c.31-.68-.07-1.58-1.31-1.68a2,2,0,0,0-1.62.51,3.86,3.86,0,0,0-3-1.27c-3.06,0-7.6,3-8.74,7.64a4,4,0,0,1-2.89,1.63c-2.36.06-3.62-2-4.16-4.4,5.26-1,10.25-4,11.16-8.6.92-4.36-2.06-8.17-7.48-8.06a16.93,16.93,0,0,0-13.6,7.8c-.82,1.58-.09,2.84,1,2.77a2.87,2.87,0,0,0,2.59-2.06c.73-2.48,3.53-5.32,8.34-5.74,3.59-.28,5.65,2,5.29,5-.39,3.57-3.95,5.66-7.59,6.59l0-.26c0-1.06-.09-1.84-.82-2.1a.92.92,0,0,0-.62-.86c-.6-.31-1.39-.24-2.16.81-2.52,3.93-3.76,5.75-6.25,9-1.12,1.5-1.17,3,0,3.4s2.28-.15,3.22-1.69c1.25-2,2.3-4,3.24-5.6.25,0,.5,0,.76-.06.14,3.31,1.79,7.82,6.32,7.07a7,7,0,0,0,3.69-2c.64,1.81,2.83,2.26,5,1.24a13.51,13.51,0,0,0,4.34-3.37c-1.36,3.39,1.23,5.89,5.19,2.67a3.4,3.4,0,0,1,.47-.42c-2,4.15-4.4,8.82-5.9,12-1,2.17-.55,3.13.73,3.23s2-.55,2.79-2.36c1.06-2.46,3-7.82,6.18-13.94,3-5.89,6.88-7.3,7.62-6.78s-.31,1.79-2,4c-1.9,2.36-1.8,4.33-.89,5.14,1.16,1,3.2,1.22,5.73-.81a16.26,16.26,0,0,0,1.8-1.69c-.84,1.6-1.1,2.8-.05,3.23a1.71,1.71,0,0,0,2.23-1,24.37,24.37,0,0,1,4.1-6.29c2.23-2.42,4.29-2.92,4.72-2.55.82.5-.31,1.78-2,4-1.89,2.4-1.81,4.38-.86,5.2,1.12,1,3.18,1.2,5.74-.88a10.17,10.17,0,0,0,1.7-1.56c.15,2.71,2.69,3.47,5.17,2.28a12.92,12.92,0,0,0,4.35-3.34c-1.14,3.53,2.07,5.63,5.34,2.71.79-.71.95-1.68.56-2m-56.29-.42c-1.31.84-3,.49-2.24-1.86.75-2.19,2.69-3.51,3.88-3.47a2.29,2.29,0,0,1,2.2,1.4,11.74,11.74,0,0,1-3.84,3.93m46.8,0c-1.29.81-3,.47-2.21-1.88s2.54-3.52,3.74-3.54a2.68,2.68,0,0,1,2.32,1.49,13.5,13.5,0,0,1-3.85,3.93"/><path class="cls-3" d="M195.9,113.54a2,2,0,0,0-2,2,2,2,0,0,0,1.93,1.91,1.89,1.89,0,0,0,1.91-1.93,1.94,1.94,0,0,0-1.88-2"/></g><path class="cls-3" d="M95.37,145.86v-1.1c0-1.2-.55-1.71-1.18-1.71-1,0-1.29.51-1.29,1.57v7.2c0,1.06.31,1.57,1.29,1.57s1.18-.51,1.18-1.44v-1.71h2.44v1.64a3.68,3.68,0,0,1-7.35,0v-7.32a3.41,3.41,0,0,1,3.73-3.63c2.44,0,3.62,1.76,3.62,3.89v1Z"/><path class="cls-3" d="M100.29,144.56a3.74,3.74,0,0,1,7.47,0v7.32a3.74,3.74,0,0,1-7.47,0Zm2.44,7.26c0,1.06.31,1.57,1.3,1.57s1.29-.51,1.29-1.57v-7.2c0-1.06-.31-1.57-1.29-1.57s-1.3.51-1.3,1.57Z"/><path class="cls-3" d="M112.56,155.32h-2.44v-14.2h3.42c2.74,0,4.13,1.16,4.13,4.19,0,2.28-.88,3.2-1.71,3.58l2.07,6.43h-2.48l-1.73-5.88a11.57,11.57,0,0,1-1.26.06Zm0-7.83h.87c1.31,0,1.81-.49,1.81-2.18s-.5-2.18-1.81-2.18h-.87Z"/><path class="cls-3" d="M120,155.32v-14.2h6.52v2.13h-4.09v3.65h3.15V149h-3.15v4.16h4.37v2.13Z"/><path class="cls-3" d="M138,145.86v-1.1c0-1.2-.55-1.71-1.18-1.71-1,0-1.3.51-1.3,1.57v7.2c0,1.06.31,1.57,1.3,1.57S138,152.88,138,152v-1.71h2.43v1.64a3.37,3.37,0,0,1-3.61,3.63,3.41,3.41,0,0,1-3.74-3.63v-7.32a3.41,3.41,0,0,1,3.74-3.63c2.43,0,3.61,1.76,3.61,3.89v1Z"/><path class="cls-3" d="M142.89,144.56a3.74,3.74,0,0,1,7.47,0v7.32a3.74,3.74,0,0,1-7.47,0Zm2.43,7.26c0,1.06.32,1.57,1.3,1.57s1.3-.51,1.3-1.57v-7.2c0-1.06-.32-1.57-1.3-1.57s-1.3.51-1.3,1.57Z"/><path class="cls-3" d="M152.6,155.32v-14.2H155v12.07h3.83v2.13Z"/><path class="cls-3" d="M160.25,155.32v-14.2h2.44v12.07h3.83v2.13Z"/><path class="cls-3" d="M168,155.32v-14.2h6.52v2.13h-4.09v3.65h3.15V149h-3.15v4.16h4.37v2.13Z"/><path class="cls-3" d="M181.66,145.86v-1.1c0-1.2-.55-1.71-1.18-1.71-1,0-1.29.51-1.29,1.57v7.2c0,1.06.31,1.57,1.29,1.57s1.18-.51,1.18-1.44v-1.71h2.44v1.64a3.68,3.68,0,0,1-7.35,0v-7.32a3.41,3.41,0,0,1,3.73-3.63c2.44,0,3.62,1.76,3.62,3.89v1Z"/><path class="cls-3" d="M188,143.25h-2.36v-2.13h7.15v2.13h-2.36v12.07H188Z"/><path class="cls-3" d="M194.56,155.32v-14.2H197v14.2Z"/><path class="cls-3" d="M199.7,144.56a3.74,3.74,0,0,1,7.47,0v7.32a3.74,3.74,0,0,1-7.47,0Zm2.44,7.26c0,1.06.31,1.57,1.29,1.57s1.3-.51,1.3-1.57v-7.2c0-1.06-.31-1.57-1.3-1.57s-1.29.51-1.29,1.57Z"/><path class="cls-3" d="M209.53,155.32v-14.2h2.26l3,8.12h0v-8.12H217v14.2h-2.12l-3.11-8.87h0v8.87Z"/></svg>