<svg id="english" xmlns="http://www.w3.org/2000/svg" viewBox="0 0 300 250"><defs><style>.cls-1{fill:#fff;}</style></defs><title>300x250img2</title><path class="cls-1" d="M28.55,111.53H26v-2.3h7.75v2.3H31.19V124.6H28.55Z"/><path class="cls-1" d="M35.3,124.6V109.23h2.64v6.26h2.81v-6.26h2.64V124.6H40.75v-6.81H37.94v6.81Z"/><path class="cls-1" d="M46,124.6V109.23H53v2.3H48.59v4H52v2.3h-3.4v4.51h4.72v2.3Z"/><path class="cls-1" d="M64.94,113c-.11-1.32-.81-1.7-1.41-1.7-.85,0-1.32.55-1.32,1.51,0,2.62,5.37,3.88,5.37,8,0,2.53-1.71,3.94-4.18,3.94s-3.85-2-4-4.26L62,120.2c.1,1.55.72,2.32,1.57,2.32a1.35,1.35,0,0,0,1.53-1.41c0-3-5.36-3.85-5.36-8.26,0-2.45,1.49-3.83,4.09-3.83,2.15,0,3.42,1.55,3.66,3.73Z"/><path class="cls-1" d="M71.11,111.53H68.56v-2.3H76.3v2.3H73.75V124.6H71.11Z"/><path class="cls-1" d="M79,124.6H76.46l2.83-15.37h3.28L85.4,124.6H82.84l-.46-3.4h-2.9Zm.85-5.7H82l-1-6.6h0Z"/><path class="cls-1" d="M86.93,124.6V109.23h2.45L92.59,118h0v-8.79H95V124.6h-2.3L89.36,115h0v9.6Z"/><path class="cls-1" d="M97.58,109.23h3.91c2.73,0,4.18,1.49,4.18,4.64V120c0,3.15-1.45,4.64-4.18,4.64H97.58Zm2.64,13.2h.91c1.41,0,1.9-.53,1.9-2.15v-6.73c0-1.61-.49-2.15-1.9-2.15h-.91Z"/><path class="cls-1" d="M109.75,124.6H107.2L110,109.23h3.28l2.83,15.37h-2.55l-.47-3.4h-2.9Zm.86-5.7h2.12l-1-6.6h0Z"/><path class="cls-1" d="M120.31,124.6h-2.64V109.23h3.71c3,0,4.47,1.26,4.47,4.54,0,2.47-1,3.47-1.85,3.87l2.23,7h-2.68l-1.87-6.36c-.35,0-.9.06-1.37.06Zm0-8.47h.94c1.43,0,2-.53,2-2.36s-.53-2.37-2-2.37h-.94Z"/><path class="cls-1" d="M128.32,109.23h3.91c2.73,0,4.18,1.49,4.18,4.64V120c0,3.15-1.45,4.64-4.18,4.64h-3.91Zm2.64,13.2h.91c1.41,0,1.9-.53,1.9-2.15v-6.73c0-1.61-.49-2.15-1.9-2.15H131Z"/><path class="cls-1" d="M144.05,124.6V109.23h2.64V124.6Z"/><path class="cls-1" d="M149.61,124.6V109.23h2.44l3.22,8.79h0v-8.79h2.39V124.6h-2.3L152,115h0v9.6Z"/><path class="cls-1" d="M165,124.6V109.23h3.79c3.25,0,4.76,1.26,4.76,4.54s-1.51,4.53-4.76,4.53h-1.15v6.3Zm2.64-8.47h1c1.72,0,2.25-.53,2.25-2.36s-.53-2.37-2.25-2.37h-1Z"/><path class="cls-1" d="M175.62,124.6V109.23h7.07v2.3h-4.43v4h3.41v2.3h-3.41v4.51H183v2.3Z"/><path class="cls-1" d="M187.71,124.6h-2.64V109.23h3.71c3,0,4.47,1.26,4.47,4.54,0,2.47-1,3.47-1.86,3.87l2.24,7H191l-1.88-6.36a13.46,13.46,0,0,1-1.36.06Zm0-8.47h.94c1.43,0,2-.53,2-2.36s-.53-2.37-2-2.37h-.94Z"/><path class="cls-1" d="M195.72,124.6V109.23h7.36v2.3h-4.72v4h3.53v2.3h-3.53v6.81Z"/><path class="cls-1" d="M205.17,113a4,4,0,0,1,8.09,0v7.92a4,4,0,0,1-8.09,0Zm2.64,7.85c0,1.15.34,1.71,1.4,1.71s1.41-.56,1.41-1.71V113c0-1.15-.34-1.7-1.41-1.7s-1.4.55-1.4,1.7Z"/><path class="cls-1" d="M218.45,124.6h-2.64V109.23h3.71c3,0,4.47,1.26,4.47,4.54,0,2.47-1,3.47-1.85,3.87l2.23,7h-2.68l-1.87-6.36c-.35,0-.9.06-1.37.06Zm0-8.47h.94c1.43,0,2-.53,2-2.36s-.53-2.37-2-2.37h-.94Z"/><path class="cls-1" d="M237,109.23V124.6h-2.3v-12h0l-2.39,12H231l-2.39-12h0v12h-2.3V109.23h3.47l1.87,9h0l1.88-9Z"/><path class="cls-1" d="M241,124.6h-2.56l2.83-15.37h3.28l2.83,15.37h-2.55l-.47-3.4h-2.89Zm.85-5.7H244l-1-6.6h-.05Z"/><path class="cls-1" d="M248.92,124.6V109.23h2.45l3.21,8.79h0v-8.79H257V124.6h-2.3l-3.37-9.6h0v9.6Z"/><path class="cls-1" d="M264.88,114.36v-1.19c0-1.3-.59-1.85-1.27-1.85-1.07,0-1.41.55-1.41,1.7v7.79c0,1.15.34,1.71,1.41,1.71s1.27-.56,1.27-1.56v-1.85h2.64v1.77a3.65,3.65,0,0,1-3.91,3.94,3.7,3.7,0,0,1-4.05-3.94V113a3.7,3.7,0,0,1,4.05-3.94c2.64,0,3.91,1.92,3.91,4.22v1.12Z"/><path class="cls-1" d="M270.21,124.6V109.23h7.06v2.3h-4.42v4h3.4v2.3h-3.4v4.51h4.72v2.3Z"/><path class="cls-1" d="M282,124.6l-1.47,2.64H279.4l1.05-2.64h-1v-2.51H282Z"/><path class="cls-1" d="M78.66,136.9v-1.19c0-1.3-.6-1.85-1.28-1.85-1.06,0-1.4.55-1.4,1.7v7.79c0,1.15.34,1.71,1.4,1.71s1.28-.56,1.28-1.56v-1.85H81.3v1.77a4,4,0,0,1-8,0V135.5a3.69,3.69,0,0,1,4-3.94c2.64,0,3.92,1.92,3.92,4.22v1.12Z"/><path class="cls-1" d="M84,135.5a4,4,0,0,1,8.09,0v7.92a4,4,0,0,1-8.09,0Zm2.64,7.85c0,1.15.34,1.71,1.41,1.71s1.4-.56,1.4-1.71v-7.79c0-1.15-.34-1.7-1.4-1.7s-1.41.55-1.41,1.7Z"/><path class="cls-1" d="M105.2,131.77v15.37h-2.3v-12h0l-2.38,12H99.2l-2.38-12h0v12H94.48V131.77H98l1.87,9h0l1.87-9Z"/><path class="cls-1" d="M107.63,147.14V131.77H115v2.3h-4.73v4h3.53v2.3h-3.53v6.81Z"/><path class="cls-1" d="M117.08,135.5a4,4,0,0,1,8.09,0v7.92a4,4,0,0,1-8.09,0Zm2.64,7.85c0,1.15.34,1.71,1.41,1.71s1.4-.56,1.4-1.71v-7.79c0-1.15-.34-1.7-1.4-1.7s-1.41.55-1.41,1.7Z"/><path class="cls-1" d="M130.37,147.14h-2.64V131.77h3.7c3,0,4.47,1.26,4.47,4.54,0,2.47-1,3.47-1.85,3.87l2.24,7H133.6l-1.87-6.36a13.46,13.46,0,0,1-1.36.06Zm0-8.47h.94c1.42,0,1.95-.53,1.95-2.36s-.53-2.36-1.95-2.36h-.94Z"/><path class="cls-1" d="M139.91,134.07h-2.56v-2.3h7.75v2.3h-2.55v13.07h-2.64Z"/><path class="cls-1" d="M152.91,147.14h-2.55l2.83-15.37h3.28l2.83,15.37h-2.56l-.46-3.4h-2.9Zm.85-5.7h2.13l-1-6.6h0Z"/><path class="cls-1" d="M160.83,147.14V131.77h2.45l3.21,8.8h0v-8.8h2.38v15.37h-2.3l-3.36-9.6h0v9.6Z"/><path class="cls-1" d="M171.48,131.77h3.91c2.73,0,4.18,1.49,4.18,4.65v6.08c0,3.15-1.45,4.64-4.18,4.64h-3.91Zm2.64,13.2H175c1.41,0,1.9-.53,1.9-2.15V136.1c0-1.62-.49-2.15-1.9-2.15h-.91Z"/><path class="cls-1" d="M192.23,131.77h2.6l-3.22,15.37H189l-3.22-15.37h2.6l1.91,10.67h0Z"/><path class="cls-1" d="M197.05,147.14h-2.56l2.83-15.37h3.28l2.83,15.37h-2.55l-.47-3.4h-2.89Zm.85-5.7H200l-1.05-6.6h0Z"/><path class="cls-1" d="M204.84,147.14V131.77h2.64v13.07h4.15v2.3Z"/><path class="cls-1" d="M213.25,131.77h2.64v11.61c0,1.12.44,1.68,1.4,1.68s1.41-.56,1.41-1.68V131.77h2.64v11.5a4,4,0,1,1-8.09,0Z"/><path class="cls-1" d="M223.89,147.14V131.77H231v2.3h-4.43v4h3.41v2.3h-3.41v4.51h4.73v2.3Z"/><path class="cls-1" d="M233.17,147.14v-2.51h2.52v2.51Z"/></svg>