<svg id="english" xmlns="http://www.w3.org/2000/svg" xmlns:xlink="http://www.w3.org/1999/xlink" viewBox="0 0 300 250"><defs><style>.cls-1{fill:none;}.cls-2,.cls-4{fill:#fff;}.cls-2{stroke:#fff;stroke-width:1.28px;}.cls-3{clip-path:url(#clip-path);}</style><clipPath id="clip-path"><rect class="cls-1" x="97" y="83.74" width="116" height="49.14"/></clipPath></defs><title>300x250img3</title><rect class="cls-2" x="141.1" y="115.4" width="28.85" height="79.3" transform="translate(0.26 310.35) rotate(-89.92)"/><path d="M133.55,153.12c-.07-.8-.5-1-.86-1-.52,0-.81.34-.81.92,0,1.6,3.28,2.37,3.28,4.92a2.3,2.3,0,0,1-2.55,2.4,2.48,2.48,0,0,1-2.42-2.6l1.54-.22c.06.95.44,1.42,1,1.42a.82.82,0,0,0,.93-.86c0-1.86-3.27-2.35-3.27-5a2.2,2.2,0,0,1,2.49-2.34,2.25,2.25,0,0,1,2.24,2.27Z"/><path d="M136.32,160.19v-9.38h1.61v3.82h1.72v-3.82h1.61v9.38h-1.61V156h-1.72v4.16Z"/><path d="M142.76,153.08a2.47,2.47,0,0,1,4.94,0v4.84a2.47,2.47,0,0,1-4.94,0Zm1.61,4.8c0,.7.21,1,.86,1s.86-.34.86-1v-4.76c0-.7-.21-1-.86-1s-.86.34-.86,1Z"/><path d="M149.19,160.19v-9.38h2.31c2,0,2.91.76,2.91,2.77s-.92,2.76-2.91,2.76h-.7v3.85ZM150.8,155h.62c1.06,0,1.38-.33,1.38-1.44s-.32-1.45-1.38-1.45h-.62Z"/><path d="M158.46,160.19v-9.38H160l2,5.36h0v-5.36h1.46v9.38H162l-2.05-5.86h0v5.86Z"/><path d="M164.9,153.08a2.47,2.47,0,0,1,4.94,0v4.84a2.47,2.47,0,0,1-4.94,0Zm1.61,4.8c0,.7.21,1,.86,1s.86-.34.86-1v-4.76c0-.7-.21-1-.86-1s-.86.34-.86,1Z"/><path d="M174.13,150.81h1.33l1.09,6h0l.89-6H179l-1.65,9.38H176l-1.17-6.2h0l-1.09,6.2h-1.35l-1.78-9.38h1.51l1,6h0Z"/><g class="cls-3"><path class="cls-4" d="M189.09,110.41a1.16,1.16,0,0,0-1.62.06c-.43.29-1.11.35-.72-1.28a29.83,29.83,0,0,1,1.86-4.47c.26-.61-.09-1.4-1.21-1.51a2.08,2.08,0,0,0-1.42.47,3.2,3.2,0,0,0-2.59-1.09c-2.08,0-4.9,1.57-6.57,4.12a14.3,14.3,0,0,1-3.67,3.77,1.46,1.46,0,0,1-1.21.37c-.67-.25-.46-1.17.91-2.77,2.24-2.53,2.87-4.46,1.6-5.6a3.46,3.46,0,0,0-3.83-.15,10.47,10.47,0,0,0-3.29,2.38c2.07-4.25,4.62-9.19,6.35-12,.78-1.28.76-2.4-.33-2.59s-2,.33-2.74,2c-1.87,3.81-3.37,7.23-5.14,11v0a19.36,19.36,0,0,1-6.08,7.43c-.41.26-.9.46-1.18.34-.71-.24-.53-1.21.88-2.75,2.21-2.59,2.85-4.5,1.57-5.61a3.49,3.49,0,0,0-3.81-.17,12,12,0,0,0-3.86,3c.85-1.27.78-2.44,0-2.74-1.07-.34-1.64.09-2.68,3-.5,1.42-1.9,4.1-3.92,5-.46.22-1.27.31-.93-1.28a38.75,38.75,0,0,1,1.88-4.49c.27-.6-.06-1.39-1.16-1.49a1.8,1.8,0,0,0-1.43.45,3.43,3.43,0,0,0-2.62-1.12c-2.71,0-6.71,2.69-7.72,6.75a3.58,3.58,0,0,1-2.55,1.43c-2.08.06-3.2-1.77-3.67-3.88,4.64-.91,9-3.53,9.85-7.59.81-3.85-1.82-7.21-6.6-7.11a14.92,14.92,0,0,0-12,6.89c-.73,1.38-.08,2.5.9,2.44a2.54,2.54,0,0,0,2.29-1.82c.65-2.19,3.11-4.69,7.36-5.06,3.17-.25,5,1.73,4.67,4.4-.35,3.15-3.49,5-6.7,5.81l0-.22c0-.94-.08-1.63-.72-1.86a.81.81,0,0,0-.55-.76c-.53-.27-1.22-.21-1.9.72-2.23,3.46-3.32,5.07-5.52,8-1,1.32-1,2.67,0,3s2-.13,2.84-1.5c1.1-1.77,2-3.48,2.85-4.94.23,0,.45,0,.68,0,.13,2.92,1.58,6.9,5.58,6.24a6.24,6.24,0,0,0,3.25-1.73c.57,1.6,2.5,2,4.43,1.09a11.71,11.71,0,0,0,3.83-3c-1.2,3,1.09,5.2,4.58,2.36a3.41,3.41,0,0,1,.41-.38c-1.73,3.67-3.88,7.79-5.2,10.55-.87,1.91-.49,2.76.64,2.85s1.77-.48,2.47-2.08c.93-2.17,2.68-6.9,5.45-12.3,2.67-5.2,6.07-6.44,6.72-6s-.27,1.59-1.78,3.53c-1.68,2.08-1.59,3.83-.79,4.54,1,.92,2.82,1.08,5-.71a13.51,13.51,0,0,0,1.6-1.5c-.74,1.42-1,2.48-.05,2.85a1.51,1.51,0,0,0,2-.89,21.78,21.78,0,0,1,3.61-5.55c2-2.13,3.79-2.57,4.17-2.25.72.44-.27,1.57-1.79,3.49-1.67,2.11-1.61,3.86-.77,4.59,1,.9,2.81,1.06,5.07-.78a8.94,8.94,0,0,0,1.5-1.38c.13,2.4,2.37,3.07,4.56,2a11.73,11.73,0,0,0,3.84-3c-1,3.11,1.83,5,4.71,2.39.7-.63.84-1.48.5-1.79M139.41,110c-1.15.74-2.66.43-2-1.64s2.37-3.1,3.42-3.06a2,2,0,0,1,1.94,1.23,10.26,10.26,0,0,1-3.39,3.47m41.3,0c-1.14.71-2.67.42-2-1.65s2.25-3.12,3.3-3.13a2.34,2.34,0,0,1,2,1.31,11.6,11.6,0,0,1-3.39,3.47"/><path class="cls-4" d="M193.36,109.71a1.73,1.73,0,0,0-1.73,1.75,1.77,1.77,0,0,0,1.7,1.68,1.67,1.67,0,0,0,1.69-1.7,1.71,1.71,0,0,0-1.66-1.73"/></g></svg>