<svg id="english" xmlns="http://www.w3.org/2000/svg" xmlns:xlink="http://www.w3.org/1999/xlink" viewBox="0 0 300 600"><defs><style>.cls-1{fill:none;}.cls-2{clip-path:url(#clip-path);}.cls-3{fill:#fff;}</style><clipPath id="clip-path"><rect class="cls-1" x="59" y="248.37" width="182" height="77.09"/></clipPath></defs><title>300x600img1</title><g class="cls-2"><path class="cls-3" d="M203.48,290.21c-.72-.74-1.68-.54-2.54.1-.67.45-1.73.54-1.13-2s2.63-6.26,2.92-7c.4-1-.14-2.2-1.9-2.38a3.28,3.28,0,0,0-2.22.75,5,5,0,0,0-4.07-1.71c-3.26-.06-7.69,2.46-10.31,6.46a22.32,22.32,0,0,1-5.75,5.92,2.29,2.29,0,0,1-1.9.58c-1.06-.39-.73-1.84,1.42-4.35,3.52-4,4.51-7,2.51-8.79-1.43-1.19-3.7-1.41-6-.23a16.18,16.18,0,0,0-5.16,3.73c3.25-6.67,7.24-14.42,10-18.81,1.22-2,1.18-3.76-.52-4.06s-3.11.52-4.3,3.07c-2.94,6-5.29,11.35-8.06,17.29l0,0c-1.81,3.68-5.13,8.77-9.53,11.65a2.5,2.5,0,0,1-1.86.54c-1.12-.39-.83-1.9,1.37-4.33,3.48-4.06,4.49-7.06,2.47-8.79-1.37-1.24-3.64-1.34-6-.28a19.18,19.18,0,0,0-6,4.64c1.34-2,1.23-3.84-.05-4.3-1.67-.53-2.57.14-4.21,4.63-.77,2.23-3,6.43-6.14,7.84-.72.34-2,.48-1.45-2a63,63,0,0,1,2.93-7.06c.43-.93-.09-2.18-1.82-2.32a2.76,2.76,0,0,0-2.24.7,5.36,5.36,0,0,0-4.11-1.76c-4.24.07-10.53,4.23-12.11,10.59a5.58,5.58,0,0,1-4,2.25c-3.26.08-5-2.79-5.76-6.09,7.28-1.44,14.2-5.54,15.46-11.91,1.26-6-2.86-11.31-10.36-11.15-10.26.23-17.21,7.67-18.83,10.8-1.13,2.18-.12,3.92,1.42,3.83a4,4,0,0,0,3.59-2.85c1-3.44,4.88-7.37,11.55-7.94,5-.4,7.82,2.71,7.33,6.9-.55,4.95-5.47,7.83-10.51,9.12l0-.35c0-1.48-.13-2.55-1.14-2.91a1.27,1.27,0,0,0-.85-1.2c-.84-.43-1.93-.32-3,1.13-3.49,5.43-5.21,7.95-8.65,12.49-1.56,2.07-1.62,4.19-.08,4.7,1.7.43,3.16-.2,4.47-2.34,1.73-2.78,3.17-5.46,4.47-7.76.36,0,.7,0,1.06-.08.2,4.59,2.48,10.84,8.75,9.79a9.67,9.67,0,0,0,5.11-2.71c.89,2.51,3.91,3.13,6.95,1.71a18.52,18.52,0,0,0,6-4.66c-1.88,4.69,1.71,8.16,7.19,3.7a5.51,5.51,0,0,1,.65-.59c-2.73,5.75-6.1,12.21-8.17,16.56-1.36,3-.76,4.33,1,4.47s2.77-.77,3.86-3.28c1.47-3.4,4.21-10.83,8.55-19.3,4.2-8.15,9.53-10.1,10.55-9.38s-.42,2.48-2.8,5.54c-2.62,3.26-2.49,6-1.23,7.12,1.61,1.44,4.43,1.68,7.93-1.13a22.06,22.06,0,0,0,2.5-2.34c-1.16,2.22-1.52,3.88-.08,4.47a2.36,2.36,0,0,0,3.09-1.4,34.32,34.32,0,0,1,5.68-8.71c3.09-3.34,5.94-4,6.54-3.53,1.12.7-.44,2.47-2.82,5.48-2.62,3.31-2.52,6.06-1.2,7.19,1.55,1.42,4.4,1.67,7.95-1.21a15,15,0,0,0,2.36-2.16c.2,3.75,3.71,4.8,7.14,3.15a17.86,17.86,0,0,0,6-4.62c-1.58,4.89,2.87,7.8,7.39,3.75,1.1-1,1.32-2.32.78-2.81m-77.93-.58c-1.81,1.16-4.18.68-3.1-2.57,1-3,3.72-4.86,5.37-4.81a3.16,3.16,0,0,1,3.05,1.94,16.22,16.22,0,0,1-5.32,5.44m64.79.07c-1.78,1.11-4.18.65-3.06-2.6s3.52-4.88,5.18-4.91a3.65,3.65,0,0,1,3.2,2.07,18.44,18.44,0,0,1-5.32,5.44"/><path class="cls-3" d="M210.18,289.12a2.7,2.7,0,0,0-2.7,2.74,2.76,2.76,0,0,0,2.66,2.64,2.64,2.64,0,0,0,2.66-2.67,2.69,2.69,0,0,0-2.62-2.71"/></g><path class="cls-3" d="M78.66,334.9v-1.34c0-1.46-.67-2.08-1.44-2.08-1.19,0-1.57.62-1.57,1.91v8.75c0,1.29.38,1.91,1.57,1.91s1.44-.62,1.44-1.74v-2.08h3v2a4.1,4.1,0,0,1-4.4,4.42,4.15,4.15,0,0,1-4.54-4.42v-8.89a4.15,4.15,0,0,1,4.54-4.42c3,0,4.4,2.15,4.4,4.73v1.27Z"/><path class="cls-3" d="M84.63,333.32a4.15,4.15,0,0,1,4.54-4.42c3.11,0,4.54,2,4.54,4.42v8.89c0,2.44-1.43,4.42-4.54,4.42a4.15,4.15,0,0,1-4.54-4.42Zm3,8.82c0,1.29.38,1.91,1.57,1.91s1.58-.62,1.58-1.91v-8.75c0-1.29-.38-1.91-1.58-1.91s-1.57.62-1.57,1.91Z"/><path class="cls-3" d="M99.55,346.39h-3V329.14h4.16c3.32,0,5,1.41,5,5.09,0,2.77-1.08,3.89-2.08,4.35l2.51,7.81h-3l-2.1-7.14a14,14,0,0,1-1.53.07Zm0-9.51h1c1.6,0,2.2-.59,2.2-2.65s-.6-2.65-2.2-2.65h-1Z"/><path class="cls-3" d="M108.53,346.39V329.14h7.94v2.58h-5v4.45h3.82v2.58H111.5v5.06h5.3v2.58Z"/><path class="cls-3" d="M130.42,334.9v-1.34c0-1.46-.67-2.08-1.43-2.08-1.2,0-1.58.62-1.58,1.91v8.75c0,1.29.38,1.91,1.58,1.91s1.43-.62,1.43-1.74v-2.08h3v2a4.11,4.11,0,0,1-4.4,4.42c-3.11,0-4.54-2-4.54-4.42v-8.89c0-2.44,1.43-4.42,4.54-4.42,3,0,4.4,2.15,4.4,4.73v1.27Z"/><path class="cls-3" d="M136.4,333.32c0-2.44,1.43-4.42,4.54-4.42a4.15,4.15,0,0,1,4.54,4.42v8.89a4.15,4.15,0,0,1-4.54,4.42c-3.11,0-4.54-2-4.54-4.42Zm3,8.82c0,1.29.38,1.91,1.58,1.91s1.58-.62,1.58-1.91v-8.75c0-1.29-.39-1.91-1.58-1.91s-1.58.62-1.58,1.91Z"/><path class="cls-3" d="M148.21,346.39V329.14h3v14.67h4.66v2.58Z"/><path class="cls-3" d="M157.5,346.39V329.14h3v14.67h4.66v2.58Z"/><path class="cls-3" d="M166.94,346.39V329.14h7.93v2.58h-5v4.45h3.83v2.58H169.9v5.06h5.31v2.58Z"/><path class="cls-3" d="M183.53,334.9v-1.34c0-1.46-.67-2.08-1.44-2.08-1.19,0-1.58.62-1.58,1.91v8.75c0,1.29.39,1.91,1.58,1.91s1.44-.62,1.44-1.74v-2.08h3v2a4.1,4.1,0,0,1-4.4,4.42,4.15,4.15,0,0,1-4.54-4.42v-8.89a4.15,4.15,0,0,1,4.54-4.42c3,0,4.4,2.15,4.4,4.73v1.27Z"/><path class="cls-3" d="M191.22,331.72h-2.87v-2.58h8.7v2.58h-2.86v14.67h-3Z"/><path class="cls-3" d="M199.2,346.39V329.14h3v17.25Z"/><path class="cls-3" d="M205.44,333.32A4.15,4.15,0,0,1,210,328.9c3.11,0,4.54,2,4.54,4.42v8.89c0,2.44-1.43,4.42-4.54,4.42a4.15,4.15,0,0,1-4.54-4.42Zm3,8.82c0,1.29.38,1.91,1.57,1.91s1.58-.62,1.58-1.91v-8.75c0-1.29-.38-1.91-1.58-1.91s-1.57.62-1.57,1.91Z"/><path class="cls-3" d="M217.39,346.39V329.14h2.75l3.61,9.87h.05v-9.87h2.67v17.25h-2.58l-3.77-10.77h-.05v10.77Z"/></svg>