<svg id="english" xmlns="http://www.w3.org/2000/svg" viewBox="0 0 300 600"><defs><style>.cls-1{fill:#fff;}</style></defs><title>300x600img2</title><path class="cls-1" d="M90.07,268.84H87.19v-2.59h8.74v2.59H93.05v14.74h-3Z"/><path class="cls-1" d="M97.68,283.58V266.25h3v7.05h3.16v-7.05h3v17.33h-3V275.9h-3.16v7.68Z"/><path class="cls-1" d="M109.68,283.58V266.25h8v2.59h-5v4.46h3.84v2.6h-3.84V281H118v2.59Z"/><path class="cls-1" d="M131.09,270.52c-.12-1.49-.92-1.92-1.59-1.92-1,0-1.49.62-1.49,1.7,0,3,6.05,4.37,6.05,9.08,0,2.85-1.92,4.44-4.7,4.44s-4.35-2.21-4.47-4.8l2.84-.41c.12,1.75.81,2.62,1.77,2.62a1.53,1.53,0,0,0,1.73-1.59c0-3.43-6-4.34-6-9.31,0-2.76,1.68-4.32,4.61-4.32,2.43,0,3.87,1.75,4.13,4.2Z"/><path class="cls-1" d="M138.05,268.84h-2.88v-2.59h8.73v2.59H141v14.74h-3Z"/><path class="cls-1" d="M147,283.58h-2.88l3.2-17.33H151l3.2,17.33h-2.89l-.52-3.84h-3.27Zm1-6.44h2.4l-1.17-7.43h0Z"/><path class="cls-1" d="M155.88,283.58V266.25h2.76l3.63,9.91h0v-9.91H165v17.33h-2.59l-3.79-10.83h-.05v10.83Z"/><path class="cls-1" d="M167.88,266.25h4.42c3.07,0,4.7,1.68,4.7,5.23v6.87c0,3.55-1.63,5.23-4.7,5.23h-4.42Zm3,14.88h1c1.58,0,2.14-.6,2.14-2.42v-7.59c0-1.82-.56-2.42-2.14-2.42h-1Z"/><path class="cls-1" d="M181.61,283.58h-2.88l3.19-17.33h3.7l3.19,17.33h-2.88l-.53-3.84h-3.26Zm1-6.44H185l-1.18-7.43h0Z"/><path class="cls-1" d="M193.51,283.58h-3V266.25h4.17c3.34,0,5,1.41,5,5.11,0,2.78-1.08,3.91-2.08,4.37l2.52,7.85h-3l-2.11-7.18a13.9,13.9,0,0,1-1.54.07Zm0-9.55h1.06c1.61,0,2.21-.61,2.21-2.67s-.6-2.66-2.21-2.66h-1.06Z"/><path class="cls-1" d="M202.54,266.25H207c3.08,0,4.71,1.68,4.71,5.23v6.87c0,3.55-1.63,5.23-4.71,5.23h-4.41Zm3,14.88h1c1.59,0,2.14-.6,2.14-2.42v-7.59c0-1.82-.55-2.42-2.14-2.42h-1Z"/><path class="cls-1" d="M72.54,307.58V290.25h3v17.33Z"/><path class="cls-1" d="M78.81,307.58V290.25h2.76l3.62,9.91h0v-9.91h2.69v17.33h-2.6l-3.79-10.83h-.05v10.83Z"/><path class="cls-1" d="M96.13,307.58V290.25h4.28c3.67,0,5.37,1.41,5.37,5.11s-1.7,5.11-5.37,5.11h-1.3v7.11Zm3-9.55h1.15c1.95,0,2.55-.61,2.55-2.67s-.6-2.66-2.55-2.66H99.11Z"/><path class="cls-1" d="M108.13,307.58V290.25h8v2.59h-5v4.46H115v2.6h-3.84V305h5.33v2.59Z"/><path class="cls-1" d="M121.76,307.58h-3V290.25H123c3.34,0,5,1.41,5,5.11,0,2.78-1.08,3.91-2.09,4.37l2.52,7.85h-3l-2.11-7.18a13.9,13.9,0,0,1-1.54.07Zm0-9.55h1.06c1.61,0,2.21-.61,2.21-2.67s-.6-2.66-2.21-2.66h-1.06Z"/><path class="cls-1" d="M130.79,307.58V290.25h8.3v2.59h-5.33v4.46h4v2.6h-4v7.68Z"/><path class="cls-1" d="M141.44,294.45c0-2.45,1.44-4.44,4.56-4.44s4.56,2,4.56,4.44v8.93c0,2.45-1.44,4.44-4.56,4.44s-4.56-2-4.56-4.44Zm3,8.85c0,1.3.38,1.93,1.58,1.93s1.59-.63,1.59-1.93v-8.78c0-1.3-.39-1.92-1.59-1.92s-1.58.62-1.58,1.92Z"/><path class="cls-1" d="M156.42,307.58h-3V290.25h4.18c3.34,0,5,1.41,5,5.11,0,2.78-1.08,3.91-2.09,4.37l2.52,7.85h-3L158,300.4a14,14,0,0,1-1.54.07Zm0-9.55h1.06c1.6,0,2.2-.61,2.2-2.67s-.6-2.66-2.2-2.66h-1.06Z"/><path class="cls-1" d="M177.37,290.25v17.33h-2.59V294h-.05L172,307.58H170.6L167.92,294h0v13.54h-2.59V290.25h3.91l2.11,10.13h0l2.11-10.13Z"/><path class="cls-1" d="M181.84,307.58H179l3.19-17.33h3.69l3.2,17.33h-2.88l-.53-3.84h-3.27Zm1-6.44h2.4L184,293.71H184Z"/><path class="cls-1" d="M190.76,307.58V290.25h2.76l3.63,9.91h0v-9.91h2.68v17.33h-2.59l-3.79-10.83h-.05v10.83Z"/><path class="cls-1" d="M208.76,296v-1.34c0-1.47-.67-2.09-1.44-2.09-1.2,0-1.58.62-1.58,1.92v8.78c0,1.3.38,1.93,1.58,1.93s1.44-.63,1.44-1.76v-2.09h3v2a4.12,4.12,0,0,1-4.42,4.44c-3.12,0-4.56-2-4.56-4.44v-8.93c0-2.45,1.44-4.44,4.56-4.44s4.42,2.16,4.42,4.75V296Z"/><path class="cls-1" d="M214.76,307.58V290.25h8v2.59h-5v4.46h3.84v2.6h-3.84V305h5.33v2.59Z"/><path class="cls-1" d="M228.06,307.58l-1.66,3h-1.27l1.18-3h-1.08v-2.83h2.83Z"/><path class="cls-1" d="M64.58,320v-1.34c0-1.47-.67-2.09-1.43-2.09-1.2,0-1.59.62-1.59,1.92v8.78c0,1.3.39,1.93,1.59,1.93s1.43-.63,1.43-1.76v-2.09h3v2a4.12,4.12,0,0,1-4.41,4.44c-3.13,0-4.57-2-4.57-4.44v-8.93C58.58,316,60,314,63.15,314c3,0,4.41,2.16,4.41,4.75V320Z"/><path class="cls-1" d="M70.58,318.45C70.58,316,72,314,75.15,314s4.56,2,4.56,4.44v8.93c0,2.45-1.44,4.44-4.56,4.44s-4.57-2-4.57-4.44Zm3,8.85c0,1.3.39,1.93,1.59,1.93s1.58-.63,1.58-1.93v-8.78c0-1.3-.39-1.92-1.58-1.92s-1.59.62-1.59,1.92Z"/><path class="cls-1" d="M94.51,314.25v17.33H91.92V318h0l-2.68,13.54H87.75L85.06,318h0v13.54H82.42V314.25h3.91l2.11,10.13h0l2.11-10.13Z"/><path class="cls-1" d="M97.25,331.58V314.25h8.3v2.59h-5.33v4.46h4v2.6h-4v7.68Z"/><path class="cls-1" d="M107.9,318.45c0-2.45,1.44-4.44,4.56-4.44s4.56,2,4.56,4.44v8.93c0,2.45-1.44,4.44-4.56,4.44s-4.56-2-4.56-4.44Zm3,8.85c0,1.3.38,1.93,1.58,1.93s1.59-.63,1.59-1.93v-8.78c0-1.3-.39-1.92-1.59-1.92s-1.58.62-1.58,1.92Z"/><path class="cls-1" d="M122.88,331.58h-3V314.25h4.18c3.34,0,5,1.41,5,5.11,0,2.78-1.08,3.91-2.09,4.37l2.52,7.85h-3l-2.11-7.18a14,14,0,0,1-1.54.07Zm0-9.55h1.06c1.6,0,2.2-.61,2.2-2.67s-.6-2.66-2.2-2.66h-1.06Z"/><path class="cls-1" d="M133.63,316.84h-2.88v-2.59h8.74v2.59h-2.88v14.74h-3Z"/><path class="cls-1" d="M148.29,331.58h-2.87l3.19-17.33h3.69l3.2,17.33h-2.88l-.53-3.84h-3.27Zm1-6.44h2.41l-1.18-7.43h0Z"/><path class="cls-1" d="M157.22,331.58V314.25H160l3.63,9.91h0v-9.91h2.68v17.33h-2.59L160,320.75h-.05v10.83Z"/><path class="cls-1" d="M169.22,314.25h4.42c3.07,0,4.7,1.68,4.7,5.23v6.87c0,3.55-1.63,5.23-4.7,5.23h-4.42Zm3,14.88h1c1.58,0,2.14-.6,2.14-2.42v-7.59c0-1.82-.56-2.42-2.14-2.42h-1Z"/><path class="cls-1" d="M192.62,314.25h2.93l-3.62,17.33h-3l-3.62-17.33h2.92l2.16,12h.05Z"/><path class="cls-1" d="M198.05,331.58h-2.88l3.19-17.33h3.7l3.19,17.33h-2.88l-.53-3.84h-3.26Zm1-6.44h2.4l-1.18-7.43h0Z"/><path class="cls-1" d="M206.83,331.58V314.25h3V329h4.68v2.59Z"/><path class="cls-1" d="M216.31,314.25h3v13.08c0,1.27.5,1.9,1.58,1.9s1.59-.63,1.59-1.9V314.25h3v13c0,3-1.73,4.61-4.56,4.61s-4.56-1.63-4.56-4.61Z"/><path class="cls-1" d="M228.31,331.58V314.25h8v2.59h-5v4.46h3.84v2.6h-3.84V329h5.33v2.59Z"/><path class="cls-1" d="M238.77,331.58v-2.83h2.84v2.83Z"/></svg>