<svg id="english" xmlns="http://www.w3.org/2000/svg" xmlns:xlink="http://www.w3.org/1999/xlink" viewBox="0 0 300 600"><defs><style>.cls-1{fill:none;}.cls-2,.cls-4{fill:#fff;}.cls-2{stroke:#fff;stroke-width:2.3px;}.cls-3{clip-path:url(#clip-path);}</style><clipPath id="clip-path"><rect class="cls-1" x="77" y="32.08" width="146" height="61.84"/></clipPath></defs><title>300x600img3</title><rect class="cls-2" x="129.04" y="475.16" width="41.91" height="115.19" transform="translate(-382.96 682.02) rotate(-89.92)"/><path d="M118.07,530c-.09-1.17-.72-1.51-1.24-1.51-.76,0-1.17.49-1.17,1.34,0,2.32,4.75,3.43,4.75,7.13,0,2.24-1.51,3.49-3.7,3.49s-3.41-1.74-3.5-3.77l2.22-.33c.09,1.38.64,2.06,1.4,2.06a1.19,1.19,0,0,0,1.35-1.24c0-2.7-4.75-3.42-4.75-7.32,0-2.17,1.32-3.4,3.62-3.4,1.91,0,3,1.38,3.25,3.3Z"/><path d="M122.11,540.22V526.6h2.34v5.55h2.49V526.6h2.33v13.62h-2.33v-6h-2.49v6Z"/><path d="M131.46,529.9a3.59,3.59,0,0,1,7.17,0v7a3.59,3.59,0,0,1-7.17,0Zm2.34,7c0,1,.3,1.51,1.24,1.51s1.25-.49,1.25-1.51V530c0-1-.3-1.51-1.25-1.51s-1.24.49-1.24,1.51Z"/><path d="M140.8,540.22V526.6h3.35c2.89,0,4.23,1.11,4.23,4s-1.34,4-4.23,4h-1v5.58Zm2.34-7.51h.9c1.53,0,2-.47,2-2.09s-.47-2.09-2-2.09h-.9Z"/><path d="M154.26,540.22V526.6h2.17l2.85,7.79h0V526.6h2.11v13.62h-2l-3-8.51h0v8.51Z"/><path d="M163.62,529.9a3.58,3.58,0,0,1,7.16,0v7a3.58,3.58,0,0,1-7.16,0Zm2.34,7c0,1,.3,1.51,1.24,1.51s1.25-.49,1.25-1.51V530c0-1-.31-1.51-1.25-1.51S166,528.94,166,530Z"/><path d="M177,526.6H179l1.59,8.68h0l1.3-8.68h2.19l-2.39,13.62h-2l-1.7-9h0l-1.58,9h-2l-2.58-13.62H174l1.43,8.68h0Z"/><g class="cls-3"><path class="cls-4" d="M192.9,65.65c-.57-.6-1.35-.44-2,.08-.54.36-1.39.43-.9-1.62a38.94,38.94,0,0,1,2.34-5.62c.32-.77-.12-1.76-1.53-1.91a2.66,2.66,0,0,0-1.78.6,4,4,0,0,0-3.26-1.37c-2.61-.05-6.17,2-8.27,5.18a17.69,17.69,0,0,1-4.62,4.75,1.84,1.84,0,0,1-1.52.47c-.85-.32-.58-1.48,1.15-3.49,2.82-3.19,3.61-5.61,2-7a4.36,4.36,0,0,0-4.82-.19,13.29,13.29,0,0,0-4.14,3c2.61-5.34,5.81-11.56,8-15.08,1-1.61,1-3-.41-3.26s-2.5.41-3.46,2.46c-2.35,4.8-4.23,9.1-6.46,13.87l0,0c-1.44,3-4.11,7-7.64,9.34a2,2,0,0,1-1.49.44c-.9-.31-.67-1.53,1.1-3.47,2.79-3.26,3.6-5.67,2-7.06-1.1-1-2.92-1.07-4.8-.22a15.47,15.47,0,0,0-4.86,3.72c1.08-1.6,1-3.08,0-3.45-1.35-.43-2.07.11-3.38,3.71-.62,1.79-2.39,5.17-4.93,6.29-.57.28-1.59.39-1.16-1.6a52,52,0,0,1,2.35-5.66c.35-.75-.07-1.75-1.46-1.87a2.27,2.27,0,0,0-1.8.57,4.26,4.26,0,0,0-3.29-1.41c-3.41.05-8.45,3.39-9.72,8.49a4.49,4.49,0,0,1-3.21,1.81c-2.61.06-4-2.24-4.62-4.89,5.84-1.15,11.39-4.45,12.4-9.55,1-4.85-2.29-9.08-8.31-8.95a18.78,18.78,0,0,0-15.1,8.66c-.91,1.75-.1,3.15,1.14,3.08a3.19,3.19,0,0,0,2.88-2.29c.81-2.76,3.92-5.91,9.26-6.37,4-.32,6.28,2.18,5.88,5.54-.44,4-4.39,6.28-8.43,7.32l0-.29c0-1.19-.1-2-.91-2.33a1,1,0,0,0-.69-1c-.67-.35-1.54-.26-2.39.9-2.8,4.36-4.18,6.38-6.94,10-1.25,1.66-1.3,3.36-.06,3.77s2.53-.16,3.58-1.88c1.38-2.22,2.54-4.38,3.59-6.22.28,0,.55,0,.85-.06.16,3.68,2,8.69,7,7.85a7.89,7.89,0,0,0,4.1-2.17c.71,2,3.13,2.51,5.57,1.37a14.83,14.83,0,0,0,4.81-3.74c-1.5,3.76,1.38,6.54,5.77,3a4.24,4.24,0,0,1,.52-.47c-2.18,4.62-4.89,9.8-6.55,13.28-1.09,2.4-.61,3.48.81,3.59s2.23-.61,3.1-2.63c1.18-2.73,3.38-8.68,6.86-15.48,3.37-6.54,7.65-8.1,8.47-7.53s-.34,2-2.25,4.45c-2.1,2.61-2,4.81-1,5.71,1.29,1.16,3.56,1.35,6.36-.9a18.41,18.41,0,0,0,2-1.88c-.93,1.78-1.22,3.11-.06,3.58a1.88,1.88,0,0,0,2.47-1.12,27.67,27.67,0,0,1,4.56-7c2.48-2.67,4.76-3.23,5.24-2.83.91.56-.35,2-2.26,4.4-2.1,2.65-2,4.86-1,5.77,1.25,1.13,3.53,1.33,6.38-1a11.26,11.26,0,0,0,1.89-1.73c.16,3,3,3.85,5.73,2.53a14.37,14.37,0,0,0,4.84-3.71c-1.27,3.92,2.3,6.26,5.93,3,.88-.79,1.06-1.86.62-2.25m-62.52-.47c-1.45.94-3.34.55-2.48-2.06.83-2.44,3-3.9,4.3-3.86a2.54,2.54,0,0,1,2.45,1.55,12.92,12.92,0,0,1-4.27,4.37m52,0c-1.43.9-3.36.53-2.45-2.08s2.82-3.92,4.15-3.93a2.92,2.92,0,0,1,2.57,1.65,14.67,14.67,0,0,1-4.27,4.36"/><path class="cls-4" d="M198.28,64.77a2.17,2.17,0,0,0-2.17,2.2,2.23,2.23,0,0,0,2.14,2.12,2.11,2.11,0,0,0,2.12-2.15,2.15,2.15,0,0,0-2.09-2.17"/></g></svg>